<svg viewBox="0 0 254.955 523.983" fill="none" xmlns="http://www.w3.org/2000/svg">
<g id="Group">
<path id="Vector" d="M254.352 0.60285H0.60285V523.38H254.352V0.60285Z" fill="white" stroke="#040000" stroke-width="1.2057" stroke-miterlimit="10"/>
<path id="Vector_2" d="M254.352 0.60285H0.60285V523.38H254.352V0.60285Z" fill="white" stroke="#040000" stroke-width="1.2057" stroke-miterlimit="10"/>
<g id="Group_2">
<path id="Vector_3" d="M127.478 412.126H21.013V523.376H127.478V412.126Z" stroke="#040000" stroke-width="1.2057" stroke-miterlimit="10"/>
<path id="Vector_4" d="M118.797 422.665H87.472V446.917H118.797V422.665Z" stroke="#040000" stroke-width="1.2057" stroke-miterlimit="10"/>
<path id="Vector_5" d="M58.9194 450.896L58.9194 412.133L58.9194 450.896Z" stroke="#040000" stroke-width="1.2057" stroke-miterlimit="10"/>
<path id="Vector_6" d="M55.5097 450.888H62.3292C66.222 450.888 69.3797 454.048 69.3797 457.944C69.3797 460.747 67.1112 463.01 64.3176 463.01H53.5282C50.7276 463.01 48.4661 460.74 48.4661 457.944C48.4661 454.048 51.6238 450.888 55.5167 450.888H55.5097Z" stroke="#040000" stroke-width="1.2057" stroke-miterlimit="10"/>
<path id="Vector_7" d="M103.134 446.917V422.665" stroke="#040000" stroke-width="1.2057" stroke-miterlimit="10"/>
<path id="Vector_8" d="M206.218 478.915C206.218 477.92 205.412 477.107 204.411 477.107C203.41 477.107 202.605 477.913 202.605 478.915C202.605 479.917 203.41 480.722 204.411 480.722C205.412 480.722 206.218 479.917 206.218 478.915Z" stroke="#040000" stroke-width="1.2057" stroke-miterlimit="10"/>
<path id="Vector_9" d="M211.643 434.533H165.769V523.283H211.643V434.533Z" stroke="#040000" stroke-width="1.2057" stroke-miterlimit="10"/>
<path id="Vector_10" d="M127.477 511.048V506.767H77.1855C74.819 506.767 72.9075 508.687 72.9075 511.048H127.484H127.477Z" fill="#040000" stroke="#040000" stroke-width="1.2057" stroke-miterlimit="10"/>
<path id="Vector_11" d="M25.6341 476.958V523.38" stroke="#040000" stroke-width="1.2057" stroke-miterlimit="10"/>
<path id="Vector_12" d="M44.3353 505.419V523.378" stroke="#040000" stroke-width="1.2057" stroke-miterlimit="10"/>
<path id="Vector_13" d="M44.3353 507.256V503.458H25.6342V507.256H44.3353Z" stroke="#040000" stroke-width="1.2057" stroke-miterlimit="10"/>
<path id="Vector_14" d="M41.6888 492.298H76.1503" stroke="#040000" stroke-width="1.2057" stroke-linecap="round" stroke-linejoin="round"/>
<path id="Vector_15" d="M127.479 491.415H123.544V507.945H127.479V491.415Z" stroke="#040000" stroke-width="1.2057" stroke-miterlimit="10"/>
<path id="Vector_16" d="M60.8873 492.298H56.9525V523.29H60.8873V492.298Z" stroke="#040000" stroke-width="1.2057" stroke-miterlimit="10"/>
<path id="Vector_17" d="M127.479 511.029H72.9017V523.291H127.479V511.029Z" stroke="#040000" stroke-width="1.2057" stroke-linecap="round" stroke-linejoin="round"/>
</g>
<g id="Group_3">
<path id="Vector_18" d="M233.943 150.736H21.013V261.986H233.943V150.736Z" stroke="#040000" stroke-width="1.2057" stroke-miterlimit="10"/>
<path id="Vector_19" d="M127.478 150.736V261.986" stroke="#040000" stroke-width="1.2057" stroke-miterlimit="10"/>
<path id="Vector_20" d="M96.9726 174.197H65.6478V198.448H96.9726V174.197Z" stroke="#040000" stroke-width="1.2057" stroke-miterlimit="10"/>
<path id="Vector_21" d="M40.5469 198.451H37.2982V261.976H40.5469V198.451Z" stroke="#040000" stroke-width="1.2057" stroke-miterlimit="10"/>
<path id="Vector_22" d="M33.5313 186.337H44.3207C47.1143 186.337 49.3828 188.607 49.3828 191.403V198.459H28.4622V191.403C28.4622 188.607 30.7307 186.337 33.5243 186.337H33.5313Z" stroke="#040000" stroke-width="1.2057" stroke-miterlimit="10"/>
<path id="Vector_23" d="M88.5139 192.923H74.1048" stroke="#040000" stroke-width="1.2057" stroke-miterlimit="10"/>
<path id="Vector_24" d="M109.617 234.392H117.01C118.292 234.392 119.335 235.436 119.335 236.718V261.978H107.292V236.718C107.292 235.436 108.336 234.392 109.617 234.392Z" stroke="#040000" stroke-width="1.2057" stroke-miterlimit="10"/>
<path id="Vector_25" d="M50.5445 234.392H57.9382C59.2194 234.392 60.2627 235.436 60.2627 236.718V261.978H48.22V236.718C48.22 235.436 49.2633 234.392 50.5445 234.392Z" stroke="#040000" stroke-width="1.2057" stroke-miterlimit="10"/>
<path id="Vector_26" d="M107.292 248.966H60.263" stroke="#040000" stroke-width="1.2057" stroke-miterlimit="10"/>
<path id="Vector_27" d="M107.292 243.036H60.263" stroke="#040000" stroke-width="1.2057" stroke-miterlimit="10"/>
<path id="Vector_28" d="M47.6883 209.743C47.6883 208.748 46.8831 207.935 45.8819 207.935C44.8807 207.935 44.0755 208.741 44.0755 209.743C44.0755 210.745 44.8807 211.55 45.8819 211.55C46.8831 211.55 47.6883 210.745 47.6883 209.743Z" stroke="#040000" stroke-width="1.2057" stroke-miterlimit="10"/>
<path id="Vector_29" d="M45.8821 198.451V207.931" stroke="#040000" stroke-width="1.2057" stroke-miterlimit="10"/>
<path id="Vector_30" d="M107.293 261.98V236.719C107.293 235.43 108.336 234.393 109.617 234.393H114.589C114.35 227.568 108.763 222.103 101.888 222.103H65.6689C58.7934 222.103 53.2061 227.568 52.9681 234.393H57.9392C59.2274 234.393 60.2637 235.437 60.2637 236.719V261.98H107.293Z" stroke="#040000" stroke-width="1.2057" stroke-miterlimit="10"/>
<path id="Vector_31" d="M220.99 160.056H184.421V188.757H220.99V160.056Z" stroke="#040000" stroke-width="1.2057" stroke-miterlimit="10"/>
<path id="Vector_32" d="M202.702 160.056V188.757" stroke="#040000" stroke-width="1.2057" stroke-miterlimit="10"/>
<path id="Vector_33" d="M220.235 248.185H203.319C202.339 248.185 201.59 249.054 201.737 250.028L203.557 261.982H219.997L221.817 250.028C221.964 249.061 221.215 248.185 220.235 248.185Z" stroke="#040000" stroke-width="1.2057" stroke-miterlimit="10"/>
<path id="Vector_34" d="M211.483 248.244C211.161 248.244 210.475 243.15 203.18 242.155C200.169 241.741 196.535 238.644 196.64 235.933C196.745 233.277 200.372 231.63 206.281 236.325C208.732 238.273 212.338 242.393 212.338 248.244C212.338 248.244 209.761 241.104 217.785 236.802C220.151 235.533 226.845 234.966 226.838 237.46C226.838 239.513 225.367 240.445 218.191 242.211C215.943 242.764 212.184 244.853 212.331 248.244" fill="#040000"/>
<path id="Vector_35" d="M211.952 245.175C211.63 245.175 209.712 242.19 206.533 234.742C204.951 231.028 203.999 229.024 204.587 225.857C205.07 223.257 208.053 223.061 209.152 224.834C211.294 228.281 211.84 237.979 211.84 243.837C211.84 243.837 209.348 222.318 218.373 216.376C221.587 214.26 230.976 213.195 226.838 222.809C226.025 224.701 219.836 230.425 216.769 234.917C212.996 240.431 211.63 244.86 211.777 248.244" fill="#040000"/>
<path id="Vector_36" d="M146.928 215.61C146.928 215.61 147.895 210.944 147.356 209.521C147.356 209.521 144.849 208.246 145.234 206.396C145.234 206.396 145.353 204.273 146.816 205.086C146.816 205.086 147.937 205.857 148.357 205.471L154.252 199.726C154.252 199.726 156.142 201.155 156.255 201.849C156.255 201.849 156.486 204.238 157.452 203.586C157.452 203.586 158.726 201.617 157.76 199.887C157.76 199.887 154.917 195.746 150.247 196.11C147.594 196.313 143.645 198.681 143.085 203.972C142.994 204.827 142.469 206.515 143.085 207.405C143.085 207.405 137.834 211.21 139.885 215.617C140.151 216.185 141.348 217.663 141.348 217.663C141.348 217.663 143.659 214.58 146.935 215.617L146.928 215.61Z" fill="#040000"/>
<path id="Vector_37" d="M149.343 212.894C149.343 212.894 154.468 216.208 156.198 208.844C156.569 207.267 156.415 203.588 156.324 202.341L157.738 203C157.738 203 158.431 209.769 157.353 211.31C157.353 211.31 158.627 216.502 155.659 217.644L153.999 217.168C153.999 217.168 148.531 213.272 149.336 212.887L149.343 212.894Z" fill="#040000"/>
<path id="Vector_38" d="M146.515 214.786C146.515 214.786 147.705 218.949 151.367 218.794C152.298 218.759 153.026 218.843 153.608 215.816" stroke="#040000" stroke-width="1.2057" stroke-linecap="round" stroke-linejoin="round"/>
<path id="Vector_39" d="M152.706 237.9L152.384 244.045H143.667C141.846 244.045 140.299 242.903 139.683 241.298C139.165 238.089 141.531 235.251 141.531 235.251C141.909 235.391 142.35 235.469 142.876 235.469H150.066V237.9H152.706Z" fill="#040000"/>
<path id="Vector_40" d="M141.53 235.254C139.423 234.476 139.402 231.912 139.402 231.827V223.342C139.402 219.586 141.691 216.146 141.691 216.146" stroke="#040000" stroke-width="1.2057" stroke-linecap="round" stroke-linejoin="round"/>
<path id="Vector_41" d="M144.73 222.263C144.73 222.263 145.619 227.406 144.73 230.559C144.73 230.559 145.108 230.307 148.014 230.44C149.337 230.496 153.321 230.671 153.321 230.671V234.63" stroke="#040000" stroke-width="1.2057" stroke-linecap="round" stroke-linejoin="round"/>
<path id="Vector_42" d="M191.123 234.638H150.066V237.917H191.123V234.638Z" stroke="#040000" stroke-width="1.2057" stroke-linecap="round" stroke-linejoin="round"/>
<path id="Vector_43" d="M153.322 231.416C153.322 231.416 156.059 230.877 156.675 232.033C156.983 232.614 157.446 234.625 156.213 234.625" stroke="#040000" stroke-width="1.2057" stroke-linecap="round" stroke-linejoin="round"/>
<path id="Vector_44" d="M155.169 216.79C155.169 216.79 159.713 221.604 160.175 229.165" stroke="#040000" stroke-width="1.2057" stroke-linecap="round" stroke-linejoin="round"/>
<path id="Vector_45" d="M154.784 231.289V230.511C154.784 230 155.198 229.579 155.716 229.579H164.335C164.846 229.579 165.266 229.993 165.266 230.511C165.266 233.181 163.109 234.631 163.109 234.631" stroke="#040000" stroke-width="1.2057" stroke-linecap="round" stroke-linejoin="round"/>
<path id="Vector_46" d="M156.786 225.267V229.583" stroke="#040000" stroke-width="1.2057" stroke-linecap="round" stroke-linejoin="round"/>
<path id="Vector_47" d="M155.184 237.904L154.197 256.773L153.945 261.65H151.466L152.271 246.179L152.383 244.049L152.705 237.904H155.184Z" stroke="#040000" stroke-width="1.2057" stroke-linecap="round" stroke-linejoin="round"/>
<path id="Vector_48" d="M179.471 261.65V261.643L179.233 257.131L178.575 244.532L178.232 237.904H180.703L181.95 261.65H179.471Z" stroke="#040000" stroke-width="1.2057" stroke-linecap="round" stroke-linejoin="round"/>
<path id="Vector_49" d="M152.383 244.051L152.271 246.181H139.941C136.902 246.181 134.445 243.715 134.445 240.681V221.615H139.402V239.784C139.402 240.323 139.5 240.835 139.682 241.304C140.291 242.909 141.845 244.051 143.666 244.051H152.383Z" stroke="#040000" stroke-width="1.2057" stroke-linecap="round" stroke-linejoin="round"/>
<path id="Vector_50" d="M140.326 246.189L137.14 261.653" stroke="#040000" stroke-width="1.2057" stroke-linecap="round" stroke-linejoin="round"/>
<path id="Vector_51" d="M160.029 242.487V256.774H154.197L155.177 237.911H159.252C159.252 237.911 159.896 239.159 160.008 241.723C160.015 241.968 160.022 242.221 160.022 242.487H160.029Z" fill="#040000"/>
<path id="Vector_52" d="M166.296 245.416L164.342 256.774H160.029V251.176C160.029 251.176 161.535 246.292 160.015 241.723C159.903 239.159 159.259 237.911 159.259 237.911H164.09C164.09 237.911 166.765 240.84 166.303 245.416H166.296Z" fill="#040000"/>
<path id="Vector_53" d="M158.264 256.77C158.264 256.77 158.978 259.475 162.199 259.916C162.444 259.951 162.661 260.098 162.787 260.309L162.836 260.386C163.165 260.939 162.766 261.64 162.122 261.64H153.937L154.189 256.763H158.257L158.264 256.77Z" stroke="#040000" stroke-width="1.2057" stroke-linecap="round" stroke-linejoin="round"/>
<path id="Vector_54" d="M159.447 256.771H163.514C163.514 256.771 164.229 259.476 167.449 259.917C167.694 259.952 167.911 260.099 168.037 260.309L168.086 260.386C168.416 260.94 168.016 261.641 167.372 261.641H162.121" stroke="#040000" stroke-width="1.2057" stroke-linecap="round" stroke-linejoin="round"/>
<path id="Vector_55" d="M176.273 199.81C176.273 199.81 175.944 205.1 175.657 205.927C175.195 207.265 174.935 209.991 175.965 211.582C175.965 211.582 176.427 213.789 180.74 213.537C180.74 213.537 177.603 213.586 178.429 215.849C178.429 215.849 179.045 218.315 181.818 217.65C181.818 217.65 185.466 216.879 185.571 214.104C185.571 214.104 184.906 212.668 185.214 210.348C185.214 210.348 187.832 210.453 187.629 207.314C187.629 207.314 187.58 205.822 185.935 205.668C185.935 205.668 184.5 205.682 184.192 206.859L183.722 202.494C183.666 201.961 183.281 201.527 182.763 201.4L176.28 199.81H176.273Z" stroke="#040000" stroke-width="1.2057" stroke-linecap="round" stroke-linejoin="round"/>
<path id="Vector_56" d="M187.313 206.43C187.313 206.43 189.623 203.515 188.699 201.203C188.699 201.203 188.363 197.755 181.523 197.447H176.937C176.937 197.447 175.445 197.398 175.193 198.631C175.193 198.631 174.913 199.479 176.271 199.815" stroke="#040000" stroke-width="1.2057" stroke-linecap="round" stroke-linejoin="round"/>
<path id="Vector_57" d="M185.57 214.107C185.57 214.107 194.455 215.34 194.973 223.566V226.705C194.973 226.705 188.86 226.6 188.503 228.142L188.146 222.536" stroke="#040000" stroke-width="1.2057" stroke-linecap="round" stroke-linejoin="round"/>
<path id="Vector_58" d="M178.336 214.786C178.336 214.786 172.259 215.648 172.259 224.589" stroke="#040000" stroke-width="1.2057" stroke-linecap="round" stroke-linejoin="round"/>
<path id="Vector_59" d="M189.261 227.422C189.261 227.422 189.072 229.685 186.649 229.58C185.361 229.524 181.951 229.58 181.951 229.58C181.951 229.58 179.305 228.705 179.2 229.938C179.2 229.938 175.727 229.973 175.671 231.29C175.622 232.39 175.447 234.331 178.583 234.625H192.657C192.657 234.625 195.1 234.618 194.967 231.017C194.925 229.938 194.708 226.701 194.708 226.701" stroke="#040000" stroke-width="1.2057" stroke-linecap="round" stroke-linejoin="round"/>
<path id="Vector_60" d="M172.204 224.591H171.651C170.371 224.591 169.333 225.63 169.333 226.91V232.306C169.333 233.587 170.371 234.625 171.651 234.625H172.204C173.484 234.625 174.521 233.587 174.521 232.306V226.91C174.521 225.63 173.484 224.591 172.204 224.591Z" stroke="#040000" stroke-width="1.2057" stroke-linecap="round" stroke-linejoin="round"/>
<path id="Vector_61" d="M175.648 225.267H175.501C174.96 225.267 174.521 225.706 174.521 226.248V228.602C174.521 229.144 174.96 229.583 175.501 229.583H175.648C176.189 229.583 176.628 229.144 176.628 228.602V226.248C176.628 225.706 176.189 225.267 175.648 225.267Z" stroke="#040000" stroke-width="1.2057" stroke-linecap="round" stroke-linejoin="round"/>
<path id="Vector_62" d="M175.165 222.263V225.346" stroke="#040000" stroke-width="1.2057" stroke-linecap="round" stroke-linejoin="round"/>
<path id="Vector_63" d="M199.636 223.804L199.251 244.047C199.251 247.418 195.855 247.334 195.855 247.334H185.556L185.304 244.047H191.542C194.623 244.047 194.966 241.217 194.966 241.217V231.589V231.519C194.966 231.379 194.966 231.225 194.966 231.064V223.552L199.636 223.79V223.804Z" stroke="#040000" stroke-width="1.2057" stroke-linecap="round" stroke-linejoin="round"/>
<path id="Vector_64" d="M196.24 247.341L197.318 261.649" stroke="#040000" stroke-width="1.2057" stroke-linecap="round" stroke-linejoin="round"/>
<path id="Vector_65" d="M191.935 247.341L192.474 261.649" stroke="#040000" stroke-width="1.2057" stroke-linecap="round" stroke-linejoin="round"/>
<path id="Vector_66" d="M143.863 246.189V261.653" stroke="#040000" stroke-width="1.2057" stroke-linecap="round" stroke-linejoin="round"/>
<path id="Vector_67" d="M194.974 240.139V241.218C194.974 241.218 194.637 244.049 191.55 244.049H185.311L185.563 247.335V261.643H181.944L180.704 237.904H191.116C191.116 237.904 194.967 239.053 194.974 240.139Z" fill="#040000"/>
<path id="Vector_68" d="M178.576 244.533L176.637 244.386V256.494H170.588L169.334 244.057C168.844 239.943 170.588 237.911 170.588 237.911H178.226L178.576 244.54V244.533Z" fill="#040000"/>
<path id="Vector_69" d="M175.298 256.77H171.643C171.643 256.77 171.692 259.72 167.4 259.909C167.421 259.909 167.435 259.916 167.449 259.916C167.694 259.951 167.911 260.098 168.038 260.309L168.087 260.386C168.416 260.939 168.017 261.64 167.372 261.64H174.465C174.465 261.64 176.124 261.85 176.124 260.463C176.124 258.41 175.2 257.793 175.298 256.763V256.77Z" stroke="#040000" stroke-width="1.2057" stroke-linecap="round" stroke-linejoin="round"/>
<path id="Vector_70" d="M179.233 257.13C179.1 257.831 178.54 259.344 176.097 259.793C176.118 260.003 176.132 260.227 176.132 260.48C176.132 261.348 175.487 261.587 174.997 261.65H179.471L179.233 257.137V257.13Z" stroke="#040000" stroke-width="1.2057" stroke-linecap="round" stroke-linejoin="round"/>
<path id="Vector_71" d="M175.298 256.77H171.643C171.643 256.77 171.692 259.72 167.4 259.909C167.421 259.909 167.435 259.916 167.449 259.916C167.694 259.951 167.911 260.098 168.038 260.309L168.087 260.386C168.416 260.939 168.017 261.64 167.372 261.64H174.465C174.465 261.64 176.124 261.85 176.124 260.463C176.124 258.41 175.2 257.793 175.298 256.763V256.77Z" fill="#040000" stroke="#040000" stroke-width="0.60285" stroke-miterlimit="10"/>
<path id="Vector_72" d="M179.233 257.13C179.1 257.831 178.54 259.344 176.097 259.793C176.118 260.003 176.132 260.227 176.132 260.48C176.132 261.348 175.487 261.587 174.997 261.65H179.471L179.233 257.137V257.13Z" fill="#040000" stroke="#040000" stroke-width="0.60285" stroke-miterlimit="10"/>
<path id="Vector_73" d="M194.974 240.139V241.218C194.974 241.218 194.637 244.049 191.55 244.049H185.311L185.563 247.335V261.643H181.944L180.704 237.904H191.116C191.116 237.904 194.967 239.053 194.974 240.139Z" stroke="#040000" stroke-width="1.2057" stroke-linecap="round" stroke-linejoin="round"/>
<path id="Vector_74" d="M151.941 206.371C152.274 206.371 152.543 206.101 152.543 205.768C152.543 205.435 152.274 205.165 151.941 205.165C151.609 205.165 151.339 205.435 151.339 205.768C151.339 206.101 151.609 206.371 151.941 206.371Z" fill="#040000"/>
<path id="Vector_75" d="M147.16 206.87C147.16 207.108 146.971 207.298 146.733 207.298C146.495 207.298 146.306 207.108 146.306 206.87C146.306 206.632 146.495 206.443 146.733 206.443C146.971 206.443 147.16 206.632 147.16 206.87Z" fill="#040000"/>
<path id="Vector_76" d="M156.143 206.116C156.143 206.452 155.87 206.718 155.541 206.718C155.212 206.718 154.939 206.445 154.939 206.116C154.939 205.786 155.212 205.513 155.541 205.513C155.87 205.513 156.143 205.786 156.143 206.116Z" fill="#040000"/>
<path id="Vector_77" d="M151.472 203.894C151.528 203.915 152.172 203.495 152.872 204.076" stroke="#040000" stroke-width="0.60285" stroke-linecap="round" stroke-linejoin="round"/>
<path id="Vector_78" d="M155.316 204.328C155.372 204.349 155.799 203.907 156.422 204.517" stroke="#040000" stroke-width="0.60285" stroke-linecap="round" stroke-linejoin="round"/>
<path id="Vector_79" d="M151.626 210.165C151.626 210.165 152.557 211.623 154.273 210.894" stroke="#040000" stroke-width="0.60285" stroke-linecap="round" stroke-linejoin="round"/>
<g id="Group_4">
<path id="Vector_80" d="M181.223 206.382C181.555 206.382 181.825 206.112 181.825 205.78C181.825 205.447 181.555 205.177 181.223 205.177C180.89 205.177 180.62 205.447 180.62 205.78C180.62 206.112 180.89 206.382 181.223 206.382Z" fill="#040000"/>
<path id="Vector_81" d="M177.498 206.382C177.83 206.382 178.1 206.112 178.1 205.78C178.1 205.447 177.83 205.177 177.498 205.177C177.165 205.177 176.896 205.447 176.896 205.78C176.896 206.112 177.165 206.382 177.498 206.382Z" fill="#040000"/>
<path id="Vector_82" d="M180.62 203.615C180.676 203.636 181.258 203.173 181.818 203.615" stroke="#040000" stroke-width="0.60285" stroke-linecap="round" stroke-linejoin="round"/>
<path id="Vector_83" d="M177.036 203.418C177.085 203.446 177.603 202.766 178.101 203.418" stroke="#040000" stroke-width="0.60285" stroke-linecap="round" stroke-linejoin="round"/>
<path id="Vector_84" d="M180.817 209.38C180.817 209.38 180.145 211.209 177.947 210.144" stroke="#040000" stroke-width="0.60285" stroke-linecap="round" stroke-linejoin="round"/>
<path id="Vector_85" d="M178.927 206.388C178.927 206.388 177.233 208.707 179.018 208.672" stroke="#040000" stroke-width="0.60285" stroke-linecap="round" stroke-linejoin="round"/>
</g>
<path id="Vector_86" d="M154.175 207.298C154.175 207.298 155.197 209.218 153.972 209.4" stroke="#040000" stroke-width="0.60285" stroke-linecap="round" stroke-linejoin="round"/>
</g>
<g id="Group_5">
<path id="Vector_87" d="M37.928 354.277C38.5231 355.909 37.6339 361.641 37.6339 361.641C33.342 360.996 31.3675 363.071 31.3675 363.071C31.3675 363.071 30.1843 354.179 33.1459 349.239C33.1459 349.239 35.5614 345.833 39.3143 345.833C39.3143 345.833 40.4975 349.141 43.3611 348.944C43.3611 348.944 46.1758 348.65 47.163 347.067C47.163 347.067 51.707 349.239 51.707 358.278L47.0789 358.362" stroke="#040000" stroke-width="1.2057" stroke-linecap="round" stroke-linejoin="round"/>
<path id="Vector_88" d="M31.7806 362.725C31.7806 362.725 31.8996 366.978 34.4692 367.272C34.4692 367.272 38.369 368.758 45.3285 364.063C45.3285 364.063 49.9706 365.149 51.6999 363.67C51.6999 363.67 54.4655 360.559 49.0323 358.976C49.0323 358.976 47.7021 358.583 46.6658 358.976C46.6658 358.976 48.0661 357.231 47.492 356.054C47.212 355.479 46.5048 354.919 45.2725 357.336L43.5572 360.65L37.6829 362.626C37.6829 362.626 37.5218 362.43 37.6339 361.638" stroke="#040000" stroke-width="1.2057" stroke-linecap="round" stroke-linejoin="round"/>
<path id="Vector_89" d="M49.7122 364.384C49.7122 364.384 51.5046 367.439 53.388 365.848C53.388 365.848 57.4979 362.072 58.0931 360.88C58.0931 360.88 58.8702 360.397 59.8364 360.25C59.8364 360.25 65.1296 359.507 64.6115 355.065C64.6115 355.065 64.2404 353.25 61.7969 353.768C61.7969 353.768 58.9822 354.21 57.834 355.212C57.834 355.212 59.4233 352.689 58.3871 351.974C57.904 351.638 57.4139 351.358 56.7558 352.864C56.2937 353.922 55.5375 355.989 55.6425 356.767C55.6425 356.767 53.7521 361.518 51.0845 358.288" stroke="#040000" stroke-width="1.2057" stroke-linecap="round" stroke-linejoin="round"/>
<path id="Vector_90" d="M39.3078 345.83V341.977C39.3078 341.977 36.3181 340.309 37.6764 337.997C38.0895 337.289 39.0347 336.343 40.9111 337.506C40.9111 337.506 42.3184 334.101 42.3954 332.861C42.3954 332.861 50.8883 333.722 50.6152 331.452C50.4262 329.855 47.9967 328.712 44.79 328.712C42.6405 328.712 37.5014 328.607 36.9623 333.211C36.8362 334.283 37.2633 336.665 38.2505 337.331" stroke="#040000" stroke-width="1.2057" stroke-linecap="round" stroke-linejoin="round"/>
<path id="Vector_91" d="M49.9844 332.415C49.9844 332.415 49.8794 337.061 49.9844 338.61C50.1524 341.097 51.1747 347.242 43.431 346.128" stroke="#040000" stroke-width="1.2057" stroke-linecap="round" stroke-linejoin="round"/>
<path id="Vector_92" d="M47.1302 346.005L47.1582 347.07" stroke="#040000" stroke-width="1.2057" stroke-linecap="round" stroke-linejoin="round"/>
<path id="Vector_93" d="M49.7124 367.987C49.7124 367.987 48.3051 366.018 48.095 364.435" stroke="#040000" stroke-width="1.2057" stroke-linecap="round" stroke-linejoin="round"/>
<path id="Vector_94" d="M31.3607 371.6V363.079" stroke="#040000" stroke-width="1.2057" stroke-linecap="round" stroke-linejoin="round"/>
<path id="Vector_95" d="M51.7016 388.316H44.7771L43.6778 378.717L43.4328 376.53H41.4164C31.0961 376.53 31.3692 371.591 31.3692 371.591C31.3692 371.591 34.7999 367.688 41.4164 367.982H47.1646C49.9652 367.982 51.1765 369.453 51.7086 370.988C52.0097 371.857 52.0867 372.747 52.1147 373.412C52.2547 377.133 51.7086 388.309 51.7086 388.309L51.7016 388.316Z" fill="#040000" stroke="#040000" stroke-width="1.2057" stroke-linecap="round" stroke-linejoin="round"/>
<path id="Vector_96" d="M58.6961 372.685L57.1767 388.317H51.7015C51.7015 388.317 54.7052 373.827 51.7015 370.996C51.1694 369.454 49.9581 367.99 47.1575 367.99H53.2139C53.2139 367.99 58.6961 367.864 58.6961 372.685Z" fill="#040000" stroke="#040000" stroke-width="1.2057" stroke-linecap="round" stroke-linejoin="round"/>
<path id="Vector_97" d="M44.7767 388.314V392.665H56.2032L51.7012 388.314" stroke="#040000" stroke-width="1.2057" stroke-linecap="round" stroke-linejoin="round"/>
<path id="Vector_98" d="M57.1757 388.314L61.4536 392.595L56.2025 392.665" stroke="#040000" stroke-width="1.2057" stroke-linecap="round" stroke-linejoin="round"/>
<path id="Vector_99" d="M43.6838 378.724H33.8957C33.8957 378.724 27.1322 378.493 27.1322 371.226L25.8509 353.737C25.8509 353.737 25.9489 350.78 29.8978 350.92C30.4789 350.941 31.8792 351.067 31.9982 351.929" stroke="#040000" stroke-width="1.2057" stroke-linecap="round" stroke-linejoin="round"/>
<path id="Vector_100" d="M31.1302 378.009L27.9935 392.668" stroke="#040000" stroke-width="1.2057" stroke-linecap="round" stroke-linejoin="round"/>
<path id="Vector_101" d="M35.765 392.668L37.3193 378.724" stroke="#040000" stroke-width="1.2057" stroke-linecap="round" stroke-linejoin="round"/>
<path id="Vector_102" d="M41.7454 378.724V392.668" stroke="#040000" stroke-width="1.2057" stroke-linecap="round" stroke-linejoin="round"/>
<path id="Vector_103" d="M72.545 353.737L72.4679 360.001C72.4679 360.001 68.8062 360.079 68.5051 360.001C68.064 358.929 69.5063 353.149 69.5063 353.149C70.4305 350.185 74.1973 347.445 74.1973 347.445C74.1973 347.445 74.1203 349.295 77.6771 349.295C77.6771 349.295 81.2339 349.267 81.899 345.833C81.899 345.833 91.008 344.698 91.008 359.742H83.0823C83.0823 359.742 83.0823 353.961 83.7474 353.296" stroke="#040000" stroke-width="1.2057" stroke-linecap="round" stroke-linejoin="round"/>
<path id="Vector_104" d="M61.4534 369.297C60.9843 369.1 60.7812 368.652 61.1593 367.755C61.1593 367.755 61.9505 366.473 64.0719 366.073L67.9718 364.819L68.4549 359.802" stroke="#040000" stroke-width="1.2057" stroke-linecap="round" stroke-linejoin="round"/>
<path id="Vector_105" d="M72.468 360.001C72.468 360.001 72.8601 366.315 71.0887 367.338C70.6266 367.604 70.0385 367.877 69.4154 368.143" stroke="#040000" stroke-width="1.2057" stroke-linecap="round" stroke-linejoin="round"/>
<path id="Vector_106" d="M69.8772 373.183L72.1387 390.49L70.2483 392.662H62.6237L65.7323 387.491L61.4544 369.294C62.5607 369.749 65.1652 368.761 65.1652 368.761C64.108 370.044 65.0882 370.387 65.8024 369.819C66.4185 369.336 67.9938 368.74 69.4151 368.131L72.8249 367.829C72.3838 368.166 71.8937 368.719 72.2228 369.35C72.2228 369.35 72.4188 369.939 73.0559 369.35C72.9929 369.455 71.8587 371.305 72.1107 372.314L69.8702 373.169L69.8772 373.183Z" fill="#040000" stroke="#040000" stroke-width="1.2057" stroke-linecap="round" stroke-linejoin="round"/>
<path id="Vector_107" d="M79.7134 376.669V392.666H70.2474L72.1378 390.494L74.0282 388.322C74.0282 388.322 70.9475 376.578 72.1168 372.332C72.1168 372.332 74.5953 375.443 76.7168 369.81C76.7168 369.81 86.5889 367.82 87.7722 366.874C88.3533 366.404 88.7594 365.283 89.0325 364.064V371.94C89.0325 371.94 89.6976 376.683 79.7134 376.683V376.669Z" fill="#040000" stroke="#040000" stroke-width="1.2057" stroke-linecap="round" stroke-linejoin="round"/>
<path id="Vector_108" d="M89.0325 364.048C89.4876 362.023 89.5997 359.732 89.5997 359.732" stroke="#040000" stroke-width="1.2057" stroke-linecap="round" stroke-linejoin="round"/>
<path id="Vector_109" d="M72.8236 367.832C73.1036 367.615 73.3627 367.488 73.3627 367.488C73.3627 367.488 80.4062 365.926 82.3456 364.812C83.4589 364.174 83.7739 359.732 83.7739 359.732" stroke="#040000" stroke-width="1.2057" stroke-linecap="round" stroke-linejoin="round"/>
<path id="Vector_110" d="M84.6009 367.991C88.2207 367.907 89.0329 371.929 89.0329 371.929" stroke="#040000" stroke-width="1.2057" stroke-linecap="round" stroke-linejoin="round"/>
<path id="Vector_111" d="M74.1966 347.437C74.1966 347.437 75.4149 346.421 76.9762 346.533" stroke="#040000" stroke-width="1.2057" stroke-linecap="round" stroke-linejoin="round"/>
<path id="Vector_112" d="M72.2148 333.642C71.9977 334.195 71.7947 334.924 71.7177 335.828C71.7177 335.828 70.7304 343.34 72.2568 345.063C72.7189 345.582 73.9932 346.822 74.9244 346.983" stroke="#040000" stroke-width="1.2057" stroke-linecap="round" stroke-linejoin="round"/>
<path id="Vector_113" d="M83.187 338.009C83.8101 338.38 83.7611 339.34 83.7611 339.34C83.7121 342.255 81.1986 342.003 81.1986 342.003L81.8987 345.829" stroke="#040000" stroke-width="1.2057" stroke-linecap="round" stroke-linejoin="round"/>
<path id="Vector_114" d="M85.196 334.745C85.196 334.745 84.4329 338.417 83.1866 338.01C82.9275 337.849 82.5424 337.793 81.9893 337.954C81.9893 337.954 80.554 339.09 80.309 336.175V334.549C80.309 334.549 76.4581 331.872 72.8523 332.419C72.8523 332.419 72.5233 332.839 72.2152 333.638C72.1242 333.687 70.5348 334.591 70.5348 332.615C70.5348 332.615 69.7437 328.565 74.7777 328.712C74.7777 328.712 81.8353 327.185 82.2834 330.884C82.2834 330.884 85.6931 331.081 85.196 334.738V334.745Z" fill="#040000" stroke="#040000" stroke-width="1.2057" stroke-linecap="round" stroke-linejoin="round"/>
<path id="Vector_115" d="M79.7142 379.154H89.3133C89.3133 379.154 93.7312 379.378 93.7312 373.521L94.7675 355.548C94.7675 355.548 94.5714 353.368 90.3005 353.368" stroke="#040000" stroke-width="1.2057" stroke-linecap="round" stroke-linejoin="round"/>
<path id="Vector_116" d="M93.5908 391.41L90.6712 378.923" stroke="#040000" stroke-width="1.2057" stroke-linecap="round" stroke-linejoin="round"/>
<path id="Vector_117" d="M85.5189 392.67V379.154" stroke="#040000" stroke-width="1.2057" stroke-linecap="round" stroke-linejoin="round"/>
<path id="Vector_118" d="M108.813 345.018C108.813 345.018 107.853 346.98 105.256 346.98C105.256 346.98 101.111 346.573 101.328 340.863C101.328 340.863 101.475 339.013 101.923 338.564C101.923 338.564 102.364 336.813 102.147 335.103" stroke="#040000" stroke-width="1.2057" stroke-linecap="round" stroke-linejoin="round"/>
<path id="Vector_119" d="M104.57 333.092C104.57 333.092 103.877 335.264 101.168 335.117C101.168 335.117 100.677 333.786 101.959 332.546C101.959 332.546 103.933 328.25 111.138 329.729C111.138 329.729 115.976 330.121 116.074 339.56C116.074 339.56 122.592 344.549 116.669 350.771L111.733 348.248C111.733 348.248 110.501 345.186 110.893 342.321C110.893 342.321 113.364 342.124 113.21 339.455C113.21 339.455 113.063 337.184 110.543 338.516C110.543 338.516 104.619 335.208 104.57 333.078V333.092Z" stroke="#040000" stroke-width="1.2057" stroke-linecap="round" stroke-linejoin="round"/>
<path id="Vector_120" d="M106.523 346.808C106.523 346.808 106.74 349.982 105.816 350.536C105.816 350.536 102.742 350.312 101.853 351.279C101.853 351.279 104.345 347.915 103.967 346.556" stroke="#040000" stroke-width="1.2057" stroke-linecap="round" stroke-linejoin="round"/>
<path id="Vector_121" d="M116.662 350.779C116.662 350.779 118.412 353.049 118.265 354.184C118.265 354.184 114.512 353.89 113.623 356.657V361.899L103.66 363.027C103.66 363.027 103.457 361.492 103.653 359.173C103.849 356.854 100.593 355.662 100.593 355.662C100.691 354.969 101.853 351.276 101.853 351.276" stroke="#040000" stroke-width="1.2057" stroke-linecap="round" stroke-linejoin="round"/>
<path id="Vector_122" d="M105.816 350.543C105.816 350.543 106.32 352.127 108.434 351.125C108.434 351.125 111.543 349.282 111.732 348.259" stroke="#040000" stroke-width="1.2057" stroke-linecap="round" stroke-linejoin="round"/>
<path id="Vector_123" d="M118.272 354.169C118.272 354.169 120.183 364.308 117.705 366.004C116.739 366.663 116.221 367.013 113.112 366.943C111.39 366.901 106.236 366.635 106.236 366.635C106.236 366.635 101.853 368.947 101.328 367.104C101.125 366.403 101.237 365.254 102.904 364.659C102.904 364.659 101.251 364.252 102.582 363.404C102.862 363.229 103.66 363.019 103.66 363.019" stroke="#040000" stroke-width="1.2057" stroke-linecap="round" stroke-linejoin="round"/>
<path id="Vector_124" d="M100.593 355.661C100.593 355.661 99.578 362.22 99.431 364.588C99.431 364.588 99.585 366.852 101.251 366.81" stroke="#040000" stroke-width="1.2057" stroke-linecap="round" stroke-linejoin="round"/>
<path id="Vector_125" d="M108.378 387.033H104.044" stroke="#040000" stroke-width="1.2057" stroke-linecap="round" stroke-linejoin="round"/>
<path id="Vector_126" d="M102.637 387.04L101.251 373.943C100.915 371.624 101.594 371.085 101.594 371.085L107.468 366.712" stroke="#040000" stroke-width="1.2057" stroke-linecap="round" stroke-linejoin="round"/>
<path id="Vector_127" d="M108.378 388.917V392.666H98.2611L99.9344 390.515L102.637 387.033H104.044C104.044 387.033 101.398 390.893 102.406 390.802C103.967 390.648 104.359 390.031 108.378 388.917Z" fill="#040000" stroke="#040000" stroke-width="1.2057" stroke-linecap="round" stroke-linejoin="round"/>
<path id="Vector_128" d="M108.378 388.922V374.565C108.378 374.565 117.032 375.406 117.858 370.711C118.047 369.618 118.033 368.525 117.249 366.318" stroke="#040000" stroke-width="1.2057" stroke-linecap="round" stroke-linejoin="round"/>
<path id="Vector_129" d="M100.591 366.681C100.591 366.681 95.8933 369.119 95.8162 373.933C95.8162 373.933 95.4382 380.38 96.7754 383.491L98.1828 387.029H102.629" stroke="#040000" stroke-width="1.2057" stroke-linecap="round" stroke-linejoin="round"/>
<path id="Vector_130" d="M99.9345 390.52L98.2611 392.671H93.8852L93.5911 391.417L98.1771 387.044C98.0091 387.261 94.5363 391.599 96.6648 391.101L99.9275 390.52H99.9345Z" fill="#040000" stroke="#040000" stroke-width="1.2057" stroke-linecap="round" stroke-linejoin="round"/>
<path id="Vector_131" d="M98.1852 387.033H98.1771" stroke="#040000" stroke-width="1.2057" stroke-linecap="round" stroke-linejoin="round"/>
<path id="Vector_132" d="M93.8859 392.67H92.2825L93.5918 391.415" stroke="#040000" stroke-width="1.2057" stroke-linecap="round" stroke-linejoin="round"/>
<g id="Group_6">
<path id="Vector_133" d="M78.3771 339.233C78.3771 339.583 78.0901 339.87 77.74 339.87C77.3899 339.87 77.1029 339.583 77.1029 339.233C77.1029 338.882 77.3899 338.595 77.74 338.595C78.0901 338.595 78.3771 338.882 78.3771 339.233Z" fill="#040000"/>
<path id="Vector_134" d="M74.4553 339.233C74.4553 339.583 74.1682 339.87 73.8181 339.87C73.468 339.87 73.181 339.583 73.181 339.233C73.181 338.882 73.468 338.595 73.8181 338.595C74.1682 338.595 74.4553 338.882 74.4553 339.233Z" fill="#040000"/>
<path id="Vector_135" d="M77.1087 336.955C77.1717 336.976 77.7739 336.486 78.362 336.955" stroke="#040000" stroke-width="0.60285" stroke-linecap="round" stroke-linejoin="round"/>
<path id="Vector_136" d="M73.3431 336.742C73.3991 336.77 73.9382 336.055 74.4563 336.742" stroke="#040000" stroke-width="0.60285" stroke-linecap="round" stroke-linejoin="round"/>
<path id="Vector_137" d="M77.3119 343.017C77.3119 343.017 76.6048 344.944 74.2943 343.823" stroke="#040000" stroke-width="0.60285" stroke-linecap="round" stroke-linejoin="round"/>
<path id="Vector_138" d="M75.3232 339.861C75.3232 339.861 73.5378 342.299 75.4142 342.264" stroke="#040000" stroke-width="0.60285" stroke-linecap="round" stroke-linejoin="round"/>
</g>
<g id="Group_7">
<path id="Vector_139" d="M43.2357 338.365C43.2357 338.716 43.5227 339.003 43.8728 339.003C44.2229 339.003 44.5099 338.716 44.5099 338.365C44.5099 338.015 44.2229 337.728 43.8728 337.728C43.5227 337.728 43.2357 338.015 43.2357 338.365Z" fill="#040000"/>
<path id="Vector_140" d="M47.1497 338.365C47.1497 338.716 47.4368 339.003 47.7869 339.003C48.1369 339.003 48.424 338.716 48.424 338.365C48.424 338.015 48.1369 337.728 47.7869 337.728C47.4368 337.728 47.1497 338.015 47.1497 338.365Z" fill="#040000"/>
<path id="Vector_141" d="M44.4967 336.087C44.4337 336.108 43.7826 336.697 43.2435 336.087" stroke="#040000" stroke-width="0.60285" stroke-linecap="round" stroke-linejoin="round"/>
<path id="Vector_142" d="M48.2688 335.88C48.2128 335.908 47.7857 336.504 47.1556 335.88" stroke="#040000" stroke-width="0.60285" stroke-linecap="round" stroke-linejoin="round"/>
<path id="Vector_143" d="M44.72 343.029C44.72 343.029 45.6442 343.792 47.5276 343.148" stroke="#040000" stroke-width="0.60285" stroke-linecap="round" stroke-linejoin="round"/>
<path id="Vector_144" d="M46.2806 338.365C46.2806 338.365 48.36 341.574 46.4836 341.546" stroke="#040000" stroke-width="0.60285" stroke-linecap="round" stroke-linejoin="round"/>
</g>
<g id="Group_8">
<path id="Vector_145" d="M106.523 339.642C106.432 339.929 106.593 340.245 106.88 340.336C107.167 340.427 107.482 340.266 107.573 339.978C107.664 339.691 107.503 339.376 107.216 339.285C106.929 339.193 106.614 339.355 106.523 339.642Z" fill="#040000"/>
<path id="Vector_146" d="M103.294 338.947C103.203 339.234 103.364 339.549 103.651 339.64C103.938 339.731 104.254 339.57 104.345 339.283C104.436 338.996 104.275 338.68 103.987 338.589C103.7 338.498 103.385 338.659 103.294 338.947Z" fill="#040000"/>
<path id="Vector_147" d="M107.979 338.308C107.923 338.308 107.482 337.769 106.712 338.077" stroke="#040000" stroke-width="0.60285" stroke-linecap="round" stroke-linejoin="round"/>
<path id="Vector_148" d="M104.505 337.622C104.449 337.622 104.204 337.125 103.49 337.482" stroke="#040000" stroke-width="0.60285" stroke-linecap="round" stroke-linejoin="round"/>
<path id="Vector_149" d="M106.109 343.72C106.109 343.72 104.89 344.729 103.595 343.622" stroke="#040000" stroke-width="0.60285" stroke-linecap="round" stroke-linejoin="round"/>
<path id="Vector_150" d="M104.681 340.517C104.681 340.517 103.26 341.911 104.275 342.409" stroke="#040000" stroke-width="0.60285" stroke-linecap="round" stroke-linejoin="round"/>
</g>
<path id="Vector_151" d="M233.943 281.435H21.013V392.685H233.943V281.435Z" stroke="#040000" stroke-width="1.2057" stroke-miterlimit="10"/>
<path id="Vector_152" d="M127.478 281.435V392.685" stroke="#040000" stroke-width="1.2057" stroke-miterlimit="10"/>
<path id="Vector_153" d="M198.684 308.279H164.937V333.903H198.684V308.279Z" stroke="#040000" stroke-width="1.2057" stroke-miterlimit="10"/>
<path id="Vector_154" d="M211.258 359.206H203.255C202.065 359.206 201.162 358.386 201.372 357.496L202.954 350.86C203.115 350.167 203.913 349.669 204.837 349.669H209.675C210.6 349.669 211.391 350.174 211.559 350.86L213.141 357.496C213.351 358.386 212.448 359.206 211.258 359.206Z" stroke="#040000" stroke-width="1.2057" stroke-miterlimit="10"/>
<path id="Vector_155" d="M208.683 359.29H205.833V367.51H208.683V359.29Z" stroke="#040000" stroke-width="1.2057" stroke-miterlimit="10"/>
<path id="Vector_156" d="M188.832 354.15H142.279V392.688H188.832V354.15Z" stroke="#040000" stroke-width="1.2057" stroke-miterlimit="10"/>
<path id="Vector_157" d="M142.49 379.849H188.833" stroke="#040000" stroke-width="1.2057" stroke-miterlimit="10"/>
<path id="Vector_158" d="M142.49 366.993H188.833" stroke="#040000" stroke-width="1.2057" stroke-miterlimit="10"/>
<path id="Vector_159" d="M195.568 380.271H218.946" stroke="#040000" stroke-width="1.2057" stroke-miterlimit="10"/>
<path id="Vector_160" d="M161.892 357.536H169.44" stroke="#040000" stroke-width="1.2057" stroke-miterlimit="10"/>
<path id="Vector_161" d="M218.946 367.865H195.568V392.683H218.946V367.865Z" stroke="#040000" stroke-width="1.2057" stroke-miterlimit="10"/>
<path id="Vector_162" d="M205.419 374.548H209.214" stroke="#040000" stroke-width="1.2057" stroke-miterlimit="10"/>
<path id="Vector_163" d="M205.419 387.247H209.214" stroke="#040000" stroke-width="1.2057" stroke-miterlimit="10"/>
<path id="Vector_164" d="M161.892 370.572H169.44" stroke="#040000" stroke-width="1.2057" stroke-miterlimit="10"/>
<path id="Vector_165" d="M161.892 383.009H169.44" stroke="#040000" stroke-width="1.2057" stroke-miterlimit="10"/>
<path id="Vector_166" d="M164.936 323.932C164.936 323.932 167.043 316.232 174.059 316.232C182.013 316.232 182.937 323.344 182.937 323.344C182.937 323.344 184.715 319.96 191.087 320.072C195.071 320.142 198.676 322.636 198.676 325.264V333.91H164.929V323.939L164.936 323.932Z" fill="#040000"/>
<path id="Vector_167" d="M108.378 375.462H116.85" stroke="#040000" stroke-width="1.2057" stroke-linecap="round" stroke-linejoin="round"/>
<path id="Vector_168" d="M111.724 375.462V392.699" stroke="#040000" stroke-width="1.2057" stroke-linecap="round" stroke-linejoin="round"/>
<path id="Vector_169" d="M75.4368 281.751V303.732" stroke="#040000" stroke-width="1.2057" stroke-miterlimit="10"/>
<path id="Vector_170" d="M75.4351 303.728L63.2244 315.023C62.1742 315.997 62.8603 317.749 64.2886 317.749H86.5815C88.0098 317.749 88.6959 315.99 87.6457 315.023L75.4351 303.728Z" stroke="#040000" stroke-width="1.2057" stroke-miterlimit="10"/>
</g>
<g id="Group_9">
<path id="Vector_171" d="M233.943 20.0364H21.013V131.286H233.943V20.0364Z" stroke="#040000" stroke-width="1.2057" stroke-miterlimit="10"/>
<path id="Vector_172" d="M127.478 20.0364V131.286" stroke="#040000" stroke-width="1.2057" stroke-miterlimit="10"/>
<path id="Vector_173" d="M127.472 82.7865H72.4957V131.289H127.472V82.7865Z" stroke="#040000" stroke-width="1.2057" stroke-miterlimit="10"/>
<path id="Vector_174" d="M73.5171 32.4583H30.7728V56.7095H73.5171V32.4583Z" stroke="#040000" stroke-width="1.2057" stroke-miterlimit="10"/>
<path id="Vector_175" d="M35.9264 107.044H48.1371C49.6704 107.044 50.9167 108.291 50.9167 109.826V131.295H33.1538V109.826C33.1538 108.291 34.4001 107.044 35.9334 107.044H35.9264Z" stroke="#040000" stroke-width="1.2057" stroke-miterlimit="10"/>
<path id="Vector_176" d="M212.597 20.3255H188.533V34.872H212.597V20.3255Z" stroke="#040000" stroke-width="1.2057" stroke-miterlimit="10"/>
<path id="Vector_177" d="M212.596 34.8724H211.189H189.939H188.532L176.286 49.4119H189.939H211.189H224.835L212.596 34.8724Z" stroke="#040000" stroke-width="1.2057" stroke-linecap="round" stroke-linejoin="round"/>
<path id="Vector_178" d="M215.082 105.267H140.306V131.291H215.082V105.267Z" stroke="#040000" stroke-width="1.2057" stroke-miterlimit="10"/>
<path id="Vector_179" d="M52.1419 32.4583V56.7025" stroke="#040000" stroke-width="1.2057" stroke-miterlimit="10"/>
<path id="Vector_180" d="M99.9896 88.3216V131.288" stroke="#040000" stroke-width="1.2057" stroke-miterlimit="10"/>
<g id="Group_10">
<path id="Vector_181" d="M104.134 107.044V112.58" stroke="#040000" stroke-width="1.2057" stroke-miterlimit="10"/>
<path id="Vector_182" d="M95.8452 107.044V112.58" stroke="#040000" stroke-width="1.2057" stroke-miterlimit="10"/>
</g>
<path id="Vector_183" d="M127.478 88.3216H72.4954" stroke="#040000" stroke-width="1.2057" stroke-miterlimit="10"/>
<path id="Vector_184" d="M233.944 131.289H215.082V105.265H209.859V82.7864H233.944V131.289Z" stroke="#040000" stroke-width="1.2057" stroke-miterlimit="10"/>
<path id="Vector_185" d="M233.944 94.6146H209.859" stroke="#040000" stroke-width="1.2057" stroke-miterlimit="10"/>
<path id="Vector_186" d="M217.56 91.1208C218.557 91.1208 219.366 90.3114 219.366 89.313C219.366 88.3146 218.557 87.5052 217.56 87.5052C216.562 87.5052 215.753 88.3146 215.753 89.313C215.753 90.3114 216.562 91.1208 217.56 91.1208Z" stroke="#040000" stroke-width="1.2057" stroke-miterlimit="10"/>
<path id="Vector_187" d="M226.241 91.1208C227.239 91.1208 228.048 90.3114 228.048 89.313C228.048 88.3146 227.239 87.5052 226.241 87.5052C225.244 87.5052 224.435 88.3146 224.435 89.313C224.435 90.3114 225.244 91.1208 226.241 91.1208Z" stroke="#040000" stroke-width="1.2057" stroke-miterlimit="10"/>
<path id="Vector_188" d="M42.0251 107.038C42.3962 107.038 43.1103 98.5455 51.6102 98.4474C55.7131 98.3984 66.0403 95.8128 65.0601 89.051C64.528 85.3584 57.6175 82.7868 50.1749 88.3153C45.9949 91.4194 41.0379 98.7837 41.0379 107.031C41.0379 107.031 42.7462 89.6957 32.3 88.3153C29.5134 87.9439 24.2902 88.3153 24.2902 91.8328C24.2902 94.7197 24.4513 95.1822 34.2674 98.5315C36.837 99.4074 41.2059 102.259 41.0309 107.038" fill="#040000"/>
<path id="Vector_189" d="M41.1009 106.211C41.472 106.211 43.3834 84.8882 51.6172 82.7581C57.7085 81.1886 59.837 77.8813 59.6549 72.8082C59.5219 69.0805 53.2275 65.8643 46.8001 73.4038C43.4184 77.3627 41.612 92.5819 41.612 100.829C41.612 100.829 43.7545 78.0564 32.7551 70.8603C30.4025 69.3187 25.8165 69.1646 25.3965 72.64C25.0464 75.5059 29.3033 80.0534 34.2744 82.8492C42.0251 87.2006 40.9328 97.1645 40.7578 101.943" fill="#040000"/>
<path id="Vector_190" d="M155.449 105.266V94.7481C155.449 93.9843 156.072 93.3607 156.835 93.3607H161.169C161.932 93.3607 162.555 93.9843 162.555 94.7481V98.5528" stroke="#040000" stroke-width="1.2057" stroke-miterlimit="10"/>
<path id="Vector_191" d="M177.876 89.0026V90.7193C177.876 90.7193 176.686 90.8805 175.398 91.6863L175.629 85.5482C176.028 86.9706 176.721 88.2809 177.883 89.0026H177.876Z" fill="#040000" stroke="#040000" stroke-width="1.2057" stroke-linecap="round" stroke-linejoin="round"/>
<path id="Vector_192" d="M177.876 90.7223C178.261 93.9105 182.07 93.9735 182.07 93.9735C187.153 93.9735 187.167 90.0286 187.167 90.0286H187.174" stroke="#040000" stroke-width="1.2057" stroke-linecap="round" stroke-linejoin="round"/>
<path id="Vector_193" d="M175.389 91.6888C173.863 92.6487 172.21 96.6357 172.21 100.181V105.268" stroke="#040000" stroke-width="1.2057" stroke-linecap="round" stroke-linejoin="round"/>
<path id="Vector_194" d="M191.38 91.345C195.672 95.8575 195.644 104.189 195.644 104.189" stroke="#040000" stroke-width="1.2057" stroke-linecap="round" stroke-linejoin="round"/>
<path id="Vector_195" d="M190.331 97.6029L191.116 104.196" stroke="#040000" stroke-width="1.2057" stroke-linecap="round" stroke-linejoin="round"/>
<path id="Vector_196" d="M175.62 85.5548C174.836 82.8571 175.095 79.8021 175.095 79.8021" stroke="#040000" stroke-width="1.2057" stroke-linecap="round" stroke-linejoin="round"/>
<path id="Vector_197" d="M177.876 89.0073C179.116 89.7711 180.88 89.8762 183.4 88.72" stroke="#040000" stroke-width="1.2057" stroke-linecap="round" stroke-linejoin="round"/>
<path id="Vector_198" d="M191.381 91.3537C190.24 90.5339 188.86 90.0224 187.18 90.0224C187.18 90.0224 186.718 87.1776 187.607 86.0004C187.607 86.0004 188.678 84.9774 189.217 83.7161L191.388 91.3537H191.381Z" fill="#040000" stroke="#040000" stroke-width="1.2057" stroke-linecap="round" stroke-linejoin="round"/>
<path id="Vector_199" d="M188.111 80.2513C189.756 81.1972 189.714 82.5566 189.21 83.7198" stroke="#040000" stroke-width="1.2057" stroke-linecap="round" stroke-linejoin="round"/>
<path id="Vector_200" d="M175.095 79.7922C175.179 76.5409 177.874 75.3147 177.874 75.3147C181.375 75.4408 182.523 78.0684 182.523 78.0684C184.869 79.8132 185.681 81.9783 185.681 81.9783C185.975 81.0884 188.104 80.2406 188.104 80.2406C188.104 80.2406 188.321 78.0264 187.046 75.9313C187.046 75.9313 186.374 73.7311 182.019 73.4859C179.786 73.3597 176.943 73.1916 175.053 75.8542C174.297 76.9123 174.304 78.5939 175.095 79.7991V79.7922Z" fill="#040000" stroke="#040000" stroke-width="1.2057" stroke-linecap="round" stroke-linejoin="round"/>
<path id="Vector_201" d="M180.62 81.8484C180.62 82.1917 180.893 82.465 181.237 82.465C181.58 82.465 181.853 82.1917 181.853 81.8484C181.853 81.505 181.58 81.2318 181.237 81.2318C180.893 81.2318 180.62 81.505 180.62 81.8484Z" fill="#040000"/>
<path id="Vector_202" d="M176.945 82.1843C176.945 82.5277 177.218 82.8009 177.561 82.8009C177.904 82.8009 178.177 82.5277 178.177 82.1843C178.177 81.841 177.904 81.5677 177.561 81.5677C177.218 81.5677 176.945 81.841 176.945 82.1843Z" fill="#040000"/>
<path id="Vector_203" d="M181.711 79.9246C181.655 79.9456 180.997 79.5182 180.283 80.1068" stroke="#040000" stroke-width="0.60285" stroke-linecap="round" stroke-linejoin="round"/>
<path id="Vector_204" d="M177.791 80.3736C177.735 80.3946 177.301 79.9461 176.663 80.5628" stroke="#040000" stroke-width="0.60285" stroke-linecap="round" stroke-linejoin="round"/>
<path id="Vector_205" d="M181.557 86.3255C181.557 86.3255 180.605 87.811 178.855 87.0682" stroke="#040000" stroke-width="0.60285" stroke-linecap="round" stroke-linejoin="round"/>
<path id="Vector_206" d="M178.953 83.3958C178.953 83.3958 177.91 85.3578 179.163 85.547" stroke="#040000" stroke-width="0.60285" stroke-linecap="round" stroke-linejoin="round"/>
<path id="Vector_207" d="M177.462 98.8136L177.77 105.267" stroke="#040000" stroke-width="1.2057" stroke-linecap="round" stroke-linejoin="round"/>
<g id="Vector_208">
<path d="M189.204 83.7161C189.204 83.7161 190.738 85.1105 190.738 87.1706C190.738 87.1706 193.699 89.9243 191.375 91.3467" fill="#040000"/>
<path d="M189.204 83.7161C189.204 83.7161 190.738 85.1105 190.738 87.1706C190.738 87.1706 193.699 89.9243 191.375 91.3467" stroke="#040000" stroke-width="1.2057" stroke-linecap="round" stroke-linejoin="round"/>
</g>
<g id="Vector_209">
<path d="M175.614 85.5482C175.614 85.5482 173.8 88.7153 175.397 91.6933Z" fill="#040000"/>
<path d="M175.614 85.5482C175.614 85.5482 173.8 88.7153 175.397 91.6933" stroke="#040000" stroke-width="1.2057" stroke-linecap="round" stroke-linejoin="round"/>
</g>
</g>
</g>
</svg>
