<svg width="1200" height="630" viewBox="0 0 1200 630" fill="none" xmlns="http://www.w3.org/2000/svg">
<rect width="1200" height="630" fill="white"/>
<path d="M753.387 242.44C735.917 242.44 724.147 242.62 706.667 242.58C686.787 242.53 686.807 245.38 686.817 264.97C686.837 303.85 686.737 339.84 686.957 378.72C686.987 384.81 685.907 389.81 679.297 390.61C672.137 391.47 669.177 386.02 668.157 380.18C667.237 374.97 667.557 369.52 667.547 364.17C667.487 327.43 667.087 294.13 667.747 257.4C667.927 247.4 666.447 242.62 655.597 242.4C641.167 242.11 623.977 242.43 614.947 242.62C605.367 242.82 595.907 243.46 591.047 247.36C586.887 250.69 583.387 254.6 583.317 264.32C583.037 307.65 581.527 357.63 586.257 399.88C591.727 448.76 631.297 462.81 666.577 446.23C675.977 441.81 685.627 434.4 692.917 428.57C693.157 431.77 693.077 433.64 693.167 435.5C693.687 445.77 695.727 447.85 705.507 447.43C723.667 446.66 741.887 446.86 760.067 447.35C767.717 447.56 769.657 444.81 769.627 437.53C769.367 375.83 769.267 317.95 769.627 256.25C769.677 247.73 768.097 242.44 753.387 242.44Z" fill="#040000"/>
<path d="M571.414 285.74C569.624 239.55 525.594 227.97 491.324 241.89C481.704 245.8 471.894 254.09 465.564 262.69C465.634 259.38 465.674 255.94 465.724 253.12C465.924 242.13 460.444 241.13 450.664 240.69C433.044 239.88 416.754 239.88 397.834 240.77C390.184 241.13 388.244 243.31 388.274 250.59C388.534 312.29 388.634 374 388.274 435.7C388.224 444.22 391.274 445.86 398.804 445.67C416.274 445.24 433.754 445.49 451.234 445.54C464.487 445.573 471.104 439.07 471.084 426.03C471.064 387.15 471.164 348.27 470.944 309.4C470.914 303.31 471.994 298.31 478.604 297.51C485.764 296.64 488.724 302.1 489.744 307.94C490.664 313.15 490.344 318.6 490.354 323.95C490.414 360.69 490.814 397.43 490.154 434.16C489.974 444.16 493.354 445.57 502.304 445.61C517.324 445.67 535.124 445.61 548.674 445.61C562.224 445.61 570.624 447.09 571.214 437.68C572.514 416.83 572.344 393.11 572.344 383.39C572.344 363.92 573.224 332.28 571.414 285.76V285.74Z" fill="#040000"/>
<path d="M291.201 313.17C298.551 315.16 311.181 317.58 320.891 320.47C336.391 325.08 348.391 329.06 360.141 337.09C376.041 347.95 384.191 366.96 384.191 383.07C384.191 397.9 378.191 414.2 368.121 425.88C363.291 431.49 356.661 438.33 340.011 445.42C325.711 451.52 313.181 453.71 294.031 453.71C274.881 453.71 256.871 450.65 242.351 444.62C227.711 438.55 216.051 429.89 207.691 418.89C201.051 410.16 196.511 400.07 194.201 388.9C193.581 385.9 194.411 382.83 196.471 380.48C198.461 378.21 201.371 376.91 204.451 376.91H258.831C263.111 376.91 266.411 379.81 268.521 383.39C270.681 387.06 271.941 389.31 275.481 391.83C280.201 395.19 285.331 396.87 292.881 396.87C297.261 396.87 299.441 396.52 301.441 395.84C304.731 394.72 306.251 393.67 307.961 391.85C309.531 390.17 310.791 387.1 310.791 384.68C310.791 381.3 309.381 379 307.371 377.62C303.671 375.08 298.631 373.65 291.181 372.18C283.411 370.65 268.771 367.75 260.111 365.99C241.781 362.27 223.781 354.68 213.301 343.84C202.741 332.91 197.471 320.93 197.601 303.81C197.601 287.38 203.611 274.62 210.131 265.44C217.661 254.84 228.911 246.41 243.011 240.9C255.641 235.97 269.721 232.76 291.361 232.76C313.001 232.76 329.541 238.92 343.451 246.2C355.181 252.33 365.641 262.32 371.381 270.29C378.281 279.86 382.051 289.28 383.081 300.72C383.341 303.62 383.441 307.31 381.401 309.5C379.421 311.62 377.171 312.04 371.441 312.04H328.171C319.091 312.04 316.001 309.63 314.561 305.32C312.921 300.43 311.521 297.66 306.921 293.81C303.671 291.09 298.461 288.77 293.111 288.64C289.201 288.54 285.981 288.65 282.711 289.66C279.681 290.59 277.281 292 275.591 293.86C274.001 295.61 272.491 299.59 273.781 303.31C276.101 310 285.331 311.6 291.221 313.19L291.201 313.17Z" fill="#040000"/>
<path d="M923.818 207.43C926.938 200.49 927.088 194.77 924.618 190.58C922.738 187.4 919.248 186.1 912.418 185.2C908.828 184.73 905.698 184.47 896.048 184.48C888.458 184.48 878.228 184.7 871.388 185.13C866.618 185.43 863.518 185.97 861.838 187.64C858.558 190.9 857.628 195.56 858.108 201.6C858.388 205.13 858.378 207.6 858.518 209.77C858.778 213.87 859.038 215.73 858.148 221.09C856.968 228.21 846.188 233.85 839.278 235.42C817.898 240.27 802.598 249.27 792.478 262.92C778.338 282.01 775.038 301.45 782.398 322.33C784.968 329.63 788.538 336.06 793.308 341.96C795.908 345.18 796.978 349.32 796.258 353.31C795.608 356.89 793.468 359.68 790.528 361.65C782.998 366.72 780.398 369.96 779.318 378.54C777.768 390.86 784.358 395.46 789.468 398.86C792.048 400.58 794.278 402.07 794.928 404.07C796.188 407.92 794.748 412 792.888 414.17C780.428 428.69 775.858 445.91 780.368 461.43C784.928 477.14 799.968 489.18 817.048 495.16C833.328 500.86 854.418 502.57 869.608 502.57C881.318 502.57 893.798 501.94 907.178 499.84C923.988 497.19 941.498 489.09 951.038 479.28C962.398 467.6 970.158 445.92 965.578 427.55C961.638 411.76 950.558 400.18 934.358 394.94C928.548 393.05 922.518 391.79 916.488 390.51C905.418 388.17 894.178 388.21 883.328 388.24C877.608 388.26 871.718 388.28 865.968 387.94C859.068 387.55 856.838 385.98 856.798 381.47C856.758 376.89 858.948 375.33 865.828 375.04L870.368 374.86C879.788 374.48 889.528 374.1 899.148 372.6C931.328 367.6 955.578 344.63 959.508 315.45C964.198 280.61 948.928 253.22 917.728 240.05C914.638 238.74 913.398 237.77 913.018 235.77C912.408 232.57 913.958 229.89 914.928 227.6C917.468 221.56 921.578 212.47 923.838 207.44L923.818 207.43ZM877.768 302.04V302.15C877.818 309.53 877.708 315.65 875.808 321.49C874.558 325.3 872.668 325.83 870.968 325.84C867.718 325.63 866.598 323.66 866.148 321.81C863.168 309.58 863.108 297.28 865.968 285.28C867.028 280.86 869.548 280.74 870.488 280.69C870.628 280.69 870.768 280.69 870.908 280.69C872.788 280.69 874.798 281.38 876.038 285.35C877.888 291.32 877.918 297.73 877.778 302.04H877.768ZM878.088 434.44C887.118 434.94 890.698 438.46 890.748 443.16C890.808 448.8 886.428 452.37 879.998 452.81C875.958 453.09 870.698 453.14 866.658 452.88C857.668 452.29 855.108 447.04 855.108 443.66C855.108 439.38 858.528 434.97 865.908 434.51C869.898 434.26 874.098 434.23 878.088 434.44Z" fill="#040000"/>
<path d="M1051.89 385.59C1043.83 375.32 1032 371.28 1020.81 370.64C1007.49 369.88 994.147 374.2 984.887 386.32C979.247 393.7 977.887 401.62 977.617 410.97C977.617 436.07 1000.11 445.72 1014.84 446.7C1021.17 447.12 1022.33 446.67 1025.53 446.41C1025.53 446.41 1019.46 451.13 1014.29 454.71C1012.39 456.03 1010.55 458.24 1012.48 461.43C1013.72 463.48 1016.4 467.44 1017.7 469.45C1019.03 471.5 1022.47 471.74 1025.41 469.06C1033.45 461.74 1038.12 456.84 1044.12 449.93C1050.84 442.19 1056.22 434.74 1059.26 420.79C1061.36 411.13 1061.5 397.85 1051.88 385.59H1051.89Z" fill="#FF8200"/>
<path d="M303.17 151.7H286.43V212.3H303.17V151.7Z" fill="black"/>
<path d="M323.81 169.11H307.07V212.3H323.81V169.11Z" fill="black"/>
<path d="M310.667 164.21C312.117 165.02 313.707 165.42 315.437 165.42C317.167 165.42 318.837 165.02 320.287 164.21C321.737 163.4 322.867 162.3 323.677 160.9C324.487 159.51 324.887 157.94 324.887 156.21C324.887 154.48 324.477 152.9 323.677 151.48C322.867 150.06 321.737 148.96 320.287 148.17C318.837 147.39 317.217 147 315.437 147C313.657 147 312.117 147.39 310.667 148.17C309.217 148.95 308.077 150.05 307.237 151.48C306.397 152.9 305.977 154.48 305.977 156.21C305.977 157.94 306.397 159.5 307.237 160.9C308.077 162.3 309.217 163.4 310.667 164.21Z" fill="black"/>
<path d="M359.761 169.11L351.061 193.63H350.711L342.021 169.11H324.531L342.441 212.29H344.441H357.331H359.341L377.251 169.11H359.761Z" fill="black"/>
<path d="M408.981 170.78C405.491 168.88 401.491 167.93 396.971 167.93C392.451 167.93 388.391 168.88 384.791 170.78C381.191 172.68 378.371 175.35 376.341 178.82C374.301 182.28 373.281 186.24 373.281 190.7C373.281 195.16 374.281 199.2 376.291 202.63C378.301 206.06 381.131 208.73 384.791 210.62C388.441 212.52 392.731 213.47 397.641 213.47C402.551 213.47 406.781 212.49 410.321 210.54C413.861 208.59 416.561 205.85 418.401 202.34L403.751 197.4C403.251 198.46 402.481 199.28 401.451 199.87C400.421 200.46 399.151 200.75 397.641 200.75C396.131 200.75 394.781 200.46 393.581 199.87C392.381 199.29 391.431 198.45 390.731 197.36C390.241 196.61 389.991 195.77 389.841 194.89H419.641C419.861 193.44 419.981 192.05 419.981 190.71C419.981 186.19 419.021 182.22 417.091 178.78C415.161 175.35 412.461 172.68 408.971 170.79L408.981 170.78ZM393.251 181.45C394.341 180.92 395.581 180.65 396.971 180.65C398.361 180.65 399.551 180.9 400.531 181.41C401.511 181.91 402.261 182.58 402.791 183.42C403.251 184.14 403.471 184.96 403.531 185.85H389.851C389.991 185.06 390.221 184.31 390.651 183.67C391.291 182.72 392.161 181.98 393.251 181.45Z" fill="black"/>
<path d="M453.217 151.7H436.477V212.3H453.217V151.7Z" fill="black"/>
<path d="M473.857 169.11H457.117V212.3H473.857V169.11Z" fill="black"/>
<path d="M470.347 148.18C468.897 147.4 467.277 147.01 465.497 147.01C463.717 147.01 462.177 147.4 460.727 148.18C459.277 148.96 458.137 150.06 457.297 151.49C456.457 152.91 456.047 154.49 456.047 156.22C456.047 157.95 456.467 159.51 457.297 160.91C458.137 162.3 459.277 163.41 460.727 164.22C462.177 165.03 463.767 165.43 465.497 165.43C467.227 165.43 468.897 165.03 470.347 164.22C471.797 163.41 472.927 162.31 473.737 160.91C474.547 159.52 474.947 157.95 474.947 156.22C474.947 154.49 474.537 152.91 473.737 151.49C472.927 150.07 471.797 148.97 470.347 148.18Z" fill="black"/>
<path d="M524.378 169.11H505.628L494.838 185.6H494.498V151.7H477.758V212.29H494.498V194.22H494.808L506.298 212.29H524.548L509.898 189.86L524.378 169.11Z" fill="black"/>
<path d="M556.612 170.78C553.122 168.88 549.122 167.93 544.602 167.93C540.082 167.93 536.022 168.88 532.422 170.78C528.822 172.68 526.002 175.35 523.972 178.82C521.932 182.28 520.922 186.24 520.922 190.7C520.922 195.16 521.922 199.2 523.932 202.63C525.942 206.06 528.772 208.73 532.432 210.62C536.082 212.52 540.372 213.47 545.282 213.47C550.192 213.47 554.422 212.49 557.962 210.54C561.502 208.59 564.202 205.85 566.042 202.34L551.392 197.4C550.892 198.46 550.122 199.28 549.092 199.87C548.062 200.46 546.792 200.75 545.282 200.75C543.772 200.75 542.422 200.46 541.222 199.87C540.022 199.29 539.072 198.45 538.372 197.36C537.892 196.61 537.632 195.77 537.482 194.89H567.292C567.512 193.44 567.622 192.05 567.622 190.71C567.622 186.19 566.662 182.22 564.732 178.78C562.802 175.35 560.102 172.68 556.612 170.79V170.78ZM540.872 181.45C541.962 180.92 543.202 180.65 544.602 180.65C546.002 180.65 547.182 180.9 548.162 181.41C549.142 181.92 549.892 182.58 550.422 183.42C550.882 184.14 551.102 184.96 551.162 185.85H537.482C537.622 185.06 537.852 184.31 538.282 183.67C538.922 182.72 539.792 181.98 540.882 181.45H540.872Z" fill="black"/>
<path d="M613.413 174.13H613.033C612.093 172.5 610.973 171.18 609.643 170.24C607.463 168.71 604.763 167.94 601.523 167.94C597.733 167.94 594.323 168.93 591.313 170.91C588.303 172.89 585.953 175.61 584.283 179.07C582.613 182.53 581.773 186.41 581.773 190.7C581.773 194.99 582.613 198.88 584.283 202.34C585.953 205.8 588.303 208.52 591.313 210.5C594.323 212.48 597.733 213.47 601.523 213.47C604.763 213.47 607.463 212.69 609.643 211.12C610.953 210.18 612.063 208.87 612.993 207.27H613.403V212.29H630.143V169.11H613.403V174.13H613.413ZM610.063 197.4C608.893 198.07 607.583 198.4 606.133 198.4C604.683 198.4 603.383 198.07 602.243 197.4C601.103 196.73 600.193 195.81 599.523 194.64C598.853 193.47 598.523 192.16 598.523 190.71C598.523 189.26 598.853 187.87 599.523 186.69C600.193 185.52 601.103 184.61 602.243 183.97C603.383 183.33 604.683 183.01 606.133 183.01C607.583 183.01 608.893 183.33 610.063 183.97C611.233 184.61 612.143 185.52 612.783 186.69C613.423 187.86 613.743 189.2 613.743 190.71C613.743 192.22 613.423 193.47 612.783 194.64C612.143 195.81 611.233 196.73 610.063 197.4Z" fill="black"/>
<path d="M665.732 151.7H648.992V212.3H665.732V151.7Z" fill="black"/>
<path d="M741.398 197.19C740.118 198 738.608 198.4 736.878 198.4C735.368 198.4 734.018 198.07 732.818 197.4C731.618 196.73 730.668 195.81 729.968 194.64C729.268 193.47 728.918 192.16 728.918 190.71C728.918 189.26 729.268 187.87 729.968 186.69C730.668 185.52 731.618 184.61 732.818 183.97C734.018 183.33 735.368 183.01 736.878 183.01C738.608 183.01 740.118 183.41 741.398 184.22C742.678 185.03 743.598 186.13 744.158 187.53L759.058 182.51C757.998 179.61 756.378 177.06 754.208 174.85C752.028 172.65 749.468 170.94 746.508 169.75C743.548 168.55 740.338 167.95 736.878 167.95C732.528 167.95 728.538 168.94 724.908 170.92C721.278 172.9 718.418 175.64 716.328 179.12C714.938 181.43 714.058 183.92 713.588 186.55C713.138 183.88 712.278 181.38 710.918 179.08C708.878 175.62 706.088 172.9 702.548 170.92C699.008 168.94 695.028 167.95 690.618 167.95C686.208 167.95 682.308 168.94 678.728 170.92C675.158 172.9 672.348 175.62 670.318 179.08C668.278 182.54 667.258 186.42 667.258 190.71C667.258 195 668.278 198.82 670.318 202.31C672.358 205.8 675.158 208.53 678.728 210.51C682.298 212.49 686.258 213.48 690.618 213.48C694.978 213.48 698.998 212.49 702.548 210.51C706.088 208.53 708.878 205.79 710.918 202.31C712.268 200 713.128 197.5 713.588 194.85C714.058 197.49 714.938 199.97 716.328 202.26C718.418 205.72 721.278 208.45 724.908 210.46C728.538 212.47 732.528 213.47 736.878 213.47C740.338 213.47 743.548 212.86 746.508 211.63C749.468 210.4 752.038 208.68 754.208 206.48C756.388 204.28 757.998 201.75 759.058 198.9L744.158 193.88C743.598 195.27 742.678 196.38 741.398 197.19ZM697.288 194.63C696.648 195.8 695.738 196.72 694.568 197.39C693.398 198.06 692.088 198.39 690.638 198.39C689.188 198.39 687.888 198.06 686.748 197.39C685.608 196.72 684.698 195.8 684.028 194.63C683.358 193.46 683.028 192.15 683.028 190.7C683.028 189.25 683.358 187.86 684.028 186.68C684.698 185.51 685.608 184.6 686.748 183.96C687.888 183.32 689.188 183 690.638 183C692.088 183 693.398 183.32 694.568 183.96C695.738 184.6 696.648 185.51 697.288 186.68C697.928 187.85 698.248 189.19 698.248 190.7C698.248 192.21 697.928 193.46 697.288 194.63Z" fill="black"/>
<path d="M789.913 174.13H789.533C788.593 172.5 787.473 171.18 786.143 170.24C783.963 168.71 781.263 167.94 778.023 167.94C774.233 167.94 770.823 168.93 767.813 170.91C764.803 172.89 762.453 175.61 760.783 179.07C759.113 182.53 758.273 186.41 758.273 190.7C758.273 194.99 759.113 198.88 760.783 202.34C762.453 205.8 764.803 208.52 767.813 210.5C770.823 212.48 774.233 213.47 778.023 213.47C781.253 213.47 783.963 212.69 786.143 211.12C787.453 210.18 788.563 208.87 789.493 207.27H789.903V212.29H806.643V169.11H789.903V174.13H789.913ZM786.563 197.4C785.393 198.07 784.083 198.4 782.633 198.4C781.183 198.4 779.883 198.07 778.743 197.4C777.603 196.73 776.693 195.81 776.023 194.64C775.353 193.47 775.023 192.16 775.023 190.71C775.023 189.26 775.353 187.87 776.023 186.69C776.693 185.52 777.593 184.61 778.743 183.97C779.883 183.33 781.183 183.01 782.633 183.01C784.083 183.01 785.393 183.33 786.563 183.97C787.733 184.61 788.643 185.52 789.283 186.69C789.923 187.86 790.243 189.2 790.243 190.71C790.243 192.22 789.923 193.47 789.283 194.64C788.643 195.81 787.733 196.73 786.563 197.4Z" fill="black"/>
<path d="M827.279 151.7H810.539V212.3H827.279V151.7Z" fill="black"/>
</svg>
