<svg width="75" height="55" viewBox="0 0 75 55" fill="none" xmlns="http://www.w3.org/2000/svg">
<g clip-path="url(#clip0_9548_241768)">
<path d="M37.5 18.325L18.2757 0L-1 18.325L-0.974338 55H37.5V18.325Z" fill="#EFDBB8"/>
<path d="M21.3275 32.1254C20.1981 31.8254 18.1448 31.2504 18.1448 31.2504C17.3748 31.1004 16.8101 30.8754 16.5021 30.6004C16.2198 30.3504 16.0915 30.0754 16.1171 29.7504C16.1171 29.4754 16.2198 29.2504 16.3995 29.0504C16.6048 28.8254 16.8615 28.6754 17.2208 28.5504C17.6058 28.4254 18.0165 28.3754 18.4785 28.3754C19.2741 28.3754 20.2751 28.7254 20.8141 29.1254C21.1991 29.4004 21.4301 29.7504 21.5585 30.1754C21.7125 30.6754 22.1745 31.0254 22.7135 31.0254H28.2318C28.5655 31.0254 28.8991 30.8754 29.1301 30.6254C29.3611 30.3754 29.4638 30.0254 29.4381 29.6754C29.3098 28.5254 28.4628 26.7754 27.8211 26.0754C26.7688 24.9004 25.3571 23.7754 23.9455 23.1754C22.2258 22.4504 20.6088 22.0254 18.7865 22.0254C16.2711 22.0254 14.1921 22.5254 12.7291 23.1004C11.0865 23.7504 9.77747 24.7504 8.90481 26.0004C8.16047 27.0754 7.44181 28.5754 7.44181 30.5254C7.44181 32.5504 8.03214 33.9504 9.26414 35.2504C10.4705 36.5254 12.3185 37.4004 14.7055 37.8504L18.7351 38.6254C19.6078 38.8004 20.2495 39.0254 20.6345 39.3004C20.9938 39.5254 21.1478 39.8254 21.1478 40.2254C21.1478 40.5004 21.0708 40.7504 20.8655 40.9504C20.6601 41.1754 20.3778 41.3254 20.0185 41.4504C19.6335 41.5754 19.1971 41.6254 18.6838 41.6254C17.8111 41.6254 17.0925 41.4254 16.5278 41.0254C16.1171 40.7254 15.8348 40.3504 15.6551 39.9004C15.4755 39.4504 15.0391 39.1254 14.5258 39.1254H8.2118C7.85247 39.1254 7.5188 39.2754 7.2878 39.5504C7.0568 39.8254 6.95414 40.2004 7.03114 40.5504C7.28781 41.8754 7.8268 43.0504 8.5968 44.0754C9.57213 45.3754 10.9325 46.4004 12.6265 47.1004C14.3205 47.8004 16.3225 48.1754 18.6325 48.1754C20.9425 48.1754 22.3028 47.9254 23.9711 47.2004C25.8961 46.3754 26.6918 45.7004 27.2308 45.0504C28.4115 43.6754 29.3355 41.6004 29.3355 39.8504C29.3355 37.9504 28.5398 35.4504 26.7175 34.1754C25.3571 33.2254 23.1241 32.6004 21.3018 32.1254H21.3275Z" fill="#0B0B0E"/>
<path d="M75 18.325L56.275 0L37.5 18.325V55H75V18.325Z" fill="#FF7900"/>
<path d="M64.7512 26.2245C62.6762 23.6245 59.6262 22.6245 56.7262 22.4495C53.3012 22.2495 49.8512 23.3495 47.4512 26.3995C46.0012 28.2495 45.6512 30.2495 45.5762 32.6245C45.5762 38.9495 51.3762 41.3995 55.1762 41.6495C56.8012 41.7495 57.1012 41.6495 57.9262 41.5745C57.9262 41.5745 56.3512 42.7745 55.0262 43.6745C54.5262 43.9995 54.0512 44.5745 54.5512 45.3745C54.8762 45.8995 55.5512 46.8995 55.9012 47.3995C56.2512 47.9245 57.1262 47.9745 57.9012 47.2995C59.9762 45.4495 61.1762 44.2245 62.7262 42.4745C64.4512 40.5245 65.8512 38.6495 66.6262 35.1245C67.1762 32.6995 67.2012 29.3495 64.7262 26.2495L64.7512 26.2245Z" fill="#0B0B0E"/>
</g>
<defs>
<clipPath id="clip0_9548_241768">
<rect width="75" height="55" fill="white"/>
</clipPath>
</defs>
</svg>
