<svg width="416" height="504" viewBox="0 0 416 504" fill="none" xmlns="http://www.w3.org/2000/svg">
<path d="M373.106 75.4316C332.658 23.8779 273.217 3.64967 216.942 0.418785C150.044 -3.37399 83.0063 18.2589 36.5087 79.0838C8.15996 116.099 1.33654 155.852 0 202.771C0 328.705 112.973 377.098 187.045 382.014C218.841 384.122 224.68 381.874 240.789 380.539C240.789 380.539 210.259 404.209 184.302 422.19C174.735 428.792 165.52 439.89 175.157 455.904C181.347 466.158 194.854 486.035 201.396 496.079C208.079 506.333 225.383 507.598 240.155 494.112C280.533 457.378 304.028 432.796 334.136 398.169C367.901 359.328 394.913 321.962 410.178 252.007C420.729 203.543 421.433 136.959 373.106 75.4316Z" fill="#FF7900"/>
</svg>
