<svg width="43" height="25" viewBox="0 0 43 25" fill="none" xmlns="http://www.w3.org/2000/svg">
<g clip-path="url(#clip0_6910_202331)">
<path d="M17.938 3.74098C15.9917 1.18444 13.1349 0.179289 10.431 0.0206368C7.21447 -0.166765 3.99173 0.90547 1.75504 3.922C0.393798 5.75874 0.0640827 7.73072 0 10.0573C0 16.3022 5.43256 18.7033 8.99121 18.9471C10.5209 19.0515 10.801 18.9386 11.5742 18.8758C11.5742 18.8758 10.1075 20.0492 8.85995 20.9415C8.40103 21.2694 7.95659 21.8188 8.42171 22.6132C8.72041 23.1232 9.36744 24.1092 9.68372 24.6075C10.0062 25.1165 10.8351 25.1782 11.5463 24.5117C13.4884 22.6898 14.616 21.4707 16.0641 19.7521C17.6879 17.827 18.9871 15.9711 19.7209 12.5009C20.2295 10.0967 20.2625 6.79371 17.939 3.74098H17.938Z" fill="#FF8200"/>
</g>
<g clip-path="url(#clip1_6910_202331)">
<path d="M40.938 3.74098C38.9917 1.18444 36.1349 0.179289 33.431 0.0206368C30.2145 -0.166765 26.9917 0.90547 24.755 3.922C23.3938 5.75874 23.0641 7.73072 23 10.0573C23 16.3022 28.4326 18.7033 31.9912 18.9471C33.5209 19.0515 33.801 18.9386 34.5742 18.8758C34.5742 18.8758 33.1075 20.0492 31.8599 20.9415C31.401 21.2694 30.9566 21.8188 31.4217 22.6132C31.7204 23.1232 32.3674 24.1092 32.6837 24.6075C33.0062 25.1165 33.8351 25.1782 34.5463 24.5117C36.4884 22.6898 37.616 21.4707 39.0641 19.7521C40.6879 17.827 41.9871 15.9711 42.7209 12.5009C43.2295 10.0967 43.2625 6.79371 40.939 3.74098H40.938Z" fill="#FF8200"/>
</g>
<defs>
<clipPath id="clip0_6910_202331">
<rect width="20" height="25" fill="white"/>
</clipPath>
<clipPath id="clip1_6910_202331">
<rect width="20" height="25" fill="white" transform="translate(23)"/>
</clipPath>
</defs>
</svg>
