<svg width="173" height="32" viewBox="0 0 173 32" fill="none" xmlns="http://www.w3.org/2000/svg">
<path d="M143.693 7.47802C142.054 7.47802 140.949 7.49518 139.31 7.49122C137.445 7.48594 137.448 7.7552 137.449 9.60176C137.452 13.2672 137.441 16.6593 137.462 20.3247C137.465 20.8989 137.364 21.3701 136.744 21.4467C136.073 21.5285 135.794 21.0137 135.698 20.4633C135.612 19.9723 135.642 19.4589 135.641 18.9547C135.635 15.4912 135.597 12.3511 135.659 8.88901C135.676 7.94659 135.537 7.49518 134.519 7.47406C133.165 7.44634 131.554 7.4767 130.706 7.49518C129.808 7.51366 128.92 7.57437 128.465 7.94131C128.074 8.25545 127.746 8.6237 127.74 9.53972C127.713 13.6249 127.571 18.337 128.015 22.3191C128.529 26.927 132.24 28.2521 135.55 26.688C136.431 26.2723 137.338 25.5727 138.02 25.0236C138.043 25.3259 138.035 25.5014 138.044 25.677C138.093 26.6458 138.284 26.8412 139.202 26.8016C140.906 26.729 142.615 26.7474 144.321 26.7936C145.039 26.8134 145.22 26.5547 145.218 25.8684C145.194 20.0515 145.185 14.595 145.218 8.77813C145.223 7.97563 145.074 7.4767 143.694 7.4767L143.693 7.47802Z" fill="#FF7900"/>
<path d="M126.62 11.561C126.452 7.20664 122.321 6.11507 119.108 7.42707C118.205 7.79532 117.285 8.57671 116.691 9.38846C116.698 9.07696 116.702 8.75226 116.707 8.48564C116.725 7.4495 116.212 7.35579 115.294 7.31355C113.642 7.237 112.113 7.237 110.338 7.32147C109.621 7.35579 109.439 7.56038 109.441 8.24673C109.465 14.0636 109.474 19.8805 109.441 25.6973C109.436 26.4998 109.723 26.6543 110.429 26.6371C112.067 26.5962 113.707 26.6199 115.346 26.6239C116.59 26.6274 117.21 26.0145 117.207 24.7853C117.205 21.1199 117.215 17.4545 117.194 13.7904C117.192 13.2162 117.293 12.745 117.913 12.6698C118.584 12.5879 118.862 13.1027 118.958 13.6531C119.045 14.1441 119.014 14.6589 119.016 15.1618C119.021 18.6252 119.059 22.0887 118.997 25.5508C118.98 26.4932 119.298 26.6265 120.137 26.6305C121.545 26.6358 123.216 26.6305 124.487 26.6305C125.759 26.6305 126.547 26.7704 126.602 25.8821C126.724 23.9168 126.708 21.6808 126.708 20.7635C126.708 18.9275 126.791 15.9445 126.621 11.5597L126.62 11.561Z" fill="#FF7900"/>
<path d="M100.337 14.144C101.026 14.3315 102.211 14.5598 103.123 14.8317C104.576 15.266 105.702 15.6421 106.805 16.3984C108.297 17.4214 109.062 19.2138 109.062 20.733C109.062 22.1308 108.498 23.6685 107.554 24.7693C107.101 25.2973 106.478 25.9427 104.917 26.6106C103.576 27.1861 102.399 27.392 100.604 27.392C98.8082 27.392 97.118 27.1043 95.756 26.5354C94.3823 25.9625 93.2882 25.1468 92.5042 24.1107C91.8816 23.2884 91.4561 22.3367 91.2394 21.2834C91.1816 21.001 91.2591 20.7119 91.4522 20.4902C91.6387 20.2764 91.9118 20.1536 92.2008 20.1536H97.3018C97.7037 20.1536 98.0123 20.4268 98.2107 20.7647C98.4129 21.1105 98.5311 21.323 98.8634 21.5606C99.306 21.8774 99.7867 22.0358 100.496 22.0358C100.907 22.0358 101.112 22.0028 101.298 21.9381C101.607 21.8325 101.75 21.7335 101.91 21.5619C102.057 21.4036 102.176 21.1145 102.176 20.8862C102.176 20.5667 102.043 20.3503 101.855 20.2209C101.508 19.982 101.036 19.8474 100.336 19.7088C99.6068 19.5636 98.2343 19.2917 97.4213 19.1254C95.7022 18.7743 94.0132 18.0589 93.0308 17.0373C92.0406 16.0064 91.5454 14.8779 91.5572 13.2636C91.5572 11.7141 92.1207 10.5116 92.7327 9.64709C93.4393 8.64791 94.4939 7.85332 95.8164 7.3346C97.0011 6.86999 98.3223 6.56641 100.351 6.56641C102.381 6.56641 103.933 7.14717 105.237 7.83352C106.338 8.41165 107.319 9.35406 107.857 10.1038C108.505 11.0053 108.858 11.8936 108.955 12.9719C108.98 13.2452 108.989 13.5936 108.798 13.7995C108.611 13.9988 108.401 14.0384 107.864 14.0384H103.806C102.954 14.0384 102.664 13.8114 102.529 13.4049C102.375 12.9442 102.244 12.6829 101.812 12.3199C101.507 12.0638 101.019 11.8447 100.516 11.8315C100.149 11.8223 99.8471 11.8315 99.5398 11.9279C99.2548 12.015 99.0302 12.1483 98.8713 12.3239C98.7216 12.4889 98.5797 12.8637 98.7019 13.2148C98.9199 13.8457 99.7854 13.9962 100.338 14.1467L100.337 14.144Z" fill="#FF7900"/>
<path d="M159.677 4.17701C159.97 3.52233 159.985 2.98381 159.752 2.58915C159.576 2.28953 159.249 2.16678 158.608 2.08231C158.271 2.03743 157.978 2.01367 157.072 2.01367C156.36 2.01367 155.4 2.03479 154.759 2.07439C154.311 2.10211 154.021 2.15358 153.863 2.31065C153.554 2.61819 153.468 3.0564 153.514 3.62661C153.54 3.95923 153.539 4.19153 153.552 4.39744C153.577 4.78417 153.6 4.95972 153.518 5.46393C153.407 6.13576 152.396 6.66637 151.747 6.81552C149.742 7.27221 148.306 8.12091 147.357 9.40783C146.03 11.2082 145.722 13.0402 146.411 15.0082C146.653 15.6972 146.988 16.3017 147.434 16.8587C147.677 17.1623 147.778 17.553 147.711 17.9279C147.651 18.2658 147.449 18.5284 147.174 18.7145C146.468 19.1924 146.223 19.4986 146.122 20.3064C145.976 21.4679 146.595 21.9021 147.074 22.2229C147.316 22.3852 147.525 22.5251 147.587 22.7139C147.705 23.0769 147.569 23.4623 147.395 23.6655C146.226 25.0343 145.798 26.6578 146.221 28.1203C146.649 29.6012 148.059 30.7363 149.662 31.2999C151.188 31.8371 153.167 31.9982 154.592 31.9982C155.69 31.9982 156.861 31.9388 158.116 31.7408C159.692 31.4913 161.335 30.7284 162.229 29.8031C163.294 28.701 164.023 26.6578 163.592 24.9261C163.223 23.4372 162.183 22.3456 160.664 21.852C160.119 21.6738 159.554 21.555 158.988 21.4349C157.949 21.2145 156.896 21.2184 155.878 21.2211C155.341 21.2224 154.789 21.225 154.249 21.1933C153.602 21.1564 153.393 21.0086 153.389 20.5835C153.385 20.1519 153.591 20.0041 154.236 19.9777L154.662 19.9605C155.545 19.9249 156.46 19.888 157.361 19.7467C160.379 19.2755 162.655 17.1095 163.022 14.3588C163.462 11.0749 162.029 8.49313 159.103 7.24977C158.813 7.12702 158.696 7.03463 158.661 6.84588C158.604 6.54362 158.749 6.29151 158.839 6.07505C159.077 5.50616 159.463 4.64822 159.675 4.17437L159.677 4.17701ZM155.359 13.097V13.1075C155.364 13.8031 155.354 14.3799 155.175 14.9304C155.058 15.2894 154.88 15.3395 154.722 15.3408C154.417 15.321 154.312 15.1349 154.27 14.9607C153.99 13.8071 153.985 12.6482 154.253 11.5171C154.352 11.1 154.588 11.0894 154.677 11.0841C154.69 11.0841 154.704 11.0841 154.717 11.0841C154.894 11.0841 155.082 11.1488 155.197 11.5237C155.371 12.0859 155.373 12.6905 155.36 13.097H155.359ZM155.388 25.5781C156.235 25.6243 156.571 25.9569 156.576 26.4004C156.582 26.9323 156.171 27.2689 155.568 27.3098C155.188 27.3362 154.696 27.3415 154.316 27.3164C153.473 27.261 153.233 26.766 153.233 26.4466C153.233 26.0427 153.553 25.6283 154.245 25.5847C154.62 25.5609 155.014 25.5583 155.388 25.5781Z" fill="#FF7900"/>
<path d="M88.8156 21.0191C88.0604 20.0503 86.9506 19.6701 85.9 19.6094C84.651 19.5382 83.3994 19.9447 82.5312 21.0877C82.002 21.7833 81.8746 22.5304 81.8496 23.4121C81.8496 25.7787 83.9588 26.6881 85.3418 26.7805C85.9354 26.8201 86.0444 26.7779 86.3452 26.7528C86.3452 26.7528 85.7752 27.1976 85.2906 27.5355C85.112 27.6596 84.9399 27.8681 85.1198 28.1691C85.2354 28.3618 85.4876 28.7353 85.6097 28.9241C85.7345 29.1168 86.0576 29.1405 86.3334 28.8871C87.0872 28.1968 87.5259 27.7348 88.088 27.0841C88.7184 26.3542 89.2227 25.652 89.5077 24.3374C89.7047 23.4266 89.7179 22.1753 88.8156 21.0191Z" fill="black"/>
<path d="M172.76 23.8332C172.907 22.9145 172.667 21.6118 172.058 20.9202C171.278 20.0345 170.303 19.6016 168.927 19.6016C166.724 19.6016 165.035 21.0904 165.035 23.036C165.035 24.9815 166.485 26.7951 168.688 26.7951C170.89 26.7951 172.452 25.7537 172.759 23.8319L172.76 23.8332Z" fill="#FF7900"/>
<path d="M0 0H7.34031V26.7058H0V0ZM12.4243 14.6814C11.8976 14.0914 11.1819 13.7957 10.277 13.7957C9.66494 13.7957 9.1396 13.9502 8.69831 14.2564C8.25834 14.5639 7.92081 15.0497 7.68835 15.7136C7.45588 16.3775 7.34031 17.2381 7.34031 18.2953L6.60615 14.164V10.5488H7.92738L6.60615 14.164C6.60615 12.7873 6.90034 11.5704 7.4874 10.5118C8.07447 9.45454 8.88875 8.63092 9.92761 8.04092C10.9678 7.45091 12.1485 7.15525 13.4697 7.15525C14.9131 7.15525 16.1673 7.50503 17.2311 8.2059C18.295 8.90678 19.1145 9.90331 19.6897 11.1942C20.265 12.4851 20.5526 14.0162 20.5526 15.7862V26.7045H13.2123V17.114C13.2123 16.0818 12.9496 15.2701 12.423 14.6801L12.4243 14.6814Z" fill="black"/>
<path d="M26.2816 25.9677C24.6793 25.1322 23.4369 23.9574 22.5556 22.4448C21.6743 20.9322 21.2344 19.1807 21.2344 17.1889C21.2344 15.1972 21.6809 13.476 22.574 11.9515C23.4671 10.427 24.7029 9.24699 26.2816 8.41017C27.8602 7.57466 29.6398 7.15625 31.6217 7.15625C33.6035 7.15625 35.3594 7.57466 36.8882 8.41017C38.4169 9.24699 39.6042 10.4204 40.4487 11.933C41.2932 13.4456 41.7147 15.1972 41.7147 17.1889C41.7147 17.7789 41.6661 18.394 41.5676 19.0328H24.8671V15.0493H34.7776L34.5202 15.2341C34.5202 14.7669 34.4033 14.3485 34.1709 13.9802C33.9384 13.6119 33.6074 13.3163 33.1806 13.0945C32.7524 12.8728 32.2324 12.7619 31.6203 12.7619C31.0083 12.7619 30.4646 12.8794 29.9865 13.1117C29.5098 13.3453 29.1302 13.6713 28.8492 14.0898C28.5681 14.5082 28.4276 15.0005 28.4276 15.5654V18.5167C28.4276 19.1068 28.5799 19.6413 28.8859 20.1218C29.192 20.6009 29.6083 20.9705 30.1336 21.2279C30.659 21.4866 31.2526 21.6146 31.9132 21.6146C32.5738 21.6146 33.1307 21.4852 33.5838 21.2279C34.0369 20.9692 34.3731 20.6075 34.5925 20.1402L41.016 22.3168C40.2083 23.8664 39.0276 25.0714 37.4739 25.932C35.9202 26.7926 34.0671 27.2229 31.9132 27.2229C29.7593 27.2229 27.8812 26.8045 26.2789 25.969L26.2816 25.9677Z" fill="black"/>
<path d="M42.3984 0H49.7387V26.7058H42.3984V0Z" fill="black"/>
<path d="M51.4453 0H58.7856V26.7058H51.4453V0Z" fill="black"/>
<path d="M64.4976 25.9129C62.9321 25.0405 61.7014 23.8354 60.8084 22.2977C59.9153 20.7613 59.4688 19.0586 59.4688 17.1883C59.4688 15.318 59.9153 13.5862 60.8084 12.0604C61.7014 10.5359 62.9307 9.33744 64.4976 8.46365C66.0631 7.59119 67.8006 7.1543 69.7089 7.1543C71.6172 7.1543 73.385 7.59119 74.9387 8.46365C76.4924 9.33744 77.7164 10.5359 78.6095 12.0604C79.5026 13.5849 79.9491 15.2942 79.9491 17.1883C79.9491 19.0824 79.5026 20.76 78.6095 22.2977C77.7164 23.8354 76.4924 25.0391 74.9387 25.9129C73.385 26.7854 71.6409 27.2223 69.7089 27.2223C67.777 27.2223 66.0631 26.7854 64.4976 25.9129ZM71.4347 20.1409C71.9482 19.8453 72.3461 19.4401 72.6272 18.924C72.9083 18.4079 73.0488 17.8298 73.0488 17.1909C73.0488 16.5521 72.9083 15.937 72.6272 15.4209C72.3461 14.9048 71.9482 14.5049 71.4347 14.2224C70.9212 13.94 70.3459 13.7987 69.7103 13.7987C69.0746 13.7987 68.5046 13.94 68.0029 14.2224C67.5012 14.5049 67.1033 14.9048 66.8104 15.4209C66.5162 15.937 66.3704 16.527 66.3704 17.1909C66.3704 17.8548 66.5175 18.4079 66.8104 18.924C67.1033 19.4401 67.5012 19.8466 68.0029 20.1409C68.5046 20.4366 69.0733 20.5831 69.7103 20.5831C70.3472 20.5831 70.9212 20.4353 71.4347 20.1409Z" fill="black"/>
</svg>
