<svg width="201" height="37" viewBox="0 0 201 37" fill="none" xmlns="http://www.w3.org/2000/svg">
<path d="M167.145 8.64719C165.238 8.64719 163.954 8.66703 162.047 8.66245C159.878 8.65635 159.881 8.96768 159.882 11.1028C159.885 15.3409 159.873 19.2631 159.898 23.5012C159.901 24.1651 159.783 24.7099 159.062 24.7984C158.281 24.8931 157.958 24.2979 157.846 23.6615C157.745 23.0937 157.78 22.5001 157.779 21.9171C157.773 17.9125 157.728 14.2817 157.8 10.2786C157.82 9.18897 157.658 8.66703 156.474 8.64261C154.899 8.61056 153.025 8.64567 152.039 8.66703C150.994 8.6884 149.962 8.7586 149.432 9.18287C148.978 9.54609 148.596 9.97189 148.588 11.031C148.558 15.7545 148.393 21.2028 148.909 25.8072C149.506 31.135 153.824 32.6673 157.673 30.8588C158.698 30.378 159.753 29.5692 160.547 28.9343C160.573 29.2838 160.564 29.4868 160.574 29.6898C160.631 30.8099 160.854 31.0358 161.922 30.99C163.903 30.9061 165.891 30.9275 167.875 30.9809C168.711 31.0038 168.922 30.7046 168.919 29.911C168.891 23.1853 168.88 16.8762 168.919 10.1505C168.925 9.22255 168.752 8.64567 167.147 8.64567L167.145 8.64719Z" fill="#FF7900"/>
<path d="M147.287 13.3674C147.091 8.33265 142.287 7.07052 138.548 8.58751C137.499 9.01331 136.428 9.91679 135.738 10.8554C135.745 10.4952 135.75 10.1198 135.756 9.81149C135.777 8.61346 135.18 8.5051 134.112 8.45627C132.19 8.36775 130.412 8.36775 128.348 8.46542C127.514 8.5051 127.302 8.74166 127.305 9.53525C127.332 16.261 127.343 22.9867 127.305 29.7125C127.299 30.6404 127.632 30.819 128.454 30.7991C130.359 30.7518 132.267 30.7793 134.173 30.7839C135.619 30.7879 136.341 30.0793 136.338 28.6579C136.335 24.4198 136.347 20.1817 136.323 15.9451C136.32 15.2812 136.437 14.7364 137.158 14.6494C137.939 14.5548 138.263 15.15 138.374 15.7864C138.475 16.3541 138.44 16.9493 138.442 17.5308C138.448 21.5354 138.492 25.54 138.42 29.5431C138.4 30.6328 138.77 30.7869 139.746 30.7915C141.384 30.7976 143.327 30.7915 144.806 30.7915C146.285 30.7915 147.201 30.9533 147.265 29.9262C147.408 27.6537 147.389 25.0684 147.389 24.0077C147.389 21.8849 147.485 18.4358 147.288 13.3659L147.287 13.3674Z" fill="#FF7900"/>
<path d="M116.713 16.3553C117.515 16.572 118.893 16.8361 119.954 17.1504C121.645 17.6525 122.954 18.0875 124.237 18.962C125.973 20.1448 126.862 22.2173 126.862 23.9739C126.862 25.5901 126.206 27.368 125.108 28.6408C124.581 29.2513 123.857 29.9976 122.04 30.7698C120.481 31.4352 119.112 31.6733 117.023 31.6733C114.935 31.6733 112.969 31.3406 111.385 30.6828C109.787 30.0205 108.514 29.0773 107.602 27.8793C106.878 26.9285 106.383 25.8281 106.131 24.6103C106.064 24.2837 106.154 23.9494 106.379 23.6931C106.596 23.4458 106.913 23.3039 107.249 23.3039H113.183C113.65 23.3039 114.009 23.6198 114.24 24.0105C114.475 24.4103 114.613 24.6561 114.999 24.9308C115.514 25.297 116.073 25.4802 116.898 25.4802C117.376 25.4802 117.615 25.442 117.832 25.3672C118.191 25.2451 118.357 25.1307 118.544 24.9323C118.715 24.7491 118.852 24.4149 118.852 24.1509C118.852 23.7816 118.698 23.5313 118.479 23.3817C118.076 23.1055 117.526 22.9498 116.712 22.7896C115.864 22.6217 114.268 22.3073 113.322 22.115C111.322 21.7091 109.358 20.8819 108.215 19.7006C107.063 18.5087 106.487 17.2039 106.501 15.3374C106.501 13.5457 107.156 12.1554 107.868 11.1557C108.69 10.0004 109.917 9.08169 111.455 8.48191C112.833 7.9447 114.37 7.59369 116.73 7.59369C119.09 7.59369 120.896 8.2652 122.413 9.05879C123.693 9.72725 124.835 10.8169 125.461 11.6838C126.214 12.7261 126.625 13.7532 126.738 15.0001C126.767 15.316 126.778 15.7189 126.555 15.957C126.338 16.1874 126.093 16.2332 125.469 16.2332H120.748C119.758 16.2332 119.42 15.9707 119.263 15.5007C119.084 14.968 118.932 14.6659 118.429 14.2462C118.075 13.9501 117.506 13.6968 116.921 13.6815C116.495 13.6708 116.144 13.6815 115.786 13.7929C115.455 13.8936 115.193 14.0478 115.008 14.2508C114.834 14.4415 114.669 14.875 114.811 15.2809C115.065 16.0104 116.072 16.1844 116.715 16.3584L116.713 16.3553Z" fill="#FF7900"/>
<path d="M185.736 4.83016C186.077 4.07319 186.094 3.45052 185.823 2.9942C185.619 2.64776 185.238 2.50583 184.493 2.40816C184.1 2.35627 183.759 2.3288 182.705 2.3288C181.877 2.3288 180.761 2.35321 180.015 2.399C179.494 2.43105 179.157 2.49057 178.973 2.67218C178.614 3.02777 178.513 3.53446 178.567 4.19375C178.597 4.57834 178.596 4.84695 178.611 5.08502C178.64 5.53219 178.668 5.73517 178.571 6.31815C178.443 7.09497 177.267 7.70848 176.512 7.88093C174.179 8.40898 172.51 9.3903 171.405 10.8783C169.862 12.96 169.503 15.0783 170.305 17.3538C170.586 18.1504 170.976 18.8494 171.495 19.4934C171.778 19.8444 171.896 20.2962 171.818 20.7296C171.747 21.1203 171.512 21.424 171.193 21.6392C170.371 22.1916 170.087 22.5457 169.969 23.4797C169.8 24.8227 170.519 25.3248 171.077 25.6957C171.358 25.8834 171.601 26.0452 171.672 26.2634C171.81 26.6831 171.653 27.1287 171.449 27.3638C170.09 28.9464 169.592 30.8236 170.084 32.5145C170.582 34.2269 172.222 35.5394 174.086 36.191C175.861 36.8122 178.164 36.9984 179.821 36.9984C181.098 36.9984 182.461 36.9297 183.92 36.7008C185.753 36.4123 187.664 35.5302 188.705 34.4604C189.944 33.186 190.791 30.8236 190.29 28.8213C189.861 27.0998 188.651 25.8376 186.884 25.2668C186.25 25.0608 185.593 24.9235 184.934 24.7846C183.726 24.5297 182.501 24.5343 181.317 24.5373C180.692 24.5389 180.05 24.5419 179.422 24.5053C178.669 24.4626 178.426 24.2916 178.422 23.8002C178.417 23.3012 178.657 23.1302 179.407 23.0997L179.902 23.0799C180.93 23.0387 181.993 22.9959 183.041 22.8326C186.552 22.2878 189.2 19.7834 189.627 16.6029C190.139 12.8058 188.472 9.82067 185.069 8.38304C184.731 8.2411 184.595 8.13427 184.554 7.91603C184.488 7.56655 184.656 7.27505 184.762 7.02476C185.038 6.36699 185.487 5.37499 185.733 4.82711L185.736 4.83016ZM180.713 15.1439V15.1561C180.719 15.9604 180.707 16.6273 180.499 17.2637C180.363 17.6788 180.156 17.7368 179.972 17.7383C179.618 17.7154 179.496 17.5003 179.447 17.2988C179.121 15.965 179.115 14.625 179.427 13.3171C179.542 12.8348 179.817 12.8226 179.92 12.8165C179.936 12.8165 179.951 12.8165 179.966 12.8165C180.172 12.8165 180.391 12.8913 180.525 13.3247C180.727 13.9749 180.73 14.6738 180.715 15.1439H180.713ZM180.747 29.5752C181.732 29.6286 182.123 30.0132 182.129 30.526C182.136 31.141 181.657 31.5302 180.956 31.5775C180.515 31.608 179.942 31.6141 179.5 31.5851C178.52 31.521 178.24 30.9487 178.24 30.5794C178.24 30.1124 178.613 29.6332 179.418 29.5828C179.853 29.5553 180.312 29.5523 180.747 29.5752Z" fill="#FF7900"/>
<path d="M103.31 24.3025C102.431 23.1823 101.141 22.7428 99.9184 22.6726C98.4656 22.5901 97.0097 23.0602 95.9999 24.3818C95.3842 25.1861 95.2361 26.0499 95.207 27.0694C95.207 29.8058 97.6605 30.8573 99.2691 30.9641C99.9596 31.0099 100.086 30.9611 100.436 30.9321C100.436 30.9321 99.7733 31.4464 99.2095 31.8371C99.0018 31.9805 98.8017 32.2217 99.0109 32.5696C99.1454 32.7925 99.4387 33.2244 99.5808 33.4426C99.7259 33.6654 100.102 33.6929 100.423 33.3999C101.299 32.6017 101.81 32.0675 102.464 31.3151C103.197 30.4712 103.783 29.6593 104.115 28.1392C104.344 27.0862 104.359 25.6394 103.31 24.3025Z" fill="black"/>
<path d="M200.955 27.5563C201.126 26.4941 200.846 24.9878 200.137 24.1881C199.23 23.164 198.096 22.6635 196.495 22.6635C193.933 22.6635 191.969 24.385 191.969 26.6345C191.969 28.884 193.655 30.981 196.217 30.981C198.779 30.981 200.596 29.7768 200.953 27.5548L200.955 27.5563Z" fill="#FF7900"/>
<path d="M0 0H8.53821V30.8786H0V0ZM14.4519 16.9754C13.8393 16.2932 13.0067 15.9513 11.9541 15.9513C11.2422 15.9513 10.6311 16.1299 10.1178 16.484C9.60606 16.8395 9.21344 17.4012 8.94304 18.1688C8.67264 18.9365 8.53821 19.9315 8.53821 21.154L7.68423 16.3771V12.197H9.22108L7.68423 16.3771C7.68423 14.7853 8.02643 13.3782 8.70931 12.1543C9.39218 10.9318 10.3393 9.9795 11.5477 9.29731C12.7577 8.61512 14.131 8.27326 15.6679 8.27326C17.3468 8.27326 18.8057 8.67769 20.0432 9.48808C21.2806 10.2985 22.2339 11.4507 22.903 12.9433C23.5721 14.4359 23.9067 16.2062 23.9067 18.2528V30.8771H15.3685V19.7881C15.3685 18.5946 15.0629 17.656 14.4503 16.9738L14.4519 16.9754Z" fill="black"/>
<path d="M30.5701 30.0255C28.7063 29.0595 27.2611 27.7012 26.2361 25.9522C25.211 24.2032 24.6992 22.178 24.6992 19.8751C24.6992 17.5721 25.2186 15.582 26.2575 13.8193C27.2963 12.0566 28.7338 10.6922 30.5701 9.72465C32.4064 8.7586 34.4764 8.27481 36.7816 8.27481C39.0869 8.27481 41.1294 8.7586 42.9076 9.72465C44.6859 10.6922 46.0669 12.049 47.0492 13.7979C48.0315 15.5469 48.5219 17.5721 48.5219 19.8751C48.5219 20.5573 48.4653 21.2685 48.3508 22.0071H28.9248V17.4012H40.4527L40.1532 17.6149C40.1532 17.0746 40.0173 16.5908 39.7469 16.165C39.4765 15.7392 39.0915 15.3974 38.595 15.141C38.097 14.8846 37.492 14.7564 36.7801 14.7564C36.0682 14.7564 35.4358 14.8922 34.8797 15.1608C34.3251 15.4309 33.8836 15.8079 33.5567 16.2917C33.2298 16.7755 33.0663 17.3447 33.0663 17.9979V21.4104C33.0663 22.0926 33.2435 22.7107 33.5995 23.2662C33.9554 23.8202 34.4397 24.2475 35.0508 24.5451C35.6619 24.8442 36.3524 24.9923 37.1208 24.9923C37.8892 24.9923 38.537 24.8427 39.064 24.5451C39.5911 24.246 39.9821 23.8278 40.2373 23.2876L47.7091 25.8042C46.7696 27.5959 45.3962 28.9893 43.589 29.9843C41.7817 30.9794 39.6262 31.4769 37.1208 31.4769C34.6154 31.4769 32.4308 30.9931 30.567 30.027L30.5701 30.0255Z" fill="black"/>
<path d="M49.3164 0H57.8546V30.8786H49.3164V0Z" fill="black"/>
<path d="M59.8398 0H68.378V30.8786H59.8398V0Z" fill="black"/>
<path d="M75.0214 29.9611C73.2004 28.9524 71.7689 27.559 70.7301 25.781C69.6913 24.0046 69.1719 22.0358 69.1719 19.8733C69.1719 17.7107 69.6913 15.7084 70.7301 13.9442C71.7689 12.1815 73.1988 10.7957 75.0214 9.78543C76.8424 8.77664 78.8635 8.27148 81.0832 8.27148C83.3029 8.27148 85.3592 8.77664 87.1664 9.78543C88.9737 10.7957 90.3975 12.1815 91.4363 13.9442C92.4751 15.7069 92.9945 17.6833 92.9945 19.8733C92.9945 22.0633 92.4751 24.003 91.4363 25.781C90.3975 27.559 88.9737 28.9508 87.1664 29.9611C85.3592 30.9699 83.3304 31.4751 81.0832 31.4751C78.836 31.4751 76.8424 30.9699 75.0214 29.9611ZM83.0906 23.2873C83.6879 22.9454 84.1508 22.4769 84.4777 21.8802C84.8046 21.2834 84.9681 20.615 84.9681 19.8763C84.9681 19.1377 84.8046 18.4265 84.4777 17.8298C84.1508 17.233 83.6879 16.7706 83.0906 16.444C82.4932 16.1174 81.8241 15.9541 81.0847 15.9541C80.3453 15.9541 79.6823 16.1174 79.0988 16.444C78.5152 16.7706 78.0523 17.233 77.7116 17.8298C77.3694 18.4265 77.1998 19.1087 77.1998 19.8763C77.1998 20.644 77.3709 21.2834 77.7116 21.8802C78.0523 22.4769 78.5152 22.9469 79.0988 23.2873C79.6823 23.6291 80.3438 23.7985 81.0847 23.7985C81.8257 23.7985 82.4932 23.6276 83.0906 23.2873Z" fill="black"/>
</svg>
