<svg width="402" height="80" viewBox="0 0 402 80" fill="none" xmlns="http://www.w3.org/2000/svg">
<g clip-path="url(#clip0_5900_115324)">
<path d="M352.619 13.3867C348.584 13.3867 345.865 13.4287 341.83 13.419C337.239 13.4061 337.245 14.0656 337.249 18.5887C337.255 27.5671 337.229 35.8794 337.281 44.8545C337.287 46.2609 337.039 47.4151 335.512 47.6026C333.86 47.8031 333.175 46.5422 332.939 45.194C332.726 43.9913 332.8 42.7336 332.797 41.4985C332.784 33.0149 332.69 25.3233 332.842 16.8429C332.884 14.5344 332.541 13.4287 330.036 13.377C326.702 13.3091 322.735 13.3834 320.65 13.4287C318.438 13.474 316.253 13.6227 315.131 14.5215C314.171 15.291 313.362 16.193 313.346 18.4368C313.282 28.4432 312.932 39.9854 314.025 49.7397C315.289 61.0265 324.426 64.2725 332.574 60.4413C334.743 59.4229 336.974 57.7093 338.655 56.3644C338.71 57.1047 338.691 57.5347 338.713 57.9647C338.833 60.3378 339.305 60.8163 341.565 60.7194C345.758 60.5415 349.965 60.5868 354.164 60.7C355.933 60.7485 356.379 60.1148 356.373 58.4335C356.314 44.1852 356.292 30.8196 356.373 16.5713C356.385 14.6055 356.02 13.3834 352.622 13.3834L352.619 13.3867Z" fill="#FF7900"/>
<path d="M310.594 23.3842C310.18 12.7182 300.012 10.0444 292.101 13.2582C289.879 14.1602 287.613 16.0742 286.152 18.0625C286.168 17.2995 286.177 16.5042 286.19 15.8511C286.236 13.3131 284.972 13.0836 282.712 12.9801C278.644 12.7926 274.881 12.7926 270.513 12.9995C268.748 13.0836 268.298 13.5847 268.305 15.2659C268.363 29.5142 268.386 43.7625 268.305 58.0108C268.292 59.9765 268.997 60.3548 270.736 60.3128C274.768 60.2126 278.806 60.2708 282.841 60.2805C285.902 60.2891 287.429 58.7878 287.422 55.7767C287.416 46.7984 287.442 37.8201 287.39 28.845C287.383 27.4386 287.632 26.2843 289.158 26.1001C290.811 25.8996 291.496 27.1605 291.732 28.5087C291.945 29.7114 291.871 30.9723 291.874 32.2042C291.887 40.6878 291.981 49.1715 291.829 57.6519C291.787 59.9604 292.569 60.2869 294.635 60.2966C298.101 60.3096 302.214 60.2966 305.343 60.2966C308.473 60.2966 310.413 60.6393 310.549 58.4635C310.849 53.6494 310.811 48.1725 310.811 45.9255C310.811 41.4282 311.014 34.1214 310.597 23.381L310.594 23.3842Z" fill="#FF7900"/>
<path d="M245.887 29.7136C247.584 30.1727 250.501 30.732 252.745 31.3981C256.324 32.4618 259.094 33.3832 261.81 35.2358C265.483 37.7414 267.365 42.132 267.365 45.8533C267.365 49.2771 265.978 53.0437 263.653 55.7401C262.538 57.0334 261.005 58.6144 257.161 60.2503C253.86 61.6599 250.963 62.1643 246.543 62.1643C242.124 62.1643 237.963 61.4595 234.61 60.066C231.228 58.6628 228.535 56.6648 226.605 54.1268C225.072 52.1126 224.025 49.7815 223.491 47.2015C223.349 46.5096 223.54 45.8016 224.015 45.2584C224.474 44.7346 225.147 44.4339 225.858 44.4339H238.415C239.405 44.4339 240.164 45.1032 240.653 45.9309C241.151 46.778 241.442 47.2985 242.26 47.8804C243.349 48.6564 244.532 49.0444 246.278 49.0444C247.29 49.0444 247.795 48.9635 248.254 48.8051C249.014 48.5465 249.366 48.304 249.76 47.8837C250.122 47.4957 250.413 46.7877 250.413 46.2283C250.413 45.4459 250.087 44.9157 249.625 44.5988C248.771 44.0136 247.607 43.6839 245.884 43.3444C244.09 42.9888 240.711 42.3227 238.71 41.9154C234.477 41.0553 230.32 39.303 227.901 36.8006C225.464 34.2755 224.245 31.5112 224.274 27.5571C224.274 23.7615 225.661 20.8161 227.167 18.6984C228.907 16.251 231.503 14.3046 234.759 13.034C237.675 11.896 240.928 11.1523 245.923 11.1523C250.918 11.1523 254.739 12.5749 257.95 14.2561C260.659 15.6722 263.074 17.9807 264.4 19.8171C265.994 22.0253 266.863 24.2012 267.103 26.8426C267.164 27.5119 267.187 28.3654 266.715 28.8698C266.256 29.358 265.738 29.455 264.416 29.455H254.426C252.331 29.455 251.616 28.8989 251.283 27.9031C250.905 26.7747 250.582 26.1346 249.518 25.2455C248.768 24.6182 247.565 24.0815 246.327 24.0492C245.425 24.0266 244.681 24.0492 243.925 24.2852C243.223 24.4986 242.67 24.8252 242.279 25.2552C241.91 25.6593 241.561 26.5775 241.862 27.4375C242.399 28.9829 244.529 29.3515 245.89 29.7201L245.887 29.7136Z" fill="#FF7900"/>
<path d="M391.973 5.29906C392.694 3.69544 392.729 2.37633 392.157 1.40963C391.724 0.675719 390.919 0.37504 389.341 0.168122C388.51 0.0581959 387.789 0 385.558 0C383.806 0 381.442 0.0517297 379.865 0.148723C378.762 0.216618 378.048 0.342709 377.66 0.727449C376.9 1.48076 376.686 2.55415 376.8 3.95086C376.864 4.7656 376.861 5.33463 376.893 5.83899C376.955 6.78629 377.013 7.21629 376.809 8.45134C376.538 10.097 374.048 11.3967 372.451 11.762C367.514 12.8807 363.98 14.9596 361.643 18.1119C358.377 22.5218 357.618 27.0094 359.315 31.8299C359.91 33.5176 360.734 34.9984 361.834 36.3628C362.432 37.1064 362.681 38.0634 362.516 38.9816C362.367 39.8092 361.869 40.4526 361.193 40.9085C359.454 42.0789 358.853 42.829 358.604 44.8076C358.245 47.6528 359.768 48.7165 360.948 49.5021C361.543 49.8998 362.057 50.2425 362.209 50.7048C362.5 51.5939 362.167 52.538 361.736 53.0359C358.859 56.3886 357.805 60.3653 358.846 63.9476C359.9 67.5752 363.372 70.3556 367.317 71.7362C371.074 73.052 375.946 73.4465 379.454 73.4465C382.157 73.4465 385.041 73.301 388.128 72.816C392.008 72.205 396.053 70.3362 398.254 68.0698C400.877 65.3702 402.671 60.3653 401.61 56.1235C400.702 52.4766 398.141 49.8028 394.401 48.5936C393.059 48.1571 391.669 47.8661 390.275 47.5719C387.718 47.032 385.125 47.0417 382.619 47.0482C381.297 47.0514 379.939 47.0579 378.61 46.9803C377.016 46.8897 376.502 46.5276 376.492 45.4866C376.483 44.4294 376.99 44.0672 378.578 44.0026L379.625 43.9606C381.801 43.8733 384.051 43.7827 386.269 43.4368C393.699 42.2826 399.302 36.977 400.207 30.2392C401.29 22.1953 397.763 15.8713 390.56 12.8257C389.845 12.5251 389.557 12.2987 389.47 11.8364C389.331 11.096 389.687 10.4785 389.91 9.94827C390.495 8.5548 391.446 6.45328 391.966 5.2926L391.973 5.29906ZM381.339 27.1452V27.171C381.352 28.8749 381.326 30.2877 380.886 31.6359C380.598 32.5154 380.159 32.6382 379.771 32.6414C379.021 32.5929 378.762 32.1371 378.659 31.7103C377.97 28.8846 377.957 26.0459 378.617 23.2751C378.859 22.2535 379.441 22.2276 379.661 22.2147C379.693 22.2147 379.726 22.2147 379.758 22.2147C380.194 22.2147 380.657 22.3731 380.941 23.2913C381.368 24.6686 381.374 26.1494 381.342 27.1452H381.339ZM381.413 57.7207C383.499 57.8338 384.326 58.6486 384.339 59.7349C384.352 61.0378 383.34 61.8623 381.856 61.9625C380.922 62.0271 379.709 62.0401 378.775 61.9787C376.699 61.8429 376.108 60.6305 376.108 59.848C376.108 58.8587 376.897 57.8435 378.6 57.7368C379.522 57.6786 380.492 57.6722 381.413 57.7207Z" fill="#FF7900"/>
<path d="M217.523 46.5484C215.664 44.1753 212.932 43.2442 210.346 43.0954C207.271 42.9209 204.19 43.9167 202.053 46.7165C200.75 48.4204 200.436 50.2503 200.375 52.41C200.375 58.207 205.567 60.4346 208.972 60.6609C210.433 60.7579 210.702 60.6545 211.442 60.593C211.442 60.593 210.039 61.6826 208.846 62.5103C208.406 62.8142 207.982 63.325 208.425 64.0621C208.71 64.5342 209.331 65.4491 209.631 65.9115C209.939 66.3835 210.734 66.4417 211.413 65.821C213.269 64.13 214.348 62.9985 215.732 61.4045C217.284 59.6166 218.526 57.8966 219.227 54.6764C219.712 52.4456 219.745 49.3806 217.523 46.5484Z" fill="black"/>
<path d="M12.3796 58.5453C8.5257 56.4082 5.49628 53.4564 3.29777 49.6898C1.09926 45.9265 0 41.7558 0 37.1777C0 32.5996 1.09926 28.3545 3.29777 24.6171C5.49628 20.8828 8.52247 17.9472 12.3796 15.8069C16.2334 13.6698 20.5108 12.5996 25.2085 12.5996C29.9062 12.5996 34.258 13.6698 38.0828 15.8069C41.9075 17.9472 44.9208 20.8828 47.1193 24.6171C49.3178 28.3513 50.4171 32.5382 50.4171 37.1777C50.4171 41.8172 49.3178 45.9265 47.1193 49.693C44.9208 53.4596 41.9075 56.4082 38.0828 58.5485C34.258 60.6856 29.9644 61.7558 25.2085 61.7558C20.4526 61.7558 16.2334 60.6856 12.3796 58.5485V58.5453ZM29.4568 44.4069C30.721 43.6827 31.7006 42.6901 32.3925 41.426C33.0844 40.1618 33.4303 38.7457 33.4303 37.1809C33.4303 35.6161 33.0844 34.1095 32.3925 32.8453C31.7006 31.5812 30.721 30.6015 29.4568 29.9097C28.1927 29.2178 26.7766 28.8718 25.2118 28.8718C23.6469 28.8718 22.2438 29.2178 21.0087 29.9097C19.7737 30.6015 18.7941 31.5812 18.0731 32.8453C17.3489 34.1095 16.99 35.5547 16.99 37.1809C16.99 38.8072 17.3521 40.1618 18.0731 41.426C18.7941 42.6901 19.7737 43.6859 21.0087 44.4069C22.2438 45.1311 23.6437 45.49 25.2118 45.49C26.7798 45.49 28.1927 45.1279 29.4568 44.4069Z" fill="black"/>
<path d="M64.4733 58.5388C60.6195 56.4017 57.59 53.4498 55.3915 49.6833C53.193 45.9199 52.0938 41.7492 52.0938 37.1679C52.0938 32.5866 53.193 28.3448 55.3915 24.6073C57.59 20.8731 60.6162 17.9374 64.4733 15.7971C68.3272 13.66 72.6046 12.5898 77.3023 12.5898C82 12.5898 86.3518 13.66 90.1765 15.7971C94.0013 17.9374 97.0145 20.8731 99.213 24.6073C101.412 28.3415 102.511 32.5284 102.511 37.1679C102.511 41.8074 101.412 45.9167 99.213 49.6833C97.0145 53.4498 94.0013 56.3984 90.1765 58.5388C86.3518 60.6758 82.0582 61.746 77.3023 61.746C72.5464 61.746 68.3272 60.6758 64.4733 58.5388ZM81.5506 44.4004C82.8147 43.6762 83.7944 42.6836 84.4862 41.4195C85.1781 40.1553 85.5241 38.7392 85.5241 37.1744C85.5241 35.6096 85.1781 34.1029 84.4862 32.8388C83.7944 31.5746 82.8147 30.595 81.5506 29.9031C80.2864 29.2112 78.8703 28.8653 77.3055 28.8653C75.7407 28.8653 74.3375 29.2112 73.1025 29.9031C71.8674 30.595 70.8878 31.5746 70.1668 32.8388C69.4426 34.1029 69.0837 35.5481 69.0837 37.1744C69.0837 38.8006 69.4458 40.1553 70.1668 41.4195C70.8878 42.6836 71.8674 43.6794 73.1025 44.4004C74.3375 45.1246 75.7375 45.4835 77.3055 45.4835C78.8736 45.4835 80.2864 45.1214 81.5506 44.4004Z" fill="black"/>
<path d="M153.703 24.6171C151.895 20.8828 149.38 17.9472 146.156 15.8069C142.933 13.6698 139.244 12.5996 135.09 12.5996C131.656 12.5996 128.749 13.4273 126.37 15.0859C124.902 16.1075 123.654 17.5107 122.619 19.2889H122.257V13.867H104.188V80.0067H122.257V55.0697H122.658C123.683 56.8123 124.918 58.1994 126.367 59.2275C128.746 60.9152 131.653 61.759 135.086 61.759C139.244 61.759 142.933 60.6888 146.153 58.5518C149.377 56.4147 151.892 53.4758 153.699 49.7415C155.507 46.0073 156.409 41.8204 156.409 37.1809C156.409 32.5414 155.507 28.3578 153.699 24.6203L153.703 24.6171ZM137.301 41.4228C136.609 42.6869 135.629 43.6827 134.365 44.4037C133.101 45.1247 131.685 45.4868 130.12 45.4868C128.555 45.4868 127.152 45.1247 125.917 44.4037C124.682 43.6795 123.703 42.6869 122.982 41.4228C122.257 40.1586 121.898 38.7425 121.898 37.1777C121.898 35.6129 122.261 34.1062 122.982 32.8421C123.706 31.5779 124.682 30.5983 125.917 29.9064C127.152 29.2145 128.552 28.8686 130.12 28.8686C131.688 28.8686 133.101 29.2145 134.365 29.9064C135.629 30.5983 136.609 31.5779 137.301 32.8421C137.993 34.1062 138.339 35.5514 138.339 37.1777C138.339 38.8039 137.993 40.1586 137.301 41.4228Z" fill="black"/>
<path d="M164.192 60.0777C160.729 58.9655 157.852 57.4427 155.562 55.5158L163.694 44.2226C165.74 45.4867 167.7 46.4372 169.568 47.0677C171.437 47.7014 173.273 48.015 175.081 48.015C176.406 48.015 177.399 47.8663 178.062 47.5624C178.724 47.2617 179.054 46.809 179.054 46.2077C179.054 45.8456 178.935 45.5287 178.692 45.2604C178.45 44.9888 178.029 44.7334 177.428 44.4909C176.827 44.2517 176.041 44.0383 175.078 43.8572L172.999 43.4046C167.819 42.2601 163.859 40.4398 161.117 37.9374C158.375 35.4382 157.004 32.3797 157.004 28.7651C157.004 25.6936 157.939 22.9229 159.804 20.4528C161.67 17.9827 164.23 16.0557 167.483 14.6687C170.735 13.285 174.35 12.5898 178.327 12.5898C181.398 12.5898 184.424 13.0134 187.409 13.854C190.39 14.6978 193.387 16.0234 196.4 17.8307L188.54 29.5766C186.975 28.4935 185.333 27.6788 183.616 27.1356C181.899 26.5924 180.137 26.3208 178.33 26.3208C177.004 26.3208 175.98 26.4728 175.259 26.7735C174.534 27.0742 174.175 27.4977 174.175 28.0376C174.175 28.2801 174.266 28.5064 174.447 28.7166C174.628 28.9267 174.913 29.1078 175.304 29.2597C175.695 29.4117 176.193 29.5766 176.794 29.7576L179.054 30.3008C184.958 31.6878 189.294 33.6147 192.064 36.0848C194.835 38.5549 196.222 41.6878 196.222 45.4802C196.222 48.6745 195.349 51.4873 193.603 53.9283C191.857 56.3693 189.371 58.2801 186.148 59.6671C182.924 61.0509 179.235 61.746 175.081 61.746C171.285 61.746 167.658 61.1867 164.192 60.0745V60.0777Z" fill="black"/>
</g>
<defs>
<clipPath id="clip0_5900_115324">
<rect width="401.92" height="80" fill="white"/>
</clipPath>
</defs>
</svg>
