<svg width="140" height="26" viewBox="0 0 140 26" fill="none" xmlns="http://www.w3.org/2000/svg">
<g clip-path="url(#clip0_8994_23590)">
<path d="M116.417 6.07638C115.089 6.07638 114.195 6.09032 112.867 6.0871C111.356 6.08281 111.358 6.30159 111.359 7.80192C111.361 10.7801 111.352 13.5362 111.369 16.5143C111.372 16.9809 111.29 17.3637 110.787 17.4259C110.244 17.4924 110.018 17.0742 109.94 16.6269C109.87 16.228 109.895 15.8108 109.894 15.4012C109.889 12.5871 109.859 10.0358 109.909 7.22281C109.922 6.45709 109.81 6.09032 108.985 6.07316C107.888 6.05064 106.582 6.07531 105.896 6.09032C105.168 6.10533 104.449 6.15467 104.08 6.4528C103.764 6.70804 103.498 7.00725 103.492 7.75151C103.471 11.0707 103.356 14.8993 103.716 18.1348C104.132 21.8786 107.139 22.9554 109.82 21.6845C110.534 21.3467 111.268 20.7783 111.822 20.3322C111.84 20.5778 111.833 20.7204 111.841 20.863C111.88 21.6502 112.036 21.8089 112.779 21.7768C114.159 21.7178 115.544 21.7328 116.926 21.7703C117.508 21.7864 117.655 21.5762 117.653 21.0186C117.634 16.2924 117.626 11.8589 117.653 7.13272C117.657 6.48068 117.537 6.07531 116.418 6.07531L116.417 6.07638Z" fill="#FF7900"/>
<path d="M102.586 9.3931C102.45 5.85515 99.1037 4.96825 96.5 6.03425C95.769 6.33345 95.0231 6.96833 94.5421 7.62788C94.5474 7.37478 94.5506 7.11097 94.5549 6.89434C94.5698 6.05248 94.1537 5.97634 93.4099 5.94202C92.0714 5.87982 90.8328 5.87982 89.3953 5.94845C88.8143 5.97634 88.6664 6.14256 88.6685 6.70023C88.6877 11.4264 88.6951 16.1526 88.6685 20.8788C88.6643 21.5309 88.8962 21.6563 89.4687 21.6424C90.7956 21.6092 92.1246 21.6285 93.4525 21.6317C94.4598 21.6345 94.9624 21.1366 94.9603 20.1378C94.9582 17.1596 94.9667 14.1815 94.9496 11.2044C94.9475 10.7379 95.0294 10.3551 95.5317 10.2939C96.0754 10.2274 96.301 10.6457 96.3787 11.0929C96.4489 11.4918 96.4244 11.9101 96.4255 12.3187C96.4297 15.1327 96.4606 17.9468 96.4106 20.7598C96.3968 21.5255 96.6543 21.6338 97.3342 21.637C98.4749 21.6413 99.8283 21.637 100.858 21.637C101.888 21.637 102.527 21.7507 102.571 21.029C102.67 19.4321 102.658 17.6154 102.658 16.8701C102.658 15.3783 102.725 12.9546 102.587 9.39203L102.586 9.3931Z" fill="#FF7900"/>
<path d="M81.2916 11.4925C81.8503 11.6448 82.81 11.8303 83.5485 12.0513C84.7264 12.4041 85.6383 12.7097 86.5321 13.3242C87.7409 14.1554 88.3602 15.6117 88.3602 16.8461C88.3602 17.9818 87.9037 19.2312 87.1386 20.1256C86.7715 20.5546 86.2672 21.079 85.002 21.6216C83.9156 22.0892 82.9622 22.2565 81.5076 22.2565C80.0531 22.2565 78.6836 22.0227 77.5802 21.5605C76.4672 21.0951 75.5808 20.4323 74.9456 19.5904C74.4412 18.9223 74.0965 18.1491 73.9209 17.2933C73.8741 17.0638 73.9369 16.8289 74.0933 16.6488C74.2444 16.475 74.4657 16.3753 74.6998 16.3753H78.8326C79.1582 16.3753 79.4083 16.5973 79.5689 16.8718C79.7328 17.1528 79.8286 17.3255 80.0978 17.5185C80.4564 17.7759 80.8458 17.9046 81.4204 17.9046C81.7534 17.9046 81.9194 17.8778 82.0705 17.8252C82.3206 17.7394 82.4366 17.659 82.5664 17.5196C82.6856 17.3909 82.7813 17.156 82.7813 16.9705C82.7813 16.711 82.6738 16.5351 82.5217 16.43C82.2408 16.2359 81.8577 16.1265 81.2906 16.0139C80.7 15.8959 79.5881 15.675 78.9294 15.5399C77.5366 15.2546 76.1682 14.6733 75.3723 13.8433C74.57 13.0057 74.1688 12.0888 74.1784 10.7772C74.1784 9.51817 74.6349 8.54119 75.1308 7.83875C75.7032 7.02692 76.5577 6.38131 77.6292 5.95985C78.5889 5.58235 79.6594 5.33569 81.3033 5.33569C82.9473 5.33569 84.205 5.80756 85.2616 6.36523C86.1533 6.83495 86.9482 7.60067 87.3844 8.20981C87.909 8.94228 88.1952 9.66402 88.274 10.5402C88.2942 10.7622 88.3016 11.0453 88.1463 11.2126C87.9952 11.3745 87.8249 11.4067 87.3897 11.4067H84.1018C83.4123 11.4067 83.1771 11.2223 83.0675 10.892C82.9431 10.5177 82.8366 10.3053 82.4866 10.0104C82.2397 9.80236 81.8439 9.62434 81.4364 9.61362C81.1395 9.60611 80.8947 9.61362 80.6458 9.6919C80.4149 9.76268 80.2329 9.871 80.1042 10.0136C79.9828 10.1477 79.8679 10.4523 79.9669 10.7375C80.1435 11.2501 80.8447 11.3724 81.2927 11.4947L81.2916 11.4925Z" fill="#FF7900"/>
<path d="M129.369 3.39419C129.606 2.86226 129.618 2.42471 129.429 2.10405C129.287 1.86061 129.022 1.76088 128.503 1.69224C128.229 1.65578 127.992 1.63647 127.258 1.63647C126.681 1.63647 125.903 1.65363 125.384 1.68581C125.021 1.70833 124.786 1.75015 124.658 1.87777C124.408 2.12765 124.338 2.48369 124.375 2.94698C124.396 3.21724 124.395 3.40598 124.406 3.57328C124.426 3.88751 124.445 4.03014 124.378 4.43981C124.289 4.98567 123.47 5.41679 122.944 5.53798C121.319 5.90904 120.156 6.59861 119.387 7.64423C118.312 9.10702 118.062 10.5956 118.621 12.1945C118.817 12.7544 119.088 13.2455 119.45 13.6981C119.647 13.9448 119.728 14.2622 119.674 14.5668C119.625 14.8413 119.461 15.0547 119.239 15.2059C118.667 15.5942 118.469 15.843 118.387 16.4993C118.269 17.443 118.77 17.7959 119.158 18.0565C119.354 18.1884 119.523 18.302 119.573 18.4554C119.669 18.7503 119.559 19.0635 119.418 19.2286C118.471 20.3407 118.124 21.6598 118.467 22.8481C118.813 24.0513 119.956 24.9736 121.254 25.4316C122.491 25.868 124.094 25.9989 125.249 25.9989C126.138 25.9989 127.087 25.9506 128.104 25.7897C129.381 25.5871 130.712 24.9672 131.436 24.2154C132.299 23.3199 132.89 21.6598 132.541 20.2528C132.242 19.0431 131.399 18.1562 130.168 17.7551C129.726 17.6103 129.269 17.5138 128.81 17.4162C127.969 17.2371 127.115 17.2403 126.291 17.2425C125.855 17.2436 125.408 17.2457 124.971 17.22C124.447 17.1899 124.277 17.0698 124.274 16.7245C124.271 16.3738 124.438 16.2537 124.96 16.2323L125.305 16.2183C126.021 16.1894 126.762 16.1593 127.492 16.0446C129.937 15.6617 131.781 13.9019 132.079 11.6669C132.435 8.99871 131.275 6.90103 128.904 5.89081C128.669 5.79107 128.574 5.716 128.545 5.56264C128.499 5.31706 128.617 5.11222 128.69 4.93634C128.883 4.47412 129.195 3.77705 129.367 3.39204L129.369 3.39419ZM125.87 10.6417V10.6503C125.874 11.2154 125.866 11.6841 125.721 12.1313C125.627 12.423 125.482 12.4637 125.354 12.4648C125.107 12.4487 125.022 12.2975 124.988 12.1559C124.761 11.2186 124.757 10.277 124.974 9.35797C125.054 9.01908 125.246 9.01051 125.318 9.00622C125.329 9.00622 125.339 9.00622 125.35 9.00622C125.494 9.00622 125.646 9.05876 125.739 9.36333C125.88 9.82019 125.882 10.3114 125.871 10.6417H125.87ZM125.894 20.7826C126.58 20.8201 126.852 21.0904 126.857 21.4507C126.861 21.8829 126.528 22.1564 126.039 22.1896C125.732 22.2111 125.333 22.2153 125.025 22.195C124.342 22.1499 124.148 21.7478 124.148 21.4882C124.148 21.1601 124.407 20.8233 124.968 20.7879C125.271 20.7686 125.59 20.7665 125.894 20.7826Z" fill="#FF7900"/>
<path d="M71.9567 17.0774C71.3449 16.2902 70.4458 15.9814 69.5945 15.9321C68.5826 15.8741 67.5686 16.2045 66.8652 17.1332C66.4364 17.6983 66.3332 18.3053 66.313 19.0217C66.313 20.9446 68.0219 21.6835 69.1423 21.7586C69.6233 21.7907 69.7116 21.7564 69.9553 21.736C69.9553 21.736 69.4934 22.0975 69.1008 22.372C68.9561 22.4728 68.8167 22.6423 68.9625 22.8868C69.0561 23.0433 69.2604 23.3468 69.3594 23.5002C69.4605 23.6568 69.7222 23.6761 69.9457 23.4702C70.5564 22.9093 70.9118 22.5339 71.3673 22.0052C71.878 21.4122 72.2866 20.8416 72.5175 19.7735C72.6771 19.0335 72.6877 18.0169 71.9567 17.0774Z" fill="white"/>
<path d="M139.967 19.3637C140.086 18.6173 139.891 17.5588 139.398 16.9969C138.765 16.2773 137.976 15.9255 136.861 15.9255C135.076 15.9255 133.708 17.1352 133.708 18.716C133.708 20.2968 134.883 21.7703 136.667 21.7703C138.452 21.7703 139.717 20.9241 139.966 19.3627L139.967 19.3637Z" fill="#FF7900"/>
<path d="M0 0H5.94701V21.6985H0V0ZM10.066 11.9286C9.63928 11.4493 9.05937 11.209 8.32624 11.209C7.83039 11.209 7.40477 11.3345 7.04724 11.5833C6.69079 11.8332 6.41732 12.2278 6.22898 12.7673C6.04065 13.3067 5.94701 14.0059 5.94701 14.865L5.3522 11.5082V8.57086H6.42264L5.3522 11.5082C5.3522 10.3897 5.59055 9.40092 6.06618 8.54083C6.54182 7.68182 7.20153 7.01262 8.0432 6.53324C8.88593 6.05387 9.84252 5.81364 10.913 5.81364C12.0824 5.81364 13.0985 6.09784 13.9604 6.6673C14.8223 7.23676 15.4863 8.04644 15.9523 9.09528C16.4184 10.1441 16.6514 11.3881 16.6514 12.8263V21.6974H10.7044V13.9051C10.7044 13.0665 10.4916 12.4069 10.0649 11.9276L10.066 11.9286Z" fill="white"/>
<path d="M21.2928 21.0987C19.9946 20.4199 18.988 19.4654 18.2741 18.2364C17.5601 17.0074 17.2036 15.5843 17.2036 13.966C17.2036 12.3477 17.5654 10.9492 18.289 9.71059C19.0125 8.47194 20.0138 7.51318 21.2928 6.83326C22.5718 6.15441 24.0136 5.81445 25.6192 5.81445C27.2249 5.81445 28.6475 6.15441 29.8861 6.83326C31.1247 7.51318 32.0866 8.46657 32.7708 9.69558C33.4549 10.9246 33.7965 12.3477 33.7965 13.966C33.7965 14.4454 33.7571 14.9451 33.6773 15.4642H20.1468V12.2276H28.1762L27.9676 12.3777C27.9676 11.9981 27.8729 11.6581 27.6846 11.3589C27.4962 11.0597 27.2281 10.8195 26.8823 10.6393C26.5354 10.4591 26.114 10.3691 25.6182 10.3691C25.1223 10.3691 24.6818 10.4645 24.2945 10.6533C23.9082 10.8431 23.6007 11.108 23.373 11.4479C23.1453 11.7879 23.0314 12.1879 23.0314 12.6469V15.0449C23.0314 15.5242 23.1549 15.9586 23.4028 16.3489C23.6507 16.7382 23.988 17.0385 24.4137 17.2476C24.8393 17.4578 25.3202 17.5619 25.8555 17.5619C26.3907 17.5619 26.8418 17.4568 27.2089 17.2476C27.576 17.0374 27.8484 16.7436 28.0261 16.3639L33.2304 18.1324C32.576 19.3914 31.6194 20.3705 30.3607 21.0698C29.1019 21.769 27.6005 22.1186 25.8555 22.1186C24.1104 22.1186 22.5888 21.7786 21.2907 21.0998L21.2928 21.0987Z" fill="white"/>
<path d="M34.3501 0H40.2971V21.6985H34.3501V0Z" fill="white"/>
<path d="M41.6812 0H47.6282V21.6985H41.6812V0Z" fill="white"/>
<path d="M52.2549 21.054C50.9866 20.3451 49.9896 19.366 49.266 18.1166C48.5424 16.8683 48.1807 15.4849 48.1807 13.9652C48.1807 12.4456 48.5424 11.0386 49.266 9.79885C49.9896 8.56019 50.9855 7.58642 52.2549 6.87647C53.5233 6.1676 54.931 5.81262 56.4771 5.81262C58.0232 5.81262 59.4554 6.1676 60.7142 6.87647C61.973 7.58642 62.9647 8.56019 63.6882 9.79885C64.4118 11.0375 64.7736 12.4263 64.7736 13.9652C64.7736 15.5042 64.4118 16.8672 63.6882 18.1166C62.9647 19.366 61.973 20.3441 60.7142 21.054C59.4554 21.7629 58.0423 22.1179 56.4771 22.1179C54.9119 22.1179 53.5233 21.7629 52.2549 21.054ZM57.8753 16.3643C58.2913 16.124 58.6137 15.7948 58.8414 15.3755C59.0692 14.9562 59.183 14.4864 59.183 13.9674C59.183 13.4483 59.0692 12.9486 58.8414 12.5293C58.6137 12.1099 58.2913 11.785 57.8753 11.5555C57.4592 11.326 56.9932 11.2112 56.4782 11.2112C55.9632 11.2112 55.5014 11.326 55.0949 11.5555C54.6884 11.785 54.366 12.1099 54.1287 12.5293C53.8904 12.9486 53.7723 13.4279 53.7723 13.9674C53.7723 14.5068 53.8915 14.9562 54.1287 15.3755C54.366 15.7948 54.6884 16.1251 55.0949 16.3643C55.5014 16.6045 55.9621 16.7235 56.4782 16.7235C56.9942 16.7235 57.4592 16.6034 57.8753 16.3643Z" fill="white"/>
</g>
<defs>
<clipPath id="clip0_8994_23590">
<rect width="140" height="26" fill="white"/>
</clipPath>
</defs>
</svg>
