<svg width="240" height="32" viewBox="0 0 240 32" fill="none" xmlns="http://www.w3.org/2000/svg">
<g clip-path="url(#clip0_5448_61110)">
<path d="M209.79 5.82904C208.09 5.82904 206.945 5.84623 205.241 5.84279C203.307 5.83591 203.307 6.12482 203.307 8.09559C203.307 12.0062 203.3 15.6278 203.32 19.5384C203.324 20.1506 203.217 20.6562 202.575 20.7353C201.879 20.8213 201.59 20.2744 201.49 19.6863C201.4 19.1635 201.43 18.6132 201.43 18.0767C201.423 14.3793 201.383 11.0294 201.45 7.33548C201.467 6.33118 201.323 5.84967 200.268 5.8256C198.864 5.79464 197.19 5.8256 196.311 5.84623C195.379 5.86687 194.457 5.93222 193.985 6.32431C193.579 6.65793 193.239 7.05345 193.233 8.03024C193.206 12.3879 193.06 17.4163 193.519 21.6674C194.051 26.5857 197.902 27.9993 201.34 26.3312C202.255 25.8875 203.194 25.1412 203.903 24.553C203.926 24.8763 203.919 25.0621 203.926 25.2512C203.976 26.283 204.176 26.4928 205.127 26.4516C206.895 26.3725 208.669 26.3931 210.439 26.4447C211.185 26.4653 211.371 26.1902 211.371 25.4576C211.344 19.2495 211.338 13.4266 211.371 7.21854C211.374 6.36214 211.221 5.82904 209.79 5.82904Z" fill="#FF7900"/>
<path d="M192.074 10.1869C191.901 5.54032 187.615 4.37437 184.277 5.7742C183.341 6.16629 182.386 7.00206 181.767 7.86534C181.774 7.53172 181.777 7.18779 181.784 6.90232C181.804 5.79484 181.271 5.69509 180.316 5.65038C178.602 5.56784 177.015 5.56784 175.174 5.65726C174.429 5.69165 174.242 5.91177 174.242 6.64436C174.269 12.8524 174.275 19.0605 174.242 25.2686C174.239 26.125 174.535 26.2901 175.267 26.2729C176.968 26.2282 178.669 26.2557 180.373 26.2592C181.662 26.2637 182.306 25.6091 182.306 24.2953C182.306 20.3847 182.313 16.4741 182.293 12.5601C182.29 11.9479 182.396 11.4423 183.039 11.3632C183.734 11.2772 184.024 11.8241 184.124 12.4122C184.213 12.935 184.183 13.4853 184.183 14.0218C184.19 17.7192 184.23 21.4131 184.163 25.1104C184.147 26.1147 184.476 26.2592 185.345 26.2626C186.806 26.2695 188.54 26.2626 189.858 26.2626C191.176 26.2626 191.995 26.4105 192.051 25.4647C192.178 23.3666 192.161 20.9797 192.161 20.0029C192.161 18.0425 192.248 14.861 192.071 10.18L192.074 10.1869Z" fill="#FF7900"/>
<path d="M124.862 10.1869C124.689 5.54032 120.402 4.37437 117.064 5.7742C116.128 6.16629 115.173 7.00206 114.558 7.86534C113.283 5.18607 109.981 4.64608 107.292 5.7742C106.357 6.16629 105.402 7.00206 104.783 7.86534C104.789 7.53172 104.793 7.18779 104.799 6.90232C104.819 5.79484 104.287 5.69509 103.332 5.65038C101.618 5.56784 100.03 5.56784 98.1897 5.65726C97.4442 5.69165 97.2578 5.91177 97.2578 6.64436C97.2845 12.8524 97.2911 19.0605 97.2578 25.2686C97.2545 26.125 97.5507 26.2901 98.2829 26.2729C99.9836 26.2282 101.684 26.2557 103.385 26.2592C104.674 26.2637 105.319 25.6091 105.319 24.2953C105.319 20.3847 105.325 16.4741 105.305 12.5601C105.302 11.9479 105.408 11.4423 106.051 11.3632C106.746 11.2772 107.036 11.8241 107.136 12.4122C107.226 12.935 107.196 13.4853 107.196 14.0218C107.202 17.7192 107.242 21.4131 107.176 25.1104C107.159 26.1147 107.489 26.2592 108.357 26.2626C109.818 26.2695 111.552 26.2626 112.87 26.2626C114.188 26.2626 115.007 26.4105 115.063 25.4647C115.19 23.3666 115.173 20.9797 115.173 20.0029C115.173 18.3004 115.14 15.8344 115.14 12.2678C115.14 11.714 115.42 11.4148 115.819 11.3666C116.515 11.2806 116.804 11.8275 116.904 12.4156C116.994 12.9384 116.964 13.4887 116.964 14.0253C116.971 17.7226 117.01 21.4165 116.944 25.1138C116.927 26.1181 117.257 26.2626 118.125 26.266C119.586 26.2729 121.32 26.266 122.638 26.266C123.956 26.266 124.775 26.4139 124.832 25.4681C124.958 23.3701 124.941 20.9831 124.941 20.0064C124.941 18.0459 125.028 14.8645 124.852 10.1835L124.862 10.1869Z" fill="black"/>
<path d="M54.0496 0.13334C52.3356 0.0507953 50.2288 0.0507953 48.385 0.140219C47.6395 0.174613 47.4532 0.394733 47.4532 1.12732C47.4798 7.3354 47.4864 19.0637 47.4532 25.2718C47.4498 26.1282 47.746 26.2933 48.4782 26.2761C50.1789 26.2314 51.8796 26.2589 53.5836 26.2623C54.8727 26.2669 55.5162 25.6123 55.5139 24.2984V1.38184C55.5139 0.274355 55.0014 0.174613 54.0462 0.129901L54.0496 0.13334Z" fill="black"/>
<path d="M171.509 15.3529C170.364 14.5447 169.196 14.1457 167.688 13.6814C166.743 13.3925 165.515 13.1483 164.796 12.9488C164.224 12.7871 163.325 12.6289 163.099 11.9548C162.972 11.5799 163.119 11.181 163.275 11.0055C163.442 10.8198 163.675 10.6754 163.967 10.5825C164.284 10.4828 164.6 10.469 164.979 10.4793C165.502 10.4931 166.008 10.727 166.324 10.9987C166.773 11.3873 166.91 11.6659 167.069 12.1577C167.209 12.5911 167.512 12.8353 168.394 12.8353H172.607C173.166 12.8353 173.383 12.794 173.576 12.5808C173.776 12.3607 173.766 11.9892 173.739 11.6969C173.639 10.5447 173.273 9.59884 172.601 8.63582C172.042 7.83444 171.023 6.83014 169.882 6.21105C168.527 5.47846 166.87 4.85938 164.809 4.85938C162.749 4.85938 161.332 5.18268 160.103 5.67795C158.732 6.23169 157.637 7.08122 156.902 8.14742C156.266 9.07262 155.68 10.3555 155.68 12.0064C155.667 13.7295 156.18 14.9333 157.208 16.0339C158.23 17.1242 159.98 17.8877 161.764 18.2626C162.61 18.4415 164.034 18.7304 164.79 18.8852C165.515 19.0331 166.004 19.1775 166.367 19.432C166.563 19.5696 166.7 19.8035 166.7 20.144C166.7 20.3882 166.577 20.6977 166.424 20.8663C166.257 21.0485 166.107 21.1552 165.788 21.2687C165.595 21.3374 165.382 21.3718 164.956 21.3718C164.22 21.3718 163.721 21.2033 163.262 20.8628C162.916 20.6083 162.796 20.3847 162.586 20.0133C162.38 19.6522 162.06 19.3598 161.641 19.3598H156.346C156.046 19.3598 155.764 19.4905 155.571 19.7175C155.371 19.9548 155.288 20.2609 155.351 20.5636C155.577 21.6883 156.017 22.7029 156.665 23.5799C157.481 24.6874 158.616 25.5576 160.04 26.1663C161.455 26.7717 163.145 27.0812 165.072 27.0812C166.999 27.0812 168.158 26.8611 169.549 26.2489C171.17 25.5369 171.815 24.8456 172.285 24.285C173.263 23.1087 173.849 21.4681 173.849 19.9789C173.849 18.3589 173.057 16.4466 171.506 15.3529H171.509Z" fill="#FF7900"/>
<path d="M227.406 21.1728C226.841 20.9837 226.255 20.8564 225.666 20.7257C224.588 20.4918 223.496 20.4953 222.438 20.4987C221.882 20.4987 221.306 20.5021 220.747 20.4678C220.075 20.4299 219.858 20.2717 219.855 19.8177C219.852 19.3568 220.065 19.1986 220.734 19.1711L221.176 19.1539C222.095 19.1161 223.043 19.0782 223.978 18.9269C227.11 18.4248 229.473 16.1135 229.856 13.1763C230.312 9.67154 228.824 6.91659 225.789 5.58899C225.489 5.4583 225.366 5.35856 225.33 5.15907C225.27 4.83577 225.423 4.5675 225.516 4.33706C225.762 3.72829 226.165 2.81341 226.385 2.30782C226.688 1.60963 226.704 1.03525 226.461 0.61221C226.278 0.292347 225.939 0.161651 225.273 0.072227C224.924 0.0240757 224.617 0 223.679 0C222.94 0 221.945 0.0206363 221.279 0.0653482C220.813 0.0963027 220.514 0.151333 220.351 0.316423C220.031 0.643164 219.941 1.11436 219.988 1.71969C220.015 2.07395 220.015 2.32158 220.028 2.5417C220.055 2.95443 220.078 3.14015 219.991 3.68014C219.878 4.39553 218.826 4.96303 218.154 5.12124C216.074 5.60963 214.583 6.51419 213.598 7.8865C212.22 9.80911 211.901 11.7627 212.616 13.8641C212.866 14.6002 213.215 15.2468 213.678 15.8383C213.931 16.1616 214.034 16.5778 213.964 16.9802C213.901 17.3414 213.691 17.6199 213.405 17.8194C212.673 18.3285 212.42 18.6552 212.313 19.5185C212.164 20.7601 212.803 21.221 213.302 21.5615C213.551 21.7334 213.771 21.8848 213.834 22.0843C213.957 22.4695 213.818 22.8822 213.635 23.0989C212.423 24.5606 211.977 26.2906 212.416 27.8521C212.859 29.4308 214.323 30.6449 215.988 31.2468C217.572 31.8212 219.625 31.9931 221.106 31.9931C222.244 31.9931 223.463 31.9312 224.764 31.718C226.401 31.4497 228.105 30.638 229.034 29.6509C230.139 28.4746 230.894 26.2941 230.448 24.4471C230.066 22.8581 228.987 21.6922 227.41 21.166L227.406 21.1728ZM220.75 10.1427C220.853 9.69905 221.1 9.6853 221.189 9.68186C221.203 9.68186 221.216 9.68186 221.229 9.68186C221.412 9.68186 221.609 9.75064 221.729 10.1496C221.908 10.7515 221.912 11.3947 221.898 11.828V11.8383C221.905 12.5813 221.892 13.1969 221.709 13.785C221.586 14.1668 221.402 14.2218 221.239 14.2218C220.923 14.2012 220.813 14.0017 220.77 13.816C220.481 12.5847 220.474 11.35 220.753 10.1393L220.75 10.1427ZM222.118 26.9957C221.725 27.0232 221.213 27.0301 220.82 27.0026C219.945 26.9441 219.695 26.4144 219.695 26.0739C219.695 25.644 220.028 25.2003 220.747 25.1522C221.136 25.1281 221.546 25.1247 221.932 25.1453C222.81 25.1969 223.16 25.5512 223.163 26.0224C223.17 26.5899 222.744 26.951 222.118 26.9923V26.9957Z" fill="#FF7900"/>
<path d="M149.814 18.7759C148.516 18.7002 147.218 19.1336 146.316 20.3546C145.767 21.0975 145.634 21.8954 145.607 22.8344C145.607 25.3589 147.797 26.3288 149.232 26.4285C149.847 26.4698 149.961 26.4285 150.273 26.401C150.273 26.401 149.681 26.8756 149.179 27.2368C148.992 27.3709 148.816 27.591 149.002 27.9143C149.122 28.1207 149.385 28.5197 149.511 28.7192C149.641 28.9255 149.974 28.9496 150.264 28.6813C151.046 27.9453 151.502 27.45 152.084 26.7553C152.74 25.978 153.262 25.2282 153.558 23.8249C153.765 22.8516 153.778 21.5171 152.84 20.2824C152.054 19.2471 150.903 18.8413 149.814 18.7793V18.7759Z" fill="black"/>
<path d="M239.228 20.1762C238.419 19.2304 237.408 18.7695 235.98 18.7695C233.693 18.7695 231.939 20.3585 231.939 22.4359C231.939 24.5133 233.444 26.4497 235.73 26.4497C238.017 26.4497 239.637 25.3387 239.957 23.2889C240.11 22.3087 239.86 20.9191 239.228 20.1797V20.1762Z" fill="#FF7900"/>
<path d="M87.7729 5.01054C83.5494 4.53591 79.945 6.46196 78.0613 10.0699C76.5337 12.9899 76.4039 16.0957 77.0529 19.2565C78.3908 25.7672 85.4731 29.1309 91.3174 25.9529C95.1747 23.8549 96.466 20.2539 96.6058 16.1025C96.6357 14.5995 96.4261 13.1344 95.9269 11.7311C94.559 7.87555 91.8998 5.47486 87.7729 5.01054ZM87.47 19.8343C87.4101 20.3915 87.3435 21.3614 86.6047 21.3132C85.8459 21.2616 85.746 20.5221 85.7127 19.9684C85.6295 18.6408 85.6528 17.3063 85.6595 15.9753C85.6661 14.6821 85.6795 13.3854 85.7394 12.0922C85.766 11.511 85.8425 10.8197 86.6147 10.7784C87.3801 10.7371 87.4567 11.5798 87.4966 12.1369C87.6031 13.5643 87.5865 14.486 87.5865 15.793C87.5865 17.2754 87.6065 18.5789 87.47 19.8377V19.8343Z" fill="black"/>
<path d="M33.3241 6.10235C29.54 8.32075 28.2287 11.9493 28.3252 16.1213C28.4217 20.2107 29.3337 23.5091 33.1777 25.6243C38.9021 28.7782 45.9046 25.8031 46.6467 19.5331C46.7333 18.8074 46.5436 18.5667 45.7648 18.5735C44.0841 18.5873 42.177 18.5632 40.2833 18.5632C39.6177 18.5632 39.2383 18.8877 39.1451 19.5366C39.0918 19.908 39.0253 20.4377 38.8089 20.7541C38.5826 21.0843 38.2398 21.16 37.8604 21.1221C37.3811 21.074 37.1116 20.8779 36.9485 20.4205C36.6656 19.6329 36.6722 18.8797 36.7188 17.5727C36.7421 16.8745 37.0483 16.5478 37.8271 16.5478C39.3747 16.5478 40.4264 16.5649 41.7244 16.5615C43.0989 16.5615 44.2771 16.5753 45.6516 16.5753C46.3638 16.5753 46.6767 16.2245 46.7133 15.5572C46.7699 14.5116 46.7233 13.7653 46.6368 12.957C45.9778 6.60106 39.4047 2.72488 33.3175 6.09547L33.3241 6.10235ZM38.1267 12.9639C37.664 12.9708 36.9252 12.8435 36.9285 12.2038C36.9585 10.9244 37.0117 9.92695 38.1034 9.92695C39.195 9.92695 39.2849 10.6836 39.2849 12.1729C39.2849 12.9054 38.6359 12.9536 38.1267 12.9605V12.9639Z" fill="black"/>
<path d="M130.873 6.10235C127.089 8.32075 125.778 11.9493 125.874 16.1213C125.971 20.2107 127.282 23.7395 131.123 25.8547C136.847 29.0086 143.45 25.8031 144.192 19.5331C144.279 18.8074 144.089 18.5667 143.31 18.5735C141.63 18.5873 139.723 18.5632 137.829 18.5632C137.163 18.5632 136.785 18.8877 136.694 19.5366C136.641 19.908 136.574 20.4377 136.358 20.7541C136.131 21.0843 135.789 21.16 135.409 21.1221C134.93 21.074 134.66 20.8779 134.497 20.4205C134.214 19.6329 134.221 18.8797 134.268 17.5727C134.291 16.8745 134.597 16.5478 135.376 16.5478C136.924 16.5478 137.975 16.5649 139.273 16.5615C140.648 16.5615 141.826 16.5753 143.2 16.5753C143.913 16.5753 144.226 16.2245 144.262 15.5572C144.319 14.5116 144.272 13.7653 144.186 12.957C143.527 6.60106 136.953 2.72488 130.866 6.09547L130.873 6.10235ZM135.675 12.9639C135.213 12.9708 134.474 12.8435 134.477 12.2038C134.507 10.9244 134.561 9.92694 135.652 9.92694C136.744 9.92694 136.834 10.6836 136.834 12.1729C136.834 12.9054 136.185 12.9536 135.675 12.9605V12.9639Z" fill="black"/>
<path d="M28.2591 5.6617C26.4186 5.57228 25.5732 5.57228 23.8592 5.65483C22.9074 5.69954 22.6777 5.84055 22.3915 6.90676C21.7492 9.31777 21.1035 11.746 20.4579 14.1295C19.8155 11.746 19.1665 9.3212 18.5242 6.90676C18.2413 5.84055 18.0117 5.69954 17.0565 5.65483C16.0713 5.60667 15.3724 5.58948 14.6103 5.59636C13.8448 5.58948 13.1492 5.60667 12.1641 5.65483C11.2122 5.69954 10.9826 5.84055 10.6964 6.90676C10.054 9.31777 9.40838 11.746 8.76271 14.1295C8.12038 11.746 7.47139 9.3212 6.82906 6.90676C6.54616 5.84055 6.31652 5.69954 5.36134 5.65483C3.64734 5.57228 2.80532 5.57228 0.961517 5.6617C0.21601 5.6961 -0.133446 5.93685 0.0296333 6.64881C1.54062 13.2421 2.42591 16.5577 4.7889 25.2731C5.01188 26.0985 5.08177 26.2945 5.81397 26.2774C6.49957 26.2602 6.9755 26.2533 7.41814 26.2533C7.55792 26.2602 7.70436 26.2636 7.86744 26.2636C8.21024 26.2636 8.49979 26.2636 8.76271 26.2602C9.02231 26.2602 9.31519 26.2636 9.65799 26.2636C9.81774 26.2636 9.96751 26.2602 10.1073 26.2533C10.5466 26.2533 11.0259 26.2602 11.7115 26.2774C12.4437 26.2945 12.5135 26.0985 12.7365 25.2731C13.4887 22.4975 14.0911 20.2688 14.6103 18.3083C15.1295 20.2688 15.7319 22.494 16.484 25.2731C16.707 26.0985 16.7769 26.2945 17.5091 26.2774C18.1947 26.2602 18.6706 26.2533 19.1133 26.2533C19.2531 26.2602 19.3995 26.2636 19.5626 26.2636C19.9054 26.2636 20.1949 26.2636 20.4579 26.2602C20.7175 26.2602 21.0103 26.2636 21.3531 26.2636C21.5129 26.2636 21.6626 26.2602 21.8024 26.2533C22.2417 26.2533 22.721 26.2602 23.4066 26.2774C24.1388 26.2945 24.2087 26.0985 24.4317 25.2731C26.7913 16.5577 27.68 13.2421 29.1909 6.64881C29.354 5.93685 29.0046 5.6961 28.2591 5.6617Z" fill="black"/>
<path d="M66.161 10.7754C66.9264 10.7341 67.003 11.5768 67.0429 12.134C67.1028 12.9319 67.1295 13.2862 67.1295 13.9293C67.1295 14.7204 67.5089 15.0471 68.4075 15.0471H75.1104C75.6695 15.0471 76.1022 14.5312 76.019 13.9603C75.9091 13.2036 75.7294 12.4607 75.4698 11.735C74.1019 7.87945 71.4427 5.47877 67.3158 5.01445C63.0924 4.53981 59.488 6.46587 57.6043 10.0738C56.0767 12.9938 55.9469 16.0996 56.5958 19.2604C57.9338 25.7711 65.0161 29.1348 70.8603 25.9568C74.0687 24.2131 75.4998 21.4306 75.9724 18.1563C76.0556 17.5819 75.6262 17.0626 75.0638 17.0626H68.3442C67.5688 17.0626 67.1328 17.3378 67.1228 18.1013C67.1128 18.7754 67.0829 19.2053 67.013 19.8382C66.9531 20.3954 66.8865 21.3653 66.1477 21.3171C65.3888 21.2655 65.289 20.5261 65.2557 19.9723C65.1459 18.1976 65.2224 16.4091 65.1991 14.631C65.1858 13.7058 65.2191 12.7771 65.299 11.8554C65.3456 11.3395 65.4887 10.8167 66.161 10.7789V10.7754Z" fill="black"/>
</g>
<defs>
<clipPath id="clip0_5448_61110">
<rect width="240" height="32" fill="white"/>
</clipPath>
</defs>
</svg>
