<svg width="265" height="545" viewBox="0 0 265 545" fill="none" xmlns="http://www.w3.org/2000/svg">
<path d="M263.845 0.626953H0V544.204H263.845V0.626953Z" fill="white" stroke="#040000" stroke-width="1.25367" stroke-miterlimit="10"/>
<path d="M263.845 0.626953H0V544.204H263.845V0.626953Z" fill="white" stroke="#040000" stroke-width="1.25367" stroke-miterlimit="10"/>
<path d="M131.922 428.523H21.2207V544.2H131.922V428.523Z" stroke="#040000" stroke-width="1.25367" stroke-miterlimit="10"/>
<path d="M122.897 439.481H90.3262V464.697H122.897V439.481Z" stroke="#040000" stroke-width="1.25367" stroke-miterlimit="10"/>
<path d="M60.6348 468.836L60.6348 428.531L60.6348 468.836Z" stroke="#040000" stroke-width="1.25367" stroke-miterlimit="10"/>
<path d="M57.0913 468.827H64.1822C68.2299 468.827 71.5132 472.113 71.5132 476.164C71.5132 479.078 69.1545 481.432 66.2497 481.432H55.0311C52.119 481.432 49.7676 479.071 49.7676 476.164C49.7676 472.113 53.0509 468.827 57.0986 468.827H57.0913Z" stroke="#040000" stroke-width="1.25367" stroke-miterlimit="10"/>
<path d="M106.611 464.697V439.481" stroke="#040000" stroke-width="1.25367" stroke-miterlimit="10"/>
<path d="M213.794 497.969C213.794 496.934 212.956 496.089 211.915 496.089C210.874 496.089 210.037 496.927 210.037 497.969C210.037 499.01 210.874 499.848 211.915 499.848C212.956 499.848 213.794 499.01 213.794 497.969Z" stroke="#040000" stroke-width="1.25367" stroke-miterlimit="10"/>
<path d="M219.435 451.821H171.736V544.103H219.435V451.821Z" stroke="#040000" stroke-width="1.25367" stroke-miterlimit="10"/>
<path d="M131.921 531.381V526.93H79.6278C77.1672 526.93 75.1797 528.926 75.1797 531.381H131.928H131.921Z" fill="#040000" stroke="#060001" stroke-width="1.25367" stroke-miterlimit="10"/>
<path d="M26.0273 495.935V544.203" stroke="#040000" stroke-width="1.25367" stroke-miterlimit="10"/>
<path d="M45.4707 525.528V544.202" stroke="#040000" stroke-width="1.25367" stroke-miterlimit="10"/>
<path d="M45.4707 527.438V523.489H26.0256V527.438H45.4707Z" stroke="#040000" stroke-width="1.25367" stroke-miterlimit="10"/>
<path d="M42.7207 511.885H78.5533" stroke="#040000" stroke-width="1.25367" stroke-linecap="round" stroke-linejoin="round"/>
<path d="M131.923 510.967H127.832V528.154H131.923V510.967Z" stroke="#040000" stroke-width="1.25367" stroke-miterlimit="10"/>
<path d="M62.6813 511.885H58.5898V544.11H62.6813V511.885Z" stroke="#040000" stroke-width="1.25367" stroke-miterlimit="10"/>
<path d="M131.922 531.36H75.1738V544.11H131.922V531.36Z" stroke="#040000" stroke-width="1.25367" stroke-linecap="round" stroke-linejoin="round"/>
<path d="M242.623 156.733H21.2207V272.41H242.623V156.733Z" stroke="#040000" stroke-width="1.25367" stroke-miterlimit="10"/>
<path d="M131.922 156.733V272.41" stroke="#040000" stroke-width="1.25367" stroke-miterlimit="10"/>
<path d="M100.202 181.128H67.6309V206.344H100.202V181.128Z" stroke="#040000" stroke-width="1.25367" stroke-miterlimit="10"/>
<path d="M41.5323 206.347H38.1543V272.399H41.5323V206.347Z" stroke="#040000" stroke-width="1.25367" stroke-miterlimit="10"/>
<path d="M34.2376 193.751H45.4562C48.361 193.751 50.7197 196.112 50.7197 199.019V206.355H28.9668V199.019C28.9668 196.112 31.3255 193.751 34.2303 193.751H34.2376Z" stroke="#040000" stroke-width="1.25367" stroke-miterlimit="10"/>
<path d="M91.4082 200.6H76.4258" stroke="#040000" stroke-width="1.25367" stroke-miterlimit="10"/>
<path d="M113.351 243.718H121.038C122.371 243.718 123.455 244.803 123.455 246.137V272.402H110.934V246.137C110.934 244.803 112.018 243.718 113.351 243.718Z" stroke="#040000" stroke-width="1.25367" stroke-miterlimit="10"/>
<path d="M51.9287 243.718H59.6165C60.9487 243.718 62.0335 244.803 62.0335 246.137V272.402H49.5117V246.137C49.5117 244.803 50.5965 243.718 51.9287 243.718Z" stroke="#040000" stroke-width="1.25367" stroke-miterlimit="10"/>
<path d="M110.934 258.872H62.0332" stroke="#040000" stroke-width="1.25367" stroke-miterlimit="10"/>
<path d="M110.934 252.706H62.0332" stroke="#040000" stroke-width="1.25367" stroke-miterlimit="10"/>
<path d="M48.9597 218.088C48.9597 217.053 48.1224 216.208 47.0814 216.208C46.0403 216.208 45.2031 217.046 45.2031 218.088C45.2031 219.13 46.0403 219.967 47.0814 219.967C48.1224 219.967 48.9597 219.13 48.9597 218.088Z" stroke="#040000" stroke-width="1.25367" stroke-miterlimit="10"/>
<path d="M47.0801 206.347V216.204" stroke="#040000" stroke-width="1.25367" stroke-miterlimit="10"/>
<path d="M110.933 272.404V246.139C110.933 244.798 112.018 243.72 113.35 243.72H118.519C118.272 236.623 112.462 230.94 105.313 230.94H67.6533C60.5043 230.94 54.6948 236.623 54.4473 243.72H59.6161C60.9557 243.72 62.0331 244.805 62.0331 246.139V272.404H110.933Z" stroke="#040000" stroke-width="1.25367" stroke-miterlimit="10"/>
<path d="M229.155 166.425H191.131V196.267H229.155V166.425Z" stroke="#040000" stroke-width="1.25367" stroke-miterlimit="10"/>
<path d="M210.141 166.425V196.267" stroke="#040000" stroke-width="1.25367" stroke-miterlimit="10"/>
<path d="M228.368 258.06H210.78C209.761 258.06 208.982 258.963 209.134 259.976L211.027 272.405H228.121L230.014 259.976C230.167 258.97 229.388 258.06 228.368 258.06Z" stroke="#040000" stroke-width="1.25367" stroke-miterlimit="10"/>
<path d="M219.27 258.121C218.935 258.121 218.222 252.825 210.636 251.79C207.505 251.36 203.727 248.14 203.836 245.32C203.945 242.559 207.717 240.847 213.861 245.728C216.409 247.754 220.158 252.038 220.158 258.121C220.158 258.121 217.479 250.697 225.822 246.224C228.283 244.905 235.243 244.315 235.235 246.908C235.235 249.043 233.707 250.012 226.244 251.848C223.908 252.424 219.998 254.595 220.151 258.121" fill="#040000"/>
<path d="M219.757 254.93C219.422 254.93 217.427 251.826 214.122 244.082C212.477 240.22 211.487 238.136 212.098 234.843C212.601 232.14 215.702 231.936 216.845 233.779C219.073 237.364 219.641 247.448 219.641 253.538C219.641 253.538 217.049 231.164 226.433 224.986C229.774 222.785 239.537 221.678 235.234 231.674C234.39 233.641 227.954 239.593 224.766 244.264C220.842 249.998 219.422 254.602 219.575 258.121" fill="#040000"/>
<path d="M152.146 224.19C152.146 224.19 153.151 219.337 152.59 217.858C152.59 217.858 149.984 216.532 150.385 214.609C150.385 214.609 150.508 212.401 152.03 213.246C152.03 213.246 153.195 214.048 153.631 213.647L159.761 207.673C159.761 207.673 161.727 209.159 161.843 209.88C161.843 209.88 162.084 212.365 163.088 211.687C163.088 211.687 164.413 209.64 163.409 207.84C163.409 207.84 160.453 203.534 155.597 203.913C152.838 204.125 148.732 206.587 148.15 212.088C148.055 212.977 147.509 214.733 148.15 215.658C148.15 215.658 142.689 219.614 144.823 224.197C145.099 224.787 146.344 226.324 146.344 226.324C146.344 226.324 148.746 223.119 152.154 224.197L152.146 224.19Z" fill="#040000"/>
<path d="M154.658 221.364C154.658 221.364 159.987 224.81 161.785 217.153C162.171 215.513 162.011 211.688 161.916 210.392L163.387 211.076C163.387 211.076 164.107 218.115 162.986 219.717C162.986 219.717 164.311 225.116 161.224 226.304L159.499 225.808C159.499 225.808 153.813 221.757 154.651 221.357L154.658 221.364Z" fill="#040000"/>
<path d="M151.717 223.332C151.717 223.332 152.954 227.66 156.762 227.499C157.73 227.463 158.487 227.55 159.092 224.403" stroke="#040000" stroke-width="1.25367" stroke-linecap="round" stroke-linejoin="round"/>
<path d="M158.155 247.365L157.82 253.755H148.757C146.864 253.755 145.255 252.567 144.614 250.899C144.075 247.562 146.536 244.611 146.536 244.611C146.929 244.757 147.388 244.837 147.934 244.837H155.411V247.365H158.155Z" fill="#040000"/>
<path d="M146.533 244.614C144.342 243.806 144.32 241.139 144.32 241.052V232.229C144.32 228.323 146.701 224.746 146.701 224.746" stroke="#040000" stroke-width="1.25367" stroke-linecap="round" stroke-linejoin="round"/>
<path d="M149.861 231.106C149.861 231.106 150.786 236.454 149.861 239.733C149.861 239.733 150.254 239.47 153.276 239.609C154.652 239.667 158.794 239.849 158.794 239.849V243.966" stroke="#040000" stroke-width="1.25367" stroke-linecap="round" stroke-linejoin="round"/>
<path d="M198.099 243.974H155.408V247.383H198.099V243.974Z" stroke="#040000" stroke-width="1.25367" stroke-linecap="round" stroke-linejoin="round"/>
<path d="M158.793 240.624C158.793 240.624 161.639 240.063 162.28 241.265C162.6 241.87 163.081 243.961 161.8 243.961" stroke="#040000" stroke-width="1.25367" stroke-linecap="round" stroke-linejoin="round"/>
<path d="M160.715 225.416C160.715 225.416 165.44 230.421 165.92 238.283" stroke="#040000" stroke-width="1.25367" stroke-linecap="round" stroke-linejoin="round"/>
<path d="M160.314 240.492V239.683C160.314 239.151 160.744 238.714 161.283 238.714H170.244C170.776 238.714 171.213 239.144 171.213 239.683C171.213 242.459 168.97 243.967 168.97 243.967" stroke="#040000" stroke-width="1.25367" stroke-linecap="round" stroke-linejoin="round"/>
<path d="M162.396 234.229V238.718" stroke="#040000" stroke-width="1.25367" stroke-linecap="round" stroke-linejoin="round"/>
<path d="M160.731 247.369L159.704 266.99L159.442 272.061H156.865L157.702 255.974L157.819 253.759L158.154 247.369H160.731Z" stroke="#040000" stroke-width="1.25367" stroke-linecap="round" stroke-linejoin="round"/>
<path d="M185.984 272.061V272.053L185.736 267.361L185.052 254.261L184.695 247.369H187.265L188.561 272.061H185.984Z" stroke="#040000" stroke-width="1.25367" stroke-linecap="round" stroke-linejoin="round"/>
<path d="M157.818 253.762L157.701 255.977H144.881C141.721 255.977 139.166 253.412 139.166 250.257V230.433H144.32V249.325C144.32 249.886 144.422 250.417 144.612 250.906C145.245 252.574 146.861 253.762 148.754 253.762H157.818Z" stroke="#040000" stroke-width="1.25367" stroke-linecap="round" stroke-linejoin="round"/>
<path d="M145.281 255.984L141.969 272.064" stroke="#040000" stroke-width="1.25367" stroke-linecap="round" stroke-linejoin="round"/>
<path d="M165.769 252.136V266.991H159.705L160.724 247.378H164.961C164.961 247.378 165.631 248.675 165.748 251.341C165.755 251.596 165.762 251.859 165.762 252.136H165.769Z" fill="#040000"/>
<path d="M172.285 255.181L170.254 266.991H165.77V261.17C165.77 261.17 167.335 256.092 165.755 251.341C165.639 248.675 164.969 247.378 164.969 247.378H169.992C169.992 247.378 172.773 250.423 172.293 255.181H172.285Z" fill="#040000"/>
<path d="M163.933 266.987C163.933 266.987 164.675 269.799 168.024 270.258C168.279 270.295 168.505 270.448 168.636 270.666L168.687 270.746C169.029 271.322 168.614 272.05 167.944 272.05H159.434L159.696 266.979H163.925L163.933 266.987Z" stroke="#040000" stroke-width="1.25367" stroke-linecap="round" stroke-linejoin="round"/>
<path d="M165.162 266.987H169.392C169.392 266.987 170.134 269.8 173.483 270.259C173.738 270.295 173.964 270.448 174.095 270.667L174.146 270.747C174.488 271.322 174.073 272.051 173.403 272.051H167.943" stroke="#040000" stroke-width="1.25367" stroke-linecap="round" stroke-linejoin="round"/>
<path d="M182.658 207.76C182.658 207.76 182.316 213.261 182.017 214.12C181.537 215.512 181.267 218.346 182.338 220C182.338 220 182.818 222.295 187.303 222.033C187.303 222.033 184.041 222.084 184.9 224.437C184.9 224.437 185.541 227.001 188.424 226.309C188.424 226.309 192.217 225.508 192.326 222.623C192.326 222.623 191.634 221.129 191.955 218.718C191.955 218.718 194.677 218.827 194.466 215.563C194.466 215.563 194.415 214.011 192.704 213.851C192.704 213.851 191.212 213.865 190.892 215.089L190.404 210.55C190.346 209.996 189.945 209.545 189.406 209.414L182.665 207.76H182.658Z" stroke="#040000" stroke-width="1.25367" stroke-linecap="round" stroke-linejoin="round"/>
<path d="M194.138 214.643C194.138 214.643 196.541 211.612 195.58 209.208C195.58 209.208 195.23 205.624 188.118 205.303H183.349C183.349 205.303 181.799 205.252 181.537 206.534C181.537 206.534 181.245 207.416 182.658 207.766" stroke="#040000" stroke-width="1.25367" stroke-linecap="round" stroke-linejoin="round"/>
<path d="M192.326 222.626C192.326 222.626 201.565 223.908 202.103 232.462V235.726C202.103 235.726 195.748 235.617 195.377 237.219L195.005 231.391" stroke="#040000" stroke-width="1.25367" stroke-linecap="round" stroke-linejoin="round"/>
<path d="M184.805 223.333C184.805 223.333 178.486 224.229 178.486 233.526" stroke="#040000" stroke-width="1.25367" stroke-linecap="round" stroke-linejoin="round"/>
<path d="M196.162 236.471C196.162 236.471 195.966 238.824 193.447 238.715C192.107 238.657 188.562 238.715 188.562 238.715C188.562 238.715 185.81 237.804 185.701 239.087C185.701 239.087 182.09 239.123 182.032 240.493C181.981 241.637 181.799 243.655 185.06 243.961H199.693C199.693 243.961 202.234 243.954 202.096 240.209C202.052 239.087 201.826 235.721 201.826 235.721" stroke="#040000" stroke-width="1.25367" stroke-linecap="round" stroke-linejoin="round"/>
<path d="M178.428 233.527H177.853C176.522 233.527 175.443 234.607 175.443 235.939V241.549C175.443 242.881 176.522 243.961 177.853 243.961H178.428C179.759 243.961 180.838 242.881 180.838 241.549V235.939C180.838 234.607 179.759 233.527 178.428 233.527Z" stroke="#040000" stroke-width="1.25367" stroke-linecap="round" stroke-linejoin="round"/>
<path d="M182.008 234.229H181.855C181.292 234.229 180.836 234.686 180.836 235.249V237.698C180.836 238.261 181.292 238.718 181.855 238.718H182.008C182.571 238.718 183.027 238.261 183.027 237.698V235.249C183.027 234.686 182.571 234.229 182.008 234.229Z" stroke="#040000" stroke-width="1.25367" stroke-linecap="round" stroke-linejoin="round"/>
<path d="M181.508 231.106V234.312" stroke="#040000" stroke-width="1.25367" stroke-linecap="round" stroke-linejoin="round"/>
<path d="M206.951 232.71L206.551 253.758C206.551 257.263 203.02 257.175 203.02 257.175H192.311L192.049 253.758H198.535C201.739 253.758 202.095 250.815 202.095 250.815V240.804V240.731C202.095 240.585 202.095 240.425 202.095 240.258V232.447L206.951 232.695V232.71Z" stroke="#040000" stroke-width="1.25367" stroke-linecap="round" stroke-linejoin="round"/>
<path d="M203.42 257.183L204.541 272.06" stroke="#040000" stroke-width="1.25367" stroke-linecap="round" stroke-linejoin="round"/>
<path d="M198.943 257.183L199.504 272.06" stroke="#040000" stroke-width="1.25367" stroke-linecap="round" stroke-linejoin="round"/>
<path d="M148.959 255.984V272.064" stroke="#040000" stroke-width="1.25367" stroke-linecap="round" stroke-linejoin="round"/>
<path d="M202.102 249.693V250.815C202.102 250.815 201.753 253.759 198.542 253.759H192.056L192.318 257.176V272.053H188.554L187.266 247.369H198.091C198.091 247.369 202.095 248.564 202.102 249.693Z" fill="#040000"/>
<path d="M185.054 254.263L183.037 254.11V266.7H176.747L175.444 253.768C174.934 249.491 176.747 247.378 176.747 247.378H184.69L185.054 254.27V254.263Z" fill="#040000"/>
<path d="M181.643 266.987H177.843C177.843 266.987 177.894 270.054 173.431 270.251C173.453 270.251 173.468 270.258 173.482 270.258C173.737 270.295 173.963 270.448 174.094 270.666L174.145 270.746C174.487 271.322 174.072 272.05 173.402 272.05H180.777C180.777 272.05 182.502 272.269 182.502 270.826C182.502 268.692 181.541 268.051 181.643 266.979V266.987Z" stroke="#040000" stroke-width="1.25367" stroke-linecap="round" stroke-linejoin="round"/>
<path d="M185.738 267.361C185.6 268.09 185.018 269.664 182.477 270.13C182.499 270.348 182.513 270.582 182.513 270.844C182.513 271.747 181.844 271.995 181.334 272.061H185.986L185.738 267.369V267.361Z" stroke="#040000" stroke-width="1.25367" stroke-linecap="round" stroke-linejoin="round"/>
<path d="M181.643 266.987H177.843C177.843 266.987 177.894 270.054 173.431 270.251C173.453 270.251 173.468 270.258 173.482 270.258C173.737 270.295 173.963 270.448 174.094 270.666L174.145 270.746C174.487 271.322 174.072 272.05 173.402 272.05H180.777C180.777 272.05 182.502 272.269 182.502 270.826C182.502 268.692 181.541 268.051 181.643 266.979V266.987Z" fill="#040000" stroke="#040000" stroke-width="0.626836" stroke-miterlimit="10"/>
<path d="M185.738 267.361C185.6 268.09 185.018 269.664 182.477 270.13C182.499 270.348 182.513 270.582 182.513 270.844C182.513 271.747 181.844 271.995 181.334 272.061H185.986L185.738 267.369V267.361Z" fill="#040000" stroke="#040000" stroke-width="0.626836" stroke-miterlimit="10"/>
<path d="M202.102 249.693V250.815C202.102 250.815 201.753 253.759 198.542 253.759H192.056L192.318 257.176V272.053H188.554L187.266 247.369H198.091C198.091 247.369 202.095 248.564 202.102 249.693Z" stroke="#040000" stroke-width="1.25367" stroke-linecap="round" stroke-linejoin="round"/>
<path d="M157.359 214.582C157.704 214.582 157.985 214.302 157.985 213.956C157.985 213.61 157.704 213.329 157.359 213.329C157.013 213.329 156.732 213.61 156.732 213.956C156.732 214.302 157.013 214.582 157.359 214.582Z" fill="#040000"/>
<path d="M152.388 215.102C152.388 215.349 152.192 215.546 151.944 215.546C151.697 215.546 151.5 215.349 151.5 215.102C151.5 214.854 151.697 214.657 151.944 214.657C152.192 214.657 152.388 214.854 152.388 215.102Z" fill="#040000"/>
<path d="M161.729 214.317C161.729 214.667 161.445 214.944 161.103 214.944C160.76 214.944 160.477 214.659 160.477 214.317C160.477 213.975 160.76 213.69 161.103 213.69C161.445 213.69 161.729 213.975 161.729 214.317Z" fill="#040000"/>
<path d="M156.871 212.007C156.929 212.029 157.599 211.592 158.327 212.197" stroke="#040000" stroke-width="0.626836" stroke-linecap="round" stroke-linejoin="round"/>
<path d="M160.869 212.458C160.927 212.48 161.371 212.021 162.019 212.654" stroke="#040000" stroke-width="0.626836" stroke-linecap="round" stroke-linejoin="round"/>
<path d="M157.031 218.527C157.031 218.527 158 220.043 159.783 219.285" stroke="#040000" stroke-width="0.626836" stroke-linecap="round" stroke-linejoin="round"/>
<path d="M187.806 214.594C188.152 214.594 188.432 214.313 188.432 213.967C188.432 213.621 188.152 213.341 187.806 213.341C187.46 213.341 187.18 213.621 187.18 213.967C187.18 214.313 187.46 214.594 187.806 214.594Z" fill="#040000"/>
<path d="M183.933 214.594C184.279 214.594 184.559 214.313 184.559 213.967C184.559 213.621 184.279 213.341 183.933 213.341C183.587 213.341 183.307 213.621 183.307 213.967C183.307 214.313 183.587 214.594 183.933 214.594Z" fill="#040000"/>
<path d="M187.18 211.717C187.238 211.739 187.842 211.258 188.425 211.717" stroke="#040000" stroke-width="0.626836" stroke-linecap="round" stroke-linejoin="round"/>
<path d="M183.451 211.512C183.502 211.541 184.041 210.834 184.558 211.512" stroke="#040000" stroke-width="0.626836" stroke-linecap="round" stroke-linejoin="round"/>
<path d="M187.383 217.712C187.383 217.712 186.684 219.613 184.398 218.506" stroke="#040000" stroke-width="0.626836" stroke-linecap="round" stroke-linejoin="round"/>
<path d="M185.418 214.601C185.418 214.601 183.656 217.012 185.512 216.976" stroke="#040000" stroke-width="0.626836" stroke-linecap="round" stroke-linejoin="round"/>
<path d="M159.682 215.546C159.682 215.546 160.745 217.542 159.471 217.732" stroke="#040000" stroke-width="0.626836" stroke-linecap="round" stroke-linejoin="round"/>
<path d="M38.8103 368.372C39.4291 370.07 38.5045 376.029 38.5045 376.029C34.0418 375.359 31.9888 377.516 31.9888 377.516C31.9888 377.516 30.7585 368.27 33.8379 363.134C33.8379 363.134 36.3496 359.593 40.2517 359.593C40.2517 359.593 41.482 363.032 44.4596 362.828C44.4596 362.828 47.3862 362.522 48.4127 360.875C48.4127 360.875 53.1375 363.134 53.1375 372.532L48.3253 372.62" stroke="#040000" stroke-width="1.25367" stroke-linecap="round" stroke-linejoin="round"/>
<path d="M32.418 377.156C32.418 377.156 32.5417 381.578 35.2135 381.884C35.2135 381.884 39.2685 383.429 46.5049 378.547C46.5049 378.547 51.3316 379.677 53.1298 378.139C53.1298 378.139 56.0055 374.905 50.3561 373.258C50.3561 373.258 48.9729 372.85 47.8954 373.258C47.8954 373.258 49.3515 371.444 48.7545 370.22C48.4633 369.622 47.728 369.04 46.4467 371.553L44.6631 374.999L38.5551 377.054C38.5551 377.054 38.3876 376.85 38.5041 376.027" stroke="#040000" stroke-width="1.25367" stroke-linecap="round" stroke-linejoin="round"/>
<path d="M51.0625 378.881C51.0625 378.881 52.9262 382.058 54.8845 380.404C54.8845 380.404 59.158 376.477 59.7768 375.238C59.7768 375.238 60.5849 374.735 61.5895 374.582C61.5895 374.582 67.0933 373.81 66.5545 369.191C66.5545 369.191 66.1687 367.304 63.6279 367.843C63.6279 367.843 60.7013 368.302 59.5074 369.344C59.5074 369.344 61.16 366.721 60.0825 365.978C59.5802 365.628 59.0706 365.337 58.3863 366.903C57.9058 368.003 57.1195 370.153 57.2287 370.961C57.2287 370.961 55.2631 375.901 52.4894 372.542" stroke="#040000" stroke-width="1.25367" stroke-linecap="round" stroke-linejoin="round"/>
<path d="M40.2444 359.589V355.582C40.2444 355.582 37.1358 353.848 38.5482 351.444C38.9777 350.708 39.9605 349.724 41.9116 350.934C41.9116 350.934 43.3749 347.393 43.4549 346.103C43.4549 346.103 52.2857 347 52.0018 344.639C51.8052 342.978 49.279 341.79 45.9447 341.79C43.7097 341.79 38.3662 341.681 37.8056 346.468C37.6745 347.582 38.1186 350.06 39.1451 350.752" stroke="#040000" stroke-width="1.25367" stroke-linecap="round" stroke-linejoin="round"/>
<path d="M51.3454 345.641C51.3454 345.641 51.2362 350.471 51.3454 352.081C51.5201 354.668 52.583 361.057 44.5312 359.899" stroke="#040000" stroke-width="1.25367" stroke-linecap="round" stroke-linejoin="round"/>
<path d="M48.3789 359.771L48.408 360.879" stroke="#040000" stroke-width="1.25367" stroke-linecap="round" stroke-linejoin="round"/>
<path d="M51.0626 382.628C51.0626 382.628 49.5993 380.581 49.3809 378.935" stroke="#040000" stroke-width="1.25367" stroke-linecap="round" stroke-linejoin="round"/>
<path d="M31.9805 386.384V377.524" stroke="#040000" stroke-width="1.25367" stroke-linecap="round" stroke-linejoin="round"/>
<path d="M53.1304 403.766H45.9304L44.7874 393.785L44.5326 391.512H42.4359C31.7051 391.512 31.989 386.375 31.989 386.375C31.989 386.375 35.5562 382.317 42.4359 382.623H48.4129C51.3249 382.623 52.5844 384.153 53.1377 385.748C53.4507 386.652 53.5308 387.577 53.5599 388.269C53.7055 392.138 53.1377 403.759 53.1377 403.759L53.1304 403.766Z" fill="#040000" stroke="#040000" stroke-width="1.25367" stroke-linecap="round" stroke-linejoin="round"/>
<path d="M60.4038 387.512L58.8241 403.766H53.131C53.131 403.766 56.2542 388.699 53.131 385.756C52.5777 384.153 51.3183 382.63 48.4062 382.63H54.7035C54.7035 382.63 60.4038 382.499 60.4038 387.512Z" fill="#040000" stroke="#040000" stroke-width="1.25367" stroke-linecap="round" stroke-linejoin="round"/>
<path d="M45.9316 403.763V408.287H57.8128L53.1317 403.763" stroke="#040000" stroke-width="1.25367" stroke-linecap="round" stroke-linejoin="round"/>
<path d="M58.8225 403.763L63.2706 408.214L57.8105 408.287" stroke="#040000" stroke-width="1.25367" stroke-linecap="round" stroke-linejoin="round"/>
<path d="M44.7943 393.792H34.6168C34.6168 393.792 27.5842 393.551 27.5842 385.996L26.252 367.811C26.252 367.811 26.3539 364.736 30.4598 364.882C31.0641 364.904 32.5201 365.035 32.6439 365.931" stroke="#040000" stroke-width="1.25367" stroke-linecap="round" stroke-linejoin="round"/>
<path d="M31.7419 393.049L28.4805 408.291" stroke="#040000" stroke-width="1.25367" stroke-linecap="round" stroke-linejoin="round"/>
<path d="M36.5605 408.291L38.1767 393.792" stroke="#040000" stroke-width="1.25367" stroke-linecap="round" stroke-linejoin="round"/>
<path d="M42.7773 393.792V408.291" stroke="#040000" stroke-width="1.25367" stroke-linecap="round" stroke-linejoin="round"/>
<path d="M74.8034 367.811L74.7234 374.324C74.7234 374.324 70.9159 374.405 70.6028 374.324C70.1442 373.21 71.6439 367.199 71.6439 367.199C72.6049 364.117 76.5215 361.268 76.5215 361.268C76.5215 361.268 76.4415 363.192 80.1398 363.192C80.1398 363.192 83.838 363.163 84.5296 359.593C84.5296 359.593 94.001 358.412 94.001 374.055H85.76C85.76 374.055 85.76 368.044 86.4516 367.352" stroke="#040000" stroke-width="1.25367" stroke-linecap="round" stroke-linejoin="round"/>
<path d="M63.2705 383.989C62.7827 383.785 62.5716 383.319 62.9647 382.387C62.9647 382.387 63.7873 381.053 65.9932 380.638L70.0482 379.334L70.5506 374.117" stroke="#040000" stroke-width="1.25367" stroke-linecap="round" stroke-linejoin="round"/>
<path d="M74.7249 374.324C74.7249 374.324 75.1326 380.889 73.2907 381.952C72.8102 382.229 72.1987 382.513 71.5508 382.79" stroke="#040000" stroke-width="1.25367" stroke-linecap="round" stroke-linejoin="round"/>
<path d="M72.0294 388.03L74.3809 406.026L72.4153 408.285H64.4873L67.7196 402.908L63.2715 383.987C64.4217 384.46 67.1299 383.433 67.1299 383.433C66.0306 384.766 67.0499 385.123 67.7924 384.533C68.4331 384.03 70.0711 383.411 71.5489 382.777L75.0943 382.464C74.6357 382.814 74.1261 383.389 74.4683 384.045C74.4683 384.045 74.6721 384.657 75.3346 384.045C75.2691 384.154 74.0897 386.078 74.3518 387.127L72.0222 388.016L72.0294 388.03Z" fill="#040000" stroke="#040000" stroke-width="1.25367" stroke-linecap="round" stroke-linejoin="round"/>
<path d="M82.2567 391.655V408.288H72.4141L74.3797 406.03L76.3453 403.771C76.3453 403.771 73.1421 391.56 74.3578 387.145C74.3578 387.145 76.935 390.38 79.1409 384.522C79.1409 384.522 89.4058 382.453 90.6361 381.469C91.2404 380.981 91.6626 379.816 91.9465 378.548V386.737C91.9465 386.737 92.6382 391.67 82.2567 391.67V391.655Z" fill="#040000" stroke="#040000" stroke-width="1.25367" stroke-linecap="round" stroke-linejoin="round"/>
<path d="M91.9473 378.532C92.4205 376.426 92.537 374.044 92.537 374.044" stroke="#040000" stroke-width="1.25367" stroke-linecap="round" stroke-linejoin="round"/>
<path d="M75.0938 382.466C75.385 382.24 75.6543 382.109 75.6543 382.109C75.6543 382.109 82.9781 380.485 84.9947 379.326C86.1522 378.663 86.4798 374.044 86.4798 374.044" stroke="#040000" stroke-width="1.25367" stroke-linecap="round" stroke-linejoin="round"/>
<path d="M87.3379 382.631C91.1017 382.544 91.9462 386.726 91.9462 386.726" stroke="#040000" stroke-width="1.25367" stroke-linecap="round" stroke-linejoin="round"/>
<path d="M76.5195 361.26C76.5195 361.26 77.7863 360.204 79.4097 360.321" stroke="#040000" stroke-width="1.25367" stroke-linecap="round" stroke-linejoin="round"/>
<path d="M74.4606 346.916C74.2349 347.492 74.0238 348.249 73.9437 349.189C73.9437 349.189 72.9172 357 74.5043 358.792C74.9848 359.331 76.3097 360.621 77.278 360.788" stroke="#040000" stroke-width="1.25367" stroke-linecap="round" stroke-linejoin="round"/>
<path d="M85.8683 351.457C86.5163 351.843 86.4653 352.841 86.4653 352.841C86.4143 355.872 83.8008 355.61 83.8008 355.61L84.5288 359.588" stroke="#040000" stroke-width="1.25367" stroke-linecap="round" stroke-linejoin="round"/>
<path d="M87.9576 348.064C87.9576 348.064 87.164 351.882 85.8682 351.459C85.5988 351.291 85.1984 351.233 84.6233 351.401C84.6233 351.401 83.1309 352.581 82.8761 349.55V347.86C82.8761 347.86 78.872 345.077 75.1228 345.645C75.1228 345.645 74.7806 346.082 74.4603 346.913C74.3656 346.964 72.7131 347.903 72.7131 345.849C72.7131 345.849 71.8904 341.638 77.1248 341.791C77.1248 341.791 84.4631 340.202 84.9291 344.049C84.9291 344.049 88.4745 344.253 87.9576 348.056V348.064Z" fill="#040000" stroke="#040000" stroke-width="1.25367" stroke-linecap="round" stroke-linejoin="round"/>
<path d="M82.2578 394.239H92.2388C92.2388 394.239 96.8326 394.473 96.8326 388.382L97.91 369.694C97.91 369.694 97.7062 367.428 93.2653 367.428" stroke="#040000" stroke-width="1.25367" stroke-linecap="round" stroke-linejoin="round"/>
<path d="M96.6862 406.982L93.6504 393.999" stroke="#040000" stroke-width="1.25367" stroke-linecap="round" stroke-linejoin="round"/>
<path d="M88.293 408.293V394.238" stroke="#040000" stroke-width="1.25367" stroke-linecap="round" stroke-linejoin="round"/>
<path d="M112.516 358.745C112.516 358.745 111.518 360.785 108.817 360.785C108.817 360.785 104.507 360.362 104.733 354.424C104.733 354.424 104.886 352.501 105.352 352.035C105.352 352.035 105.811 350.213 105.585 348.436" stroke="#040000" stroke-width="1.25367" stroke-linecap="round" stroke-linejoin="round"/>
<path d="M108.103 346.345C108.103 346.345 107.382 348.603 104.564 348.45C104.564 348.45 104.055 347.066 105.387 345.776C105.387 345.776 107.44 341.31 114.931 342.847C114.931 342.847 119.962 343.255 120.064 353.069C120.064 353.069 126.842 358.257 120.683 364.727L115.55 362.104C115.55 362.104 114.269 358.92 114.677 355.94C114.677 355.94 117.246 355.736 117.086 352.96C117.086 352.96 116.933 350.599 114.313 351.984C114.313 351.984 108.154 348.545 108.103 346.33V346.345Z" stroke="#040000" stroke-width="1.25367" stroke-linecap="round" stroke-linejoin="round"/>
<path d="M110.133 360.606C110.133 360.606 110.359 363.906 109.398 364.482C109.398 364.482 106.202 364.249 105.277 365.254C105.277 365.254 107.869 361.757 107.476 360.344" stroke="#040000" stroke-width="1.25367" stroke-linecap="round" stroke-linejoin="round"/>
<path d="M120.677 364.734C120.677 364.734 122.497 367.095 122.344 368.275C122.344 368.275 118.442 367.969 117.517 370.847V376.297L107.157 377.47C107.157 377.47 106.946 375.874 107.15 373.463C107.354 371.051 103.969 369.813 103.969 369.813C104.071 369.091 105.279 365.252 105.279 365.252" stroke="#040000" stroke-width="1.25367" stroke-linecap="round" stroke-linejoin="round"/>
<path d="M109.398 364.49C109.398 364.49 109.923 366.137 112.121 365.095C112.121 365.095 115.354 363.179 115.55 362.115" stroke="#040000" stroke-width="1.25367" stroke-linecap="round" stroke-linejoin="round"/>
<path d="M122.35 368.26C122.35 368.26 124.338 378.802 121.761 380.565C120.756 381.25 120.217 381.615 116.985 381.542C115.194 381.498 109.836 381.221 109.836 381.221C109.836 381.221 105.278 383.625 104.732 381.709C104.521 380.981 104.638 379.786 106.37 379.167C106.37 379.167 104.652 378.744 106.036 377.862C106.327 377.68 107.157 377.462 107.157 377.462" stroke="#040000" stroke-width="1.25367" stroke-linecap="round" stroke-linejoin="round"/>
<path d="M103.968 369.812C103.968 369.812 102.913 376.631 102.76 379.094C102.76 379.094 102.92 381.447 104.653 381.403" stroke="#040000" stroke-width="1.25367" stroke-linecap="round" stroke-linejoin="round"/>
<path d="M112.063 402.431H107.557" stroke="#040000" stroke-width="1.25367" stroke-linecap="round" stroke-linejoin="round"/>
<path d="M106.093 402.438L104.652 388.821C104.302 386.409 105.009 385.848 105.009 385.848L111.117 381.302" stroke="#040000" stroke-width="1.25367" stroke-linecap="round" stroke-linejoin="round"/>
<path d="M112.063 404.39V408.288H101.543L103.283 406.052L106.093 402.431H107.556C107.556 402.431 104.804 406.445 105.853 406.35C107.476 406.19 107.884 405.549 112.063 404.39Z" fill="#040000" stroke="#040000" stroke-width="1.25367" stroke-linecap="round" stroke-linejoin="round"/>
<path d="M112.062 404.395V389.467C112.062 389.467 121.061 390.341 121.92 385.46C122.116 384.323 122.102 383.187 121.286 380.892" stroke="#040000" stroke-width="1.25367" stroke-linecap="round" stroke-linejoin="round"/>
<path d="M103.966 381.27C103.966 381.27 99.0806 383.805 99.0005 388.81C99.0005 388.81 98.6074 395.513 99.9979 398.748L101.461 402.427H106.084" stroke="#040000" stroke-width="1.25367" stroke-linecap="round" stroke-linejoin="round"/>
<path d="M103.283 406.057L101.543 408.294H96.9933L96.6875 406.99L101.456 402.443C101.281 402.669 97.6703 407.179 99.8835 406.662L103.276 406.057H103.283Z" fill="#040000" stroke="#040000" stroke-width="1.25367" stroke-linecap="round" stroke-linejoin="round"/>
<path d="M101.464 402.431H101.455" stroke="#040000" stroke-width="1.25367" stroke-linecap="round" stroke-linejoin="round"/>
<path d="M96.9933 408.292H95.3262L96.6875 406.988" stroke="#040000" stroke-width="1.25367" stroke-linecap="round" stroke-linejoin="round"/>
<path d="M80.866 352.729C80.866 353.094 80.5675 353.392 80.2035 353.392C79.8395 353.392 79.541 353.094 79.541 352.729C79.541 352.365 79.8395 352.066 80.2035 352.066C80.5675 352.066 80.866 352.365 80.866 352.729Z" fill="#040000"/>
<path d="M76.7898 352.729C76.7898 353.094 76.4913 353.392 76.1273 353.392C75.7633 353.392 75.4648 353.094 75.4648 352.729C75.4648 352.365 75.7633 352.066 76.1273 352.066C76.4913 352.066 76.7898 352.365 76.7898 352.729Z" fill="#040000"/>
<path d="M79.5488 350.362C79.6143 350.383 80.2404 349.873 80.852 350.362" stroke="#040000" stroke-width="0.626836" stroke-linecap="round" stroke-linejoin="round"/>
<path d="M75.6328 350.139C75.6911 350.168 76.2516 349.425 76.7903 350.139" stroke="#040000" stroke-width="0.626836" stroke-linecap="round" stroke-linejoin="round"/>
<path d="M79.7608 356.664C79.7608 356.664 79.0255 358.668 76.623 357.502" stroke="#040000" stroke-width="0.626836" stroke-linecap="round" stroke-linejoin="round"/>
<path d="M77.6923 353.382C77.6923 353.382 75.8358 355.917 77.7869 355.881" stroke="#040000" stroke-width="0.626836" stroke-linecap="round" stroke-linejoin="round"/>
<path d="M44.3281 351.827C44.3281 352.191 44.6266 352.49 44.9906 352.49C45.3546 352.49 45.6531 352.191 45.6531 351.827C45.6531 351.463 45.3546 351.164 44.9906 351.164C44.6266 351.164 44.3281 351.463 44.3281 351.827Z" fill="#040000"/>
<path d="M48.3984 351.827C48.3984 352.191 48.6969 352.49 49.0609 352.49C49.4249 352.49 49.7234 352.191 49.7234 351.827C49.7234 351.463 49.4249 351.164 49.0609 351.164C48.6969 351.164 48.3984 351.463 48.3984 351.827Z" fill="#040000"/>
<path d="M45.6391 349.458C45.5736 349.48 44.8965 350.092 44.3359 349.458" stroke="#040000" stroke-width="0.626836" stroke-linecap="round" stroke-linejoin="round"/>
<path d="M49.5618 349.243C49.5036 349.272 49.0595 349.892 48.4043 349.243" stroke="#040000" stroke-width="0.626836" stroke-linecap="round" stroke-linejoin="round"/>
<path d="M45.8711 356.676C45.8711 356.676 46.8321 357.47 48.7904 356.8" stroke="#040000" stroke-width="0.626836" stroke-linecap="round" stroke-linejoin="round"/>
<path d="M47.4941 351.826C47.4941 351.826 49.6563 355.163 47.7053 355.134" stroke="#040000" stroke-width="0.626836" stroke-linecap="round" stroke-linejoin="round"/>
<path d="M110.132 353.155C110.037 353.454 110.205 353.781 110.503 353.876C110.802 353.971 111.129 353.803 111.224 353.505C111.319 353.206 111.151 352.878 110.853 352.783C110.554 352.689 110.227 352.856 110.132 353.155Z" fill="#040000"/>
<path d="M106.776 352.431C106.682 352.73 106.849 353.058 107.148 353.153C107.446 353.247 107.774 353.08 107.868 352.781C107.963 352.482 107.796 352.154 107.497 352.06C107.199 351.965 106.871 352.133 106.776 352.431Z" fill="#040000"/>
<path d="M111.648 351.768C111.59 351.768 111.131 351.207 110.33 351.528" stroke="#040000" stroke-width="0.626836" stroke-linecap="round" stroke-linejoin="round"/>
<path d="M108.036 351.054C107.978 351.054 107.723 350.537 106.98 350.909" stroke="#040000" stroke-width="0.626836" stroke-linecap="round" stroke-linejoin="round"/>
<path d="M109.701 357.395C109.701 357.395 108.435 358.444 107.088 357.293" stroke="#040000" stroke-width="0.626836" stroke-linecap="round" stroke-linejoin="round"/>
<path d="M108.218 354.064C108.218 354.064 106.741 355.514 107.796 356.032" stroke="#040000" stroke-width="0.626836" stroke-linecap="round" stroke-linejoin="round"/>
<path d="M242.623 292.632H21.2207V408.308H242.623V292.632Z" stroke="#040000" stroke-width="1.25367" stroke-miterlimit="10"/>
<path d="M131.922 292.632V408.308" stroke="#040000" stroke-width="1.25367" stroke-miterlimit="10"/>
<path d="M205.961 320.544H170.871V347.188H205.961V320.544Z" stroke="#040000" stroke-width="1.25367" stroke-miterlimit="10"/>
<path d="M219.036 373.497H210.715C209.477 373.497 208.538 372.645 208.756 371.719L210.402 364.82C210.569 364.098 211.399 363.581 212.36 363.581H217.39C218.351 363.581 219.174 364.106 219.349 364.82L220.994 371.719C221.213 372.645 220.273 373.497 219.036 373.497Z" stroke="#040000" stroke-width="1.25367" stroke-miterlimit="10"/>
<path d="M216.358 373.585H213.395V382.131H216.358V373.585Z" stroke="#040000" stroke-width="1.25367" stroke-miterlimit="10"/>
<path d="M195.718 368.24H147.312V408.312H195.718V368.24Z" stroke="#040000" stroke-width="1.25367" stroke-miterlimit="10"/>
<path d="M147.531 394.962H195.718" stroke="#040000" stroke-width="1.25367" stroke-miterlimit="10"/>
<path d="M147.531 381.595H195.718" stroke="#040000" stroke-width="1.25367" stroke-miterlimit="10"/>
<path d="M202.721 395.4H227.029" stroke="#040000" stroke-width="1.25367" stroke-miterlimit="10"/>
<path d="M167.705 371.761H175.553" stroke="#040000" stroke-width="1.25367" stroke-miterlimit="10"/>
<path d="M227.029 382.5H202.721V408.306H227.029V382.5Z" stroke="#040000" stroke-width="1.25367" stroke-miterlimit="10"/>
<path d="M212.965 389.45H216.911" stroke="#040000" stroke-width="1.25367" stroke-miterlimit="10"/>
<path d="M212.965 402.654H216.911" stroke="#040000" stroke-width="1.25367" stroke-miterlimit="10"/>
<path d="M167.705 385.315H175.553" stroke="#040000" stroke-width="1.25367" stroke-miterlimit="10"/>
<path d="M167.705 398.247H175.553" stroke="#040000" stroke-width="1.25367" stroke-miterlimit="10"/>
<path d="M170.871 336.821C170.871 336.821 173.062 328.813 180.357 328.813C188.627 328.813 189.588 336.209 189.588 336.209C189.588 336.209 191.437 332.69 198.062 332.806C202.204 332.879 205.953 335.473 205.953 338.205V347.196H170.863V336.828L170.871 336.821Z" fill="#040000"/>
<path d="M112.062 390.4H120.871" stroke="#040000" stroke-width="1.25367" stroke-linecap="round" stroke-linejoin="round"/>
<path d="M115.543 390.4V408.323" stroke="#040000" stroke-width="1.25367" stroke-linecap="round" stroke-linejoin="round"/>
<path d="M77.8105 292.961V315.816" stroke="#040000" stroke-width="1.25367" stroke-miterlimit="10"/>
<path d="M77.8089 315.812L65.1125 327.556C64.0205 328.569 64.7339 330.39 66.219 330.39H89.3989C90.884 330.39 91.5974 328.562 90.5054 327.556L77.8089 315.812Z" stroke="#040000" stroke-width="1.25367" stroke-miterlimit="10"/>
<path d="M242.623 20.834H21.2207V136.51H242.623V20.834Z" stroke="#040000" stroke-width="1.25367" stroke-miterlimit="10"/>
<path d="M131.922 20.834V136.51" stroke="#040000" stroke-width="1.25367" stroke-miterlimit="10"/>
<path d="M131.915 86.0811H74.752V136.513H131.915V86.0811Z" stroke="#040000" stroke-width="1.25367" stroke-miterlimit="10"/>
<path d="M75.816 33.75H31.3711V58.966H75.816V33.75Z" stroke="#040000" stroke-width="1.25367" stroke-miterlimit="10"/>
<path d="M36.7267 111.304H49.4231C51.0175 111.304 52.3133 112.601 52.3133 114.196V136.52H33.8438V114.196C33.8438 112.601 35.1396 111.304 36.7339 111.304H36.7267Z" stroke="#040000" stroke-width="1.25367" stroke-miterlimit="10"/>
<path d="M220.426 21.1348H195.404V36.26H220.426V21.1348Z" stroke="#040000" stroke-width="1.25367" stroke-miterlimit="10"/>
<path d="M220.426 36.2598H218.963H196.868H195.405L182.672 51.3777H196.868H218.963H233.152L220.426 36.2598Z" stroke="#040000" stroke-width="1.25367" stroke-linecap="round" stroke-linejoin="round"/>
<path d="M223.013 109.455H145.262V136.514H223.013V109.455Z" stroke="#040000" stroke-width="1.25367" stroke-miterlimit="10"/>
<path d="M53.5879 33.75V58.9588" stroke="#040000" stroke-width="1.25367" stroke-miterlimit="10"/>
<path d="M103.34 91.8359V136.512" stroke="#040000" stroke-width="1.25367" stroke-miterlimit="10"/>
<path d="M107.648 111.304V117.059" stroke="#040000" stroke-width="1.25367" stroke-miterlimit="10"/>
<path d="M99.0312 111.304V117.059" stroke="#040000" stroke-width="1.25367" stroke-miterlimit="10"/>
<path d="M131.923 91.8359H74.752" stroke="#040000" stroke-width="1.25367" stroke-miterlimit="10"/>
<path d="M242.624 136.513H223.011V109.454H217.58V86.0811H242.624V136.513Z" stroke="#040000" stroke-width="1.25367" stroke-miterlimit="10"/>
<path d="M242.624 98.3789H217.58" stroke="#040000" stroke-width="1.25367" stroke-miterlimit="10"/>
<path d="M225.587 94.7468C226.625 94.7468 227.466 93.9052 227.466 92.867C227.466 91.8289 226.625 90.9873 225.587 90.9873C224.55 90.9873 223.709 91.8289 223.709 92.867C223.709 93.9052 224.55 94.7468 225.587 94.7468Z" stroke="#040000" stroke-width="1.25367" stroke-miterlimit="10"/>
<path d="M234.615 94.7468C235.652 94.7468 236.493 93.9052 236.493 92.867C236.493 91.8289 235.652 90.9873 234.615 90.9873C233.577 90.9873 232.736 91.8289 232.736 92.867C232.736 93.9052 233.577 94.7468 234.615 94.7468Z" stroke="#040000" stroke-width="1.25367" stroke-miterlimit="10"/>
<path d="M43.0694 111.297C43.4552 111.297 44.1978 102.467 53.0358 102.365C57.3019 102.314 68.0401 99.6255 67.0209 92.5948C66.4676 88.7552 59.2821 86.0813 51.5434 91.8298C47.1972 95.0574 42.0429 102.715 42.0429 111.29C42.0429 111.29 43.8192 93.2651 32.9573 91.8298C30.0599 91.4436 24.6289 91.8297 24.6289 95.4872C24.6289 98.4889 24.7963 98.9698 35.003 102.452C37.6748 103.363 42.2176 106.328 42.0356 111.297" fill="#040000"/>
<path d="M42.108 110.437C42.4939 110.437 44.4813 88.2663 53.0427 86.0514C59.3764 84.4194 61.5895 80.9805 61.4003 75.7056C61.2619 71.8296 54.7171 68.4854 48.034 76.3249C44.5177 80.4414 42.6395 96.266 42.6395 104.841C42.6395 104.841 44.8672 81.1626 33.4302 73.6802C30.984 72.0773 26.2156 71.917 25.7788 75.5307C25.4148 78.5106 29.8411 83.2391 35.0099 86.1461C43.069 90.6706 41.9333 101.031 41.7513 106" fill="#040000"/>
<path d="M161.006 109.454V98.5178C161.006 97.7236 161.654 97.0752 162.447 97.0752H166.954C167.747 97.0752 168.395 97.7236 168.395 98.5178V102.474" stroke="#040000" stroke-width="1.25367" stroke-miterlimit="10"/>
<path d="M184.325 92.544V94.329C184.325 94.329 183.088 94.4966 181.748 95.3345L181.988 88.9521C182.403 90.4312 183.124 91.7936 184.332 92.544H184.325Z" fill="#040000" stroke="#040000" stroke-width="1.25367" stroke-linecap="round" stroke-linejoin="round"/>
<path d="M184.326 94.3326C184.727 97.6476 188.687 97.7132 188.687 97.7132C193.972 97.7132 193.987 93.6113 193.987 93.6113H193.994" stroke="#040000" stroke-width="1.25367" stroke-linecap="round" stroke-linejoin="round"/>
<path d="M181.739 95.3369C180.152 96.3351 178.434 100.481 178.434 104.167V109.457" stroke="#040000" stroke-width="1.25367" stroke-linecap="round" stroke-linejoin="round"/>
<path d="M198.367 94.9795C202.83 99.6715 202.801 108.334 202.801 108.334" stroke="#040000" stroke-width="1.25367" stroke-linecap="round" stroke-linejoin="round"/>
<path d="M197.275 101.486L198.091 108.342" stroke="#040000" stroke-width="1.25367" stroke-linecap="round" stroke-linejoin="round"/>
<path d="M181.979 88.9591C181.164 86.1541 181.433 82.9775 181.433 82.9775" stroke="#040000" stroke-width="1.25367" stroke-linecap="round" stroke-linejoin="round"/>
<path d="M184.326 92.5487C185.615 93.3429 187.449 93.4522 190.07 92.25" stroke="#040000" stroke-width="1.25367" stroke-linecap="round" stroke-linejoin="round"/>
<path d="M198.366 94.9884C197.179 94.1359 195.745 93.6041 193.998 93.6041C193.998 93.6041 193.517 90.6461 194.442 89.422C194.442 89.422 195.556 88.3583 196.116 87.0469L198.373 94.9884H198.366Z" fill="#040000" stroke="#040000" stroke-width="1.25367" stroke-linecap="round" stroke-linejoin="round"/>
<path d="M194.969 83.4443C196.68 84.4279 196.636 85.8414 196.112 87.0508" stroke="#040000" stroke-width="1.25367" stroke-linecap="round" stroke-linejoin="round"/>
<path d="M181.432 82.967C181.519 79.5864 184.322 78.3113 184.322 78.3113C187.962 78.4425 189.156 81.1746 189.156 81.1746C191.595 82.9888 192.439 85.2401 192.439 85.2401C192.745 84.3148 194.958 83.4332 194.958 83.4332C194.958 83.4332 195.184 81.1309 193.859 78.9525C193.859 78.9525 193.16 76.6648 188.632 76.4098C186.31 76.2786 183.354 76.1038 181.388 78.8724C180.602 79.9725 180.609 81.7211 181.432 82.9742V82.967Z" fill="#040000" stroke="#040000" stroke-width="1.25367" stroke-linecap="round" stroke-linejoin="round"/>
<path d="M187.18 85.105C187.18 85.462 187.464 85.7462 187.82 85.7462C188.177 85.7462 188.461 85.462 188.461 85.105C188.461 84.748 188.177 84.4639 187.82 84.4639C187.464 84.4639 187.18 84.748 187.18 85.105Z" fill="#040000"/>
<path d="M183.357 85.4546C183.357 85.8116 183.641 86.0958 183.998 86.0958C184.355 86.0958 184.639 85.8116 184.639 85.4546C184.639 85.0976 184.355 84.8135 183.998 84.8135C183.641 84.8135 183.357 85.0976 183.357 85.4546Z" fill="#040000"/>
<path d="M188.313 83.1052C188.255 83.1271 187.571 82.6827 186.828 83.2947" stroke="#040000" stroke-width="0.626836" stroke-linecap="round" stroke-linejoin="round"/>
<path d="M184.237 83.5721C184.178 83.5939 183.727 83.1277 183.064 83.7688" stroke="#040000" stroke-width="0.626836" stroke-linecap="round" stroke-linejoin="round"/>
<path d="M188.152 89.7607C188.152 89.7607 187.162 91.3053 185.342 90.533" stroke="#040000" stroke-width="0.626836" stroke-linecap="round" stroke-linejoin="round"/>
<path d="M185.445 86.7139C185.445 86.7139 184.36 88.7539 185.663 88.9506" stroke="#040000" stroke-width="0.626836" stroke-linecap="round" stroke-linejoin="round"/>
<path d="M183.895 102.745L184.215 109.455" stroke="#040000" stroke-width="1.25367" stroke-linecap="round" stroke-linejoin="round"/>
<path d="M196.105 87.0469C196.105 87.0469 197.7 88.4967 197.7 90.6388C197.7 90.6388 200.779 93.5021 198.362 94.9811" fill="#040000"/>
<path d="M196.105 87.0469C196.105 87.0469 197.7 88.4967 197.7 90.6388C197.7 90.6388 200.779 93.5021 198.362 94.9811" stroke="#040000" stroke-width="1.25367" stroke-linecap="round" stroke-linejoin="round"/>
<path d="M181.974 88.9521C181.974 88.9521 180.088 92.2453 181.748 95.3418L181.974 88.9521Z" fill="#040000"/>
<path d="M181.974 88.9521C181.974 88.9521 180.088 92.2453 181.748 95.3418" stroke="#040000" stroke-width="1.25367" stroke-linecap="round" stroke-linejoin="round"/>
</svg>
