<svg width="265" height="680" viewBox="0 0 265 680" fill="none" xmlns="http://www.w3.org/2000/svg">
<path d="M264.472 0H0.626953V679.493H264.472V0Z" fill="white" stroke="#040000" stroke-width="1.25367" stroke-miterlimit="10"/>
<path d="M243.25 20.2109H21.8477V135.887H243.25V20.2109Z" stroke="#040000" stroke-width="1.25367" stroke-miterlimit="10"/>
<path d="M132.549 20.2109V135.887" stroke="#040000" stroke-width="1.25367" stroke-miterlimit="10"/>
<path d="M115.405 106.878H123.093C124.425 106.878 125.51 107.964 125.51 109.297V135.562H112.988V109.297C112.988 107.964 114.073 106.878 115.405 106.878Z" stroke="#040000" stroke-width="1.25367" stroke-miterlimit="10"/>
<path d="M53.9814 106.878H61.6692C63.0015 106.878 64.0862 107.964 64.0862 109.297V135.562H51.5645V109.297C51.5645 107.964 52.6492 106.878 53.9814 106.878Z" stroke="#040000" stroke-width="1.25367" stroke-miterlimit="10"/>
<path d="M112.988 122.032H64.0879" stroke="#040000" stroke-width="1.25367" stroke-miterlimit="10"/>
<path d="M112.988 115.875H64.0879" stroke="#040000" stroke-width="1.25367" stroke-miterlimit="10"/>
<path d="M112.986 135.572V109.307C112.986 107.966 114.071 106.888 115.403 106.888H120.572C120.325 99.7913 114.515 94.1084 107.366 94.1084H69.7061C62.557 94.1084 56.7475 99.7913 56.5 106.888H61.6689C63.0084 106.888 64.0859 107.973 64.0859 109.307V135.572H112.986Z" stroke="#040000" stroke-width="1.25367" stroke-miterlimit="10"/>
<path d="M202.052 115.559V122.065H139.713V115.559C139.713 113.169 141.664 111.217 144.052 111.217H158.496V111.239C161.116 118.852 176.419 114.299 176.419 114.299L176.492 113.891H186.502C187.201 113.891 188.46 113.767 189.094 113.891C193.513 114.75 192.807 112.339 191.889 111.217H197.699C200.087 111.217 202.038 113.169 202.038 115.559H202.052Z" fill="#040000" stroke="#040000" stroke-width="1.25367" stroke-linecap="round" stroke-linejoin="round"/>
<path d="M158.505 111.217H158.496" stroke="#E83919" stroke-width="1.25367" stroke-linecap="round" stroke-linejoin="round"/>
<path d="M191.908 111.217H191.898" stroke="#E83919" stroke-width="1.25367" stroke-linecap="round" stroke-linejoin="round"/>
<path d="M202.052 122.062H139.713V135.883H202.052V122.062Z" stroke="#040000" stroke-width="1.25367" stroke-linecap="round" stroke-linejoin="round"/>
<path d="M171.542 94.9885C172.168 95.0759 172.772 95.0832 173.332 95.0176C176.827 94.6242 178.014 93.0505 178.931 91.7099C181.027 88.6426 180.598 84.9414 180.052 82.7484C179.535 80.6792 178.829 80.7157 178.145 80.7812C175.91 80.9925 173.82 80.162 173.82 80.162C170.974 79.4625 170.93 82.8723 170.93 82.8723C170.187 86.4641 168.309 85.4077 168.309 85.4077C165.776 84.3148 165.601 86.894 165.601 86.894C165.601 88.9923 167.865 90.4786 167.865 90.4786V94.3473C167.574 94.4712 167.283 94.5951 167.013 94.7262C156.45 99.7097 158.408 110.675 158.503 111.214" stroke="#040000" stroke-width="1.25367" stroke-linecap="round" stroke-linejoin="round"/>
<path d="M176.499 113.89L177.104 110.414L177.22 109.751C177.22 108.615 168.564 108.789 168.564 108.789C164.451 108.789 166.031 104.243 166.031 104.243" stroke="#040000" stroke-width="1.25367" stroke-linecap="round" stroke-linejoin="round"/>
<path d="M186.511 113.888C186.336 113.189 186.824 110.879 187.079 109.794C187.159 109.444 187.21 109.218 187.21 109.218C182.725 108.868 181.262 101.109 181.262 101.109C180.439 98.6026 177.418 96.8103 175.351 95.834C174.193 95.2949 173.334 95.0107 173.334 95.0107" stroke="#040000" stroke-width="1.25367" stroke-linecap="round" stroke-linejoin="round"/>
<path d="M177.098 110.411C177.098 110.411 181.597 109.158 181.815 111.788C181.873 112.458 181.932 113.886 180.126 113.886" stroke="#040000" stroke-width="1.25367" stroke-linecap="round" stroke-linejoin="round"/>
<path d="M191.905 111.219C191.796 111.081 191.679 110.964 191.57 110.877C190.121 109.675 187.078 109.799 187.078 109.799" stroke="#040000" stroke-width="1.25367" stroke-linecap="round" stroke-linejoin="round"/>
<path d="M175.35 95.8413C175.35 95.8413 174.957 97.6117 170.713 97.6117C169.541 97.6117 167.371 96.8686 167 94.7266" stroke="#040000" stroke-width="1.25367" stroke-linecap="round" stroke-linejoin="round"/>
<path d="M166.251 85.4768C166.251 85.4768 163.87 83.6335 164.809 80.5662C165.282 79.0216 166.265 76.7484 170.204 77.0107C170.204 77.0107 171.23 75.998 171.805 75.6119C173.145 74.7084 174.907 74.5919 176.85 74.9999C178.598 75.3641 181.226 76.3404 181.189 78.4096C181.175 79.5316 181.437 82.9559 180.061 82.7519" stroke="#040000" stroke-width="1.25367" stroke-linecap="round" stroke-linejoin="round"/>
<path d="M148.574 111.213V103.337C148.574 100.948 150.525 98.9951 152.913 98.9951H161.467" stroke="#040000" stroke-width="1.25367" stroke-linecap="round" stroke-linejoin="round"/>
<path d="M172.88 86.1663C172.778 86.5525 173.004 86.9386 173.39 87.0406C173.775 87.1426 174.161 86.9167 174.263 86.5306C174.365 86.1445 174.139 85.7583 173.754 85.6563C173.368 85.5543 172.982 85.7802 172.88 86.1663Z" fill="#040000"/>
<path d="M176.981 87.4466C176.88 87.8327 177.105 88.2189 177.491 88.3209C177.877 88.4229 178.263 88.197 178.365 87.8109C178.467 87.4247 178.241 87.0386 177.855 86.9366C177.469 86.8346 177.083 87.0604 176.981 87.4466Z" fill="#040000"/>
<path d="M174.856 84.3485C174.601 83.8968 174.113 83.6491 173.334 83.9842" stroke="#040000" stroke-width="0.626836" stroke-linecap="round" stroke-linejoin="round"/>
<path d="M178.77 85.4864C178.705 85.501 178.319 84.5684 177.555 85.1659" stroke="#040000" stroke-width="0.626836" stroke-linecap="round" stroke-linejoin="round"/>
<path d="M172.32 90.457C172.32 90.457 172.539 92.7666 175.378 92.2056" stroke="#040000" stroke-width="0.626836" stroke-linecap="round" stroke-linejoin="round"/>
<path d="M175.795 87.7852C175.795 87.7852 177.04 90.9618 174.994 90.3862" stroke="#040000" stroke-width="0.626836" stroke-linecap="round" stroke-linejoin="round"/>
<path d="M178.524 40.9941H143.434V67.6382H178.524V40.9941Z" stroke="#040000" stroke-width="1.25367" stroke-miterlimit="10"/>
<path d="M143.433 57.2668C143.433 57.2668 145.624 49.2598 152.919 49.2598C161.189 49.2598 162.15 56.6548 162.15 56.6548C162.15 56.6548 163.999 53.1358 170.624 53.2524C174.767 53.3252 178.516 55.919 178.516 58.6511V67.6418H143.426V57.2741L143.433 57.2668Z" fill="#040000"/>
<path d="M229.353 121.565H211.764C210.745 121.565 209.966 122.469 210.119 123.482L212.012 135.911H229.105L230.998 123.482C231.151 122.476 230.372 121.565 229.353 121.565Z" stroke="#231815" stroke-width="1.25367" stroke-miterlimit="10"/>
<path d="M220.247 121.627C219.912 121.627 219.198 116.33 211.612 115.296C208.482 114.866 204.704 111.646 204.813 108.826C204.922 106.065 208.693 104.353 214.838 109.234C217.386 111.259 221.135 115.544 221.135 121.627C221.135 121.627 218.456 114.203 226.799 109.729C229.259 108.411 236.219 107.821 236.212 110.414C236.212 112.549 234.683 113.518 227.221 115.354C224.884 115.93 220.975 118.101 221.128 121.627" fill="#040000"/>
<path d="M220.734 118.436C220.399 118.436 218.404 115.332 215.099 107.587C213.453 103.726 212.463 101.642 213.075 98.349C213.577 95.646 216.679 95.442 217.822 97.2853C220.049 100.87 220.617 110.953 220.617 117.044C220.617 117.044 218.025 94.6697 227.409 88.4914C230.751 86.2911 240.514 85.1836 236.211 95.1797C235.367 97.1469 228.931 103.099 225.742 107.77C221.818 113.503 220.399 118.108 220.552 121.627" fill="#040000"/>
<path d="M74.192 39.2637H34.2461V64.4797H74.192V39.2637Z" stroke="#040000" stroke-width="1.25367" stroke-miterlimit="10"/>
<path d="M69.811 43.4639H38.623V60.2867H69.811V43.4639Z" stroke="#040000" stroke-width="1.25367" stroke-miterlimit="10"/>
<path d="M112.988 20.2109V62.7671" stroke="#040000" stroke-width="1.25367" stroke-miterlimit="10"/>
<path d="M112.989 62.7646L100.292 74.5093C99.2002 75.522 99.9136 77.3435 101.399 77.3435H124.579C126.064 77.3435 126.777 75.5147 125.685 74.5093L112.989 62.7646Z" stroke="#040000" stroke-width="1.25367" stroke-miterlimit="10"/>
<path d="M37.2324 115.871V130.45" stroke="#040000" stroke-width="1.25367" stroke-miterlimit="10"/>
<path d="M37.2306 130.448L34.4424 132.488C33.1684 133.421 33.8236 135.439 35.4033 135.439H39.0579C40.6377 135.439 41.3002 133.421 40.0189 132.488L37.2306 130.448Z" stroke="#040000" stroke-width="1.25367" stroke-miterlimit="10"/>
<path d="M26.3184 115.871H48.1513" stroke="#040000" stroke-width="1.25367" stroke-linecap="round" stroke-linejoin="round"/>
<path d="M39.9316 106.392H34.5371V115.87H39.9316V106.392Z" fill="#040000" stroke="#040000" stroke-width="1.25367" stroke-miterlimit="10"/>
<path d="M34.0625 102.861C37.324 103.743 37.2293 106.388 37.2293 106.388" stroke="#040000" stroke-width="1.25367" stroke-linecap="round" stroke-linejoin="round"/>
<path d="M37.8633 95.7751L38.6568 94.9736" stroke="#040000" stroke-width="1.25367" stroke-linecap="round" stroke-linejoin="round"/>
<path d="M35.8027 97.8268L36.6035 97.0254" stroke="#040000" stroke-width="1.25367" stroke-linecap="round" stroke-linejoin="round"/>
<path d="M37.8633 97.0254L38.6568 97.8268" stroke="#040000" stroke-width="1.25367" stroke-linecap="round" stroke-linejoin="round"/>
<path d="M35.8027 94.9736L36.6035 95.7751" stroke="#040000" stroke-width="1.25367" stroke-linecap="round" stroke-linejoin="round"/>
<path d="M40.3976 102.861C37.1361 103.743 37.2308 106.388 37.2308 106.388" stroke="#040000" stroke-width="1.25367" stroke-linecap="round" stroke-linejoin="round"/>
<path d="M37.2324 99.3848V106.394" stroke="#040000" stroke-width="1.25367" stroke-linecap="round" stroke-linejoin="round"/>
<path d="M58.0006 600.354H21.8477V679.485H58.0006V600.354Z" stroke="#040000" stroke-width="1.25367" stroke-miterlimit="10"/>
<path d="M22.0078 658.655H58.0006" stroke="#040000" stroke-width="1.25367" stroke-miterlimit="10"/>
<path d="M22.0078 669.062H58.0006" stroke="#040000" stroke-width="1.25367" stroke-miterlimit="10"/>
<path d="M32.9141 663.854H47.103" stroke="#040000" stroke-width="1.25367" stroke-miterlimit="10"/>
<path d="M32.9141 674.276H47.103" stroke="#040000" stroke-width="1.25367" stroke-miterlimit="10"/>
<path d="M39.9238 600.354V658.655" stroke="#040000" stroke-width="1.25367" stroke-miterlimit="10"/>
<path d="M132.549 563.808H21.8477V679.484H132.549V563.808Z" stroke="#040000" stroke-width="1.25367" stroke-miterlimit="10"/>
<path d="M214.423 633.253C214.423 632.218 213.585 631.373 212.544 631.373C211.503 631.373 210.666 632.211 210.666 633.253C210.666 634.295 211.503 635.132 212.544 635.132C213.585 635.132 214.423 634.295 214.423 633.253Z" stroke="#040000" stroke-width="1.25367" stroke-miterlimit="10"/>
<path d="M220.062 587.105H172.363V679.387H220.062V587.105Z" stroke="#040000" stroke-width="1.25367" stroke-miterlimit="10"/>
<path d="M71.3184 643.477H71.9154C72.9346 643.477 73.7573 644.3 73.7573 645.32V679.476H69.4766V645.32C69.4766 644.3 70.2992 643.477 71.3184 643.477Z" stroke="#040000" stroke-width="1.25367" stroke-linecap="round" stroke-linejoin="round"/>
<path d="M82.9579 652.555H73.7559V656.496H82.9579V652.555Z" fill="#040000" stroke="#040000" stroke-width="1.25367" stroke-linecap="round" stroke-linejoin="round"/>
<path d="M132.549 679.491H128.268V645.336C128.268 644.316 129.091 643.492 130.11 643.492H130.707C131.726 643.492 132.549 644.316 132.549 645.336V679.491Z" stroke="#040000" stroke-width="1.25367" stroke-linecap="round" stroke-linejoin="round"/>
<path d="M101.013 656.49H73.7559V669.022H101.013H128.269V656.49H101.013Z" stroke="#040000" stroke-width="1.25367" stroke-linecap="round" stroke-linejoin="round"/>
<path d="M114.341 647.299H87.6818C85.0683 647.299 82.957 649.419 82.957 652.027V656.493H119.066V652.027C119.066 649.412 116.948 647.299 114.341 647.299Z" stroke="#040000" stroke-width="1.25367" stroke-linecap="round" stroke-linejoin="round"/>
<path d="M119.066 656.49H128.268V652.549H119.066V656.49Z" fill="#040000" stroke="#040000" stroke-width="1.25367" stroke-linecap="round" stroke-linejoin="round"/>
<path d="M119.554 577.418H71.9062V614.386H119.554V577.418Z" stroke="#040000" stroke-width="1.25367" stroke-linecap="round" stroke-linejoin="round"/>
<path d="M95.7246 577.418V614.386" stroke="#040000" stroke-width="1.25367" stroke-linecap="round" stroke-linejoin="round"/>
<path d="M71.9062 595.902H119.554" stroke="#040000" stroke-width="1.25367" stroke-linecap="round" stroke-linejoin="round"/>
<path d="M243.25 292.018H21.8477V407.694H243.25V292.018Z" stroke="#040000" stroke-width="1.25367" stroke-miterlimit="10"/>
<path d="M132.549 292.018V407.694" stroke="#231815" stroke-width="1.25367" stroke-miterlimit="10"/>
<path d="M54.0479 339.683C54.0479 339.683 52.4608 346.713 48.7334 346.713H46.6586C46.6586 346.713 44.642 346.349 44.642 348.367C44.642 348.367 44.7003 351.179 47.0226 350.997C47.0226 350.997 45.4355 358.516 41.7081 358.028C41.7081 358.028 36.0879 356.258 38.352 350.509C38.352 350.509 41.2859 347.027 41.7081 344.455C41.7081 344.455 43.419 338.896 48.4277 338.896C48.4277 338.896 53.8004 338.16 54.0479 339.69V339.683Z" stroke="#040000" stroke-width="1.25367" stroke-linecap="round" stroke-linejoin="round"/>
<path d="M54.0496 339.689C54.0496 339.689 56.3064 340.731 56.3064 343.048L56.0225 347.682C56.0225 347.682 57.413 349.868 57.4567 351.23C57.4931 352.301 55.9278 352.527 55.0761 352.41C55.0761 352.41 54.2898 357.197 51.1739 356.286L49.7107 356.039L49.6524 361.088C49.6524 361.088 45.0077 363.9 43.0566 357.846" stroke="#040000" stroke-width="1.25367" stroke-linecap="round" stroke-linejoin="round"/>
<path d="M51.582 353.531C51.582 353.531 52.0625 354.835 54.2465 354.77" stroke="#040000" stroke-width="0.626836" stroke-linecap="round" stroke-linejoin="round"/>
<path d="M49.6509 361.082C49.6509 361.082 53.5968 364.106 53.5968 370.758C53.5968 370.758 50.146 374.583 44.1035 372.747" stroke="#040000" stroke-width="1.25367" stroke-linecap="round" stroke-linejoin="round"/>
<path d="M40.6818 357.557C40.6818 357.557 35.8187 362.883 36.0954 369.848C36.0954 369.848 36.7797 375.028 38.3813 374.387C38.3813 374.387 42.7348 372.828 44.1981 373.469L43.0479 364.944" stroke="#040000" stroke-width="1.25367" stroke-linecap="round" stroke-linejoin="round"/>
<path d="M38.3887 374.388C38.3887 374.388 39.5244 380.697 44.1108 379.539L55.9701 375.015H59.7557C59.7557 375.015 63.3667 370.432 53.6041 370.752" stroke="#040000" stroke-width="1.25367" stroke-linecap="round" stroke-linejoin="round"/>
<path d="M52.9141 380.97V376.176" stroke="#040000" stroke-width="1.25367" stroke-linecap="round" stroke-linejoin="round"/>
<path d="M36.4093 381.836C35.128 381.596 36.4093 371.505 36.4093 371.505" stroke="#040000" stroke-width="1.25367" stroke-linecap="round" stroke-linejoin="round"/>
<path d="M57.2887 383.954L56.4296 403.079H51.006L50.7148 392.464L50.642 389.608H38.3969C33.2935 388.966 36.4167 381.841 36.4167 381.841C36.4167 381.841 46.2812 380.5 50.2634 380.741L52.9206 380.988C52.9206 380.988 56.4369 382.329 57.296 383.954H57.2887Z" fill="#040000" stroke="#040000" stroke-width="1.25367" stroke-linecap="round" stroke-linejoin="round"/>
<ellipse cx="56.4292" cy="403.065" rx="0.728009" ry="0.728577" fill="#E83919"/>
<path d="M37.0507 363.877H32.3987C32.3987 363.877 30.7461 363.95 30.7461 365.997L32.486 388.401C32.486 388.401 33.447 392.452 37.0434 392.452H50.7008" stroke="#040000" stroke-width="1.25367" stroke-linecap="round" stroke-linejoin="round"/>
<path d="M36.0908 392.45L32.3125 407.685" stroke="#040000" stroke-width="1.25367" stroke-linecap="round" stroke-linejoin="round"/>
<path d="M42.5741 392.45L40.1426 407.685" stroke="#040000" stroke-width="1.25367" stroke-linecap="round" stroke-linejoin="round"/>
<path d="M104.557 375.018H56.2246V380.059H104.557V375.018Z" stroke="#040000" stroke-width="1.25367" stroke-linecap="round" stroke-linejoin="round"/>
<path d="M57.4638 380.051L57.2891 383.941" stroke="#040000" stroke-width="1.25367" stroke-linecap="round" stroke-linejoin="round"/>
<path d="M51.4414 403.076V407.666H56.2244L56.4283 403.076" stroke="#040000" stroke-width="1.25367" stroke-linecap="round" stroke-linejoin="round"/>
<path d="M64.3956 387.112V403.068H59.416L61.4253 382.894C61.4253 382.894 64.3956 384.547 64.3956 387.112Z" fill="#040000" stroke="#040000" stroke-width="1.25367" stroke-linecap="round" stroke-linejoin="round"/>
<path d="M61.7077 380.05L61.4238 382.899" stroke="#040000" stroke-width="1.25367" stroke-linecap="round" stroke-linejoin="round"/>
<path d="M64.2113 403.076C64.2113 403.076 66.2716 407.666 68.2882 407.666H58.9551L59.4137 403.076" stroke="#040000" stroke-width="1.25367" stroke-linecap="round" stroke-linejoin="round"/>
<path d="M66.4531 375.018C66.4531 375.018 66.9409 361.415 75.495 361.415C75.495 361.415 75.5095 365.204 80.3872 365.204C80.3872 365.204 84.0418 365.145 84.4131 362.085C84.4131 362.085 89.8513 362.821 89.8513 369.116" stroke="#040000" stroke-width="1.25367" stroke-linecap="round" stroke-linejoin="round"/>
<path d="M71.709 368.689V375.013" stroke="#040000" stroke-width="1.25367" stroke-linecap="round" stroke-linejoin="round"/>
<path d="M93.0624 369.116H87.0781V375.018H93.0624V369.116Z" stroke="#040000" stroke-width="1.25367" stroke-linecap="round" stroke-linejoin="round"/>
<path d="M86.8093 380.051L86.6055 381.253" stroke="#040000" stroke-width="1.25367" stroke-linecap="round" stroke-linejoin="round"/>
<path d="M66.4531 380.051C66.4531 380.051 68.3532 382.244 70.7993 382.44" stroke="#040000" stroke-width="1.25367" stroke-linecap="round" stroke-linejoin="round"/>
<path d="M79.1133 360.152C81.5303 361.267 83.2266 361.172 84.4132 360.436C87.6528 358.418 87.085 351.599 87.085 351.599" stroke="#040000" stroke-width="1.25367" stroke-linecap="round" stroke-linejoin="round"/>
<path d="M74.5933 352.028C71.2954 353.923 75.0811 357.551 75.0811 357.551C75.9328 358.673 75.4887 361.405 75.4887 361.405" stroke="#040000" stroke-width="1.25367" stroke-linecap="round" stroke-linejoin="round"/>
<path d="M84.4141 362.087V360.44" stroke="#040000" stroke-width="1.25367" stroke-linecap="round" stroke-linejoin="round"/>
<path d="M87.0845 351.61C87.2956 350.145 86.3856 349.592 86.3856 349.592C83.0295 349.715 79.4841 348.382 79.4841 348.382C79.6734 351.151 76.6376 352.71 76.6376 352.71C76.3537 351.857 74.5992 352.04 74.5992 352.04C74.5992 352.04 72.9466 349.409 74.1697 347.391C74.1697 347.391 76.7978 341.643 85.4101 344.885C85.4101 344.885 89.9238 347.267 87.0845 351.61Z" fill="#040000" stroke="#040000" stroke-width="1.25367" stroke-linecap="round" stroke-linejoin="round"/>
<path d="M90.0721 390.414C89.6062 391.82 88.2157 402.821 88.2157 402.821H82.2897L81.9839 393.852L81.8602 390.29H77.281L76.6331 402.821H70.8017C71.1657 400.745 69.2802 391.696 69.2802 391.696L67.7586 386.924C67.7004 384.235 70.809 382.436 70.809 382.436C70.9255 382.45 71.0347 382.45 71.1511 382.45H86.4029L86.6141 381.248C91.1714 384.497 90.0794 390.406 90.0794 390.406L90.0721 390.414Z" fill="#040000" stroke="#040000" stroke-width="1.25367" stroke-linecap="round" stroke-linejoin="round"/>
<path d="M77.0977 393.848H81.9826" stroke="#040000" stroke-width="1.25367" stroke-linecap="round" stroke-linejoin="round"/>
<path d="M70.807 402.832L70.3848 407.663H80.9554C80.9554 407.663 81.8727 406.009 79.9144 406.009C79.9144 406.009 76.369 404.726 76.3107 402.832" stroke="#040000" stroke-width="1.25367" stroke-linecap="round" stroke-linejoin="round"/>
<path d="M82.9647 402.832L82.5352 407.663H91.395C91.395 407.663 92.8001 407.174 91.8828 406.315C91.8828 406.315 88.4029 403.932 87.7259 402.832" stroke="#040000" stroke-width="1.25367" stroke-linecap="round" stroke-linejoin="round"/>
<path d="M120.042 361.073C120.005 362.435 119.321 363.186 118.44 363.587C116.817 364.33 114.545 363.878 114.545 363.878C112.165 363.317 112.805 356.366 112.805 356.366C116.744 357.656 116.009 353.525 116.009 353.525C115.921 351.878 113.628 352.607 113.628 352.607C111.794 352.978 109.777 350.705 109.777 350.705C108.772 350.268 106.392 347.019 106.392 347.019C105.016 347.106 104.557 349.591 104.557 349.591V354.902C104.179 359.652 107.695 360.505 109.959 360.563L107.476 362.727L106.661 363.434L104.921 365.087L103.909 364.024C100.793 363.142 103.451 352.709 103.451 352.709C102.897 350.968 103.822 346.203 103.822 346.203C106.843 341.525 113.905 344.272 113.905 344.272C120.588 346.108 118.848 356.927 118.848 356.927C120.137 357.94 120.042 361.088 120.042 361.088V361.073Z" fill="#040000" stroke="#040000" stroke-width="1.25367" stroke-linecap="round" stroke-linejoin="round"/>
<path d="M109.959 360.557C111.007 360.586 111.794 360.44 111.794 360.44" stroke="#040000" stroke-width="1.25367" stroke-linecap="round" stroke-linejoin="round"/>
<path d="M107.479 362.719C107.479 362.719 107.901 365.997 111.22 365.691C111.22 365.691 114.118 364.875 114.54 363.877" stroke="#040000" stroke-width="1.25367" stroke-linecap="round" stroke-linejoin="round"/>
<path d="M104.921 365.083C104.921 365.083 102.628 370.737 103.058 372.07C103.058 372.07 104.892 374.992 112.769 375.021C112.769 375.021 117.596 374.926 117.53 376.638C117.53 376.638 118.142 381.651 114.538 380.981C114.538 380.981 106.108 379.822 104.55 377.804" stroke="#040000" stroke-width="1.25367" stroke-linecap="round" stroke-linejoin="round"/>
<path d="M96.8267 375.013C96.8267 375.013 96.2151 371.654 99.5785 372.062C99.5785 372.062 100.379 370.364 103.029 371.239" stroke="#040000" stroke-width="1.25367" stroke-linecap="round" stroke-linejoin="round"/>
<path d="M118.442 363.593C118.442 363.593 122.788 374.922 117.539 376.634" stroke="#040000" stroke-width="1.25367" stroke-linecap="round" stroke-linejoin="round"/>
<path d="M114.541 369.116C114.541 369.116 112.284 373.641 112.772 375.018" stroke="#040000" stroke-width="1.25367" stroke-linecap="round" stroke-linejoin="round"/>
<path d="M119.453 375.018L118.834 382.996" stroke="#040000" stroke-width="1.25367" stroke-linecap="round" stroke-linejoin="round"/>
<path d="M96.5 403.348L96.7839 407.661H100.125" stroke="#040000" stroke-width="1.25367" stroke-linecap="round" stroke-linejoin="round"/>
<path d="M95.3038 384.88L94.998 380.05" stroke="#040000" stroke-width="1.25367" stroke-linecap="round" stroke-linejoin="round"/>
<path d="M118.748 364.446C118.748 364.446 123.648 363.484 123.648 367.149L121.937 388.977C121.937 388.977 120.932 391.294 118.588 392.445C117.816 392.824 116.906 393.072 115.829 393.072H105.076" stroke="#040000" stroke-width="1.25367" stroke-linecap="round" stroke-linejoin="round"/>
<path d="M113.621 390.636H105.868L105.074 393.077L103.669 402.424H99.978L99.3301 380.05H100.735V382.986C104.703 381.463 118.826 382.986 118.826 382.986C118.826 382.986 119.722 390.629 113.614 390.629L113.621 390.636Z" fill="#040000" stroke="#040000" stroke-width="1.25367" stroke-linecap="round" stroke-linejoin="round"/>
<path d="M104.157 407.661H100.124L99.9785 402.43H103.669L104.157 407.661Z" stroke="#040000" stroke-width="1.25367" stroke-linecap="round" stroke-linejoin="round"/>
<path d="M96.5092 403.348H96.5" stroke="#E83919" stroke-width="1.25367" stroke-linecap="round" stroke-linejoin="round"/>
<path d="M93.9211 403.348L92.0938 406.575" stroke="#040000" stroke-width="1.25367" stroke-linecap="round" stroke-linejoin="round"/>
<path d="M96.4999 403.35H93.9155L92.5468 388.618C92.2411 386.476 95.306 384.888 95.306 384.888L96.4999 403.35Z" fill="#040000" stroke="#040000" stroke-width="1.25367" stroke-linecap="round" stroke-linejoin="round"/>
<path d="M96.7832 407.661H91.3887" stroke="#040000" stroke-width="1.25367" stroke-linecap="round" stroke-linejoin="round"/>
<path d="M118.582 392.45L122.36 407.656" stroke="#040000" stroke-width="1.25367" stroke-linecap="round" stroke-linejoin="round"/>
<path d="M114.357 393.08L116.039 407.659" stroke="#040000" stroke-width="1.25367" stroke-linecap="round" stroke-linejoin="round"/>
<path d="M80.9191 353.879C81.2648 353.879 81.5452 353.599 81.5452 353.253C81.5452 352.907 81.2648 352.626 80.9191 352.626C80.5733 352.626 80.293 352.907 80.293 353.253C80.293 353.599 80.5733 353.879 80.9191 353.879Z" fill="#040000"/>
<path d="M84.6612 354.233C85.007 354.233 85.2873 353.952 85.2873 353.606C85.2873 353.26 85.007 352.979 84.6612 352.979C84.3155 352.979 84.0352 353.26 84.0352 353.606C84.0352 353.952 84.3155 354.233 84.6612 354.233Z" fill="#040000"/>
<path d="M80.4395 351.288C80.4977 351.31 81.1675 350.872 81.8955 351.477" stroke="#040000" stroke-width="0.626836" stroke-linecap="round" stroke-linejoin="round"/>
<path d="M84.4297 351.755C84.4879 351.776 84.932 351.317 85.58 351.951" stroke="#040000" stroke-width="0.626836" stroke-linecap="round" stroke-linejoin="round"/>
<path d="M80.5918 357.812C80.5918 357.812 81.56 359.328 83.3437 358.57" stroke="#040000" stroke-width="0.626836" stroke-linecap="round" stroke-linejoin="round"/>
<path d="M83.2424 354.831C83.2424 354.831 84.3053 356.827 83.0312 357.017" stroke="#040000" stroke-width="0.626836" stroke-linecap="round" stroke-linejoin="round"/>
<path d="M53.3729 349.141C53.7428 349.141 54.0427 348.841 54.0427 348.471C54.0427 348.101 53.7428 347.801 53.3729 347.801C53.003 347.801 52.7031 348.101 52.7031 348.471C52.7031 348.841 53.003 349.141 53.3729 349.141Z" fill="#040000"/>
<path d="M52.418 346.737C52.498 346.766 53.3717 346.198 54.3253 346.984" stroke="#040000" stroke-width="0.626836" stroke-linecap="round" stroke-linejoin="round"/>
<path d="M109.923 354.273C110.269 354.273 110.549 353.992 110.549 353.646C110.549 353.3 110.269 353.02 109.923 353.02C109.577 353.02 109.297 353.3 109.297 353.646C109.297 353.992 109.577 354.273 109.923 354.273Z" fill="#040000"/>
<path d="M106.052 354.273C106.398 354.273 106.678 353.992 106.678 353.646C106.678 353.3 106.398 353.02 106.052 353.02C105.706 353.02 105.426 353.3 105.426 353.646C105.426 353.992 105.706 354.273 106.052 354.273Z" fill="#040000"/>
<path d="M109.305 351.399C109.363 351.421 109.967 350.94 110.55 351.399" stroke="#040000" stroke-width="0.626836" stroke-linecap="round" stroke-linejoin="round"/>
<path d="M105.576 351.198C105.627 351.227 106.166 350.521 106.683 351.198" stroke="#040000" stroke-width="0.626836" stroke-linecap="round" stroke-linejoin="round"/>
<path d="M108.78 358.06C108.78 358.06 107.812 359.16 106.844 358.06" stroke="#040000" stroke-width="0.626836" stroke-linecap="round" stroke-linejoin="round"/>
<path d="M107.537 354.274C107.537 354.274 105.775 356.686 107.632 356.65" stroke="#040000" stroke-width="0.626836" stroke-linecap="round" stroke-linejoin="round"/>
<path d="M243.249 375.951H202.4V382.72H243.249V375.951Z" stroke="#040000" stroke-width="1.25367" stroke-linecap="round" stroke-linejoin="round"/>
<path d="M237.841 382.714H236.195V407.383H237.841V382.714Z" stroke="#040000" stroke-width="1.25367" stroke-linecap="round" stroke-linejoin="round"/>
<path d="M209.448 382.714H207.803V407.383H209.448V382.714Z" stroke="#040000" stroke-width="1.25367" stroke-linecap="round" stroke-linejoin="round"/>
<path d="M238.334 373.893H229.583C229.015 373.893 228.557 374.352 228.557 374.92C228.557 375.488 229.015 375.947 229.583 375.947H238.334C238.902 375.947 239.36 375.488 239.36 374.92C239.36 374.352 238.902 373.893 238.334 373.893Z" stroke="#040000" stroke-width="1.25367" stroke-linecap="round" stroke-linejoin="round"/>
<path d="M237.536 350.729H233.962H230.387L225.51 362.378H233.962H242.414L237.536 350.729Z" stroke="#040000" stroke-width="1.25367" stroke-linecap="round" stroke-linejoin="round"/>
<path d="M233.961 362.373V373.892" stroke="#040000" stroke-width="1.25367" stroke-linecap="round" stroke-linejoin="round"/>
<path d="M200.239 389.159H207.803V394.106H198.557C197.196 394.106 196.351 392.976 196.089 391.636C195.354 387.847 193.483 378.31 192.624 373.953C192.595 373.808 192.58 373.662 192.58 373.516C192.58 372.452 193.337 371.498 194.422 371.287C195.652 371.046 196.854 371.848 197.094 373.086L200.246 389.173L200.239 389.159Z" stroke="#040000" stroke-width="1.25367" stroke-linecap="round" stroke-linejoin="round"/>
<path d="M214.413 391.557C214.457 392.956 213.335 394.107 211.945 394.107H209.455V389.16H211.843C213.197 389.16 214.376 390.202 214.413 391.557Z" stroke="#040000" stroke-width="1.25367" stroke-linecap="round" stroke-linejoin="round"/>
<path d="M199.41 394.111L196.287 407.386" stroke="#040000" stroke-width="1.25367" stroke-linecap="round" stroke-linejoin="round"/>
<path d="M211.291 394.111L214.414 407.386" stroke="#040000" stroke-width="1.25367" stroke-linecap="round" stroke-linejoin="round"/>
<path d="M136.227 407.683H132.543V378.554C132.543 377.534 133.366 376.711 134.385 376.711C135.404 376.711 136.227 377.534 136.227 378.554V407.683Z" stroke="#040000" stroke-width="1.25367" stroke-linecap="round" stroke-linejoin="round"/>
<path d="M144.14 384.518H136.227V387.905H144.14V384.518Z" stroke="#040000" stroke-width="1.25367" stroke-linecap="round" stroke-linejoin="round"/>
<path d="M183.117 407.683H186.801V378.554C186.801 377.534 185.978 376.711 184.959 376.711C183.94 376.711 183.117 377.534 183.117 378.554V407.683Z" stroke="#040000" stroke-width="1.25367" stroke-linecap="round" stroke-linejoin="round"/>
<path d="M159.676 387.909H136.227V398.692H159.676H183.118V387.909H159.676Z" stroke="#040000" stroke-width="1.25367" stroke-linecap="round" stroke-linejoin="round"/>
<path d="M171.141 379.989H148.208C145.966 379.989 144.139 381.811 144.139 384.055V387.894H175.203V384.055C175.203 381.811 173.383 379.989 171.133 379.989H171.141Z" stroke="#040000" stroke-width="1.25367" stroke-linecap="round" stroke-linejoin="round"/>
<path d="M175.212 387.918H183.125V384.53H175.212V387.918Z" stroke="#040000" stroke-width="1.25367" stroke-linecap="round" stroke-linejoin="round"/>
<path d="M204.097 307.119H156.449V344.087H204.097V307.119Z" stroke="#040000" stroke-width="1.25367" stroke-linecap="round" stroke-linejoin="round"/>
<path d="M180.27 307.119V344.087" stroke="#040000" stroke-width="1.25367" stroke-linecap="round" stroke-linejoin="round"/>
<path d="M156.449 325.6H204.097" stroke="#040000" stroke-width="1.25367" stroke-linecap="round" stroke-linejoin="round"/>
<g filter="url(#filter0_d_9548_241268)">
<path d="M243.25 427.917H21.8477V543.593H243.25V427.917Z" stroke="#040000" stroke-width="1.25367" stroke-miterlimit="10"/>
<path d="M132.549 427.917V543.593" stroke="#040000" stroke-width="1.25367" stroke-miterlimit="10"/>
<path d="M76.2735 535.58H74.1113V543.602H76.2735V535.58Z" stroke="#040000" stroke-width="1.25367" stroke-linecap="round" stroke-linejoin="round"/>
<path d="M117.34 535.58H115.178V543.602H117.34V535.58Z" stroke="#040000" stroke-width="1.25367" stroke-linecap="round" stroke-linejoin="round"/>
<path d="M122.211 522.021H69.2559V535.573H122.211V522.021Z" stroke="#040000" stroke-width="1.25367" stroke-linecap="round" stroke-linejoin="round"/>
<path d="M92.7207 528.801H98.7414" stroke="#040000" stroke-width="1.25367" stroke-linecap="round" stroke-linejoin="round"/>
<path d="M95.7335 508.484H69.2559V522.036H95.7335V508.484Z" stroke="#040000" stroke-width="1.25367" stroke-linecap="round" stroke-linejoin="round"/>
<path d="M79.4844 515.251H85.4977" stroke="#040000" stroke-width="1.25367" stroke-linecap="round" stroke-linejoin="round"/>
<path d="M122.202 508.484H95.7246V522.036H122.202V508.484Z" stroke="#040000" stroke-width="1.25367" stroke-linecap="round" stroke-linejoin="round"/>
<path d="M105.961 515.251H111.974" stroke="#040000" stroke-width="1.25367" stroke-linecap="round" stroke-linejoin="round"/>
<path d="M47.2397 512.623H36.6836L39.2608 543.602H47.2397H55.2114L57.7886 512.623H47.2397Z" stroke="#040000" stroke-width="1.25367" stroke-linecap="round" stroke-linejoin="round"/>
<path d="M47.0159 507.031C47.0013 507.687 47.5983 502.82 50.6122 502.602C50.6122 502.602 65.3035 500.263 66.9561 497.873C66.9561 497.873 61.7071 490.595 52.374 498.514C52.374 498.514 47.1396 502.288 47.0159 507.039V507.031Z" fill="#040000" stroke="#040000" stroke-width="1.25367" stroke-linecap="round" stroke-linejoin="round"/>
<path d="M49.3662 485.512C49.3662 485.512 65.0621 474.482 63.5333 468.617C63.5333 468.617 49.8176 465.287 48.8784 481.17C48.8129 482.263 49.3662 485.512 49.3662 485.512Z" fill="#040000" stroke="#040000" stroke-width="1.25367" stroke-linecap="round" stroke-linejoin="round"/>
<path d="M48.8783 492.785C48.8783 492.785 49.2277 477.762 31.0566 478.236C31.0566 478.236 38.5624 493.026 48.8783 492.785Z" fill="#040000" stroke="#040000" stroke-width="1.25367" stroke-linecap="round" stroke-linejoin="round"/>
<path d="M47.2416 502.763C47.2416 502.763 47.3581 490.085 29.4199 491.258C29.4199 491.258 33.9991 502.056 47.0159 507.571L47.2416 502.763Z" fill="#040000" stroke="#040000" stroke-width="1.25367" stroke-linecap="round" stroke-linejoin="round"/>
<path d="M47.2401 512.622C47.2401 512.622 45.9879 501.001 49.3731 493.373C49.3731 493.373 49.8609 489.854 49.3731 485.512" stroke="#040000" stroke-width="1.25367" stroke-linecap="round" stroke-linejoin="round"/>
<path d="M50.6133 481.968C50.6133 481.968 53.4307 475.193 59.2329 470.792" stroke="white" stroke-width="0.626836" stroke-linecap="round" stroke-linejoin="round"/>
<path d="M36.6836 481.962C36.6836 481.962 43.0464 486.013 45.3323 489.095" stroke="white" stroke-width="0.626836" stroke-linecap="round" stroke-linejoin="round"/>
<path d="M51.0488 500.964C51.0488 500.964 56.4142 498.159 60.5493 498.159" stroke="white" stroke-width="0.626836" stroke-linecap="round" stroke-linejoin="round"/>
<path d="M44.6266 503.607C44.6266 503.607 40.8482 497.727 35.3008 494.82" stroke="white" stroke-width="0.626836" stroke-linecap="round" stroke-linejoin="round"/>
<path d="M243.242 505.998H207.803V543.352H243.242V505.998Z" stroke="#040000" stroke-width="1.25367" stroke-linecap="round" stroke-linejoin="round"/>
<path d="M236.981 519.869H214.07V535.767H236.981V519.869Z" stroke="#040000" stroke-width="1.25367" stroke-linecap="round" stroke-linejoin="round"/>
<path d="M207.803 514.117H243.242" stroke="#040000" stroke-width="1.25367" stroke-linecap="round" stroke-linejoin="round"/>
<path d="M218.053 509.99C218.053 510.639 217.529 511.163 216.881 511.163C216.233 511.163 215.709 510.639 215.709 509.99C215.709 509.342 216.233 508.817 216.881 508.817C217.529 508.817 218.053 509.342 218.053 509.99Z" fill="#040000"/>
<path d="M226.696 509.99C226.696 510.639 226.172 511.163 225.524 511.163C224.876 511.163 224.352 510.639 224.352 509.99C224.352 509.342 224.876 508.817 225.524 508.817C226.172 508.817 226.696 509.342 226.696 509.99Z" fill="#040000"/>
<path d="M235.336 509.99C235.336 510.639 234.812 511.163 234.164 511.163C233.516 511.163 232.992 510.639 232.992 509.99C232.992 509.342 233.516 508.817 234.164 508.817C234.812 508.817 235.336 509.342 235.336 509.99Z" fill="#040000"/>
<path d="M207.803 505.998H172.363V543.352H207.803V505.998Z" stroke="#040000" stroke-width="1.25367" stroke-linecap="round" stroke-linejoin="round"/>
<path d="M172.363 514.117H207.803" stroke="#040000" stroke-width="1.25367" stroke-linecap="round" stroke-linejoin="round"/>
<path d="M203.348 524.305V531.328" stroke="#040000" stroke-width="1.25367" stroke-linecap="round" stroke-linejoin="round"/>
<path d="M223.776 427.917H207.65V457.774H223.776V427.917Z" stroke="#040000" stroke-width="1.25367" stroke-linecap="round" stroke-linejoin="round"/>
<path d="M223.769 457.774H217.909H216.831H207.651L195.428 468.332H216.831H219.983H235.992L223.769 457.774Z" stroke="#040000" stroke-width="1.25367" stroke-linecap="round" stroke-linejoin="round"/>
<path d="M162.98 484.605H132.549V543.591H162.98V484.605Z" stroke="#040000" stroke-width="1.25367" stroke-linecap="round" stroke-linejoin="round"/>
<path d="M132.549 505.693H162.98" stroke="#040000" stroke-width="1.25367" stroke-linecap="round" stroke-linejoin="round"/>
<path d="M158.457 495.698V502.255" stroke="#040000" stroke-width="1.25367" stroke-linecap="round" stroke-linejoin="round"/>
<path d="M158.457 509.662V516.212" stroke="#040000" stroke-width="1.25367" stroke-linecap="round" stroke-linejoin="round"/>
<path d="M225.531 496.474H215.703V505.362H225.531V496.474Z" fill="#040000"/>
<path d="M227.176 494.532H214.072V496.47H227.176V494.532Z" fill="#040000"/>
<path d="M221.803 492.595H219.43V494.533H221.803V492.595Z" fill="#040000"/>
</g>
<path d="M243.25 156.11H21.8477V271.787H243.25V156.11Z" stroke="#040000" stroke-width="1.25367" stroke-miterlimit="10"/>
<path d="M132.549 156.11V271.794" stroke="#040000" stroke-width="1.25367" stroke-miterlimit="10"/>
<path d="M221.055 156.423H196.033V171.548H221.055V156.423Z" stroke="#040000" stroke-width="1.25367" stroke-miterlimit="10"/>
<path d="M222.509 171.541H219.59H197.495H194.568L183.299 186.666H197.495H219.59H233.779L222.509 171.541Z" stroke="#040000" stroke-width="1.25367" stroke-miterlimit="10"/>
<path d="M243.249 271.797H223.636V244.731H214.201V221.365H243.249V271.797Z" stroke="#040000" stroke-width="1.25367" stroke-miterlimit="10"/>
<path d="M243.249 233.647H214.201" stroke="#040000" stroke-width="1.25367" stroke-miterlimit="10"/>
<path d="M226.085 228.136C226.085 227.101 225.247 226.256 224.206 226.256C223.165 226.256 222.328 227.094 222.328 228.136C222.328 229.177 223.165 230.015 224.206 230.015C225.247 230.015 226.085 229.177 226.085 228.136Z" stroke="#040000" stroke-width="1.25367" stroke-miterlimit="10"/>
<path d="M235.112 228.136C235.112 227.101 234.275 226.256 233.234 226.256C232.193 226.256 231.355 227.094 231.355 228.136C231.355 229.177 232.193 230.015 233.234 230.015C234.275 230.015 235.112 229.177 235.112 228.136Z" stroke="#040000" stroke-width="1.25367" stroke-miterlimit="10"/>
<path d="M179.749 253.395C180.615 251.872 189.213 251.275 192.423 251.377C201.713 251.668 203.038 255.501 203.038 255.501C203.584 259.304 199.718 259.857 198.043 259.952C195.386 260.105 190.181 259.952 187.407 259.952C184.35 259.952 181.765 271.245 181.765 271.245H180.462L179.596 249.687" fill="#040000"/>
<path d="M179.749 253.395C180.615 251.872 189.213 251.275 192.423 251.377C201.713 251.668 203.038 255.501 203.038 255.501C203.584 259.304 199.718 259.857 198.043 259.952C195.386 260.105 190.181 259.952 187.407 259.952C184.35 259.952 181.765 271.245 181.765 271.245H180.462L179.596 249.687" stroke="#040000" stroke-width="1.25367" stroke-linecap="round" stroke-linejoin="round"/>
<path d="M176.355 249.687L176.377 249.955" stroke="#E83919" stroke-width="1.25367" stroke-linecap="round" stroke-linejoin="round"/>
<path d="M177.537 266.177L177.901 271.248" stroke="#040000" stroke-width="1.25367" stroke-linecap="round" stroke-linejoin="round"/>
<path d="M145.206 249.687L144.332 271.245" stroke="#040000" stroke-width="1.25367" stroke-linecap="round" stroke-linejoin="round"/>
<path d="M146.9 271.245L148.444 249.687" stroke="#040000" stroke-width="1.25367" stroke-linecap="round" stroke-linejoin="round"/>
<path d="M141.731 249.699H183.234V246.129H141.731V249.699Z" stroke="#040000" stroke-width="1.25367" stroke-linecap="round" stroke-linejoin="round"/>
<path d="M203.039 255.51C203.039 255.51 204.015 248.764 202.711 245.587C202.711 245.587 200.84 240.05 200.84 238.666C200.84 238.666 201.656 233.857 197.506 232.232L195.089 231.584C195.089 231.584 192.811 235.817 188.901 232.888C188.901 232.888 184.992 234.899 184.344 242.498C184.344 242.498 192.621 246.01 193.64 243.547" stroke="#040000" stroke-width="1.25367" stroke-linecap="round" stroke-linejoin="round"/>
<path d="M194.49 237.055L192.758 243.138C192.758 243.138 198.291 244.493 198.778 246.125C198.778 246.125 201.392 242.541 200.839 238.658" stroke="#040000" stroke-width="1.25367" stroke-linecap="round" stroke-linejoin="round"/>
<path d="M198.778 246.12C198.778 246.12 196.915 250.149 193.864 250.149C193.864 250.149 189.802 249.704 187.363 248.153C187.363 248.153 178.78 244.728 178.205 243.533C178.205 243.533 177.79 243.402 176.356 243.679C175.817 243.781 174.128 243.614 175.155 241.843C175.766 240.794 177.812 239.432 179.748 240.291C180.913 240.809 184.349 242.477 184.349 242.477" stroke="#040000" stroke-width="1.25367" stroke-linecap="round" stroke-linejoin="round"/>
<path d="M195.089 231.576C195.089 231.576 191.245 229.048 192.221 225.471C192.221 225.471 196.145 222.542 193.036 220.64C192.381 220.239 190.758 219.824 190.321 222.054C190.321 222.054 189.178 219.722 188.967 218.418C188.967 218.418 188.479 217.114 187.554 216.954C187.554 216.954 184.176 216.684 184.344 214.564C184.344 214.564 184.57 211.635 190.153 211.737C190.153 211.737 194.441 211.628 195.956 216.626C195.956 216.626 197.798 223.307 200.025 224.014C200.025 224.014 203.279 225.966 202.952 228.902C202.952 228.902 202.508 233.07 198.766 232.939" stroke="#040000" stroke-width="1.25367" stroke-linecap="round" stroke-linejoin="round"/>
<path d="M184.414 215.204C184.414 215.204 182.608 216.88 182.12 219.029C182.12 219.029 180.286 218.359 181.036 215.991C181.37 214.927 181.96 213.594 184.756 213.558" stroke="#040000" stroke-width="1.25367" stroke-miterlimit="10"/>
<path d="M188.9 232.88V228.946C188.9 228.946 187.931 230.49 185.907 229.762C183.25 228.807 181.794 225.215 182.122 219.037" stroke="#040000" stroke-width="1.25367" stroke-linecap="round" stroke-linejoin="round"/>
<path d="M188.639 248.813V251.611" stroke="#040000" stroke-width="1.25367" stroke-linecap="round" stroke-linejoin="round"/>
<path d="M179.537 249.687C184.218 249.687 188.637 250.597 188.637 250.597V253.133H179.741L179.537 249.687Z" fill="#040000" stroke="#040000" stroke-width="1.25367" stroke-linecap="round" stroke-linejoin="round"/>
<path d="M168.834 271.248H174.425C174.425 271.248 176.478 267.095 177.541 266.184L176.376 249.959C173.064 253.799 168.834 271.248 168.834 271.248Z" fill="#040000" stroke="#040000" stroke-width="1.25367" stroke-linecap="round" stroke-linejoin="round"/>
<path d="M187.407 259.959C187.407 259.959 186.533 262.676 190.603 262.676H201.348C201.348 262.676 206.641 263.165 206.641 258.035C206.641 252.906 208.592 238.16 208.592 238.16C208.592 238.16 209.16 236.936 206.721 237.06C206.721 237.06 204.115 236.936 203.794 239.056L202.906 246.13" stroke="#040000" stroke-width="1.25367" stroke-linecap="round" stroke-linejoin="round"/>
<path d="M187.836 271.247L190.602 262.672" stroke="#040000" stroke-width="1.25367" stroke-linecap="round" stroke-linejoin="round"/>
<path d="M205.258 271.248L203.387 262.469" stroke="#040000" stroke-width="1.25367" stroke-linecap="round" stroke-linejoin="round"/>
<path d="M202.085 271.247L201.35 262.672" stroke="#040000" stroke-width="1.25367" stroke-linecap="round" stroke-linejoin="round"/>
<path d="M175.768 246.116V243.675" stroke="#040000" stroke-width="1.25367" stroke-linecap="round" stroke-linejoin="round"/>
<path d="M174.833 242.907H156.152V246.12" stroke="#040000" stroke-width="1.25367" stroke-linecap="round" stroke-linejoin="round"/>
<path d="M156.154 242.91L150.781 230.036H164.613L170.641 242.91" stroke="#040000" stroke-width="1.25367" stroke-linecap="round" stroke-linejoin="round"/>
<path d="M186.699 221.993C186.699 222.27 186.918 222.489 187.194 222.489C187.471 222.489 187.689 222.27 187.689 221.993C187.689 221.717 187.471 221.498 187.194 221.498C186.918 221.498 186.699 221.717 186.699 221.993Z" fill="#040000"/>
<path d="M191.688 222.953C191.688 223.15 191.848 223.303 192.037 223.303C192.226 223.303 192.386 223.143 192.386 222.953C192.386 222.764 192.226 222.604 192.037 222.604C191.848 222.604 191.688 222.764 191.688 222.953Z" fill="#040000"/>
<path d="M183.746 222.27C183.746 222.547 183.964 222.765 184.241 222.765C184.518 222.765 184.736 222.547 184.736 222.27C184.736 221.993 184.518 221.774 184.241 221.774C183.964 221.774 183.746 221.993 183.746 222.27Z" fill="#040000"/>
<path d="M187.584 220.451C187.533 220.465 187.009 220.123 186.434 220.597" stroke="#040000" stroke-width="0.626836" stroke-linecap="round" stroke-linejoin="round"/>
<path d="M184.422 220.813C184.371 220.828 184.029 220.471 183.512 220.966" stroke="#040000" stroke-width="0.626836" stroke-linecap="round" stroke-linejoin="round"/>
<path d="M187.421 226.563C187.421 226.563 186.926 227.46 185.514 226.862" stroke="#040000" stroke-width="0.626836" stroke-linecap="round" stroke-linejoin="round"/>
<path d="M185.681 223.099C185.681 223.099 184.843 224.68 185.848 224.825" stroke="#040000" stroke-width="0.626836" stroke-linecap="round" stroke-linejoin="round"/>
<path d="M41.934 261.466H31.0649C30.4388 261.466 29.9583 262.122 30.0529 262.843L31.225 271.797H41.7885L42.9605 262.843C43.0552 262.122 42.5747 261.466 41.9486 261.466H41.934Z" stroke="#040000" stroke-width="1.25367" stroke-miterlimit="10"/>
<path d="M37.302 261.508C37.5059 261.508 37.9499 257.698 42.6383 256.947C44.5748 256.641 46.9117 254.317 46.8389 252.284C46.7734 250.295 44.4438 249.064 40.6436 252.583C39.0638 254.04 36.756 257.129 36.756 261.508C36.756 261.508 38.4086 256.16 33.2543 252.94C31.7327 251.993 27.4375 251.563 27.4375 253.435C27.4375 254.973 28.3839 255.672 32.9922 256.991C34.4336 257.406 36.8506 258.965 36.756 261.508" fill="#040000"/>
<path d="M36.9976 259.213C37.2014 259.213 38.4391 256.976 40.4775 251.396C41.4967 248.62 42.1082 247.112 41.7297 244.744C41.4166 242.798 39.502 242.653 38.7958 243.979C37.4198 246.558 37.0704 253.822 37.0704 258.208C37.0704 258.208 39.7276 248.234 33.9327 243.782C31.8651 242.194 25.9173 242.879 29.5938 246.543C30.6639 247.607 31.9307 248.168 33.9036 251.527C36.3278 255.658 37.2015 258.973 37.1068 261.508" fill="#040000"/>
<path d="M123.755 247.181H53.3203V264.856H123.755V247.181Z" stroke="#040000" stroke-width="1.25367" stroke-linecap="round" stroke-linejoin="round"/>
<path d="M115.245 208.254H61.8379V242.344H115.245V208.254Z" stroke="#040000" stroke-width="1.25367" stroke-linecap="round" stroke-linejoin="round"/>
<path d="M93.2143 242.352H83.8594V247.189H93.2143V242.352Z" stroke="#040000" stroke-width="1.25367" stroke-linecap="round" stroke-linejoin="round"/>
<path d="M88.541 247.181V264.856" stroke="#040000" stroke-width="1.25367" stroke-linecap="round" stroke-linejoin="round"/>
<path d="M118.818 264.857V271.801" stroke="#040000" stroke-width="1.25367" stroke-linecap="round" stroke-linejoin="round"/>
<path d="M58.2637 264.857V271.801" stroke="#040000" stroke-width="1.25367" stroke-linecap="round" stroke-linejoin="round"/>
<path d="M74.6442 163.421H30.1992V188.637H74.6442V163.421Z" stroke="#040000" stroke-width="1.25367" stroke-miterlimit="10"/>
<path d="M52.418 163.421V188.63" stroke="#040000" stroke-width="1.25367" stroke-miterlimit="10"/>
<defs>
<filter id="filter0_d_9548_241268" x="17.0616" y="427.29" width="230.975" height="125.257" filterUnits="userSpaceOnUse" color-interpolation-filters="sRGB">
<feFlood flood-opacity="0" result="BackgroundImageFix"/>
<feColorMatrix in="SourceAlpha" type="matrix" values="0 0 0 0 0 0 0 0 0 0 0 0 0 0 0 0 0 0 127 0" result="hardAlpha"/>
<feOffset dy="4.15914"/>
<feGaussianBlur stdDeviation="2.07957"/>
<feComposite in2="hardAlpha" operator="out"/>
<feColorMatrix type="matrix" values="0 0 0 0 0 0 0 0 0 0 0 0 0 0 0 0 0 0 0.25 0"/>
<feBlend mode="normal" in2="BackgroundImageFix" result="effect1_dropShadow_9548_241268"/>
<feBlend mode="normal" in="SourceGraphic" in2="effect1_dropShadow_9548_241268" result="shape"/>
</filter>
</defs>
</svg>
