<svg width="357" height="205" viewBox="0 0 357 205" fill="none" xmlns="http://www.w3.org/2000/svg">
<g clip-path="url(#clip0_9806_122885)">
<path d="M290.405 171.574C289.466 171.437 289.899 168.27 290.31 167.179C290.77 165.958 292.251 164.111 293.411 164.607C294.511 165.077 293.921 167.999 293.411 169.024C292.893 170.067 291.476 171.73 290.405 171.574Z" stroke="black" stroke-width="0.766163" stroke-linecap="round" stroke-linejoin="round"/>
<path d="M291.599 175.059C290.873 174.232 292.13 172.254 292.852 171.578C293.776 170.713 295.508 169.659 296.443 170.54C297.183 171.237 295.896 173.398 295.033 174.219C294.294 174.922 292.278 175.832 291.599 175.059V175.059Z" stroke="black" stroke-width="0.766163" stroke-linecap="round" stroke-linejoin="round"/>
<path d="M288.534 169.236C287.741 170.282 286.121 168.344 285.576 166.873C285.168 165.772 284.495 162.504 285.967 161.589C287.05 160.915 288.353 163.113 288.656 164.119C289.068 165.487 289.327 168.19 288.534 169.236Z" stroke="black" stroke-width="0.766163" stroke-linecap="round" stroke-linejoin="round"/>
<path d="M287.739 173.36C288.367 175.397 285.336 174.353 283.874 173.203C282.997 172.513 280.569 169.419 281.884 168.423C282.91 167.647 284.459 168.619 285.223 169.262C286.171 170.058 287.3 171.94 287.739 173.36Z" stroke="black" stroke-width="0.766163" stroke-linecap="round" stroke-linejoin="round"/>
<path d="M291.025 177.571C291.016 177.169 291.018 176.655 291.073 176.48C291.171 176.171 292.319 175.352 292.319 175.352L291.382 174.405C291.382 174.405 290.804 175.354 290.585 176.074C290.494 176.373 290.364 177.017 290.264 177.538C290.101 177.534 289.936 177.53 289.768 177.528C289.751 176.888 289.708 174.816 289.843 174.034C289.947 173.434 290.861 171.584 290.861 171.584L290.097 171.367C290.097 171.367 289.302 173.52 289.197 173.046C288.955 171.96 288.674 169.191 288.674 169.191L287.801 169.474C287.801 169.474 288.174 171.761 288.439 173.212C288.555 173.849 289.147 176.973 289.147 176.973L288.928 176.932C288.928 176.932 288.589 176.361 288.422 175.893C288.149 175.124 287.883 174.054 287.875 174.011L287.024 174.467C287.024 174.467 287.498 175.863 287.706 176.382C287.823 176.677 288.066 177.143 288.283 177.545C285.865 177.634 284.047 178.015 284.047 178.471C284.047 178.993 286.431 179.417 289.372 179.417C292.312 179.417 294.697 178.993 294.697 178.471C294.697 178.051 293.156 177.695 291.025 177.572" fill="black"/>
<path d="M289.18 179.637C292.948 179.637 296.002 178.727 296.002 177.605C296.002 176.483 292.948 175.573 289.18 175.573C285.412 175.573 282.357 176.483 282.357 177.605C282.357 178.727 285.412 179.637 289.18 179.637Z" stroke="black" stroke-width="0.766163" stroke-linecap="round" stroke-linejoin="round"/>
<path d="M282.357 177.605L283.957 189.177C283.957 190.299 286.295 191.674 289.179 191.674C292.063 191.674 294.401 190.299 294.401 189.177L296.001 177.605" stroke="black" stroke-width="0.766163" stroke-linecap="round" stroke-linejoin="round"/>
<path d="M268.657 192.101C273.353 192.101 277.16 190.556 277.16 188.651C277.16 186.745 273.353 185.2 268.657 185.2C263.961 185.2 260.154 186.745 260.154 188.651C260.154 190.556 263.961 192.101 268.657 192.101Z" stroke="black" stroke-width="0.766163" stroke-miterlimit="10" stroke-linecap="round"/>
<path d="M260.154 188.65L262.092 201.167C262.092 203.073 265.031 204.618 268.657 204.618C272.283 204.618 275.223 203.073 275.223 201.167L277.16 188.65" stroke="black" stroke-width="0.766163" stroke-miterlimit="10" stroke-linecap="round"/>
<path d="M274.391 187.738C272.309 190.08 272.214 190.735 272.214 190.735L271.928 191.843C272.008 191.753 276.954 189.607 276.954 189.607C276.954 188.872 275.97 188.208 274.391 187.738H274.391Z" fill="black" stroke="black" stroke-width="0.766163" stroke-linecap="round" stroke-linejoin="round"/>
<path d="M266.079 191.899C266.079 191.899 265.197 190 263.795 187.518C261.73 187.988 260.387 188.748 260.387 189.606C260.387 189.606 261.875 189.916 266.079 191.899C266.083 191.924 266.077 191.881 266.079 191.899Z" fill="black"/>
<path d="M266.079 191.899C266.079 191.899 265.197 190 263.795 187.518C261.73 187.988 260.387 188.748 260.387 189.606C260.387 189.606 261.875 189.916 266.079 191.899ZM266.079 191.899C266.077 191.881 266.083 191.924 266.079 191.899Z" stroke="black" stroke-width="0.766163" stroke-linecap="round" stroke-linejoin="round"/>
<path opacity="0.6" d="M272.434 187.61C272.907 186.536 273.466 185.366 274.095 184.219C273.316 185.272 272.688 186.455 272.195 187.577C272.275 187.588 272.356 187.598 272.434 187.61Z" fill="#ED2024"/>
<path opacity="0.6" d="M268.282 187.354C268.269 186.47 268.24 185.594 268.188 184.854C268.123 185.719 268.089 186.566 268.078 187.358C268.146 187.356 268.214 187.355 268.282 187.354H268.282Z" fill="#ED2024"/>
<path opacity="0.6" d="M270.834 187.434C271.272 185.322 271.951 182.692 272.983 180.002C273.001 179.955 273.02 179.908 273.038 179.86C271.768 182.127 271.041 185.02 270.629 187.418C270.697 187.423 270.765 187.428 270.834 187.434Z" fill="#ED2024"/>
<path d="M269.358 178.906C268.682 180.663 268.343 182.808 268.188 184.854C268.24 185.594 268.167 187.118 268.179 188.002C268.213 190.344 268.242 192.087 268.242 192.087L270.102 192.041C270.102 192.041 270.18 190.021 270.627 187.419C271.04 185.02 271.767 182.127 273.037 179.861C274.805 175.32 278.158 169.747 278.358 169.805C278.358 169.805 272.769 170.05 269.358 178.907L269.358 178.906Z" fill="white" stroke="black" stroke-width="0.766163" stroke-linecap="round" stroke-linejoin="round"/>
<path d="M275.424 177.058C273.678 178.346 273.037 179.491 271.911 182.374C270.7 185.473 270.436 188.649 270.096 192.045C270.374 191.977 270.584 191.989 270.731 191.796C270.877 191.602 270.938 191.359 270.999 191.123C272.772 184.266 276.217 178.35 283.892 175.025C283.806 175.069 283.502 174.981 283.4 174.972C283.207 174.955 283.013 174.943 282.818 174.936C282.444 174.921 282.07 174.925 281.696 174.944C280.949 174.984 280.205 175.091 279.477 175.264C278.065 175.598 276.655 176.168 275.478 177.019C275.46 177.032 275.442 177.045 275.424 177.058Z" fill="white" stroke="black" stroke-width="0.766163" stroke-linecap="round" stroke-linejoin="round"/>
<path d="M277.766 181.256C276.282 181.786 274.662 182.836 273.687 184.154C273.058 185.301 272.585 186.337 272.168 187.433C271.373 189.522 270.715 192.026 270.715 192.028C270.717 192.028 270.721 192.028 270.724 192.028L271.927 191.837C271.927 191.837 271.904 190.154 273.986 188.002C275.372 186.57 277.247 184.833 279.23 183.648C283.57 181.051 285.565 181.143 285.565 181.143C285.565 181.143 282.382 179.608 277.766 181.257L277.766 181.256Z" fill="white" stroke="black" stroke-width="0.766163" stroke-linecap="round" stroke-linejoin="round"/>
<path d="M268.184 188.394C268.184 187.602 268.122 185.718 268.187 184.854C268.157 184.434 268.119 184.059 268.071 183.752C267.596 180.689 266.378 176.959 264.132 174.264C261.346 170.921 256.277 170.461 256.277 170.461C256.277 170.461 258.999 173.052 261.396 177.126C261.797 177.806 263.368 180.703 264.449 182.926C264.911 183.875 265.417 185.207 265.735 186.027C265.955 186.595 266.4 188.797 266.614 190.289C266.73 191.103 266.91 192.028 266.91 192.028C266.907 192.01 266.914 192.05 266.91 192.028C267.365 192.064 267.372 192.076 267.855 192.089L268.241 192.086C268.241 192.086 268.184 189.07 268.184 188.394H268.184Z" fill="white"/>
<path d="M266.91 192.028C266.91 192.028 266.73 191.103 266.614 190.289C266.4 188.797 265.955 186.595 265.735 186.027C265.417 185.207 264.911 183.875 264.449 182.926C263.368 180.703 261.797 177.806 261.396 177.126C258.999 173.052 256.277 170.461 256.277 170.461C256.277 170.461 261.346 170.921 264.132 174.264C266.378 176.959 267.596 180.689 268.071 183.752C268.119 184.059 268.157 184.434 268.187 184.854C268.122 185.718 268.184 187.602 268.184 188.394H268.184C268.184 189.07 268.241 192.086 268.241 192.086L267.855 192.089C267.372 192.076 267.365 192.064 266.91 192.028ZM266.91 192.028C266.907 192.01 266.914 192.05 266.91 192.028Z" stroke="black" stroke-width="0.766163" stroke-linecap="round" stroke-linejoin="round"/>
<path d="M265.945 186.862C265.521 185.289 265.291 184.328 263.416 181.028C262.369 179.185 260.935 178.289 259.761 177.662C256.458 175.898 251.553 177.181 251.553 177.181C251.553 177.181 255.7 178.636 257.933 180.493C260.186 182.364 262.289 185.356 263.795 187.806C265.196 190.087 266.078 191.899 266.078 191.899L266.911 192.028C266.819 191.515 266.508 188.953 265.945 186.862Z" fill="white" stroke="black" stroke-width="0.766163" stroke-linecap="round" stroke-linejoin="round"/>
<path d="M265.249 175.815C264.927 170.462 266.749 166.143 266.749 166.143C266.749 166.143 270.225 170.858 269.941 177.519" stroke="black" stroke-width="0.766163" stroke-linecap="round" stroke-linejoin="round"/>
<path d="M310.669 122.302C312.386 122.302 313.778 121.685 313.778 120.925C313.778 120.164 312.386 119.548 310.669 119.548C308.952 119.548 307.561 120.164 307.561 120.925C307.561 121.685 308.952 122.302 310.669 122.302Z" stroke="black" stroke-width="0.766163" stroke-linecap="round" stroke-linejoin="round"/>
<path d="M307.561 120.925L307.696 127.262C307.696 128.105 309.027 128.789 310.669 128.789C312.311 128.789 313.642 128.105 313.642 127.262L313.778 120.925" stroke="black" stroke-width="0.766163" stroke-linecap="round" stroke-linejoin="round"/>
<path d="M273.49 106.617L267.823 108.372C266.886 108.661 266.275 109.562 266.352 110.539L267.033 119.198C267.137 120.527 268.439 121.422 269.717 121.045L271.805 120.428" stroke="black" stroke-width="0.766163" stroke-linecap="round" stroke-linejoin="round"/>
<path d="M272.529 125.068L267.995 126.462C267.64 126.571 267.592 127.053 267.918 127.231L278.656 133.085C279.128 133.342 279.679 133.408 280.198 133.271L283.43 132.413" stroke="black" stroke-width="0.766163" stroke-linecap="round" stroke-linejoin="round"/>
<path d="M270.752 120.74L270.516 125.687" stroke="black" stroke-width="0.766163" stroke-linecap="round" stroke-linejoin="round"/>
<path d="M270.515 128.646L267.699 143.979" stroke="black" stroke-width="0.766163" stroke-linecap="round" stroke-linejoin="round"/>
<path d="M281.092 133.034L281.128 150.288" stroke="black" stroke-width="0.766163" stroke-linecap="round" stroke-linejoin="round"/>
<path d="M294.603 118.729C298.236 118.729 301.182 117.344 301.182 115.635C301.182 113.926 298.236 112.54 294.603 112.54C290.969 112.54 288.023 113.926 288.023 115.635C288.023 117.344 290.969 118.729 294.603 118.729Z" stroke="black" stroke-width="0.766163" stroke-linecap="round" stroke-linejoin="round"/>
<path d="M290.777 110.487L291.145 114.058C291.145 114.969 292.284 115.706 293.689 115.706C295.094 115.706 296.232 114.968 296.232 114.058L296.6 110.487" fill="#FEF5F6"/>
<path d="M290.777 110.487L291.145 114.058C291.145 114.969 292.284 115.706 293.689 115.706C295.094 115.706 296.232 114.968 296.232 114.058L296.6 110.487" stroke="black" stroke-width="0.766163" stroke-linecap="round" stroke-linejoin="round"/>
<path d="M293.689 111.479C295.297 111.479 296.6 111.035 296.6 110.487C296.6 109.939 295.297 109.495 293.689 109.495C292.081 109.495 290.777 109.939 290.777 110.487C290.777 111.035 292.081 111.479 293.689 111.479Z" stroke="black" stroke-width="0.766163" stroke-linecap="round" stroke-linejoin="round"/>
<path d="M274.826 102.43C274.826 102.43 272.952 106.071 272.532 113.438C272.439 115.076 272.498 118.204 273.921 119.021C276.37 120.428 283.344 118.954 285.667 119.221C287.446 119.426 291.244 119.243 291.117 118.018C290.982 116.724 289.397 117.345 289.72 117.262C290.086 117.168 291.23 117.075 291.207 116.184C291.184 115.296 288.208 115.824 289.267 115.707C289.88 115.638 291.014 115.952 291.065 115.059C291.138 113.781 288.396 114.419 288.973 114.279C289.267 114.207 290.849 114.309 291.027 113.706C291.529 112.012 288.139 112.813 287.279 113.096C285.584 113.655 284.535 114.25 284.012 114.603C283.087 115.227 281.786 115.672 279.815 115.395C278.752 115.246 278.715 113.874 278.715 113.874L279.14 108.501C279.133 108.461 279.142 108.461 279.14 108.501L278.789 112.936C278.789 112.936 287.441 112.286 288.999 110.728C289.691 110.036 290.192 109.439 290.114 108.097C290.059 107.128 289.566 104.259 289.632 104.243C289.7 104.227 289.882 106.189 290.132 107.852C290.166 108.079 290.485 109.655 290.922 109.923" fill="white"/>
<path d="M274.826 102.43C274.826 102.43 272.952 106.071 272.532 113.438C272.439 115.076 272.498 118.204 273.921 119.021C276.37 120.428 283.344 118.954 285.667 119.221C287.446 119.426 291.244 119.243 291.117 118.018C290.982 116.724 289.397 117.345 289.72 117.262C290.086 117.168 291.23 117.075 291.207 116.184C291.184 115.296 288.208 115.824 289.267 115.707C289.88 115.638 291.014 115.952 291.065 115.059C291.138 113.781 288.396 114.419 288.973 114.279C289.267 114.207 290.849 114.309 291.027 113.706C291.529 112.012 288.139 112.813 287.279 113.096C285.584 113.655 284.535 114.25 284.012 114.603C283.087 115.227 281.786 115.672 279.815 115.395C278.752 115.246 278.715 113.874 278.715 113.874L279.14 108.501M279.14 108.501C279.133 108.461 279.142 108.461 279.14 108.501ZM279.14 108.501L278.789 112.936C278.789 112.936 287.441 112.286 288.999 110.728C289.691 110.036 290.192 109.439 290.114 108.097C290.059 107.128 289.566 104.259 289.632 104.243C289.7 104.227 289.882 106.189 290.132 107.852C290.166 108.079 290.485 109.655 290.922 109.923" stroke="black" stroke-width="0.766163" stroke-linecap="round" stroke-linejoin="round"/>
<path d="M272.529 113.621C272.529 113.621 275.4 114.983 278.741 113.875L272.529 113.621Z" fill="white"/>
<path d="M272.529 113.621C272.529 113.621 275.4 114.983 278.741 113.875" stroke="black" stroke-width="0.766163" stroke-linecap="round" stroke-linejoin="round"/>
<path d="M287.059 116.173C288.952 115.635 289.932 115.692 289.918 115.704L287.059 116.173Z" fill="white"/>
<path d="M287.059 116.173C288.952 115.635 289.932 115.692 289.918 115.704" stroke="black" stroke-width="0.766163" stroke-linecap="round" stroke-linejoin="round"/>
<path d="M287.279 117.691C288.907 117.458 290.11 117.177 290.11 117.177L287.279 117.691Z" fill="white"/>
<path d="M287.279 117.691C288.907 117.458 290.11 117.177 290.11 117.177" stroke="black" stroke-width="0.766163" stroke-linecap="round" stroke-linejoin="round"/>
<path d="M287.447 114.816C288.627 114.142 290.125 114.158 290.125 114.158L287.447 114.816Z" fill="white"/>
<path d="M287.447 114.816C288.627 114.142 290.125 114.158 290.125 114.158" stroke="black" stroke-width="0.766163" stroke-linecap="round" stroke-linejoin="round"/>
<path d="M291.269 92.8145C291.269 92.8145 292.132 93.7345 292.104 94.0501C292.028 94.9144 290.697 94.7849 290.697 94.7849" stroke="black" stroke-width="0.766163" stroke-linecap="round" stroke-linejoin="round"/>
<path d="M288.021 90.0913C288.021 90.0913 288.575 89.6665 289.528 89.9917" stroke="black" stroke-width="0.766163" stroke-linecap="round" stroke-linejoin="round"/>
<path d="M291.656 89.8067C292.252 89.4577 293.076 89.6925 293.076 89.6925" stroke="black" stroke-width="0.766163" stroke-linecap="round" stroke-linejoin="round"/>
<path d="M287.784 96.1984C287.577 94.7921 288.389 96.3147 289.507 96.5843C291.069 96.9604 291.821 95.6656 291.483 96.3774C291.008 97.379 290.467 98.2594 289.361 98.0442C288.057 97.7899 287.84 96.5766 287.784 96.1984Z" stroke="black" stroke-width="0.766163" stroke-linecap="round" stroke-linejoin="round"/>
<path d="M293.076 89.6924C293.076 89.6924 294.013 91.5221 293.569 94.7839C293.311 96.6812 291.61 99.1817 289.658 99.6044C287.635 100.043 286.037 98.6656 286.037 98.6656" stroke="black" stroke-width="0.766163" stroke-linecap="round" stroke-linejoin="round"/>
<path d="M302.046 108.167C302.046 108.167 305.259 107.091 305.005 108.182C304.86 108.807 303.366 109.023 302.93 109.126C301.576 109.447 300.898 109.831 299.792 109.826C299.29 109.824 299.004 109.799 298.28 110.23C298.112 110.33 296.843 111.146 296.6 111.281" stroke="black" stroke-width="0.766163" stroke-linecap="round" stroke-linejoin="round"/>
<path d="M301.664 107.201C301.664 107.201 306.055 105.584 304.857 107.74" stroke="black" stroke-width="0.766163" stroke-linecap="round" stroke-linejoin="round"/>
<path d="M300.57 105.478C300.57 105.478 304.363 103.569 304.399 105.584" stroke="black" stroke-width="0.766163" stroke-linecap="round" stroke-linejoin="round"/>
<path d="M300.994 106.369C300.994 106.369 305.064 104.353 304.753 106.693" stroke="black" stroke-width="0.766163" stroke-linecap="round" stroke-linejoin="round"/>
<path d="M283.453 103.222C283.647 103.343 284.831 104.353 286.286 103.923C288.387 103.302 288.311 100.111 288.261 99.6465C288.249 99.5329 291.85 101.93 292.756 103.768C293.966 106.222 293.709 107.858 294.576 108.287C295.357 108.673 296.413 108.007 296.937 107.42C297.406 106.895 297.957 106.455 298.336 105.739C298.812 104.84 301.312 103.398 301.664 105.015" stroke="black" stroke-width="0.766163" stroke-linecap="round" stroke-linejoin="round"/>
<path d="M290.449 109.023C290.449 109.023 293.538 108.671 293.688 106.369" stroke="black" stroke-width="0.766163" stroke-linecap="round" stroke-linejoin="round"/>
<path d="M288.71 93.2386C289.007 93.2386 289.247 92.9137 289.247 92.5129C289.247 92.112 289.007 91.7871 288.71 91.7871C288.413 91.7871 288.172 92.112 288.172 92.5129C288.172 92.9137 288.413 93.2386 288.71 93.2386Z" fill="black"/>
<path d="M292.608 93.0857C292.867 93.0461 293.034 92.7304 292.98 92.3805C292.926 92.0307 292.673 91.7793 292.414 91.8189C292.155 91.8585 291.989 92.1742 292.042 92.524C292.096 92.8739 292.349 93.1253 292.608 93.0857Z" fill="black"/>
<path d="M273.227 121.192C273.227 121.192 271.441 125.867 272.954 127.855C276.82 132.933 284.382 131.94 284.461 132.793C284.741 135.801 285.514 141.549 286.685 145.794C287.157 147.511 294.138 147.817 294 145.411C293.778 141.54 292.622 131.614 292.622 131.614L273.228 121.192H273.227Z" fill="black"/>
<path d="M293.588 132.134C293.588 132.134 294.153 140.984 294.454 143.752C294.598 145.07 300.312 145.749 300.421 143.024C300.499 141.055 299.909 135.531 299.909 135.531L293.588 132.134Z" fill="black"/>
<path d="M293.711 147.795C293.45 147.349 293.649 145.664 293.649 145.664L288.534 146.368C288.534 146.368 288.682 147.723 288.666 148.904C288.656 149.627 288.154 149.647 288.12 150.432C288.04 152.308 293.131 154.503 295.264 154.848C296.176 154.995 298.334 154.962 298.677 154.015C299.346 152.169 294.853 149.748 293.711 147.795V147.795ZM294.645 152.287C292.468 152.287 289.958 150.632 289.411 149.689C289.069 149.1 289.241 146.811 289.241 146.811L293.07 146.167C293.07 146.167 292.785 147.27 293.301 148.372C293.709 149.243 295.858 150.541 295.896 151.452C295.919 152.007 295.511 152.287 294.646 152.287H294.645Z" fill="black"/>
<path d="M300.306 144.656C300.088 144.115 300.266 142.363 300.266 142.363L295.15 143.067C295.15 143.067 295.299 144.422 295.283 145.603C295.273 146.326 294.964 146.675 294.918 147.458C294.81 149.318 298.448 150.445 300.58 150.789C301.493 150.936 304.79 151.3 305.204 150.058C305.709 148.543 300.913 146.162 300.306 144.656V144.656ZM300.83 148.697C298.652 148.697 296.225 147.106 296.049 146.302C295.905 145.645 295.988 143.487 295.988 143.487L299.687 142.865C299.687 142.865 299.26 144.044 299.598 145.213C299.908 146.283 301.868 146.963 302.193 148.018C302.379 148.619 301.695 148.697 300.829 148.697H300.83Z" fill="black"/>
<path d="M274.82 103.475C275.098 102.781 276.065 101.106 276.864 101.111C278.107 101.12 276.307 105.85 280.79 106.067C282.89 106.168 283.268 104.574 283.813 103.638C284.117 103.117 283.759 98.2432 283.757 96.2087C283.757 95.361 284.712 94.9076 284.429 94.599C283.929 94.0537 283.624 95.0734 283.05 94.9619C281.542 94.6687 281.162 93.525 281.143 92.7609C281.104 91.2154 282.683 91.3185 282.988 91.5776C283.998 92.4357 283.759 93.5431 284.455 93.3474C284.821 93.2443 284.538 91.7113 284.911 91.6319C285.453 91.5156 286.637 91.4013 287.001 90.9194C287.243 90.599 287.833 90.8706 288.223 90.6004C288.717 90.2584 288.742 89.6134 288.743 89.4609C288.746 89.0116 289.493 89.2108 290.024 88.1772C290.197 87.8394 290.369 86.8357 290.711 86.6456C291.553 86.1761 292.39 88.1911 293.316 90.6777C293.437 91.0008 293.932 91.2509 293.878 90.888C293.761 90.103 294.251 87.6666 293.688 86.5132C292.786 84.6661 289.375 83.2953 285.844 83.5252C282.268 83.7578 280.787 85.5304 279.794 87.161C278.815 88.7671 279.388 91.6131 278.804 92.9532C277.461 96.0311 272.638 96.5827 273.429 101.323C273.506 101.788 274.245 101.951 274.428 102.193C274.631 102.461 274.696 103.787 274.821 103.476L274.82 103.475Z" fill="black"/>
<path d="M309.615 112.352L306.602 99.891C306.506 99.4905 306.913 99.1541 307.288 99.3248L322.582 106.285L322.993 110.05L324.223 109.408L336.196 114.339V116.779L325.274 120.601L310.219 113.111C309.916 112.96 309.694 112.682 309.615 112.352H309.615Z" fill="black"/>
<path d="M331.9 87.9806C332.182 87.9806 332.411 87.7121 332.411 87.3809C332.411 87.0497 332.182 86.7812 331.9 86.7812C331.618 86.7812 331.389 87.0497 331.389 87.3809C331.389 87.7121 331.618 87.9806 331.9 87.9806Z" fill="black"/>
<path d="M327.319 87.3762C327.601 87.3577 327.812 87.0747 327.79 86.7443C327.768 86.4138 327.522 86.1608 327.241 86.1794C326.959 86.1979 326.748 86.4808 326.77 86.8113C326.792 87.1418 327.038 87.3947 327.319 87.3762Z" fill="black"/>
<path d="M340.034 84.6047C340.112 83.7445 339.554 82.6085 339.532 82.0249C339.521 81.7665 339.707 81.0713 339.582 80.5308C339.362 79.5843 338.946 78.9512 337.864 78.8857C337.654 78.8731 337.11 78.8627 336.96 78.7276C336.35 78.1787 336.174 76.9208 334.455 76.5955C332.584 76.2417 332.041 77.033 331.611 77.1012C331.16 77.173 330.754 76.6199 330.273 76.6394C328.674 76.7049 328.71 77.9712 328.146 78.1648C327.765 78.2957 327.584 78.0304 327.196 78.0554C326.444 78.1042 325.906 78.4998 325.856 79.4673C325.844 79.6999 325.884 80.0628 325.809 80.2634C325.665 80.6444 324.979 80.854 324.956 81.5707C324.921 82.7081 325.676 83.2932 326.108 83.3949L326.113 84.9042L326.977 84.5351C326.977 84.5351 326.907 83.4632 327.142 82.9108C327.346 82.4309 327.825 81.6508 328.346 81.6418C329.009 81.6306 328.99 82.7841 330.272 82.7841C331.389 82.7841 331.96 82.0304 332.55 82.2861C333.854 82.8523 335.377 84.8903 335.44 86.1803C335.472 86.828 335.607 88.4042 336.075 88.5073C336.608 88.625 336.595 87.2264 337.66 86.8322C338.642 86.4686 338.905 87.8477 338.905 87.8477L338.851 86.6142C339.534 86.1573 339.933 85.7052 340.034 84.6034V84.6047Z" fill="black"/>
<path d="M315.561 136.227L315.525 138.737L322.458 136.441V133.776L315.561 136.227Z" fill="black"/>
<path d="M323.166 133.51L323.115 136.224L327.039 134.924L327.197 131.908L323.166 133.51Z" fill="black"/>
<path d="M332.301 136.337L336.616 138.239L336.789 135.104L332.301 136.337Z" fill="black"/>
<path d="M342.148 130.681C342.428 129.899 343.431 128.934 343.766 128.715C344.343 128.336 345.562 128.078 345.562 128.078L345.373 125.636L343.111 126.44L342.149 130.681H342.148Z" fill="black"/>
<path d="M333.578 94.3808C333.578 94.3808 332.445 95.5056 330.272 95.3698C328.099 95.234 326.646 92.8045 326.362 91.4241C326.188 90.5806 326.174 88.3789 326.174 88.3789" stroke="black" stroke-width="0.766163" stroke-linecap="round" stroke-linejoin="round"/>
<path d="M339.261 94.0078C339.261 94.0078 337.291 98.7141 333.974 98.898C330.861 99.0708 330.271 95.3695 330.271 95.3695" stroke="black" stroke-width="0.766163" stroke-linecap="round" stroke-linejoin="round"/>
<path d="M328.258 91.8803C328.258 91.8803 329.446 92.0774 330.586 91.9486C331.685 91.8239 332.151 90.917 332.321 90.9219C332.63 90.9303 332.759 92.9376 330.868 93.4488C330.008 93.6815 329.503 93.1187 329.334 92.8659C329.096 92.5106 328.972 91.9611 328.972 91.9611" stroke="black" stroke-width="0.766163" stroke-linecap="round" stroke-linejoin="round"/>
<path d="M327.394 88.6262C328.465 88.6262 329.334 87.7259 329.334 86.6153C329.334 85.5048 328.465 84.6045 327.394 84.6045C326.322 84.6045 325.453 85.5048 325.453 86.6153C325.453 87.7259 326.322 88.6262 327.394 88.6262Z" stroke="black" stroke-width="0.766163" stroke-linecap="round" stroke-linejoin="round"/>
<path d="M332.183 89.2385C333.238 89.2385 334.094 88.3382 334.094 87.2276C334.094 86.1171 333.238 85.2168 332.183 85.2168C331.127 85.2168 330.271 86.1171 330.271 87.2276C330.271 88.3382 331.127 89.2385 332.183 89.2385Z" stroke="black" stroke-width="0.766163" stroke-linecap="round" stroke-linejoin="round"/>
<path d="M329.191 86.9561L330.279 87.0619" stroke="black" stroke-width="0.766163" stroke-linecap="round" stroke-linejoin="round"/>
<path d="M334.096 87.2275H336.32" stroke="black" stroke-width="0.766163" stroke-linecap="round" stroke-linejoin="round"/>
<path d="M329.541 90.2825C329.541 90.2825 328.411 90.5743 327.967 89.8966C327.662 89.4328 327.79 88.583 327.79 88.583" stroke="black" stroke-width="0.766163" stroke-linecap="round" stroke-linejoin="round"/>
<path d="M338.822 86.7803C338.822 86.7803 339.361 87.2838 339.319 88.2806C339.225 90.4641 337.913 90.1688 336.995 91.0408C336.54 91.472 336.807 92.8357 337.256 93.2627C337.779 93.7614 339.305 93.9773 339.994 94.196C342.342 94.9441 344.473 97.1722 345.631 98.7958C346.622 100.184 348.838 103.874 348.995 108.083C349.003 108.282 348.394 108.609 348.394 108.609C348.394 108.609 349.162 113.343 348.827 114.703C348.59 115.663 347.856 116.819 346.994 117.305C346.279 117.709 344.257 117.771 343.452 117.609C341.207 117.159 337.506 114.232 335.217 114.177C334.894 114.169 334.337 114.696 334.016 114.657C333.709 114.62 333.318 113.992 333.014 113.937C331.994 113.751 329.414 115.972 329.008 115.018C328.643 114.159 332.543 113.969 332.212 113.096C331.686 111.706 327.099 115.845 326.364 114.178C325.73 112.737 330.761 111.772 330.704 111.635C330.388 110.876 326.468 113.645 326.276 112.87C325.843 111.124 329.455 110.113 331.682 110.182C334.849 110.278 342.629 111.942 342.629 111.942C342.629 111.942 342.586 109.432 342.586 108.842C342.586 108.808 341.239 108.959 341.144 108.61C340.832 107.462 340.504 103.243 340.504 103.243" stroke="black" stroke-width="0.766163" stroke-linecap="round" stroke-linejoin="round"/>
<path d="M327.389 93.8906C327.389 93.8906 325.381 95.471 324.739 96.1633C322.593 98.4765 321.649 101.007 320.814 102.901C320.736 103.079 321.382 103.429 321.382 103.429L320.367 105.033" stroke="black" stroke-width="0.766163" stroke-linecap="round" stroke-linejoin="round"/>
<path d="M321.383 103.429C321.383 103.429 326.423 105.845 326.426 105.529C326.444 103.002 326.325 100.294 326.343 99.8027" stroke="black" stroke-width="0.766163" stroke-linecap="round" stroke-linejoin="round"/>
<path d="M322.994 110.05L325.454 105.264" stroke="black" stroke-width="0.766163" stroke-linecap="round" stroke-linejoin="round"/>
<path d="M342.588 108.841C343.078 108.932 347.082 108.809 348.996 108.084" stroke="black" stroke-width="0.766163" stroke-linecap="round" stroke-linejoin="round"/>
<path d="M326.428 110.051L326.426 105.53" stroke="black" stroke-width="0.766163" stroke-linecap="round" stroke-linejoin="round"/>
<path d="M317.824 142.363C317.824 142.363 317.699 142.934 317.597 143.097C316.718 144.489 311.619 145.317 312.754 147.561C313.274 148.591 319.223 148.289 321.254 147.536C322.465 147.088 323.254 144.821 323.254 144.821" stroke="black" stroke-width="0.766163" stroke-linecap="round" stroke-linejoin="round"/>
<path d="M331.369 145.293C331.369 145.293 331.409 147.286 331.131 147.789C329.646 150.476 321.532 152.102 320.322 150.336C319.511 149.154 321.575 147.372 321.575 147.372" stroke="black" stroke-width="0.766163" stroke-linecap="round" stroke-linejoin="round"/>
<path d="M349.554 114.419L350.697 114.759C351.331 114.948 351.979 114.509 352.04 113.851L352.978 103.815C353.06 102.938 352.586 102.103 351.79 101.726L345.631 98.7969" stroke="black" stroke-width="0.766163" stroke-linecap="round" stroke-linejoin="round"/>
<path d="M348.52 119.953L348.447 115.68" stroke="black" stroke-width="0.766163" stroke-linecap="round" stroke-linejoin="round"/>
<path d="M342.588 130.681L350.335 127.562C350.729 127.404 350.665 126.828 350.246 126.759L348.725 126.511L348.696 124.456" stroke="black" stroke-width="0.766163" stroke-linecap="round" stroke-linejoin="round"/>
<path d="M352.255 139.956L348.854 128.158" stroke="black" stroke-width="0.766163" stroke-linecap="round" stroke-linejoin="round"/>
<path d="M305.951 138.777C305.951 138.777 306.27 159.007 306.382 160.036C306.426 160.45 306.923 160.854 307.358 160.824C308.044 160.776 308.397 160.117 308.427 159.737C308.668 156.693 309.215 138.482 309.215 138.482" fill="white"/>
<path d="M305.951 138.777C305.951 138.777 306.27 159.007 306.382 160.036C306.426 160.45 306.923 160.854 307.358 160.824C308.044 160.776 308.397 160.117 308.427 159.737C308.668 156.693 309.215 138.482 309.215 138.482" stroke="black" stroke-width="0.766163" stroke-linecap="round" stroke-linejoin="round"/>
<path d="M304.838 106.151L313.32 104.353L350.999 120.622C351.166 120.694 351.267 120.865 351.25 121.047L351.026 123.371C351.01 123.534 350.902 123.672 350.748 123.727L343.111 126.44" stroke="black" stroke-width="0.766163" stroke-linecap="round" stroke-linejoin="round"/>
<path d="M343.766 123.526L351.249 121.047" stroke="black" stroke-width="0.766163" stroke-linecap="round" stroke-linejoin="round"/>
<path d="M267.92 115.707L306.792 135.452C307.041 135.579 307.331 135.601 307.596 135.513L327.349 128.967" stroke="black" stroke-width="0.766163" stroke-linecap="round" stroke-linejoin="round"/>
<path d="M271.745 114.419L268.239 115.268C268.04 115.316 267.904 115.501 267.919 115.706L268.102 118.217C268.112 118.361 268.195 118.488 268.322 118.556L306.509 139.077C306.769 139.217 307.077 139.241 307.356 139.141L327.185 132.096" stroke="black" stroke-width="0.766163" stroke-linecap="round" stroke-linejoin="round"/>
<path d="M275.036 122.164C275.036 122.164 273.613 146.718 273.653 147.752C273.669 148.168 274.136 148.606 274.573 148.606C275.26 148.606 275.658 147.973 275.715 147.597C276.166 144.576 277.638 123.563 277.638 123.563" fill="white"/>
<path d="M275.036 122.164C275.036 122.164 273.613 146.718 273.653 147.752C273.669 148.168 274.136 148.606 274.573 148.606C275.26 148.606 275.658 147.973 275.715 147.597C276.166 144.576 277.638 123.563 277.638 123.563" stroke="black" stroke-width="0.766163" stroke-linecap="round" stroke-linejoin="round"/>
<path d="M332.372 136.319L339.934 139.743C340.782 140.126 340.747 141.343 339.878 141.677L327.698 146.357C327.134 146.574 326.502 146.536 325.968 146.254L315.368 140.66C314.552 140.229 314.65 139.031 315.525 138.738L327.037 134.925" fill="white"/>
<path d="M332.372 136.319L339.934 139.743C340.782 140.126 340.747 141.343 339.878 141.677L327.698 146.357C327.134 146.574 326.502 146.536 325.968 146.254L315.368 140.66C314.552 140.229 314.65 139.031 315.525 138.738L327.037 134.925" stroke="black" stroke-width="0.766163" stroke-linecap="round" stroke-linejoin="round"/>
<path d="M331.131 136.659L330.084 145.439L328.603 145.989L328.566 160.825" stroke="black" stroke-width="0.766163" stroke-linecap="round" stroke-linejoin="round"/>
<path d="M339.402 134.388L339.629 141.773L338.934 142.04L342.588 154.913" stroke="black" stroke-width="0.766163" stroke-linecap="round" stroke-linejoin="round"/>
<path d="M316.716 141.371L314.697 155.697" stroke="black" stroke-width="0.766163" stroke-linecap="round" stroke-linejoin="round"/>
<path d="M332.725 144.426L334.155 149.44" stroke="black" stroke-width="0.766163" stroke-linecap="round" stroke-linejoin="round"/>
<path d="M329.686 137.056L340.829 133.995C341.202 133.892 341.488 133.593 341.573 133.215L343.692 123.869C344.13 122.113 342.532 121.172 341.008 121.581L328.995 125.241C328.117 125.476 327.492 126.249 327.444 127.156L327.036 134.923C326.961 136.352 328.307 137.434 329.686 137.055V137.056Z" fill="white" stroke="black" stroke-width="0.766163" stroke-linecap="round" stroke-linejoin="round"/>
<path d="M345.371 125.636C345.371 125.636 346.663 142.527 347.115 145.547C347.172 145.924 347.57 146.557 348.257 146.557C348.694 146.557 349.161 146.119 349.177 145.703C349.216 144.668 347.76 124.787 347.76 124.787" fill="white"/>
<path d="M345.371 125.636C345.371 125.636 346.663 142.527 347.115 145.547C347.172 145.924 347.57 146.557 348.257 146.557C348.694 146.557 349.161 146.119 349.177 145.703C349.216 144.668 347.76 124.787 347.76 124.787" stroke="black" stroke-width="0.766163" stroke-linecap="round" stroke-linejoin="round"/>
<path d="M222.197 169.852L222.284 171.257L224.189 171.994L225.252 171.924L226.76 171.195L227.046 170.289L224.395 169.719L222.197 169.852Z" fill="#B3B3B3"/>
<path d="M210.473 164.608V166.1L212.315 167.149L213.61 167.115L214.863 166.692L215.595 166.1L216.103 165.547L215.738 164.608L213.517 164.703L210.473 164.608Z" fill="#B3B3B3"/>
<path d="M232.778 159.1L229.591 160.702C229.591 160.702 228.781 166.719 228.347 168.694C228.237 169.193 228.021 169.831 227.085 170.299C225.315 171.182 222.271 170.439 221.3 169.834C220.994 169.643 220.606 169.204 220.631 168.061L220.606 157.481C220.606 157.481 220.937 157.259 220.38 157.124C219.549 156.924 219.306 156.376 219.493 155.085C219.493 155.085 218.245 155.525 216.401 155.46C216.401 155.46 216.717 162.297 216.73 162.935C216.741 163.481 216.918 164.818 215.591 165.29C213.94 165.878 209.233 165.872 208.989 164.115C208.78 162.604 208.471 160.246 208.496 158.005C208.496 158.005 208.114 152.29 208.496 151.005C208.496 151.005 208.323 148.91 211.648 147.767L219.874 147.696C219.874 147.696 223.232 151.685 226.184 149.887L229.334 153.457C229.334 153.457 230.195 154.005 232.203 152.957L233.236 152.261L232.779 159.1L232.778 159.1Z" fill="black"/>
<path d="M236.467 125.755C237.859 124.939 239.71 124.978 240.645 125.142C244.647 125.845 248.572 127.043 252.459 128.225C255.011 129.002 258.416 129.827 259.367 132.711C259.804 134.035 259.84 135.426 259.856 136.806C259.872 138.293 259.89 139.779 259.907 141.266" stroke="black" stroke-width="0.766163" stroke-miterlimit="10" stroke-linecap="round"/>
<path d="M252.844 142.503C252.884 140.014 253.118 137.246 252.163 134.934C251.324 132.904 248.601 131.992 246.205 131.313C242.95 130.391 241.155 130.007 237.912 129.051" stroke="black" stroke-width="0.766163" stroke-miterlimit="10" stroke-linecap="round"/>
<path d="M250.108 164.623L259.925 160.165C259.925 160.165 260.981 159.689 261.123 159.118C261.123 159.118 261.171 157.975 261.123 157.165L261.299 146.832C261.299 146.832 261.339 143.888 261.112 143.051C260.561 141.024 258.443 140.71 257.187 140.99C255.846 141.29 252.332 142.732 252.332 142.732L236.786 149.368C236.786 149.368 234.095 150.361 233.393 151.48C232.64 152.678 232.917 155.248 232.917 160.677V167.861L237.822 170.29L250.107 164.623L250.108 164.623Z" stroke="black" stroke-width="0.766163" stroke-miterlimit="10" stroke-linecap="round"/>
<path d="M238.869 153.432L254.727 146.832" stroke="black" stroke-width="0.766163" stroke-miterlimit="10" stroke-linecap="round"/>
<path d="M211.897 147.994C211.897 147.994 211.023 150.048 211.023 151.064C211.023 151.064 210.897 153.921 211.897 154.302C211.897 154.302 212.581 155.127 213.707 154.905C213.707 154.905 214.515 154.878 214.769 154.114C214.769 154.114 216.102 153.128 216.261 152.747C216.261 152.747 216.558 151.215 216.033 149.35L215.277 147.193H212.392L211.897 147.994V147.994Z" fill="#B3B3B3"/>
<path d="M234.918 152.051C235.775 151.834 236.61 152.289 237.126 152.874C238.061 153.932 237.875 156.168 237.822 162.773V170.29" stroke="black" stroke-width="0.766163" stroke-miterlimit="10" stroke-linecap="round"/>
<path d="M208.99 139.428C209.847 139.211 210.682 139.666 211.198 140.251C211.924 141.073 212.006 142.578 211.936 144.203" stroke="black" stroke-width="0.766163" stroke-miterlimit="10" stroke-linecap="round"/>
<path d="M217.315 134.264L208.557 137.851C208.557 137.851 207.737 138.22 207.435 138.563C206.5 139.621 206.685 141.857 206.738 148.462V152.147L206.771 153.349L206.781 153.698C206.781 154.745 207.352 155.02 207.352 155.02C207.892 155.294 208.989 155.969 208.989 155.969" stroke="black" stroke-width="0.766163" stroke-miterlimit="10" stroke-linecap="round"/>
<path d="M255.681 162.098V165.289C255.681 165.289 255.392 166.622 256.964 166.622C256.964 166.622 258.821 166.843 258.821 165.542L258.645 160.742L255.681 162.098Z" fill="black"/>
<path d="M235.852 169.733L235.948 174.321C235.948 174.321 235.838 175.664 237.41 175.664C237.41 175.664 239.267 175.885 239.267 174.584V169.719L235.852 169.733H235.852Z" fill="black"/>
<path d="M232.918 167.861L208.99 155.97" stroke="black" stroke-width="0.766163" stroke-miterlimit="10"/>
<path d="M220.415 129.22C220.415 129.22 213.923 139.605 212.876 142.054C212.876 142.054 210.515 146.421 211.896 147.672C211.896 147.672 215.59 145.598 216.352 149.075C216.352 149.075 216.971 149.598 217.304 148.789L218.59 145.932C218.59 145.932 218.876 145.694 218.59 144.503C218.59 144.503 217.951 141.324 216.032 140.89" stroke="black" stroke-width="0.766163" stroke-miterlimit="10" stroke-linecap="round"/>
<path d="M218.699 145.106C218.699 145.106 219.717 144.265 220.415 144.075" stroke="black" stroke-width="0.766163" stroke-miterlimit="10" stroke-linecap="round"/>
<path d="M220.116 134.761L220.592 142.952C220.592 142.952 220.719 144.98 220.417 145.456C220.417 145.456 219.735 146.694 220.116 148.075" stroke="black" stroke-width="0.766163" stroke-miterlimit="10" stroke-linecap="round"/>
<path d="M227.212 150.132L223.119 151.511C223.119 151.511 221.753 152.03 220.96 153.245C220.96 153.245 219.959 154.855 219.999 155.499C219.999 155.499 219.754 156.492 221.15 157.128C221.15 157.128 222.992 157.921 224.071 157.128C224.071 157.128 225.626 155.394 225.595 154.943C225.595 154.943 228.04 153.481 228.896 154.114L229.563 153.074L228.252 150.663L227.211 150.132H227.212Z" fill="#B3B3B3"/>
<path d="M222.972 136.074C222.972 136.074 220.073 132.121 220.309 129.788" stroke="black" stroke-width="0.766163" stroke-miterlimit="10" stroke-linecap="round"/>
<path d="M236.441 147.587C236.441 147.587 235.781 145.599 233.781 145.885C233.781 145.885 231.591 146.385 229.495 147.587C229.495 147.587 226.638 148.808 226.543 150.132" stroke="black" stroke-width="0.766163" stroke-miterlimit="10" stroke-linecap="round"/>
<path d="M229.259 154.114C229.259 154.114 230.034 150.601 226.723 150.015" stroke="black" stroke-width="0.766163" stroke-miterlimit="10" stroke-linecap="round"/>
<path d="M233.356 138.646L232.205 146.36" stroke="black" stroke-width="0.766163" stroke-miterlimit="10" stroke-linecap="round"/>
<path d="M241.816 147.193L240.596 140.89" stroke="black" stroke-width="0.766163" stroke-miterlimit="10" stroke-linecap="round"/>
<path d="M239.761 147.994C239.761 147.994 239.891 142.535 240.309 142.054C240.309 142.054 241.023 139.313 240.309 136.694C240.309 136.694 240.023 133.36 236.785 131.312" stroke="black" stroke-width="0.766163" stroke-miterlimit="10" stroke-linecap="round"/>
<path d="M227.07 136.836C227.07 136.836 228.737 135.018 229.499 134.761C229.499 134.761 231.673 133.408 232.205 133.217C232.205 133.217 236.26 132.041 237.278 130.564C238.251 129.15 238.17 127.5 236.564 126.345" stroke="black" stroke-width="0.766163" stroke-miterlimit="10" stroke-linecap="round"/>
<path d="M210.267 164.329V166.361C210.267 166.361 208.271 167.546 206.699 168.89" stroke="black" stroke-width="0.766163" stroke-miterlimit="10" stroke-linecap="round"/>
<path d="M211.113 168.501C211.113 168.501 210.533 167.538 209.131 167.125" stroke="black" stroke-width="0.766163" stroke-miterlimit="10" stroke-linecap="round"/>
<path d="M210.131 169.719C210.131 169.719 208.905 168.401 207.76 168.158" stroke="black" stroke-width="0.766163" stroke-miterlimit="10" stroke-linecap="round"/>
<path d="M215.731 169.015C215.731 169.015 213.606 170.599 211.747 171.424C210.875 171.811 207.751 173.943 205.645 171.521" stroke="black" stroke-width="0.766163" stroke-miterlimit="10" stroke-linecap="round"/>
<path d="M205.66 173.114C207.098 174.703 209.632 173.893 211.204 173.188C212.73 172.503 214.197 171.654 215.654 170.832C215.904 170.69 216.923 169.949 217.098 169.72C217.546 169.133 217.032 168.062 216.895 167.392C216.708 166.476 216.323 165.485 216.007 164.608" stroke="black" stroke-width="0.766163" stroke-miterlimit="10" stroke-linecap="round"/>
<path d="M210.266 166.36C211.054 167 212.424 167.296 213.912 167.11C214.798 167 216.015 166.196 216.311 165.485" stroke="black" stroke-width="0.766163" stroke-miterlimit="10" stroke-linecap="round"/>
<path d="M222.039 169.719L222.198 171.503" stroke="black" stroke-width="0.766163" stroke-miterlimit="10" stroke-linecap="round"/>
<path d="M217.406 177.141C217.406 177.141 217.786 178.329 219.342 178.393C219.342 178.393 221.025 178.823 222.707 177.767L227.532 174.075" stroke="black" stroke-width="0.766163" stroke-miterlimit="10" stroke-linecap="round"/>
<path d="M222.706 175.478C222.706 175.478 220.914 173.997 219.953 173.894" stroke="black" stroke-width="0.766163" stroke-miterlimit="10" stroke-linecap="round"/>
<path d="M223.533 173.894C223.533 173.894 222.422 172.88 221.183 172.7L218.116 175.68C217.239 176.617 217.279 178.267 217.279 178.267C217.215 179.886 219.247 180.235 219.247 180.235C221.564 180.425 222.549 179.536 222.549 179.536L227.12 176.108C228.009 175.187 227.723 174.488 227.723 174.488C227.786 170.774 227.085 170.641 227.085 170.641C226.942 171.482 224.871 172.21 224.871 172.21C224.268 172.305 223.818 171.994 223.818 171.994C223.5 171.659 222.579 171.504 222.579 171.504C221.4 171.375 221.209 172.609 221.209 172.609" stroke="black" stroke-width="0.766163" stroke-miterlimit="10" stroke-linecap="round"/>
<path d="M231.159 130.314L229.73 132.046L226.707 133.828L225.456 134.6L224.31 132.881L220.902 130.314L219.801 126.7L219.999 122.895L220.754 119.886L222.691 119.171H225.273L227.469 120.386L228.85 122.895L229.468 124.957L229.328 126.7V128.552L230.578 129.789L231.159 130.314Z" fill="#B3B3B3"/>
<path d="M224.984 135.447C224.984 135.447 226.27 133.876 227.27 133.542C227.27 133.542 229.859 132.849 231.493 130.314" stroke="black" stroke-width="0.766163" stroke-miterlimit="10" stroke-linecap="round"/>
<path d="M225.293 135.095C225.293 135.095 225.039 132.543 222.246 131.313C222.246 131.313 219.801 130.75 219.801 126.21" stroke="black" stroke-width="0.766163" stroke-miterlimit="10" stroke-linecap="round"/>
<path d="M227.071 131.312C227.071 131.312 225.569 132.669 223.475 132.046" stroke="black" stroke-width="0.766163" stroke-miterlimit="10" stroke-linecap="round"/>
<path d="M222.324 129.161C222.324 129.161 222.953 130.177 224.985 129.034" stroke="black" stroke-width="0.766163" stroke-miterlimit="10" stroke-linecap="round"/>
<path d="M222.769 125.13C222.769 125.13 221.841 125.963 221.912 126.32C221.912 126.32 221.727 127.391 223.475 127.63" stroke="black" stroke-width="0.766163" stroke-miterlimit="10" stroke-linecap="round"/>
<path d="M221.746 122.439C221.746 122.439 221.531 121.746 221.078 121.913" stroke="black" stroke-width="0.766163" stroke-miterlimit="10" stroke-linecap="round"/>
<path d="M224.984 122.773C224.984 122.773 225.293 122.297 225.93 122.896" stroke="black" stroke-width="0.766163" stroke-miterlimit="10" stroke-linecap="round"/>
<path d="M221.174 123.916C221.174 123.916 220.769 124.63 221.174 125.13C221.174 125.13 221.614 125.424 221.745 125.018C221.745 125.018 221.829 124.34 221.519 124.042C221.519 124.042 221.352 123.824 221.173 123.915L221.174 123.916Z" fill="black"/>
<path d="M225.199 124.483C225.199 124.483 224.663 125.173 225.199 125.662C225.199 125.662 225.627 125.947 225.806 125.519C225.806 125.519 225.949 125.054 225.533 124.638C225.533 124.638 225.294 124.34 225.199 124.483Z" fill="black"/>
<path d="M235.613 125.837C235.613 125.837 236.11 129.789 232.466 130.082C232.466 130.082 229.985 130.171 229.329 128.124C229.03 127.191 228.893 125.383 230.166 123.82C230.857 122.97 232.032 121.788 234.481 122.895" stroke="black" stroke-width="0.766163" stroke-miterlimit="10" stroke-linecap="round"/>
<path d="M234.183 124.045C234.183 124.045 232.136 123.429 231.64 126.003C231.64 126.003 231.278 128.185 232.539 129.22C232.923 129.536 233.602 129.77 234.527 129.265" stroke="black" stroke-width="0.766163" stroke-miterlimit="10" stroke-linecap="round"/>
<path d="M219.431 126.21C219.431 126.21 218.225 125.337 218.511 123.591C218.511 123.591 218.543 122.801 219.082 122.164C219.082 122.164 219.915 121.876 219.8 121.353C219.8 121.353 219.894 120.575 219.139 120.321C219.139 120.321 218.733 119.718 218.923 119.4C218.923 119.4 219.05 118.861 219.399 118.877C219.399 118.877 219.883 118.829 219.8 118.544C219.8 118.544 219.669 117.917 219.288 117.821C219.288 117.821 218.989 117.583 219.139 117.083C219.139 117.083 219.469 115.893 220.307 115.559C220.307 115.559 221.009 115.416 221.41 115.631C221.41 115.631 221.768 115.703 221.754 115.274C221.754 115.274 221.597 114.369 222.192 114.06C222.192 114.06 223.158 113.512 223.651 114.06C223.651 114.06 223.93 114.726 224.24 114.726C224.24 114.726 224.486 114.679 224.958 114.226C224.958 114.226 225.66 113.559 226.026 113.464C226.026 113.464 226.868 113.202 228.407 113.464C228.407 113.464 228.591 113.509 228.811 113.369C228.811 113.369 229.669 112.916 229.954 113.011C229.954 113.011 230.55 113.13 230.74 113.678C230.74 113.678 230.693 113.987 231.24 113.868C231.24 113.868 232.073 113.653 232.359 113.963C232.359 113.963 232.836 114.321 232.93 114.916C232.93 114.916 232.916 115.416 233.233 115.392C233.233 115.392 234.359 115.225 234.621 115.773C234.621 115.773 235.026 116.463 234.835 117.13C234.835 117.13 234.645 117.464 235.002 117.511C235.002 117.511 236.169 117.297 236.645 118.344C236.645 118.344 237.026 118.964 236.645 119.368C236.645 119.368 236.311 119.678 236.621 119.892C236.621 119.892 237.526 120.178 237.479 120.725C237.479 120.725 237.764 121.649 236.979 122.163C236.979 122.163 236.747 122.892 237.529 123.226C237.529 123.226 238.285 124.273 237.858 124.94C237.858 124.94 236.035 126.175 236.869 127.107L235.217 125.94C235.217 125.94 235.241 124.854 234.17 124.445C234.17 124.445 234.884 123.487 233.789 123.083L234.193 122.44C234.193 122.44 234.598 119.702 232.86 117.654C232.86 117.654 230.455 114.273 227.17 114.131C227.17 114.131 226.384 114.083 226.479 114.392C226.479 114.392 226.575 114.773 227.789 115.297C227.789 115.297 230.695 116.527 231.491 118.877C231.491 118.877 232.646 121.605 232.646 122.594L231.215 122.528L229.169 125.631L229.193 124.798L227.669 123.369L227.693 122.298C227.693 122.298 227.788 122.131 227.335 121.702C227.335 121.702 225.866 120.536 225.827 120.274C225.827 120.274 225.565 119.665 225.272 120.053C225.272 120.053 225.193 120.584 224.693 120.512C224.693 120.512 223.73 120.284 223.652 120.053C223.652 120.053 223.231 119.488 222.545 119.822C222.545 119.822 221.288 120.179 220.74 121.56C220.74 121.56 220.074 124.623 220.169 126.21H219.431H219.431Z" fill="black"/>
<path d="M211.983 151.068C211.983 151.068 211.912 153.598 212.479 155.079" stroke="black" stroke-width="0.766163" stroke-miterlimit="10" stroke-linecap="round"/>
<path d="M213.311 150.773C213.311 150.773 213.533 154.914 214.104 155.717" stroke="black" stroke-width="0.766163" stroke-miterlimit="10" stroke-linecap="round"/>
<path d="M214.738 150.365L215.373 154.114" stroke="black" stroke-width="0.766163" stroke-miterlimit="10" stroke-linecap="round"/>
<path d="M224.524 154.328C224.524 154.328 222.841 157.151 223.159 158.009" stroke="black" stroke-width="0.766163" stroke-miterlimit="10" stroke-linecap="round"/>
<path d="M223.562 153.807C223.562 153.807 221.689 156.366 221.785 157.667" stroke="black" stroke-width="0.766163" stroke-miterlimit="10" stroke-linecap="round"/>
<path d="M222.801 153.074C222.801 153.074 220.416 155.223 220.618 157.097" stroke="black" stroke-width="0.766163" stroke-miterlimit="10" stroke-linecap="round"/>
<path d="M211.213 153.245C211.213 153.245 211.432 154.192 211.698 154.33C211.698 154.33 211.979 154.523 211.761 153.878" fill="#808080"/>
<path d="M212.809 154.799C212.809 154.799 212.841 155.053 213.063 155.079C213.063 155.079 213.363 155.104 213.419 155.013C213.419 155.013 213.426 154.961 213.38 154.839" fill="#808080"/>
<path d="M214.877 153.629L215.032 154.442C215.032 154.442 214.992 154.653 214.714 154.78C214.714 154.78 214.297 154.964 214.182 154.779" fill="#808080"/>
<path d="M216.261 152.746C216.261 152.746 216.304 153.21 216.083 153.4C216.083 153.4 215.751 153.727 215.658 153.4" fill="#808080"/>
<path d="M223.568 157.375C223.568 157.375 223.78 157.567 224.076 157.124L223.568 157.375Z" fill="#808080"/>
<path d="M220.019 155.261C220.019 155.261 219.643 156.449 220.241 156.437L220.019 155.261Z" fill="#808080"/>
<path d="M221.056 156.384C221.056 156.384 220.869 157.169 221.146 157.314C221.146 157.314 221.384 157.377 221.412 157.225" fill="#808080"/>
<path d="M222.188 157.422C222.188 157.422 222.194 157.597 222.438 157.612C222.438 157.612 222.674 157.598 222.743 157.479" fill="#808080"/>
<path d="M88.6226 181.202L88.5898 188.018L116.697 174.395L119.363 175.882L119.417 175.895L119.987 167.203C120.007 166.486 119.301 165.972 118.625 166.211L89.985 179.276C89.168 179.564 88.6219 180.337 88.6219 181.202H88.6226ZM117.092 171.064C117.093 171.218 116.998 171.356 116.854 171.41L89.9014 184.024C89.6646 184.112 89.4117 183.938 89.4096 183.685L89.4075 183.508C89.4062 183.354 89.5023 183.215 89.6478 183.162L116.602 170.725C116.839 170.639 117.134 171.113 117.136 171.365L117.092 171.065V171.064Z" fill="black"/>
<path d="M79.7833 167.179L71.547 170.757C70.7635 171.111 70.2773 171.909 70.3226 172.768L70.248 182.987L86.2079 190.905L88.8505 189.348L89.0037 181.514" stroke="black" stroke-width="0.766163" stroke-miterlimit="10" stroke-linecap="round"/>
<path d="M119.566 167.579L119.56 175.516C119.56 175.528 119.573 175.537 119.584 175.532L121.471 174.67C121.471 174.67 121.474 174.331 121.474 174.329L121.656 162.264L110.533 157.44" stroke="black" stroke-width="0.766163" stroke-miterlimit="10" stroke-linecap="round"/>
<path d="M70.7266 171.562L86.2086 178.383V190.937" stroke="black" stroke-width="0.766163" stroke-miterlimit="10" stroke-linecap="round"/>
<path d="M121.655 162.264L86.207 178.384" stroke="black" stroke-width="0.766163" stroke-miterlimit="10" stroke-linecap="round"/>
<path d="M100.182 153.58C99.8895 153.71 99.6917 153.802 99.3992 153.931C99.0663 154.078 99.0614 154.143 99.0245 154.585C98.9513 155.464 98.8817 156.278 98.812 157.154C98.8009 157.291 98.7737 157.412 98.6616 157.48C98.5397 157.553 98.5007 157.452 98.4944 157.327C98.4888 157.217 98.5042 157.091 98.5146 156.97C98.5829 156.141 98.6393 155.391 98.7194 154.557C98.741 154.33 98.7257 154.232 98.5439 154.309C98.3029 154.41 98.0138 154.546 97.862 154.617C97.7011 154.693 97.5416 154.778 97.4524 154.903C97.3765 155.009 97.3104 155.124 97.2909 155.344C97.2045 156.324 97.0847 157.465 97.084 158.385C97.084 159.448 97.7199 159.471 98.3426 158.833C98.5084 158.663 98.6839 158.423 98.8176 158.237C98.8155 158.307 98.8106 158.351 98.8085 158.392C98.7981 158.62 98.8281 158.652 98.9931 158.569C99.2989 158.416 99.604 158.285 99.9076 158.16C100.036 158.108 100.073 158.032 100.087 157.867C100.199 156.475 100.306 155.168 100.429 153.772C100.445 153.579 100.429 153.472 100.183 153.581L100.182 153.58Z" fill="#070404"/>
<path d="M97.0489 155.915C97.106 154.885 96.39 154.952 95.7896 155.522C95.621 155.683 95.4406 155.943 95.3187 156.185C95.3264 156.11 95.3334 156.032 95.3396 155.967C95.364 155.717 95.2742 155.736 95.1105 155.799C94.8166 155.912 94.5435 156.034 94.2252 156.195C94.0964 156.261 94.0595 156.324 94.0462 156.488C93.9341 157.881 93.8192 159.274 93.6966 160.671C93.6799 160.864 93.7279 160.878 93.854 160.818C94.1472 160.678 94.4397 160.553 94.733 160.424C94.9549 160.326 95.078 160.13 95.1021 159.835C95.1753 158.957 95.2505 158.078 95.3201 157.201C95.3313 157.064 95.3584 156.943 95.4706 156.875C95.5925 156.802 95.6315 156.903 95.6377 157.028C95.6433 157.138 95.628 157.264 95.6176 157.385C95.5493 158.214 95.4866 159.042 95.4065 159.876C95.3849 160.103 95.4385 160.11 95.5883 160.044C95.8397 159.933 96.1385 159.799 96.3656 159.698C96.5955 159.596 96.7306 159.568 96.7584 159.35C96.8197 158.87 96.8615 158.335 96.8796 158.116C96.9165 157.675 96.9911 156.954 97.0482 155.917L97.0489 155.915Z" fill="#070404"/>
<path d="M92.3024 158.627C92.4222 158.617 92.629 158.577 92.7865 158.57C93.0372 158.558 93.2308 158.558 93.4126 158.652C93.6585 158.778 93.7595 159.147 93.7288 159.511C93.701 159.846 93.5693 160.259 93.3785 160.598C93.2872 160.761 93.1633 160.966 92.8707 161.25C92.6193 161.494 92.4055 161.637 92.0844 161.78C91.7528 161.928 91.4673 161.989 91.2353 161.961C91.0013 161.933 90.8223 161.824 90.7032 161.638C90.6085 161.491 90.5514 161.296 90.5339 161.062C90.5291 160.998 90.5486 160.923 90.5876 160.855C90.6252 160.789 90.6767 160.738 90.7283 160.715L91.6393 160.309C91.711 160.277 91.7612 160.318 91.7897 160.383C91.819 160.449 91.8357 160.491 91.89 160.521C91.9625 160.562 92.0454 160.562 92.1721 160.505C92.2453 160.472 92.2829 160.448 92.3177 160.418C92.3748 160.368 92.4027 160.333 92.4347 160.279C92.464 160.23 92.4911 160.151 92.4953 160.096C92.5016 160.02 92.4821 159.979 92.4514 159.963C92.3943 159.933 92.3121 159.938 92.1902 159.96C92.0628 159.984 91.8232 160.027 91.6811 160.052C91.3809 160.105 91.0939 160.068 90.9386 159.901C90.7826 159.733 90.7164 159.501 90.7513 159.114C90.7826 158.743 90.9073 158.41 91.0333 158.154C91.1796 157.858 91.3837 157.583 91.6302 157.354C91.851 157.149 92.0934 156.971 92.4556 156.809C92.8101 156.651 93.0839 156.664 93.3033 156.724C93.4885 156.775 93.6446 156.923 93.7261 157.06C93.8236 157.225 93.8688 157.41 93.8647 157.661C93.8633 157.724 93.8584 157.807 93.8201 157.872C93.7832 157.934 93.7442 157.961 93.648 158.003C93.4955 158.071 93.1215 158.238 92.923 158.326C92.7711 158.394 92.7238 158.363 92.7078 158.276C92.6896 158.178 92.6715 158.126 92.6012 158.073C92.5517 158.036 92.4689 158.022 92.3797 158.059C92.3142 158.086 92.2599 158.113 92.2035 158.159C92.1505 158.203 92.108 158.253 92.076 158.308C92.0461 158.359 92.0133 158.46 92.028 158.535C92.0544 158.668 92.2056 158.636 92.3017 158.628L92.3024 158.627Z" fill="#070404"/>
<path d="M103.104 151.515C103.169 151.335 103.183 151.205 103.149 151.129C103.123 151.071 103.068 151.068 102.955 151.098C102.896 151.114 102.843 151.132 102.682 151.204C102.554 151.261 102.383 151.342 102.267 151.403C102.187 151.445 102.134 151.481 102.102 151.531C102.041 151.629 102.017 151.741 102.013 151.874C102.011 151.952 102.006 152.008 102.005 152.056C102.001 152.146 102.002 152.187 101.978 152.314C101.944 152.484 101.753 152.692 101.634 152.779C101.267 153.048 100.993 153.365 100.798 153.75C100.525 154.287 100.433 154.751 100.516 155.167C100.546 155.313 100.594 155.431 100.662 155.529C100.699 155.583 100.709 155.668 100.69 155.763C100.672 155.849 100.631 155.929 100.578 155.995C100.442 156.165 100.393 156.258 100.359 156.46C100.309 156.75 100.411 156.805 100.49 156.843C100.53 156.863 100.565 156.879 100.572 156.92C100.586 156.997 100.554 157.1 100.518 157.163C100.282 157.583 100.173 158.007 100.22 158.324C100.266 158.645 100.495 158.804 100.77 158.812C101.032 158.819 101.383 158.701 101.638 158.587C101.834 158.5 102.044 158.392 102.272 158.245C102.559 158.06 102.868 157.746 103.046 157.453C103.258 157.104 103.429 156.557 103.387 156.176C103.351 155.848 103.187 155.669 102.925 155.672C102.831 155.673 102.733 155.69 102.634 155.706C102.453 155.736 102.265 155.821 102.083 155.902C101.987 155.945 101.888 155.99 101.792 156.025C101.677 156.067 101.643 156.048 101.651 155.947C101.659 155.844 101.698 155.792 101.815 155.734L101.891 155.696C102.05 155.617 102.214 155.536 102.378 155.43C102.927 155.077 103.377 154.377 103.497 153.688C103.642 152.866 103.437 152.361 102.939 152.296C102.89 152.29 102.871 152.277 102.868 152.235C102.864 152.167 102.896 152.095 102.916 152.036C102.969 151.881 103.056 151.645 103.103 151.515L103.104 151.515ZM102.154 153.997V154C102.141 154.166 102.127 154.305 102.084 154.451C102.056 154.547 102.024 154.572 101.995 154.586C101.941 154.605 101.926 154.569 101.922 154.531C101.895 154.276 101.917 153.999 101.988 153.707C102.014 153.599 102.056 153.577 102.072 153.569C102.074 153.568 102.077 153.567 102.079 153.566C102.111 153.552 102.143 153.553 102.157 153.633C102.176 153.754 102.165 153.899 102.154 153.997H102.154ZM101.909 156.986C102.06 156.929 102.113 156.982 102.105 157.088C102.095 157.215 102.015 157.328 101.907 157.386C101.838 157.423 101.75 157.463 101.683 157.487C101.533 157.541 101.5 157.441 101.507 157.365C101.515 157.269 101.581 157.144 101.705 157.078C101.773 157.043 101.843 157.011 101.909 156.986Z" fill="#070404"/>
<path d="M104.904 154.599C104.789 154.427 104.598 154.424 104.412 154.493C104.19 154.576 103.959 154.773 103.78 155.116C103.672 155.325 103.634 155.514 103.612 155.728C103.564 156.295 103.923 156.345 104.168 156.257C104.273 156.219 104.294 156.2 104.348 156.171C104.348 156.171 104.237 156.322 104.144 156.442C104.11 156.486 104.074 156.549 104.101 156.607C104.117 156.644 104.155 156.714 104.173 156.749C104.192 156.786 104.249 156.765 104.303 156.683C104.452 156.458 104.539 156.312 104.653 156.111C104.78 155.886 104.884 155.677 104.962 155.34C105.015 155.106 105.042 154.805 104.904 154.599Z" fill="#070404"/>
<path d="M106.995 141.558C106.346 141.413 105.959 141.505 105.703 141.583L80.363 152.529C79.9326 152.66 79.6387 153.057 79.6387 153.507L79.817 170.451C79.817 170.692 79.9528 170.913 80.168 171.022L82.4192 172.22C82.5696 172.296 82.7437 172.309 82.9039 172.258L94.9849 167.009L94.9703 168.484L86.9298 172.16L86.6804 172.752L89.1307 174.499L106.019 166.772L105.817 166.331L103.559 165.04L102.974 165.111L99.2469 166.737L99.2483 165.157L110.228 160.387C110.397 160.332 110.512 160.175 110.512 159.997L110.629 142.756C110.631 142.481 110.436 142.242 110.165 142.189L106.994 141.559L106.995 141.558ZM83.4848 155.536C83.4848 155.076 83.7843 154.67 84.2238 154.534L109.168 143.649C109.491 143.508 109.853 143.747 109.851 144.099L109.758 159.074C109.722 159.569 109.581 159.811 109.206 159.972L84.0232 170.635C83.7585 170.723 83.4855 170.526 83.4855 170.247V155.535L83.4848 155.536Z" fill="black"/>
<path d="M160.178 174.472C160.835 175.749 162.3 176.246 163.522 176.803C164.897 177.43 166.352 177.894 167.857 178.079C168.314 178.135 168.814 178.156 169.308 178.11" stroke="black" stroke-width="0.766163" stroke-miterlimit="10" stroke-linecap="round"/>
<path d="M159.877 176.066C160.571 177.362 165.166 179.025 167.886 179.427C169.451 179.658 170.075 179.27 170.664 179.075" stroke="black" stroke-width="0.766163" stroke-miterlimit="10" stroke-linecap="round"/>
<path d="M140.469 123.853L141.754 124.666H142.897L142.376 127.277L142.125 128.513L140.677 129.359L141.951 131.099L143.418 132.218L145.87 132.701L147.056 132.411L148.089 131.601L148.398 130.365L148.494 129.594L150.078 129.359L151.815 127.856L153.161 123.648L152.895 119.572L152.212 117.472L149.517 116.757L145.31 117.106L144.248 117.569L143.109 121.004L141.855 120.076L140.388 120.521L139.52 121.77L140.469 123.853Z" fill="#B3B3B3"/>
<path d="M153.346 142.001V145.698L153.794 146.595L155.527 145.387L157.649 142.506L157.314 140.251L156.54 140.502L153.346 142.001Z" fill="#B3B3B3"/>
<path d="M157.215 140.166L157.413 142.764" stroke="black" stroke-width="0.766163" stroke-miterlimit="10" stroke-linecap="round"/>
<path d="M137.014 145.706L131.121 145.471L131.226 149.954L131.887 152.207L133.372 153.097L136.358 153.423L142.91 152.645L144.408 152.512L148.58 152.962L151.596 154.277L152.595 154.16L152.141 153.098L153.346 153.008L154.658 151.137L151.452 148.028L149.175 147.7L146.789 148.722L143.026 149.011L136.778 148.365L137.066 147.296L137.014 145.706Z" fill="#B3B3B3"/>
<path d="M178.758 138.746C178.758 138.746 178.758 133.259 178.758 130.468C178.758 126.702 179.254 124.791 176.834 123.456C174.744 122.303 173.541 122.978 169.616 124.319C164.749 125.981 152.691 129.786 152.691 129.786" stroke="black" stroke-width="0.766163" stroke-miterlimit="10" stroke-linecap="round"/>
<path d="M123.693 152.512C123.693 148.02 123.806 141.951 119.142 140.927C114.886 139.993 115.845 145.933 115.88 150.089" stroke="black" stroke-width="0.766163" stroke-miterlimit="10" stroke-linecap="round"/>
<path d="M156.076 133.955L176.637 126.982" stroke="black" stroke-width="0.766163" stroke-miterlimit="10" stroke-linecap="round"/>
<path d="M126.203 144.086L130.547 142.613" stroke="black" stroke-width="0.766163" stroke-miterlimit="10" stroke-linecap="round"/>
<path d="M169.859 141.778L178.758 138.746C178.758 138.746 190.941 141.778 190.941 145.33" stroke="black" stroke-width="0.766163" stroke-miterlimit="10" stroke-linecap="round"/>
<path d="M167.936 161.069L197.274 150.064C197.274 150.064 198.464 149.483 198.464 148.004L198.607 137.025C198.607 137.025 198.75 135.668 196.94 134.62C196.94 134.62 182.556 129.49 181.178 129.284C179.653 129.056 179.037 129.426 179.037 129.426" stroke="black" stroke-width="0.766163" stroke-miterlimit="10" stroke-linecap="round"/>
<path d="M131.681 174.455L134.709 173.355C134.709 173.355 135.958 173.117 135.958 171.638C135.958 168.194 135.953 164.749 135.946 161.305C135.944 160.43 136.006 159.477 135.752 158.628C135.625 158.206 135.405 157.818 135.073 157.522C134.214 156.76 133.038 156.494 131.989 156.103C130.014 155.367 128.038 154.631 126.063 153.896C123.93 153.102 121.798 152.307 119.666 151.513C118.436 151.055 117.207 150.597 115.977 150.139L115.844 150.09" stroke="black" stroke-width="0.766163" stroke-miterlimit="10" stroke-linecap="round"/>
<path d="M195.784 135.723C194.708 135.874 192.961 136.876 192.961 139.049V149.656" stroke="black" stroke-width="0.766163" stroke-miterlimit="10" stroke-linecap="round"/>
<path d="M133.071 158.007C130.172 158.57 129.59 160.348 129.551 164.456V172.301" stroke="black" stroke-width="0.766163" stroke-miterlimit="10" stroke-linecap="round"/>
<path d="M115.695 146.944C114.368 146.944 112.225 148.575 112.225 151.003V157.991" stroke="black" stroke-width="0.766163" stroke-miterlimit="10" stroke-linecap="round"/>
<path d="M194.753 151.009V155.572C194.753 155.572 194.87 156.866 193.607 156.866C193.162 156.866 192.385 156.905 192.385 155.572V151.972" stroke="black" stroke-width="0.766163" stroke-miterlimit="10" stroke-linecap="round"/>
<path d="M157.035 164.891L164.821 161.985" stroke="black" stroke-width="0.766163" stroke-miterlimit="10" stroke-linecap="round"/>
<path d="M149.907 167.4L141.669 170.549C141.669 170.549 132.847 174.345 130.269 174.745C127.394 175.19 121.674 172.013 121.674 172.013" stroke="black" stroke-width="0.766163" stroke-miterlimit="10" stroke-linecap="round"/>
<path d="M131.385 174.455V178.813C131.385 178.813 131.413 179.862 132.762 179.862C134.233 179.862 134.263 179.049 134.263 178.599C134.263 177.356 134.263 173.625 134.263 173.625" stroke="black" stroke-width="0.766163" stroke-miterlimit="10" stroke-linecap="round"/>
<path d="M138.521 163.967L187.37 145.933" stroke="black" stroke-width="0.766163" stroke-miterlimit="10" stroke-linecap="round"/>
<path d="M135.431 154.517L131.576 155.843" stroke="black" stroke-width="0.766163" stroke-miterlimit="10" stroke-linecap="round"/>
<path d="M140.23 120.929C140.23 120.929 141.133 120.237 142.003 120.678C142.572 120.967 142.99 121.53 143.558 122.038C143.558 122.038 144.339 121.298 144.892 117.585C144.892 117.585 146.982 117.365 149.574 117.116C149.574 117.116 152.534 116.757 152.902 120.341C152.902 120.341 154.374 120.972 152.684 115.93C151.741 113.114 148.622 112.136 145.009 112.759C142.804 113.139 141.186 113.844 140.36 116.412C139.944 117.701 139.775 119.178 140.229 120.929H140.23Z" fill="black"/>
<path d="M147.532 123.161C147.795 123.161 148.008 122.74 148.008 122.221C148.008 121.701 147.795 121.28 147.532 121.28C147.27 121.28 147.057 121.701 147.057 122.221C147.057 122.74 147.27 123.161 147.532 123.161Z" fill="black"/>
<path d="M151.339 122.978C151.602 122.978 151.815 122.557 151.815 122.038C151.815 121.519 151.602 121.098 151.339 121.098C151.076 121.098 150.863 121.519 150.863 122.038C150.863 122.557 151.076 122.978 151.339 122.978Z" fill="black"/>
<path d="M150.029 148.825C150.029 148.825 151.97 149.146 153.327 151.504C153.327 151.504 153.589 152.504 152.159 152.039" fill="white"/>
<path d="M150.029 148.825C150.029 148.825 151.97 149.146 153.327 151.504C153.327 151.504 153.589 152.504 152.159 152.039" stroke="black" stroke-width="0.766163" stroke-miterlimit="10" stroke-linecap="round"/>
<path d="M138.625 139.35L138.291 145.595C138.291 145.595 132.386 146.262 130.291 145.167C130.291 145.167 130.862 136.929 132.672 134.691C132.672 134.691 134.719 131.167 140.482 129.215C140.482 129.215 141.91 133.044 146.053 132.915C146.053 132.915 148.672 132.596 148.577 130.405" stroke="black" stroke-width="0.766163" stroke-miterlimit="10" stroke-linecap="round"/>
<path d="M140.716 120.255C139.705 120.404 138.73 122.221 140.469 123.852C141.419 124.743 142.229 124.811 142.602 124.804C142.602 124.804 142.196 127.019 142.196 127.902C142.196 128.784 140.071 129.358 140.071 129.358" stroke="black" stroke-width="0.766163" stroke-miterlimit="10" stroke-linecap="round"/>
<path d="M144.957 128.566C144.957 128.566 145.873 129.487 147.432 129.78C149.074 130.089 150.467 129.652 151.34 128.651C152.066 127.82 152.933 126.488 153.25 122.791C153.331 121.85 153.177 119.145 152.902 118.477C152.647 117.855 152.257 116.96 151.457 116.757" stroke="black" stroke-width="0.766163" stroke-miterlimit="10" stroke-linecap="round"/>
<path d="M147.773 119.802C147.773 119.802 147.006 119.451 146.34 120.412" stroke="black" stroke-width="0.766163" stroke-miterlimit="10" stroke-linecap="round"/>
<path d="M150.467 119.531C150.467 119.531 151.324 119.136 152.213 119.74" stroke="black" stroke-width="0.766163" stroke-miterlimit="10" stroke-linecap="round"/>
<path d="M149.863 122.979C149.863 122.979 151.054 124.25 150.864 124.886C150.864 124.886 150.829 125.405 149.273 125.659" stroke="black" stroke-width="0.766163" stroke-miterlimit="10" stroke-linecap="round"/>
<path d="M150.622 126.927C150.622 126.927 149.274 128.479 146.729 126.808" stroke="black" stroke-width="0.766163" stroke-miterlimit="10" stroke-linecap="round"/>
<path d="M151.215 129.051C151.215 129.051 156.982 131.73 157.649 139.682C157.649 139.682 156.822 141.158 153.211 141.777" stroke="black" stroke-width="0.766163" stroke-miterlimit="10" stroke-linecap="round"/>
<path d="M148.888 151.254C151.936 152.682 150.467 153.159 150.467 153.159C149.761 153.206 148.404 152.514 148.404 152.514C147.824 152.679 146.34 152.514 146.34 152.514C144.602 152.298 143.554 152.514 143.554 152.514C132.935 154.726 131.886 152.206 131.886 152.206C130.839 151.063 131.171 145.796 131.171 145.796" stroke="black" stroke-width="0.766163" stroke-miterlimit="10" stroke-linecap="round"/>
<path d="M153.171 135.386V145.525C153.171 145.525 153.056 146.409 153.793 146.753" stroke="black" stroke-width="0.766163" stroke-miterlimit="10" stroke-linecap="round"/>
<path d="M150.77 174.549C150.031 175.473 149.959 176.967 150.49 178C151.146 179.277 152.612 179.774 153.834 180.331C155.209 180.958 156.664 181.422 158.169 181.607C159.387 181.757 160.914 181.656 161.808 180.699C162.422 180.042 162.167 179.083 161.687 178.425C161.248 177.895 157.051 175.067 156.88 174.324" stroke="black" stroke-width="0.766163" stroke-miterlimit="10" stroke-linecap="round"/>
<path d="M158.456 176.368C156.901 175.861 155.982 177.782 155.982 177.782" stroke="black" stroke-width="0.766163" stroke-miterlimit="10" stroke-linecap="round"/>
<path d="M159.786 177.33C158.231 176.823 157.312 178.744 157.312 178.744" stroke="black" stroke-width="0.766163" stroke-miterlimit="10" stroke-linecap="round"/>
<path d="M149.637 173.621C149.637 173.621 149.478 175.446 152.748 175.161V173.891L151.743 173.224L151.68 169.51L149.432 169.795L149.637 173.621Z" fill="black"/>
<path d="M117.264 141.073L131.797 136.442" stroke="black" stroke-width="0.766163" stroke-miterlimit="10" stroke-linecap="round"/>
<path d="M135.887 147.957C135.887 147.957 139.887 148.934 144.744 149.005C144.744 149.005 145.983 149.243 147.84 148.266C147.84 148.266 148.792 147.362 150.601 147.766C150.601 147.766 152.268 147.909 154.375 150.361" stroke="black" stroke-width="0.766163" stroke-miterlimit="10" stroke-linecap="round"/>
<path d="M129.591 160.664L116.635 156.189" stroke="black" stroke-width="0.766163" stroke-miterlimit="10" stroke-linecap="round"/>
<path d="M193.169 137.837L182.207 134.013" stroke="black" stroke-width="0.766163" stroke-miterlimit="10" stroke-linecap="round"/>
<path d="M149.223 169.819C149.301 170.549 149.433 173.982 149.433 173.982C149.433 173.982 150.828 177.027 155.693 175.365C157.509 174.744 157.326 172.223 157.293 171.433C157.247 170.308 157.217 166.929 157.217 166.929L149.223 169.819H149.223Z" fill="black"/>
<path d="M165.2 166.436C163.94 166.929 162.65 167.333 161.361 167.738C161.234 167.778 159.332 168.283 159.336 168.351C159.334 168.318 159.173 165.457 159.169 164.499C159.148 159.904 159.356 159.404 158.57 158.47C158.262 158.103 156.945 157.827 155.915 157.404C156.987 158.332 157.271 159.794 157.312 160.62C157.402 162.403 157.257 167.582 157.257 167.582C153.543 169.487 149.3 170.549 149.3 170.549L149.222 169.819L148.443 162.528C144.85 162.433 140.834 161.147 140.834 161.147C136.584 160.099 135.369 156.861 135.369 156.861C134.321 155.29 134.605 153.35 134.605 153.35L135.321 153.423C135.131 155.224 137.011 155.242 137.011 155.242C140.035 155.528 143.416 153.671 143.416 153.671C144.464 153.194 143.416 152.514 143.416 152.514L155.321 145.369C155.892 142.797 157.289 142.067 157.289 142.067L169.544 137.909C171.036 137.369 171.099 138.575 171.099 138.575L167.957 149.61L166.723 150.089L163.807 151.205C163.807 151.205 165.344 151.895 165.997 152.381C166.535 152.668 168.441 154.469 168.199 156.867C167.957 159.265 167.787 164.926 167.787 164.926L165.199 166.436H165.2Z" fill="black"/>
<path d="M150.259 175.602C150.259 175.602 149.61 178.511 150.191 179.595C150.885 180.891 155.454 183.092 158.2 182.956C161.889 182.774 162.159 182.377 162.171 180.061" stroke="black" stroke-width="0.766163" stroke-miterlimit="10" stroke-linecap="round"/>
<path d="M137.148 148.028V145.933" stroke="black" stroke-width="0.766163" stroke-miterlimit="10" stroke-linecap="round"/>
<path d="M182.329 178.461C182.329 178.461 197.41 171.997 203.042 169.402C204.83 168.578 207.394 167.714 206.203 167.133C200.542 164.372 195.158 161.088 189.498 158.332C189.241 158.207 188.992 158.061 188.73 157.945C188.215 157.717 187.768 157.706 187.263 157.895C187.048 157.975 186.834 158.055 186.619 158.135C185.934 158.389 185.25 158.644 184.566 158.9C183.61 159.256 182.655 159.612 181.7 159.968C180.557 160.395 179.413 160.821 178.27 161.247C177.022 161.712 175.774 162.177 174.526 162.642C173.257 163.115 171.987 163.588 170.718 164.061C169.449 164.534 168.303 164.961 167.095 165.412C166.032 165.808 164.969 166.204 163.906 166.6C163.072 166.911 162.237 167.222 161.402 167.533C160.879 167.728 160.356 167.923 159.832 168.118C159.693 168.17 159.555 168.221 159.415 168.274C159.415 168.274 157.704 168.896 158.325 169.229C159.229 169.714 161.451 171.05 162.784 171.682L176.947 179.366C176.947 179.366 177.597 179.842 178.359 179.842C178.359 179.842 178.835 179.81 182.327 178.461H182.329Z" fill="white" stroke="black" stroke-width="0.766163" stroke-miterlimit="10" stroke-linecap="round"/>
<path d="M205.66 170.59L205.451 183.142C205.451 183.142 205.544 184.253 204.179 184.253C204.179 184.253 202.973 184.348 202.973 183.142L203.182 171.848" stroke="black" stroke-width="0.766163" stroke-miterlimit="10" stroke-linecap="round"/>
<path d="M179.759 182.483V193.57C179.759 193.57 179.853 194.681 178.488 194.681C178.488 194.681 177.281 194.776 177.281 193.57V182.1" stroke="black" stroke-width="0.766163" stroke-miterlimit="10" stroke-linecap="round"/>
<path d="M161.913 173.952V184.644C161.913 184.644 162.006 185.755 160.641 185.755C160.641 185.755 159.434 185.85 159.434 184.644L159.383 172.594" fill="white"/>
<path d="M161.913 173.952V184.644C161.913 184.644 162.006 185.755 160.641 185.755C160.641 185.755 159.434 185.85 159.434 184.644L159.383 172.594" stroke="black" stroke-width="0.766163" stroke-linecap="round" stroke-linejoin="round"/>
<path d="M187.45 163.108C188.199 163.405 188.961 163.804 189.643 164.233C190.097 164.518 191.413 165.185 191.771 166.157C192.241 167.435 191.856 168.072 191.525 169.025C191.175 170.036 190.058 171.785 188.658 171.782C188.169 171.782 187.35 171.429 187.18 170.364C187.026 169.411 187.09 168.622 185.348 167.22C184.933 166.887 183.967 166.249 182.938 166.502C182.342 166.648 181.195 167.513 180.954 167.618C180.489 167.819 179.748 167.842 179.699 166.843C179.675 166.364 179.891 165.565 180.299 164.967C180.965 163.99 182.477 162.872 184.185 162.704C185.025 162.622 185.879 162.484 187.451 163.108H187.45Z" stroke="black" stroke-width="0.766163" stroke-miterlimit="10" stroke-linecap="round"/>
<path d="M188.449 165.837C188.689 165.837 188.884 165.643 188.884 165.402C188.884 165.162 188.689 164.967 188.449 164.967C188.209 164.967 188.014 165.162 188.014 165.402C188.014 165.643 188.209 165.837 188.449 165.837Z" fill="black"/>
<path d="M187.369 166.708C187.609 166.708 187.804 166.513 187.804 166.272C187.804 166.032 187.609 165.837 187.369 165.837C187.128 165.837 186.934 166.032 186.934 166.272C186.934 166.513 187.128 166.708 187.369 166.708Z" fill="black"/>
<path d="M188.449 167.365C188.689 167.365 188.884 167.17 188.884 166.929C188.884 166.689 188.689 166.494 188.449 166.494C188.209 166.494 188.014 166.689 188.014 166.929C188.014 167.17 188.209 167.365 188.449 167.365Z" fill="black"/>
<path d="M189.529 166.418C189.769 166.418 189.964 166.223 189.964 165.982C189.964 165.742 189.769 165.547 189.529 165.547C189.289 165.547 189.094 165.742 189.094 165.982C189.094 166.223 189.289 166.418 189.529 166.418Z" fill="black"/>
<path d="M186.271 168.743C186.271 168.743 184.666 167.664 183.395 167.552C182.805 167.501 181.997 167.823 181.237 168.08C180.986 168.165 180.079 168.254 179.693 167.811L183.221 166.616L184.717 166.869L186.431 168.22L186.271 168.743Z" fill="black"/>
<path d="M184.248 165.019C184.505 165.185 184.992 165.433 185.526 165.337C185.836 165.282 186.049 165.066 186.366 164.71C186.483 164.579 186.639 164.146 186.24 163.824C185.944 163.585 185.579 163.473 185.134 163.444C184.904 163.429 184.473 163.505 184.136 163.898C183.956 164.109 183.651 164.635 184.248 165.019Z" fill="black"/>
<path d="M184.73 164.456C184.729 164.451 185.176 163.889 185.536 164.456" stroke="white" stroke-width="0.348256" stroke-miterlimit="10" stroke-linecap="round"/>
<path d="M158.239 169.011C157.879 169.536 157.47 171.396 158.415 172.01C159.739 172.872 162.562 174.282 162.562 174.282L176.466 181.677C176.466 181.677 177.292 182.281 178.435 182.313C178.435 182.313 178.982 182.527 181.364 181.606C181.364 181.606 204.465 171.31 205.818 170.481C207.279 169.585 206.49 167.561 206.49 167.561" stroke="black" stroke-width="0.766163" stroke-miterlimit="10" stroke-linecap="round"/>
<path d="M85.342 139.305L85.2695 143.499" stroke="black" stroke-width="1.53233" stroke-miterlimit="10" stroke-linecap="round"/>
<path d="M69.2097 147.305L44.127 158.076" stroke="black" stroke-width="0.766163" stroke-miterlimit="10" stroke-linecap="round"/>
<path d="M66.9751 148.171C66.9751 148.171 67.6047 146.965 67.5483 145.347C67.5072 144.181 67.1583 143.061 67.1583 143.061L51.7201 149.908L44.0605 147.015" stroke="black" stroke-width="0.766163" stroke-miterlimit="10" stroke-linecap="round"/>
<path d="M51.7188 154.815V151.061" stroke="black" stroke-width="0.766163" stroke-miterlimit="10" stroke-linecap="round"/>
<path d="M51.7188 149.907V146.434" stroke="black" stroke-width="0.766163" stroke-miterlimit="10" stroke-linecap="round"/>
<path d="M51.7188 154.663L44.0586 151.298" stroke="black" stroke-width="0.766163" stroke-miterlimit="10" stroke-linecap="round"/>
<path d="M60.2425 151.155C60.2425 151.155 64.6249 153.223 66.9847 154.122C68.3847 154.656 53.8081 161.181 53.1144 161.198C51.8279 161.231 47.0408 156.754 44.8203 157.778" stroke="black" stroke-width="0.766163" stroke-miterlimit="10" stroke-linecap="round"/>
<path d="M67.0748 154.317C67.0748 154.317 67.9148 156.177 65.2528 157.044C63.9015 157.484 54.2019 163.174 52.9301 162.833C51.108 162.344 46.8035 159.362 45.111 159.072C44.3072 158.934 44.0586 159.451 44.0586 159.451V160.692C44.0586 160.692 49.6599 164.813 51.8693 165.037C54.6456 165.317 55.5803 163.946 58.2089 162.751C60.5193 161.701 62.5844 160.797 64.036 160.231C67.8605 158.74 67.6209 157.873 65.2535 157.044" stroke="black" stroke-width="0.766163" stroke-miterlimit="10" stroke-linecap="round"/>
<path d="M103.606 144.783L104.235 113.737C104.263 112.356 103.364 111.127 102.04 110.735L97.2168 109.338" stroke="black" stroke-width="0.766163" stroke-miterlimit="10" stroke-linecap="round"/>
<path d="M34.4386 111.131L2.3747 122.302C1.27769 122.799 0.572824 123.891 0.572824 125.095L0.384766 158.881L38.2883 173.726C39.3435 174.139 40.5192 174.116 41.5577 173.663L81.2721 156.328" stroke="black" stroke-width="0.766163" stroke-miterlimit="10" stroke-linecap="round"/>
<path d="M86.2676 97.5117C86.2676 97.5117 96.7765 101.184 98.6599 102.461C100.42 103.656 99.495 106.332 98.9114 107.489C97.7168 109.857 91.6474 112.29 91.6474 112.29" fill="white"/>
<path d="M86.2676 97.5117C86.2676 97.5117 96.7765 101.184 98.6599 102.461C100.42 103.656 99.495 106.332 98.9114 107.489C97.7168 109.857 91.6474 112.29 91.6474 112.29" stroke="black" stroke-width="0.766163" stroke-miterlimit="10" stroke-linecap="round"/>
<path d="M97.216 104.775C95.9532 105.464 94.3965 107.357 94.3965 107.357" stroke="black" stroke-width="0.766163" stroke-miterlimit="10" stroke-linecap="round"/>
<path d="M55.5595 89.9994L56.4803 57.7126C56.4984 57.0697 55.889 56.594 55.2698 56.7674L10.5064 69.3304C9.8217 69.5227 9.35294 70.1523 9.36548 70.8635L9.95194 104.268C9.96448 104.965 10.6464 105.452 11.3101 105.238L54.6429 91.2225C55.1772 91.0498 55.5442 90.5594 55.5602 89.9987L55.5595 89.9994Z" stroke="black" stroke-width="0.766163" stroke-miterlimit="10" stroke-linecap="round"/>
<path d="M52.3318 87.3621L52.8674 63.0448C52.8758 62.6582 52.5059 62.3747 52.1354 62.4834L15.7942 73.1358C15.2509 73.2953 14.8811 73.7982 14.8908 74.3645L15.3164 98.9764C15.3206 99.2174 15.5546 99.3881 15.7851 99.3184L51.4229 88.5587C51.9529 88.3985 52.32 87.9158 52.3325 87.3621H52.3318Z" stroke="black" stroke-width="0.766163" stroke-miterlimit="10" stroke-linecap="round"/>
<path d="M28.5762 69.3887L28.6249 95.441" stroke="black" stroke-width="0.766163" stroke-miterlimit="10" stroke-linecap="round"/>
<path d="M41.4321 65.4805L40.957 91.7174" stroke="black" stroke-width="0.766163" stroke-miterlimit="10"/>
<path d="M52.4406 76.0049L15.166 87.5099" stroke="black" stroke-width="0.766163" stroke-miterlimit="10" stroke-linecap="round"/>
<path d="M101.823 113.568L41.7263 137.194C40.63 137.691 39.9258 138.783 39.9258 139.986L40.0219 172.31" stroke="black" stroke-width="0.766163" stroke-miterlimit="10" stroke-linecap="round"/>
<path d="M37.9923 138.142L3.40625 126.674" stroke="black" stroke-width="0.766163" stroke-miterlimit="10" stroke-linecap="round"/>
<path d="M99.9089 147.03L100.397 122.591C100.421 121.841 99.6539 121.322 98.9658 121.623L74.7815 131.569C73.6545 132.062 72.9323 133.182 72.9455 134.412L73.2102 159.845" stroke="black" stroke-width="0.766163" stroke-miterlimit="10" stroke-linecap="round"/>
<path d="M87.7497 126.592L87.7051 152.673" stroke="black" stroke-width="0.766163" stroke-miterlimit="10" stroke-linecap="round"/>
<path d="M89.9884 137.207L89.916 141.402" stroke="black" stroke-width="1.53233" stroke-miterlimit="10" stroke-linecap="round"/>
<path d="M69.2751 161.047L69.0299 131.577C69.0243 130.84 68.2623 130.351 67.5895 130.653L45.8681 138.937C44.7662 139.432 43.6406 140.97 43.6406 142.178L44.0578 172.309" stroke="black" stroke-width="0.766163" stroke-miterlimit="10" stroke-linecap="round"/>
<path d="M43.7344 141.451L51.7185 144.853L67.117 138.35C67.117 138.35 67.6199 139.22 67.6387 140.272C67.6714 142.072 67.1567 143.06 67.1567 143.06" stroke="black" stroke-width="0.766163" stroke-miterlimit="10" stroke-linecap="round"/>
<path d="M44.9021 139.712C43.4749 140.665 43.7354 143.468 43.7354 143.468L51.7195 145.347L67.6404 138.561C67.4231 138.157 67.1974 137.11 64.9602 136.413C62.831 135.75 58.7167 134.377 58.257 134.215L44.9028 139.712L44.9021 139.712Z" fill="black"/>
<path d="M27.0216 115.697C27.0216 115.697 24.8025 115.413 23.5474 115.676C22.2727 115.943 17.4919 119.285 16.3935 121.535C15.5507 123.262 16.8337 123.624 16.5168 123.611C15.4887 123.57 11.5235 126.214 12.4415 127.795C14.1528 130.745 18.7992 125.174 23.4652 124.413" fill="white"/>
<path d="M27.0216 115.697C27.0216 115.697 24.8025 115.413 23.5474 115.676C22.2727 115.943 17.4919 119.285 16.3935 121.535C15.5507 123.262 16.8337 123.624 16.5168 123.611C15.4887 123.57 11.5235 126.214 12.4415 127.795C14.1528 130.745 18.7992 125.174 23.4652 124.413" stroke="black" stroke-width="0.766163" stroke-miterlimit="10" stroke-linecap="round"/>
<path d="M82.1846 93.9746C82.1846 93.9746 83.0316 102.122 77.8753 102.669C73.1314 103.173 71.498 99.5585 71.498 99.5585" stroke="black" stroke-width="0.766163" stroke-miterlimit="10" stroke-linecap="round"/>
<path d="M88.6973 104.334C88.6973 104.334 88.1457 106.087 86.4608 106.978C84.9849 107.758 83.8398 107.091 83.8398 107.091" stroke="black" stroke-width="0.766163" stroke-miterlimit="10" stroke-linecap="round"/>
<path d="M76.9434 110.704L78.6763 109.012" stroke="black" stroke-width="0.766163" stroke-miterlimit="10" stroke-linecap="round"/>
<path d="M63.9204 103.262L57.5703 109.011C57.5703 109.011 61.2012 111.584 63.5652 113.761C64.1036 114.257 64.9276 113.787 66.3206 113.915C67.0979 113.986 67.4942 114.184 67.832 114.241C68.1468 114.293 69.0969 114.116 69.2397 114.267" stroke="black" stroke-width="0.766163" stroke-miterlimit="10" stroke-linecap="round"/>
<path d="M61.9025 112.322C61.9025 112.322 60.6822 111.946 59.5106 112.768C57.8543 113.931 57.7422 115.927 57.7422 115.927" stroke="black" stroke-width="0.766163" stroke-miterlimit="10" stroke-linecap="round"/>
<path d="M68.8179 119.057C68.8179 119.057 68.2217 118.125 67.3121 117.567C67.0467 117.404 66.1816 117.009 66.1816 117.009" stroke="black" stroke-width="0.766163" stroke-miterlimit="10" stroke-linecap="round"/>
<path d="M70.1892 118.49C70.1892 118.49 69.5477 117.303 68.4577 116.589C67.7528 116.127 67.0918 116.01 67.0918 116.01" stroke="black" stroke-width="0.766163" stroke-miterlimit="10" stroke-linecap="round"/>
<path d="M70.2983 116.126C69.0063 115.174 67.9727 115.202 67.9727 115.202" stroke="black" stroke-width="0.766163" stroke-miterlimit="10" stroke-linecap="round"/>
<path d="M76.1293 92.1974C76.1293 92.1974 75.9329 92.0483 75.5686 92.0177C75.2719 91.9926 74.6938 92.1974 74.248 92.6989" stroke="black" stroke-width="0.766163" stroke-miterlimit="10" stroke-linecap="round"/>
<path d="M80.5287 92.3531C80.5287 92.3531 80.2626 92.1922 80.0272 92.1984C79.5766 92.2103 79.3711 92.4958 79.3711 92.4958" stroke="black" stroke-width="0.766163" stroke-miterlimit="10" stroke-linecap="round"/>
<path d="M78.2916 100.22C76.6868 100.328 75.0215 98.4401 75.0215 98.4401C75.0215 98.4401 75.6219 98.1468 76.092 97.9219" stroke="black" stroke-width="0.766163" stroke-miterlimit="10" stroke-linecap="round"/>
<path d="M78.7461 94.4434C78.7461 94.4434 79.8737 95.8712 79.5234 96.6193C79.0574 97.6139 77.6895 96.9612 77.6895 96.9612" stroke="black" stroke-width="0.766163" stroke-miterlimit="10" stroke-linecap="round"/>
<path d="M75.9229 112.088C75.9229 112.088 82.6868 115.28 83.0287 115.756C83.26 116.077 83.2704 117.649 83.2077 117.721C83.2077 117.721 81.5006 117.925 80.1208 118.374C78.351 118.949 75.6429 121.451 75.6429 121.451C75.6429 121.451 72.3122 121.698 71.2758 122.075C69.9294 122.564 66.4051 125.094 66.4051 125.094L58.3144 120.585C58.3144 120.585 59.4121 119.395 59.8231 119.055C60.3092 118.652 61.9035 117.609 61.9035 117.609C61.9035 117.609 57.9975 116.484 55.2588 114.57C53.7495 113.516 50.5177 111.289 50.4884 108.763C50.4591 106.253 55.8717 101.315 55.8717 101.315" stroke="black" stroke-width="0.766163" stroke-miterlimit="10" stroke-linecap="round"/>
<path d="M82.2367 116.508C82.2367 116.508 79.7676 116.607 78.8482 117.009C77.839 117.45 75.1504 119.732 75.1504 119.732C75.1504 119.732 72.0753 119.78 71.1768 120.079C69.8103 120.533 66.1821 123.274 66.1821 123.274L59.084 119.773" stroke="black" stroke-width="0.766163" stroke-miterlimit="10" stroke-linecap="round"/>
<path d="M75.1504 119.732L71.2715 117.601" stroke="black" stroke-width="0.766163" stroke-miterlimit="10" stroke-linecap="round"/>
<path d="M77.5297 115.202C75.149 115.299 74.7812 116.666 74.7812 116.666" stroke="black" stroke-width="0.766163" stroke-miterlimit="10" stroke-linecap="round"/>
<path d="M79.6695 113.904C77.9832 113.335 73.8717 113.213 72.0176 116.197" stroke="black" stroke-width="0.766163" stroke-miterlimit="10" stroke-linecap="round"/>
<path d="M86.4287 110.962C86.4287 110.962 84.9548 108.655 83.839 107.092C82.8751 105.741 80.5654 103.281 78.9885 102.768C78.2739 102.535 77.2633 102.709 76.8809 102.905C76.6134 103.042 76.2206 103.54 76.098 103.814C75.7302 104.637 74.1986 105.485 73.2994 105.414C72.1766 105.327 70.3949 104.127 69.6817 102.046C69.4428 101.35 69.6894 99.065 69.6894 99.065C68.2002 97.1203 66.5655 96.6209 64.5895 96.5972C59.9661 96.5415 56.7357 101.063 55.055 101.864C54.7297 102.018 53.4655 102.45 52.8763 102.654C50.8264 103.364 50.4865 104.08 49.6438 104.128C48.84 104.174 48.5684 106.22 48.4757 107.019C48.2201 109.221 49.3624 113.309 50.4378 115.247C51.165 116.557 53.2392 118.975 54.6935 119.337C56.5504 119.799 59.8727 117.63 61.7861 117.611C62.8677 117.6 64.001 117.869 65.6016 118.69C66.2681 119.032 67.8165 120.523 68.4447 119.95C68.8661 119.566 68.6376 119.196 68.8779 118.989C69.2673 118.653 69.392 119.673 69.9945 119.13C70.28 118.873 70.023 118.558 70.1888 118.491C70.411 118.402 70.6944 118.74 71.1096 118.425C71.6354 118.025 71.081 117.141 70.9138 116.897C70.5447 116.359 70.2487 116.111 69.8252 115.551C69.7911 115.505 70.0502 115.246 69.8705 114.961C69.3704 114.167 68.7547 114.383 69.098 114.118C70.9229 112.712 74.1359 112.065 75.6028 112.145C76.4462 112.191 76.3007 111.035 77.2904 110.503C77.5453 110.366 78.976 110.665 79.4447 110.799C82.4718 111.669 85.5295 114.507 90.5311 112.958C91.5034 112.657 92.9243 111.562 92.3413 109.153C91.7019 106.511 86.6801 102.464 85.115 101.451C84.211 100.866 86.056 100.959 85.161 97.4316C84.9207 96.4851 83.8153 94.4199 82.8493 94.562C82.1068 94.6714 82.1987 96.5457 82.205 96.7463C82.221 97.2617 82.306 94.8448 82.0936 92.7497C82.0093 91.9222 81.817 90.8496 81.817 90.8496" stroke="black" stroke-width="0.766163" stroke-miterlimit="10" stroke-linecap="round"/>
<path d="M49.3259 104.309C49.3259 104.309 49.2311 103.81 48.4392 103.651C46.6812 103.299 42.8288 104.875 41.261 105.746C32.8123 110.438 32.4271 115.311 31.3531 115.285C30.1899 115.258 26.9818 114.427 25.7211 114.983C24.8449 115.37 23.7827 116.297 23.4198 117.534C22.8682 119.412 24.3636 120.97 23.5689 120.679C22.6028 120.326 20.656 122.386 20.5857 123.604C20.4777 125.482 21.3038 127.063 22.2246 127.132C23.6782 127.24 26.9065 126.925 28.1129 127.222C32.6535 128.338 36.1911 130.155 39.9257 129.595C44.0435 128.976 49.5822 122.166 52.3097 120.588C53.0661 120.15 55.2971 119.702 55.9365 119.75C56.1573 119.767 54.6939 119.336 54.6939 119.336C54.6939 119.336 50.884 117.885 49.3259 112.626C47.4571 106.319 49.3259 104.308 49.3259 104.308V104.309Z" fill="black"/>
<path d="M45.3837 114.639C40.7909 119.105 40.9797 121.772 38.5419 122.573C35.4933 123.573 24.5984 123.801 23.4199 120.634" stroke="white" stroke-width="0.766163" stroke-miterlimit="10" stroke-linecap="round"/>
<path d="M82.0521 91.6266C81.8083 91.5165 80.5887 90.8479 79.3719 89.8895C78.325 89.0655 77.3276 87.7094 77.0337 87.7637C76.5921 87.8452 76.4068 89.14 75.1886 90.3199C74.0129 91.4587 73.1646 91.5681 72.7815 92.1977C72.1316 93.2655 72.6464 95.963 71.8523 95.4901C71.0625 95.02 71.0702 94.0393 69.992 94.063C69.0795 94.0825 68.8392 94.8988 68.9179 95.4469C69.0078 96.0717 69.4717 96.9681 70.4572 97.074C71.3272 97.1673 71.7506 97.1332 71.8586 97.1297C72.4994 97.1088 72.4806 97.6974 71.7597 97.8617C71.2359 97.9808 70.7964 97.8464 70.5715 98.0714C70.1744 98.4684 70.0748 98.9016 70.0449 99.4721L67.1585 97.1638L64.0027 96.3907C63.6948 95.6315 64.7444 94.0846 65.326 93.5071C65.7202 93.1157 66.4397 92.9882 66.6668 92.2151C66.7483 91.9372 66.4007 88.7667 67.6788 87.4691C69.393 85.7299 70.3897 86.3421 71.1273 85.9528C72.0125 85.4861 72.5718 83.9162 74.6732 83.967C76.1352 84.0019 76.2028 84.4219 76.9452 84.5598C77.5951 84.6803 78.7506 84.3438 79.8469 84.9937C81.2469 85.8239 81.2183 86.9739 81.7686 87.4983C82.6378 88.3265 84.3687 88.5786 84.5087 89.9584C84.6988 91.8334 82.6587 91.0777 82.8287 92.3461C82.9429 93.1965 84.4766 92.9179 85.809 93.9738C86.8754 94.8194 87.1122 95.6566 86.7591 96.6185C86.5564 97.1701 85.9776 97.5156 85.5506 97.5316C84.4439 97.5727 85.0694 95.2213 82.9304 94.4983C82.8064 94.4565 82.2318 94.2503 82.1391 94.1584C81.6892 93.7126 82.6288 91.8885 82.0521 91.6266Z" fill="black"/>
<path d="M75.6596 94.9263C75.9193 94.9263 76.1297 94.5852 76.1297 94.1643C76.1297 93.7435 75.9193 93.4023 75.6596 93.4023C75.3999 93.4023 75.1895 93.7435 75.1895 94.1643C75.1895 94.5852 75.3999 94.9263 75.6596 94.9263Z" fill="black"/>
<path d="M80.0658 94.9263C80.3255 94.9263 80.536 94.5852 80.536 94.1643C80.536 93.7435 80.3255 93.4023 80.0658 93.4023C79.8062 93.4023 79.5957 93.7435 79.5957 94.1643C79.5957 94.5852 79.8062 94.9263 80.0658 94.9263Z" fill="black"/>
<path d="M16.5156 123.613C16.9461 124.165 17.8467 124.288 18.5425 124.042C19.2383 123.796 20.4133 121.952 22.3837 121.537" fill="white"/>
<path d="M16.5156 123.613C16.9461 124.165 17.8467 124.288 18.5425 124.042C19.2383 123.796 20.4133 121.952 22.3837 121.537" stroke="black" stroke-width="0.766163" stroke-miterlimit="10" stroke-linecap="round"/>
<path d="M82.3399 95.9797C82.3329 95.9637 83.3108 96.8455 83.423 97.9202" stroke="black" stroke-width="0.766163" stroke-miterlimit="10" stroke-linecap="round"/>
<path d="M66.853 157.899C67.0752 158.156 67.4123 160.341 64.1164 161.44C60.5203 162.64 55.9958 165.477 54.9984 165.891C53.5587 166.489 52.7869 166.379 51.35 166.221C48.5083 165.909 43.9141 161.843 43.9141 161.843" stroke="black" stroke-width="0.766163" stroke-miterlimit="10" stroke-linecap="round"/>
</g>
<defs>
<clipPath id="clip0_9806_122885">
<rect width="356.905" height="205.002" fill="white"/>
</clipPath>
</defs>
</svg>
