<svg width="419" height="172" viewBox="0 0 419 172" fill="none" xmlns="http://www.w3.org/2000/svg">
<g clip-path="url(#clip0_9548_241872)">
<path d="M270.603 46.1826C262.154 46.1826 256.454 46.2769 248.004 46.25C238.396 46.223 238.396 47.5976 238.409 57.0847C238.409 75.8972 238.369 93.3082 238.477 112.107C238.49 115.058 237.965 117.471 234.771 117.861C231.307 118.279 229.879 115.638 229.38 112.808C228.936 110.288 229.084 107.647 229.084 105.059C229.057 87.2844 228.855 71.1806 229.178 53.4192C229.259 48.5813 228.545 46.2634 223.303 46.1556C216.322 46.0209 208.007 46.1691 203.641 46.2634C199.005 46.3578 194.437 46.6677 192.079 48.5544C190.071 50.158 188.373 52.0581 188.346 56.7612C188.211 77.7164 187.483 101.892 189.761 122.335C192.402 145.986 211.552 152.778 228.612 144.76C233.154 142.617 237.83 139.032 241.347 136.216C241.468 137.766 241.428 138.668 241.468 139.571C241.724 144.544 242.708 145.541 247.438 145.339C256.225 144.962 265.038 145.07 273.824 145.299C277.53 145.393 278.46 144.072 278.446 140.555C278.325 110.706 278.271 82.716 278.446 52.8667C278.473 48.743 277.705 46.1826 270.59 46.1826H270.603Z" fill="#070404"/>
<path d="M182.576 67.1246C181.714 44.7814 160.408 39.1754 143.832 45.9134C139.183 47.8 134.426 51.8159 131.367 55.9799C131.408 54.3763 131.421 52.7188 131.448 51.3442C131.542 46.0212 128.901 45.5495 124.158 45.3339C115.641 44.9431 107.757 44.9431 98.607 45.3743C94.9011 45.5495 93.9713 46.6006 93.9847 50.1179C94.106 79.9672 94.1599 109.817 93.9847 139.666C93.9578 143.79 95.4401 144.585 99.0787 144.49C107.528 144.288 115.991 144.396 124.44 144.423C130.846 144.441 134.044 141.297 134.035 134.99C134.035 116.177 134.076 97.3782 133.968 78.5657C133.955 75.6145 134.48 73.2023 137.674 72.8115C141.137 72.3937 142.566 75.035 143.064 77.8515C143.509 80.3715 143.361 83.0128 143.361 85.6002C143.388 103.375 143.59 121.15 143.266 138.911C143.186 143.749 144.816 144.436 149.142 144.45C156.406 144.477 165.017 144.45 171.566 144.45C178.115 144.45 182.185 145.164 182.468 140.609C183.102 130.516 183.021 119.048 183.021 114.345C183.021 104.925 183.438 89.6161 182.576 67.1246Z" fill="#070404"/>
<path d="M47.0202 80.3843C50.5779 81.3411 56.6825 82.5135 61.3856 83.9151C68.8783 86.1386 74.6864 88.0657 80.3733 91.9602C88.0681 97.2159 92.0031 106.407 92.0031 114.196C92.0031 121.365 89.1058 129.262 84.2274 134.908C81.8961 137.617 78.6888 140.932 70.6302 144.355C63.717 147.306 57.6528 148.357 48.3813 148.357C39.1098 148.357 30.4043 146.875 23.3833 143.964C16.2949 141.026 10.6619 136.835 6.61914 131.526C3.41185 127.308 1.21525 122.416 0.096745 117.012C-0.199727 115.557 0.191074 114.074 1.1883 112.942C2.14509 111.837 3.56008 111.217 5.04244 111.217H31.3476C33.4229 111.217 35.0131 112.619 36.0372 114.357C37.0884 116.136 37.6948 117.214 39.4062 118.441C41.6837 120.058 44.1633 120.88 47.8287 120.88C49.9445 120.88 51.0091 120.705 51.9659 120.381C53.556 119.842 54.2972 119.33 55.1193 118.454C55.8874 117.645 56.4804 116.163 56.4804 114.991C56.4804 113.36 55.7931 112.242 54.8228 111.581C53.0305 110.355 50.5913 109.668 46.9932 108.953C43.2334 108.212 36.1585 106.811 31.9675 105.962C23.1003 104.156 14.3948 100.491 9.32781 95.2484C4.2204 89.9658 1.67344 84.1711 1.72734 75.8833C1.72734 67.9325 4.63816 61.7605 7.79154 57.3269C11.4301 52.206 16.8744 48.1228 23.6932 45.4545C29.7979 43.0693 36.6167 41.5195 47.0876 41.5195C57.5584 41.5195 65.5497 44.4977 72.2877 48.015C77.9611 50.9797 83.0281 55.8176 85.8041 59.6717C89.1462 64.3075 90.9654 68.8623 91.4641 74.3875C91.5853 75.789 91.6393 77.5813 90.6555 78.6325C89.6987 79.6566 88.6071 79.8588 85.8311 79.8588H64.9029C60.5097 79.8588 59.0138 78.6998 58.3131 76.6111C57.518 74.2393 56.8442 72.9052 54.6207 71.0455C53.044 69.7248 50.524 68.6063 47.9366 68.5389C46.0499 68.4985 44.4867 68.5389 42.91 69.0375C41.4411 69.4822 40.2822 70.1695 39.4602 71.0724C38.692 71.9214 37.9643 73.8485 38.5842 75.6408C39.7027 78.875 44.1768 79.6432 47.0202 80.4248V80.3843Z" fill="#070404"/>
<path d="M353.048 29.2429C354.558 25.8874 354.638 23.1248 353.439 21.0899C352.536 19.5537 350.838 18.9203 347.537 18.4891C345.798 18.26 344.289 18.1387 339.613 18.1387C335.934 18.1387 330.988 18.2465 327.686 18.4486C325.382 18.5969 323.873 18.8529 323.064 19.6615C321.474 21.2382 321.029 23.4886 321.258 26.4129C321.393 28.1244 321.393 29.3103 321.461 30.3614C321.582 32.3424 321.717 33.2453 321.285 35.8327C320.719 39.2825 315.504 42.0047 312.149 42.7593C301.813 45.1042 294.401 49.4569 289.509 56.0601C282.663 65.2912 281.073 74.6975 284.631 84.8045C285.87 88.3352 287.595 91.4481 289.913 94.305C291.166 95.8683 291.692 97.8627 291.342 99.7898C291.032 101.528 289.994 102.876 288.566 103.819C284.927 106.272 283.66 107.835 283.148 111.986C282.394 117.942 285.587 120.165 288.054 121.823C289.307 122.659 290.385 123.373 290.695 124.343C291.301 126.203 290.614 128.184 289.711 129.235C283.687 136.256 281.477 144.584 283.66 152.09C285.87 159.691 293.147 165.512 301.408 168.41C309.278 171.172 319.493 171.994 326.837 171.994C332.497 171.994 338.535 171.698 345.017 170.674C353.143 169.393 361.619 165.472 366.228 160.728C371.726 155.082 375.472 144.597 373.262 135.703C371.362 128.062 365.999 122.47 358.156 119.936C355.353 119.02 352.428 118.414 349.518 117.794C344.168 116.662 338.723 116.689 333.481 116.702C330.719 116.702 327.862 116.716 325.086 116.554C321.744 116.365 320.665 115.597 320.652 113.427C320.625 111.217 321.69 110.463 325.018 110.315L327.215 110.22C331.77 110.032 336.486 109.856 341.136 109.129C356.7 106.703 368.438 95.5987 370.338 81.4894C372.602 64.6444 365.217 51.384 350.124 45.0098C348.628 44.3765 348.022 43.9048 347.847 42.9345C347.55 41.3848 348.305 40.0911 348.763 38.9861C349.989 36.0618 351.984 31.6686 353.075 29.2294L353.048 29.2429ZM330.772 75.0074V75.0613C330.799 78.6325 330.746 81.5972 329.816 84.4137C329.209 86.2599 328.293 86.5159 327.471 86.5159C325.894 86.4081 325.355 85.4648 325.139 84.5619C323.698 78.6459 323.671 72.703 325.059 66.8949C325.571 64.7522 326.784 64.6983 327.242 64.6713C327.309 64.6713 327.377 64.6713 327.444 64.6713C328.36 64.6713 329.331 65.0082 329.923 66.9218C330.813 69.8057 330.826 72.9186 330.759 74.9939L330.772 75.0074ZM330.921 139.045C335.287 139.288 337.025 140.986 337.052 143.263C337.079 145.999 334.964 147.724 331.851 147.926C329.897 148.061 327.35 148.088 325.396 147.953C321.043 147.67 319.803 145.123 319.803 143.492C319.803 141.417 321.461 139.288 325.032 139.072C326.959 138.951 328.994 138.938 330.921 139.045Z" fill="#070404"/>
<path d="M414.794 115.652C410.9 110.679 405.172 108.725 399.755 108.415C393.313 108.051 386.858 110.14 382.384 116.002C379.662 119.573 379.002 123.4 378.867 127.928C378.867 140.07 389.742 144.733 396.871 145.204C399.93 145.407 400.496 145.191 402.046 145.07C402.046 145.07 399.108 147.347 396.615 149.086C395.699 149.719 394.809 150.797 395.739 152.333C396.332 153.33 397.639 155.244 398.259 156.214C398.906 157.198 400.564 157.319 401.992 156.026C405.887 152.481 408.137 150.11 411.034 146.768C414.282 143.021 416.883 139.423 418.352 132.672C419.376 127.996 419.443 121.581 414.781 115.638L414.794 115.652Z" fill="#F47820"/>
<path d="M52.8159 2.27734H44.7168V31.5877H52.8159V2.27734Z" fill="#010101"/>
<path d="M62.8003 10.7002H54.7012V31.588H62.8003V10.7002Z" fill="#010101"/>
<path d="M56.4398 8.32817C57.1405 8.71898 57.9086 8.92112 58.7441 8.92112C59.5797 8.92112 60.3882 8.73245 61.089 8.32817C61.7897 7.93737 62.3422 7.39832 62.7331 6.72452C63.1239 6.05072 63.326 5.29607 63.326 4.46055C63.326 3.62504 63.1239 2.85691 62.7331 2.16964C62.3422 1.48236 61.7897 0.943318 61.089 0.56599C60.3882 0.188662 59.6066 0 58.7441 0C57.8817 0 57.1405 0.188662 56.4398 0.56599C55.739 0.943318 55.1865 1.48236 54.7822 2.16964C54.3779 2.85691 54.1758 3.62504 54.1758 4.46055C54.1758 5.29607 54.3779 6.05072 54.7822 6.72452C55.1865 7.39832 55.739 7.93737 56.4398 8.32817Z" fill="#010101"/>
<path d="M80.1841 10.7002L75.9796 22.5591H75.8178L71.5998 10.7002H63.1504L71.802 31.588H72.7857H79.0117H79.9819L88.647 10.7002H80.1841Z" fill="#010101"/>
<path d="M103.995 11.5083C102.311 10.592 100.37 10.1338 98.187 10.1338C96.0039 10.1338 94.0364 10.592 92.298 11.5083C90.5596 12.4247 89.1985 13.7184 88.2148 15.3894C87.231 17.0604 86.7324 18.974 86.7324 21.1437C86.7324 23.3133 87.2176 25.2539 88.1878 26.9114C89.1581 28.569 90.5327 29.8627 92.298 30.779C94.0634 31.6954 96.1387 32.1536 98.5105 32.1536C100.882 32.1536 102.931 31.6819 104.642 30.7386C106.353 29.7953 107.661 28.4746 108.55 26.7767L101.462 24.3914C101.219 24.9035 100.842 25.3078 100.343 25.5908C99.8446 25.8738 99.2247 26.022 98.497 26.022C97.7693 26.022 97.109 25.8872 96.5295 25.5908C95.95 25.3078 95.4918 24.9035 95.1549 24.3779C94.9258 24.0141 94.7911 23.6098 94.7237 23.1786H109.143C109.251 22.4778 109.305 21.804 109.305 21.1572C109.305 18.974 108.833 17.047 107.903 15.3894C106.973 13.7319 105.666 12.4382 103.982 11.5218L103.995 11.5083ZM96.3812 16.6696C96.9068 16.4136 97.5132 16.2788 98.187 16.2788C98.8608 16.2788 99.4403 16.4001 99.912 16.6427C100.384 16.8853 100.747 17.2087 101.004 17.613C101.219 17.9633 101.327 18.3541 101.367 18.7854H94.7506C94.818 18.4081 94.9258 18.0442 95.1415 17.7343C95.4514 17.2761 95.8692 16.9122 96.3947 16.6562L96.3812 16.6696Z" fill="#010101"/>
<path d="M125.396 2.27734H117.297V31.5877H125.396V2.27734Z" fill="#010101"/>
<path d="M135.382 10.6992H127.283V31.587H135.382V10.6992Z" fill="#010101"/>
<path d="M133.687 0.579662C132.986 0.202333 132.204 0.0136719 131.342 0.0136719C130.479 0.0136719 129.738 0.202333 129.037 0.579662C128.337 0.95699 127.784 1.49603 127.38 2.18331C126.976 2.87059 126.773 3.63871 126.773 4.47423C126.773 5.30974 126.976 6.06439 127.38 6.7382C127.784 7.412 128.337 7.95104 129.037 8.34184C129.738 8.73265 130.506 8.93479 131.342 8.93479C132.177 8.93479 132.986 8.74612 133.687 8.34184C134.387 7.95104 134.94 7.412 135.331 6.7382C135.721 6.06439 135.924 5.30974 135.924 4.47423C135.924 3.63871 135.721 2.87059 135.331 2.18331C134.94 1.49603 134.387 0.95699 133.687 0.579662Z" fill="#010101"/>
<path d="M159.815 10.6998H150.746L145.53 18.6776H145.369V2.27734H137.27V31.5877H145.369V22.8417H145.517L151.069 31.5877H159.896L152.821 20.7395L159.815 10.6998Z" fill="#010101"/>
<path d="M175.405 11.5083C173.721 10.592 171.78 10.1338 169.597 10.1338C167.414 10.1338 165.447 10.592 163.708 11.5083C161.97 12.4247 160.609 13.7184 159.625 15.3894C158.641 17.0604 158.143 18.974 158.143 21.1437C158.143 23.3133 158.628 25.2539 159.598 26.9114C160.568 28.569 161.943 29.8627 163.708 30.779C165.474 31.6954 167.549 32.1536 169.921 32.1536C172.292 32.1536 174.341 31.6819 176.052 30.7386C177.764 29.7953 179.071 28.4746 179.96 26.7767L172.872 24.3914C172.629 24.9035 172.252 25.3078 171.753 25.5908C171.255 25.8738 170.635 26.022 169.907 26.022C169.179 26.022 168.519 25.8872 167.94 25.5908C167.36 25.3078 166.902 24.9035 166.565 24.3779C166.336 24.0141 166.215 23.6098 166.134 23.1786H180.553C180.661 22.4778 180.715 21.804 180.715 21.1572C180.715 18.974 180.243 17.047 179.313 15.3894C178.384 13.7319 177.076 12.4382 175.392 11.5218L175.405 11.5083ZM167.791 16.6696C168.317 16.4136 168.923 16.2788 169.597 16.2788C170.271 16.2788 170.85 16.4001 171.322 16.6427C171.794 16.8853 172.158 17.2087 172.414 17.613C172.629 17.9633 172.737 18.3541 172.778 18.7854H166.161C166.228 18.4081 166.336 18.0442 166.552 17.7343C166.862 17.2761 167.279 16.9122 167.805 16.6562L167.791 16.6696Z" fill="#010101"/>
<path d="M202.883 13.1262H202.694C202.236 12.3446 201.697 11.6978 201.05 11.2396C199.999 10.4984 198.692 10.1211 197.129 10.1211C195.296 10.1211 193.652 10.6062 192.183 11.563C190.728 12.5198 189.596 13.8405 188.787 15.5115C187.978 17.1825 187.574 19.0557 187.574 21.1445C187.574 23.2332 187.978 25.1064 188.787 26.7774C189.596 28.4485 190.728 29.7691 192.183 30.7259C193.638 31.6827 195.282 32.1678 197.129 32.1678C198.692 32.1678 199.999 31.7905 201.05 31.0358C201.684 30.5777 202.223 29.9443 202.667 29.1762H202.869V31.6018H210.969V10.714H202.869V13.1397L202.883 13.1262ZM201.266 24.3922C200.7 24.7156 200.066 24.8773 199.366 24.8773C198.665 24.8773 198.032 24.7156 197.479 24.3922C196.927 24.0688 196.482 23.624 196.158 23.0581C195.835 22.4921 195.673 21.8587 195.673 21.1579C195.673 20.4572 195.835 19.7834 196.158 19.2174C196.482 18.6514 196.927 18.2067 197.479 17.8967C198.032 17.5868 198.665 17.4251 199.366 17.4251C200.066 17.4251 200.7 17.5733 201.266 17.8967C201.832 18.2067 202.277 18.6514 202.586 19.2174C202.896 19.7834 203.058 20.4302 203.058 21.1579C203.058 21.8856 202.896 22.4921 202.586 23.0581C202.277 23.624 201.832 24.0688 201.266 24.3922Z" fill="#010101"/>
<path d="M228.193 2.27734H220.094V31.5877H228.193V2.27734Z" fill="#010101"/>
<path d="M264.807 24.2838C264.187 24.6746 263.459 24.8767 262.624 24.8767C261.896 24.8767 261.236 24.715 260.656 24.3916C260.077 24.0682 259.619 23.6235 259.282 23.0575C258.945 22.4915 258.77 21.8581 258.77 21.1574C258.77 20.4566 258.945 19.7828 259.282 19.2168C259.619 18.6508 260.077 18.2061 260.656 17.8962C261.236 17.5862 261.896 17.4245 262.624 17.4245C263.459 17.4245 264.187 17.6132 264.807 18.0175C265.427 18.4083 265.872 18.9473 266.141 19.6211L273.351 17.1954C272.839 15.7939 272.057 14.5541 271.006 13.4895C269.955 12.4249 268.715 11.6029 267.286 11.0234C265.858 10.4439 264.308 10.1475 262.624 10.1475C260.522 10.1475 258.594 10.6326 256.829 11.5894C255.077 12.5462 253.689 13.8668 252.679 15.5513C252.005 16.6698 251.587 17.8692 251.358 19.1494C251.142 17.8557 250.724 16.6429 250.064 15.5379C249.08 13.8668 247.733 12.5462 246.021 11.5894C244.31 10.6326 242.383 10.1475 240.254 10.1475C238.124 10.1475 236.238 10.6326 234.499 11.5894C232.774 12.5462 231.413 13.8668 230.43 15.5379C229.446 17.2089 228.947 19.0821 228.947 21.1708C228.947 23.2596 229.446 25.0924 230.43 26.7769C231.413 28.4614 232.774 29.782 234.499 30.7388C236.224 31.6956 238.138 32.1807 240.254 32.1807C242.369 32.1807 244.31 31.6956 246.021 30.7388C247.733 29.782 249.08 28.4614 250.064 26.7769C250.724 25.6583 251.129 24.4455 251.358 23.1653C251.587 24.4455 252.005 25.6449 252.679 26.7499C253.689 28.4209 255.077 29.7416 256.829 30.7118C258.581 31.6821 260.508 32.1673 262.624 32.1673C264.295 32.1673 265.845 31.8708 267.286 31.2778C268.715 30.6849 269.955 29.8494 271.006 28.7848C272.057 27.7202 272.839 26.4939 273.351 25.1193L266.141 22.6936C265.872 23.3674 265.427 23.9065 264.807 24.2973V24.2838ZM243.461 23.044C243.151 23.61 242.706 24.0547 242.14 24.3781C241.574 24.7016 240.941 24.8633 240.24 24.8633C239.539 24.8633 238.906 24.7016 238.354 24.3781C237.801 24.0547 237.356 23.61 237.033 23.044C236.709 22.478 236.548 21.8446 236.548 21.1439C236.548 20.4431 236.709 19.7693 237.033 19.2033C237.356 18.6373 237.801 18.1926 238.354 17.8827C238.906 17.5727 239.539 17.411 240.24 17.411C240.941 17.411 241.574 17.5593 242.14 17.8827C242.706 18.1926 243.151 18.6373 243.461 19.2033C243.771 19.7693 243.933 20.4162 243.933 21.1439C243.933 21.8716 243.771 22.478 243.461 23.044Z" fill="#010101"/>
<path d="M288.27 13.1253H288.095C287.637 12.3437 287.097 11.6968 286.451 11.2386C285.399 10.4974 284.092 10.1201 282.529 10.1201C280.696 10.1201 279.052 10.6053 277.583 11.562C276.128 12.5188 274.996 13.8395 274.187 15.5105C273.379 17.1815 272.975 19.0547 272.975 21.1435C272.975 23.2323 273.379 25.1054 274.187 26.7765C274.996 28.4475 276.128 29.7681 277.583 30.7249C279.039 31.6817 280.683 32.1669 282.529 32.1669C284.092 32.1669 285.399 31.7895 286.451 31.0349C287.084 30.5767 287.623 29.9433 288.068 29.1752H288.27V31.6009H296.369V10.7131H288.27V13.1387V13.1253ZM286.653 24.3912C286.087 24.7146 285.453 24.8763 284.753 24.8763C284.052 24.8763 283.419 24.7146 282.866 24.3912C282.313 24.0678 281.869 23.6231 281.545 23.0571C281.222 22.4911 281.06 21.8577 281.06 21.157C281.06 20.4562 281.222 19.7824 281.545 19.2164C281.869 18.6504 282.313 18.2057 282.866 17.8958C283.419 17.5858 284.052 17.4241 284.753 17.4241C285.453 17.4241 286.087 17.5723 286.653 17.8958C287.219 18.2057 287.663 18.6504 287.973 19.2164C288.283 19.7824 288.445 20.4293 288.445 21.157C288.445 21.8847 288.283 22.4911 287.973 23.0571C287.663 23.6231 287.219 24.0678 286.653 24.3912Z" fill="#010101"/>
<path d="M306.353 2.27734H298.254V31.5877H306.353V2.27734Z" fill="#010101"/>
</g>
<defs>
<clipPath id="clip0_9548_241872">
<rect width="418.918" height="171.994" fill="white"/>
</clipPath>
</defs>
</svg>
