<svg preserveAspectRatio="none" width="100%" height="100%" overflow="visible" style="display: block;" viewBox="0 0 295.997 47.998" fill="none" xmlns="http://www.w3.org/2000/svg">
<g id="logo_aboutsnug" clip-path="url(#clip0_0_4)">
<g id="Group">
<path id="Vector" d="M251.806 11.2179C249.318 11.2179 247.641 11.2436 245.153 11.2377C242.321 11.2298 242.325 11.6337 242.327 14.4035C242.331 19.9016 242.315 24.9899 242.347 30.488C242.351 31.3492 242.197 32.056 241.256 32.1709C240.237 32.2936 239.815 31.5215 239.669 30.6959C239.538 29.9593 239.583 29.1892 239.581 28.4329C239.573 23.2377 239.516 18.5276 239.609 13.3344C239.635 11.9207 239.424 11.2436 237.879 11.2119C235.823 11.1704 233.376 11.2159 232.09 11.2436C230.726 11.2713 229.378 11.3624 228.686 11.9128C228.094 12.384 227.596 12.9364 227.586 14.3104C227.546 20.4381 227.33 27.5063 228.004 33.4796C228.784 40.3913 234.419 42.3791 239.444 40.0329C240.782 39.4093 242.158 38.3599 243.194 37.5363C243.228 37.9897 243.216 38.253 243.23 38.5163C243.304 39.9696 243.595 40.2626 244.989 40.2032C247.575 40.0943 250.169 40.122 252.76 40.1913C253.85 40.221 254.125 39.833 254.121 38.8034C254.085 30.0781 254.072 21.8933 254.121 13.1681C254.129 11.9643 253.904 11.2159 251.808 11.2159L251.806 11.2179Z" fill="var(--fill-0, #FF7900)"/>
<path id="Vector_2" d="M225.888 17.3397C225.633 10.8081 219.362 9.17078 214.482 11.1388C213.112 11.6912 211.715 12.8632 210.813 14.0809C210.823 13.6136 210.829 13.1266 210.837 12.7266C210.865 11.1724 210.086 11.0319 208.692 10.9685C206.183 10.8537 203.862 10.8537 201.169 10.9804C200.08 11.0319 199.803 11.3387 199.807 12.3683C199.843 21.0936 199.857 29.8188 199.807 38.5441C199.799 39.7479 200.233 39.9796 201.306 39.9538C203.793 39.8924 206.283 39.9281 208.772 39.934C210.659 39.9393 211.601 39.02 211.597 37.1761C211.593 31.678 211.609 26.1798 211.577 20.6837C211.573 19.8225 211.727 19.1157 212.668 19.0028C213.687 18.8801 214.109 19.6522 214.255 20.4778C214.387 21.2143 214.341 21.9865 214.343 22.7408C214.351 27.936 214.409 33.1312 214.315 38.3244C214.289 39.738 214.771 39.938 216.046 39.9439C218.183 39.9518 220.719 39.9439 222.65 39.9439C224.58 39.9439 225.776 40.1538 225.86 38.8213C226.045 35.8733 226.021 32.5194 226.021 31.1434C226.021 28.3894 226.147 23.9149 225.89 17.3377L225.888 17.3397Z" fill="var(--fill-0, #FF7900)"/>
<path id="Vector_3" d="M185.983 21.2182C187.03 21.4994 188.829 21.8419 190.212 22.2497C192.42 22.9011 194.129 23.4654 195.803 24.5999C198.069 26.1343 199.229 28.8229 199.229 31.1018C199.229 33.1984 198.374 35.505 196.94 37.1562C196.252 37.9481 195.307 38.9163 192.936 39.9181C190.9 40.7813 189.114 41.0902 186.388 41.0902C183.662 41.0902 181.096 40.6586 179.028 39.8053C176.943 38.946 175.282 37.7224 174.091 36.1682C173.146 34.9348 172.5 33.5073 172.171 31.9274C172.083 31.5037 172.201 31.0701 172.494 30.7375C172.777 30.4167 173.192 30.2326 173.631 30.2326H181.375C181.985 30.2326 182.454 30.6424 182.755 31.1493C183.062 31.668 183.241 31.9868 183.746 32.3431C184.418 32.8183 185.148 33.0559 186.224 33.0559C186.849 33.0559 187.16 33.0064 187.443 32.9094C187.911 32.751 188.129 32.6025 188.372 32.3451C188.595 32.1075 188.775 31.6739 188.775 31.3314C188.775 30.8523 188.573 30.5276 188.288 30.3336C187.762 29.9752 187.044 29.7733 185.981 29.5654C184.875 29.3476 182.791 28.9397 181.557 28.6903C178.946 28.1636 176.382 27.0905 174.891 25.5581C173.387 24.0118 172.636 22.319 172.654 19.8977C172.654 17.5733 173.509 15.7696 174.438 14.4728C175.511 12.9741 177.112 11.7822 179.12 11.0041C180.919 10.3072 182.924 9.8518 186.005 9.8518C189.086 9.8518 191.443 10.7229 193.423 11.7525C195.094 12.6197 196.583 14.0333 197.401 15.1579C198.384 16.5101 198.92 17.8426 199.068 19.4601C199.105 19.8699 199.119 20.3926 198.828 20.7015C198.545 21.0005 198.226 21.0598 197.411 21.0598H191.249C189.957 21.0598 189.516 20.7193 189.311 20.1095C189.078 19.4185 188.878 19.0265 188.222 18.4821C187.76 18.098 187.018 17.7693 186.254 17.7495C185.698 17.7356 185.239 17.7495 184.773 17.894C184.34 18.0247 183.999 18.2247 183.758 18.488C183.531 18.7355 183.315 19.2978 183.501 19.8244C183.832 20.7708 185.146 20.9965 185.985 21.2222L185.983 21.2182Z" fill="var(--fill-0, #FF7900)"/>
<path id="Vector_4" d="M276.076 6.26625C276.521 5.28423 276.543 4.47645 276.19 3.88446C275.923 3.43503 275.426 3.25091 274.453 3.12419C273.941 3.05688 273.496 3.02124 272.12 3.02124C271.04 3.02124 269.582 3.05292 268.609 3.11231C267.929 3.15389 267.488 3.23111 267.249 3.46671C266.781 3.92802 266.649 4.58534 266.719 5.44064C266.759 5.93957 266.757 6.28803 266.777 6.59689C266.815 7.17699 266.85 7.44031 266.725 8.19662C266.557 9.20438 265.022 10.0003 264.037 10.224C260.992 10.909 258.813 12.1821 257.371 14.1125C255.357 16.813 254.889 19.5611 255.935 22.5131C256.302 23.5466 256.811 24.4533 257.489 25.2889C257.858 25.7442 258.011 26.3303 257.909 26.8925C257.818 27.3994 257.511 27.7934 257.094 28.0725C256.021 28.7893 255.65 29.2486 255.497 30.4603C255.275 32.2026 256.215 32.8539 256.942 33.335C257.309 33.5786 257.626 33.7884 257.72 34.0716C257.899 34.616 257.694 35.1941 257.429 35.499C255.654 37.5522 255.004 39.9874 255.646 42.1811C256.296 44.4025 258.438 46.1052 260.87 46.9506C263.187 47.7564 266.192 47.998 268.356 47.998C270.023 47.998 271.801 47.9089 273.706 47.6119C276.098 47.2377 278.593 46.0933 279.951 44.7055C281.568 43.0523 282.674 39.9874 282.02 37.3898C281.46 35.1565 279.881 33.5192 277.574 32.7787C276.746 32.5114 275.889 32.3332 275.03 32.1531C273.452 31.8224 271.853 31.8284 270.308 31.8323C269.492 31.8343 268.655 31.8383 267.835 31.7908C266.852 31.7353 266.535 31.5136 266.529 30.876C266.523 30.2286 266.836 30.0069 267.815 29.9673L268.462 29.9415C269.803 29.8881 271.191 29.8327 272.559 29.6208C277.141 28.914 280.597 25.665 281.155 21.539C281.823 16.6131 279.648 12.7404 275.205 10.8754C274.764 10.6913 274.587 10.5527 274.533 10.2695C274.447 9.81616 274.667 9.438 274.804 9.1133C275.165 8.25998 275.751 6.97306 276.072 6.26229L276.076 6.26625ZM269.518 19.6462V19.6621C269.526 20.7054 269.51 21.5707 269.239 22.3963C269.062 22.9348 268.791 23.01 268.551 23.012C268.089 22.9823 267.929 22.7031 267.865 22.4418C267.441 20.7114 267.433 18.9731 267.839 17.2763C267.989 16.6507 268.348 16.6348 268.483 16.6269C268.503 16.6269 268.523 16.6269 268.543 16.6269C268.812 16.6269 269.098 16.7239 269.273 17.2862C269.536 18.1296 269.54 19.0364 269.52 19.6462H269.518ZM269.564 38.3679C270.85 38.4372 271.361 38.9361 271.367 39.6013C271.375 40.3992 270.751 40.9041 269.835 40.9655C269.259 41.0051 268.511 41.013 267.935 40.9754C266.655 40.8922 266.29 40.1498 266.29 39.6706C266.29 39.0648 266.777 38.4431 267.827 38.3778C268.396 38.3421 268.994 38.3382 269.562 38.3679H269.564Z" fill="var(--fill-0, #FF7900)"/>
</g>
<path id="Vector_5" d="M168.488 31.5274C167.342 30.0742 165.657 29.504 164.061 29.4129C162.165 29.306 160.265 29.9158 158.947 31.6304C158.143 32.6738 157.95 33.7944 157.912 35.1169C157.912 38.6668 161.114 40.031 163.214 40.1696C164.115 40.229 164.281 40.1656 164.737 40.128C164.737 40.128 163.872 40.7952 163.136 41.3021C162.865 41.4882 162.604 41.801 162.877 42.2524C163.053 42.5415 163.435 43.1018 163.621 43.3849C163.81 43.6739 164.301 43.7096 164.719 43.3294C165.864 42.294 166.53 41.601 167.383 40.6249C168.341 39.5301 169.106 38.4768 169.539 36.5048C169.838 35.1387 169.858 33.2618 168.488 31.5274Z" fill="var(--fill-0, #FF7900)"/>
<path id="Vector_6" d="M295.934 35.7486C296.157 34.3706 295.792 32.4165 294.867 31.379C293.682 30.0505 292.203 29.4011 290.113 29.4011C286.769 29.4011 284.205 31.6344 284.205 34.5527C284.205 37.4711 286.406 40.1914 289.75 40.1914C293.094 40.1914 295.465 38.6293 295.932 35.7466L295.934 35.7486Z" fill="var(--fill-0, #FF7900)"/>
<g id="Group_2">
<path id="Vector_7" d="M21.8698 34.4161C21.1081 36.6296 20.0034 38.2531 18.5538 39.2846C17.1042 40.3181 15.3036 40.8348 13.1482 40.8348C10.6218 40.8348 8.35666 40.1795 6.35074 38.8708C4.34481 37.5621 2.78353 35.7624 1.6709 33.4757C0.556276 31.1889 -4.04182e-05 28.625 -4.04182e-05 25.7839C-4.04182e-05 22.9427 0.556276 20.3808 1.6709 18.0921C2.78553 15.8053 4.34481 14.0076 6.35074 12.6969C8.35666 11.3882 10.6218 10.7329 13.1482 10.7329C15.3036 10.7329 17.1042 11.2397 18.5538 12.2554C20.0034 13.2691 21.1081 14.8926 21.8698 17.1239C22.6315 19.3552 23.0123 22.2419 23.0123 25.7839L20.1709 14.8292H23.6823V36.7405H20.1709L23.0123 25.7858C23.0123 29.3278 22.6315 32.2046 21.8698 34.4181V34.4161ZM18.833 30.2109C19.6126 29.7674 20.2168 29.1595 20.6435 28.3854C21.0702 27.6113 21.2835 26.7441 21.2835 25.7858C21.2835 24.8276 21.0702 23.905 20.6435 23.1308C20.2168 22.3567 19.6126 21.7568 18.833 21.3331C18.0533 20.9094 17.18 20.6976 16.2149 20.6976C15.2498 20.6976 14.3844 20.9094 13.6227 21.3331C12.861 21.7568 12.2569 22.3567 11.8122 23.1308C11.3656 23.905 11.1442 24.79 11.1442 25.7858C11.1442 26.7817 11.3676 27.6113 11.8122 28.3854C12.2569 29.1595 12.861 29.7693 13.6227 30.2109C14.3844 30.6543 15.2478 30.8741 16.2149 30.8741C17.1819 30.8741 18.0533 30.6524 18.833 30.2109ZM21.0622 40.0587V34.3052L22.3443 25.7839L21.0622 18.2029V11.507H32.2065V40.0568H21.0622V40.0587Z" fill="var(--fill-0, black)"/>
<path id="Vector_8" d="M34.8006 0H45.9449V18.2029L44.6628 25.7839L45.9449 34.3052V40.0587H34.8006V0ZM46.8382 36.7385H43.3268V14.8273H46.8382L43.9968 25.7819C43.9968 22.2399 44.3776 19.3552 45.1393 17.1219C45.901 14.8906 47.0156 13.2671 48.4832 12.2534C49.9508 11.2397 51.7433 10.7309 53.8609 10.7309C56.4252 10.7309 58.7003 11.3862 60.6863 12.6949C62.6742 14.0056 64.2256 15.8033 65.3402 18.0901C66.4548 20.3768 67.0111 22.9408 67.0111 25.7819C67.0111 28.623 66.4548 31.1869 65.3402 33.4737C64.2256 35.7604 62.6742 37.5582 60.6863 38.8688C58.6983 40.1775 56.4232 40.8329 53.8609 40.8329C51.7433 40.8329 49.9508 40.3161 48.4832 39.2826C47.0156 38.2491 45.901 36.6276 45.1393 34.4141C44.3776 32.2006 43.9968 29.3239 43.9968 25.7819L46.8382 36.7365V36.7385ZM53.4123 30.2109C54.1919 29.7674 54.7961 29.1595 55.2228 28.3854C55.6495 27.6113 55.8629 26.7441 55.8629 25.7858C55.8629 24.8276 55.6495 23.905 55.2228 23.1308C54.7961 22.3567 54.1919 21.7568 53.4123 21.3331C52.6326 20.9094 51.7593 20.6976 50.7942 20.6976C49.8291 20.6976 48.9637 20.9094 48.2021 21.3331C47.4404 21.7568 46.8362 22.3567 46.3915 23.1308C45.9449 23.905 45.7236 24.79 45.7236 25.7858C45.7236 26.7817 45.9469 27.6113 46.3915 28.3854C46.8382 29.1595 47.4404 29.7693 48.2021 30.2109C48.9637 30.6543 49.8271 30.8741 50.7942 30.8741C51.7613 30.8741 52.6326 30.6524 53.4123 30.2109Z" fill="var(--fill-0, black)"/>
<path id="Vector_9" d="M75.2599 38.8689C72.8831 37.5602 71.0147 35.7526 69.6588 33.446C68.3029 31.1414 67.625 28.5874 67.625 25.7819C67.625 22.9765 68.3029 20.3789 69.6588 18.0901C71.0147 15.8034 72.8811 14.0057 75.2599 12.695C77.6367 11.3863 80.2747 10.731 83.1719 10.731C86.0692 10.731 88.753 11.3863 91.1119 12.695C93.4708 14.0057 95.3291 15.8034 96.685 18.0901C98.0409 20.3769 98.7189 22.9408 98.7189 25.7819C98.7189 28.6231 98.0409 31.1395 96.685 33.446C95.3291 35.7526 93.4708 37.5582 91.1119 38.8689C88.753 40.1776 86.1051 40.8329 83.1719 40.8329C80.2388 40.8329 77.6367 40.1776 75.2599 38.8689ZM85.792 30.2109C86.5716 29.7674 87.1758 29.1596 87.6025 28.3855C88.0292 27.6113 88.2426 26.7442 88.2426 25.7859C88.2426 24.8276 88.0292 23.905 87.6025 23.1309C87.1758 22.3568 86.5716 21.7569 85.792 21.3332C85.0124 20.9095 84.139 20.6976 83.1739 20.6976C82.2089 20.6976 81.3435 20.9095 80.5818 21.3332C79.8201 21.7569 79.2159 22.3568 78.7713 23.1309C78.3246 23.905 78.1033 24.79 78.1033 25.7859C78.1033 26.7818 78.3266 27.6113 78.7713 28.3855C79.2159 29.1596 79.8201 29.7694 80.5818 30.2109C81.3435 30.6544 82.2069 30.8742 83.1739 30.8742C84.141 30.8742 85.0124 30.6524 85.792 30.2109Z" fill="var(--fill-0, black)"/>
<path id="Vector_10" d="M112.097 29.5456C112.894 30.4306 113.981 30.8741 115.357 30.8741C116.286 30.8741 117.084 30.6444 117.754 30.1831C118.421 29.7218 118.934 28.9932 119.287 27.9974C119.64 27.0015 119.815 25.7106 119.815 24.1247L120.93 30.3217V35.7446H118.924L120.93 30.3217C120.93 32.3867 120.485 34.2142 119.592 35.8C118.701 37.3859 117.464 38.6213 115.887 39.5064C114.308 40.3914 112.515 40.8348 110.509 40.8348C108.318 40.8348 106.414 40.3102 104.799 39.2589C103.184 38.2076 101.937 36.7128 101.064 34.7764C100.191 32.8401 99.754 30.5435 99.754 27.8885V11.509H110.898V25.8947C110.898 27.443 111.297 28.6606 112.097 29.5456ZM130.96 40.0587H119.815V11.509H130.96V40.0587Z" fill="var(--fill-0, black)"/>
<path id="Vector_11" d="M132.105 11.509H154.173V19.9195H132.105V11.509ZM142.107 39.3678C140.343 38.3897 139.015 36.9424 138.123 35.0239C137.232 33.1054 136.785 30.7276 136.785 27.8865V4.427H147.93V27.1678C147.93 28.3478 148.181 29.1873 148.681 29.6862C149.182 30.1851 150.027 30.4326 151.216 30.4326C152.145 30.4326 153.128 30.3039 154.169 30.0446V39.8924C152.534 40.5201 150.695 40.8329 148.651 40.8329C146.051 40.8329 143.868 40.3438 142.103 39.3658L142.107 39.3678Z" fill="var(--fill-0, black)"/>
</g>
</g>
<defs>
<clipPath id="clip0_0_4">
<rect width="295.997" height="47.998" fill="white"/>
</clipPath>
</defs>
</svg>
