<svg xmlns="http://www.w3.org/2000/svg" width="242" height="50" viewBox="0 0 242 50" fill="none">
  <path d="M197.802 12.5584C195.335 12.5584 193.674 12.5825 191.202 12.5777C188.397 12.568 188.397 12.9736 188.397 15.7402C188.397 21.23 188.387 26.3142 188.416 31.8039C188.421 32.6633 188.266 33.3731 187.334 33.4841C186.325 33.6049 185.905 32.8372 185.76 32.0115C185.63 31.2776 185.673 30.5051 185.673 29.7519C185.664 24.5615 185.606 19.8587 185.702 14.6732C185.727 13.2633 185.519 12.5873 183.988 12.5535C181.951 12.5101 179.522 12.5535 178.248 12.5825C176.896 12.6115 175.558 12.7032 174.873 13.2536C174.284 13.722 173.791 14.2772 173.781 15.6485C173.743 21.7659 173.53 28.8249 174.197 34.7926C174.969 41.6971 180.556 43.6815 185.543 41.3398C186.871 40.7169 188.232 39.6692 189.261 38.8435C189.295 39.2974 189.285 39.5581 189.295 39.8237C189.367 41.2722 189.657 41.5667 191.038 41.5088C193.602 41.3977 196.175 41.4267 198.744 41.4991C199.825 41.5281 200.096 41.1418 200.096 40.1134C200.057 31.3983 200.047 23.224 200.096 14.509C200.1 13.3068 199.878 12.5584 197.802 12.5584Z" fill="#FF7900"/>
  <path d="M172.1 18.6707C171.849 12.1477 165.631 10.5109 160.788 12.476C159.431 13.0265 158.045 14.1997 157.147 15.4116C157.157 14.9433 157.162 14.4605 157.171 14.0597C157.2 12.505 156.428 12.365 155.042 12.3022C152.556 12.1863 150.252 12.1863 147.582 12.3119C146.501 12.3602 146.231 12.6692 146.231 13.6976C146.269 22.4127 146.279 31.1277 146.231 39.8428C146.226 41.045 146.655 41.2768 147.718 41.2526C150.185 41.1898 152.652 41.2285 155.119 41.2333C156.99 41.2397 157.925 40.3208 157.925 38.4764C157.925 32.9866 157.934 27.4968 157.905 22.0022C157.9 21.1428 158.055 20.4331 158.987 20.322C159.996 20.2013 160.416 20.969 160.561 21.7946C160.691 22.5285 160.648 23.3011 160.648 24.0543C160.657 29.2447 160.715 34.4303 160.619 39.6207C160.595 41.0305 161.073 41.2333 162.333 41.2381C164.452 41.2478 166.968 41.2381 168.88 41.2381C170.792 41.2381 171.98 41.4457 172.062 40.118C172.245 37.1727 172.221 33.8219 172.221 32.4507C172.221 29.6985 172.347 25.2324 172.091 18.6611L172.1 18.6707Z" fill="#FF7900"/>
  <path d="M142.261 25.9225C140.6 24.7879 138.905 24.2278 136.718 23.576C135.346 23.1704 133.565 22.8276 132.522 22.5475C131.691 22.3206 130.388 22.0985 130.059 21.1522C129.876 20.6259 130.088 20.0658 130.315 19.8195C130.557 19.5588 130.895 19.356 131.32 19.2257C131.778 19.0857 132.237 19.0663 132.787 19.0808C133.545 19.1001 134.279 19.4285 134.738 19.8099C135.39 20.3555 135.588 20.7466 135.82 21.437C136.022 22.0454 136.462 22.3882 137.741 22.3882H143.854C144.665 22.3882 144.979 22.3303 145.259 22.0309C145.549 21.7219 145.534 21.2004 145.495 20.79C145.351 19.1726 144.82 17.8448 143.844 16.4929C143.033 15.3679 141.556 13.958 139.9 13.0889C137.934 12.0605 135.53 11.1914 132.541 11.1914C129.553 11.1914 127.496 11.6453 125.714 12.3405C123.725 13.1179 122.136 14.3105 121.069 15.8072C120.147 17.1061 119.297 18.907 119.297 21.2246C119.278 23.6436 120.021 25.3335 121.513 26.8785C122.996 28.4091 125.535 29.4809 128.123 30.0072C129.35 30.2583 131.416 30.6639 132.512 30.8811C133.565 31.0888 134.275 31.2916 134.801 31.6488C135.086 31.842 135.284 32.1703 135.284 32.6483C135.284 32.9911 135.105 33.4257 134.883 33.6622C134.642 33.9181 134.424 34.0678 133.961 34.2271C133.681 34.3237 133.372 34.372 132.754 34.372C131.687 34.372 130.962 34.1354 130.296 33.6574C129.794 33.3001 129.62 32.9863 129.316 32.4648C129.017 31.9579 128.553 31.5475 127.945 31.5475H120.263C119.828 31.5475 119.418 31.7309 119.138 32.0496C118.848 32.3827 118.727 32.8125 118.819 33.2374C119.148 34.8162 119.785 36.2405 120.726 37.4718C121.909 39.0265 123.556 40.248 125.622 41.1026C127.674 41.9524 130.127 42.387 132.923 42.387C135.718 42.387 137.398 42.0779 139.417 41.2185C141.768 40.2191 142.705 39.2486 143.386 38.4616C144.805 36.8103 145.655 34.5072 145.655 32.4165C145.655 30.1424 144.506 27.4579 142.256 25.9225H142.261Z" fill="#FF7900"/>
  <path d="M223.359 34.0921C222.538 33.8265 221.688 33.6479 220.834 33.4644C219.269 33.1361 217.686 33.1409 216.15 33.1457C215.344 33.1457 214.509 33.1505 213.698 33.1023C212.722 33.0491 212.408 32.827 212.404 32.1897C212.399 31.5427 212.708 31.3206 213.678 31.282L214.32 31.2579C215.653 31.2047 217.029 31.1516 218.386 30.9392C222.929 30.2343 226.357 26.9897 226.913 22.8663C227.574 17.9463 225.416 14.0788 221.012 12.2151C220.578 12.0316 220.399 11.8916 220.346 11.6116C220.259 11.1577 220.481 10.7811 220.617 10.4576C220.974 9.603 221.558 8.31868 221.877 7.60892C222.316 6.62878 222.34 5.82245 221.988 5.22858C221.722 4.77954 221.23 4.59607 220.264 4.47053C219.757 4.40294 219.313 4.36914 217.951 4.36914C216.879 4.36914 215.436 4.39811 214.47 4.46088C213.794 4.50433 213.36 4.58159 213.123 4.81334C212.659 5.27203 212.529 5.9335 212.597 6.78328C212.635 7.2806 212.635 7.62823 212.655 7.93724C212.693 8.51664 212.727 8.77736 212.602 9.5354C212.437 10.5397 210.912 11.3364 209.936 11.5585C206.919 12.2441 204.756 13.5139 203.326 15.4404C201.328 18.1394 200.864 20.8819 201.902 23.832C202.264 24.8652 202.771 25.7729 203.442 26.6034C203.809 27.0572 203.959 27.6415 203.858 28.2064C203.766 28.7133 203.462 29.1044 203.046 29.3845C201.984 30.0991 201.617 30.5578 201.463 31.7697C201.245 33.5127 202.172 34.1597 202.897 34.6425C203.259 34.8839 203.577 35.0963 203.669 35.3764C203.848 35.9171 203.645 36.4965 203.38 36.8007C201.622 38.8527 200.975 41.2814 201.612 43.4734C202.255 45.6896 204.379 47.394 206.793 48.2389C209.091 49.0453 212.07 49.2867 214.219 49.2867C215.87 49.2867 217.637 49.1998 219.525 48.9004C221.901 48.5238 224.373 47.3843 225.72 45.9986C227.323 44.3473 228.419 41.2862 227.772 38.6934C227.217 36.4627 225.652 34.826 223.364 34.0872L223.359 34.0921ZM213.702 18.6078C213.852 17.9849 214.209 17.9656 214.34 17.9608C214.359 17.9608 214.378 17.9608 214.398 17.9608C214.663 17.9608 214.948 18.0573 215.122 18.6174C215.383 19.4624 215.387 20.3652 215.368 20.9736V20.9881C215.378 22.031 215.359 22.8953 215.093 23.7209C214.914 24.2568 214.649 24.3341 214.412 24.3341C213.953 24.3051 213.794 24.0251 213.731 23.7644C213.311 22.0358 213.302 20.3025 213.707 18.6029L213.702 18.6078ZM215.682 42.2663C215.112 42.305 214.369 42.3146 213.799 42.276C212.529 42.1939 212.167 41.4504 212.167 40.9724C212.167 40.3688 212.65 39.746 213.693 39.6784C214.258 39.6446 214.852 39.6398 215.412 39.6687C216.686 39.7411 217.193 40.2385 217.198 40.8999C217.208 41.6966 216.59 42.2036 215.682 42.2615V42.2663Z" fill="#FF7900"/>
  <path d="M110.787 30.7275C108.904 30.6213 107.02 31.2297 105.712 32.9437C104.915 33.9866 104.722 35.1068 104.684 36.4249C104.684 39.9688 107.861 41.3304 109.942 41.4704C110.835 41.5284 110.999 41.4704 111.453 41.4318C111.453 41.4318 110.593 42.0981 109.864 42.6051C109.594 42.7934 109.338 43.1024 109.608 43.5563C109.782 43.846 110.164 44.406 110.347 44.6861C110.535 44.9758 111.018 45.0096 111.438 44.633C112.573 43.5997 113.234 42.9044 114.079 41.9291C115.031 40.8379 115.789 39.7854 116.218 37.8154C116.518 36.449 116.537 34.5756 115.175 32.8423C114.036 31.389 112.365 30.8192 110.787 30.7323V30.7275Z" fill="#03170D"/>
  <path d="M240.508 32.6925C239.334 31.3648 237.866 30.7178 235.795 30.7178C232.478 30.7178 229.934 32.9484 229.934 35.8647C229.934 38.781 232.116 41.4993 235.433 41.4993C238.75 41.4993 241.101 39.9398 241.565 37.0621C241.787 35.6861 241.425 33.7355 240.508 32.6974V32.6925Z" fill="#FF7900"/>
  <path d="M0 2.95996H10.9988V41.2434H0V2.95996ZM10.8926 2.95996H25.4885V13.3263H10.8926V2.95996ZM10.8926 18.2946H23.7938V27.8111H10.8926V18.2946Z" fill="#03170D"/>
  <path d="M29.907 10.8685C28.9896 10.3567 28.2654 9.6614 27.7391 8.77782C27.208 7.89425 26.9473 6.90928 26.9473 5.81808C26.9473 4.72689 27.2128 3.72744 27.7391 2.82937C28.2654 1.93131 28.9896 1.23604 29.907 0.738728C30.8244 0.246243 31.8287 0 32.9199 0C34.011 0 35.0684 0.246243 35.9858 0.738728C36.9032 1.23121 37.6178 1.92649 38.1296 2.82937C38.6414 3.72744 38.8973 4.72206 38.8973 5.81808C38.8973 6.9141 38.6414 7.89907 38.1296 8.77782C37.6178 9.6614 36.9032 10.3567 35.9858 10.8685C35.0684 11.3803 34.0448 11.6362 32.9199 11.6362C31.7949 11.6362 30.8195 11.3803 29.907 10.8685ZM27.6329 13.9586H38.2068V41.2432H27.6329V13.9586Z" fill="#03170D"/>
  <path d="M40.6738 13.9585H51.2478V41.2431H40.6738V13.9585ZM58.5723 24.0061C57.8142 23.1612 56.781 22.7363 55.4773 22.7363C54.5938 22.7363 53.8357 22.9584 53.2032 23.3977C52.5707 23.8371 52.0831 24.5324 51.7499 25.4884C51.4168 26.4396 51.2478 27.6756 51.2478 29.1917L50.1904 23.2674V18.0866H52.0927L50.1904 23.2674C50.1904 21.2926 50.6153 19.5496 51.4602 18.0335C52.3052 16.5174 53.4784 15.3345 54.9752 14.4896C56.472 13.6446 58.1764 13.2197 60.0787 13.2197C62.1597 13.2197 63.9655 13.7219 65.5009 14.7262C67.0363 15.7304 68.2144 17.1596 69.0448 19.0088C69.8753 20.8581 70.2857 23.0549 70.2857 25.5946V41.2479H59.7118V27.497C59.7118 26.0147 59.3303 24.8511 58.5771 24.0061H58.5723Z" fill="#03170D"/>
  <path d="M93.1038 27.6035C93.1038 30.9881 92.7417 33.7354 92.0175 35.8551C91.2932 37.9699 90.2358 39.5197 88.8453 40.5095C87.4548 41.4945 85.7504 41.9918 83.7418 41.9918C81.3083 41.9918 79.1501 41.3641 77.2622 40.1136C75.3744 38.8631 73.9066 37.1442 72.8444 34.957C71.787 32.7698 71.2559 30.3218 71.2559 27.6084C71.2559 24.8949 71.787 22.4421 72.8444 20.2597C73.9018 18.0725 75.3744 16.3536 77.2622 15.1031C79.1501 13.8526 81.3083 13.2249 83.7418 13.2249C85.7504 13.2249 87.4499 13.7077 88.8453 14.6782C90.2358 15.6487 91.2932 17.1986 92.0175 19.3327C92.7417 21.4668 93.1038 24.2237 93.1038 27.6084L90.4048 17.1358H93.7364V38.0761H90.4048L93.1038 27.6035ZM86.6533 32.4704C87.5706 32.4704 88.3914 32.258 89.1109 31.8379C89.8351 31.413 90.4048 30.8336 90.8297 30.0949C91.2546 29.3562 91.4622 28.5257 91.4622 27.6084C91.4622 26.691 91.2498 25.8122 90.8297 25.0687C90.4097 24.3251 89.8351 23.7554 89.1109 23.3498C88.3866 22.9442 87.5706 22.7414 86.6533 22.7414C85.7359 22.7414 84.9103 22.9442 84.1667 23.3498C83.4231 23.7554 82.8534 24.3299 82.4478 25.0687C82.0422 25.8074 81.8395 26.6572 81.8395 27.6084C81.8395 28.5595 82.0422 29.3514 82.4478 30.0949C82.8534 30.8336 83.428 31.4179 84.1667 31.8379C84.9054 32.258 85.7359 32.4704 86.6533 32.4704ZM101.833 41.2483H91.2594V35.7488L92.4762 27.6035L91.2594 20.3611V2.95996H101.833V41.2434V41.2483Z" fill="#03170D"/>
</svg>
