<svg preserveAspectRatio="none" width="100%" height="100%" overflow="visible" style="display: block;" viewBox="0 0 75 55" fill="none" xmlns="http://www.w3.org/2000/svg">
<g id="symbol_pink" clip-path="url(#clip0_0_4)">
<path id="Vector" d="M75 18.325L56.275 0L37.5 18.325V55H75V18.325Z" fill="var(--fill-0, #EE8BAC)"/>
<path id="Vector_2" d="M37.5 18.325L18.775 0L0 18.325L0.0249958 55H37.5V18.325Z" fill="var(--fill-0, #EFDBB8)"/>
<path id="Vector_3" d="M21.7485 32.125C20.6485 31.825 18.6484 31.25 18.6484 31.25C17.8984 31.1 17.3484 30.875 17.0484 30.6C16.7734 30.35 16.6484 30.075 16.6734 29.75C16.6734 29.475 16.7734 29.25 16.9484 29.05C17.1484 28.825 17.3984 28.675 17.7484 28.55C18.1234 28.425 18.5235 28.375 18.9735 28.375C19.7485 28.375 20.7235 28.725 21.2485 29.125C21.6235 29.4 21.8485 29.75 21.9735 30.175C22.1235 30.675 22.5734 31.025 23.0984 31.025H28.4734C28.7984 31.025 29.1234 30.875 29.3484 30.625C29.5734 30.375 29.6735 30.025 29.6485 29.675C29.5235 28.525 28.6985 26.775 28.0735 26.075C27.0485 24.9 25.6735 23.775 24.2985 23.175C22.6235 22.45 21.0484 22.025 19.2734 22.025C16.8234 22.025 14.7984 22.525 13.3734 23.1C11.7734 23.75 10.4985 24.75 9.64845 26C8.92345 27.075 8.22345 28.575 8.22345 30.525C8.22345 32.55 8.79845 33.95 9.99845 35.25C11.1734 36.525 12.9734 37.4 15.2984 37.85L19.2234 38.625C20.0734 38.8 20.6985 39.025 21.0735 39.3C21.4235 39.525 21.5735 39.825 21.5735 40.225C21.5735 40.5 21.4985 40.75 21.2985 40.95C21.0985 41.175 20.8234 41.325 20.4734 41.45C20.0984 41.575 19.6734 41.625 19.1734 41.625C18.3234 41.625 17.6234 41.425 17.0734 41.025C16.6734 40.725 16.3984 40.35 16.2234 39.9C16.0484 39.45 15.6234 39.125 15.1234 39.125H8.97345C8.62345 39.125 8.29845 39.275 8.07345 39.55C7.84845 39.825 7.74845 40.2 7.82345 40.55C8.07345 41.875 8.59844 43.05 9.34844 44.075C10.2984 45.375 11.6235 46.4 13.2735 47.1C14.9235 47.8 16.8735 48.175 19.1235 48.175C21.3735 48.175 22.6984 47.925 24.3234 47.2C26.1984 46.375 26.9735 45.7 27.4985 45.05C28.6485 43.675 29.5485 41.6 29.5485 39.85C29.5485 37.95 28.7734 35.45 26.9984 34.175C25.6734 33.225 23.4984 32.6 21.7234 32.125H21.7485Z" fill="var(--fill-0, #0B0B0E)"/>
<path id="Vector_4" d="M64.7512 26.2249C62.6762 23.6249 59.6262 22.625 56.7262 22.45C53.3012 22.25 49.8512 23.3499 47.4512 26.3999C46.0012 28.2499 45.6512 30.25 45.5762 32.625C45.5762 38.95 51.3762 41.3999 55.1762 41.6499C56.8012 41.7499 57.1012 41.6499 57.9262 41.5749C57.9262 41.5749 56.3512 42.7749 55.0262 43.6749C54.5262 43.9999 54.0512 44.5749 54.5512 45.3749C54.8762 45.8999 55.5512 46.9 55.9012 47.4C56.2512 47.925 57.1262 47.975 57.9012 47.3C59.9762 45.45 61.1762 44.225 62.7262 42.475C64.4512 40.525 65.8512 38.65 66.6262 35.125C67.1762 32.7 67.2012 29.3499 64.7262 26.2499L64.7512 26.2249Z" fill="var(--fill-0, #0B0B0E)"/>
</g>
<defs>
<clipPath id="clip0_0_4">
<rect width="75" height="55" fill="white"/>
</clipPath>
</defs>
</svg>
