<svg preserveAspectRatio="none" width="100%" height="100%" overflow="visible" style="display: block;" viewBox="0 0 75 55" fill="none" xmlns="http://www.w3.org/2000/svg">
<g id="symbol_brown" clip-path="url(#clip0_0_4)">
<path id="Vector" d="M75 18.325L56.275 0L37.5 18.325V55H75V18.325Z" fill="var(--fill-0, #763225)"/>
<path id="Vector_2" d="M37.5 18.325L18.775 0L0 18.325L0.0249958 55H37.5V18.325Z" fill="var(--fill-0, #EFDBB8)"/>
<path id="Vector_3" d="M21.7485 32.1249C20.6485 31.8249 18.6484 31.2499 18.6484 31.2499C17.8984 31.0999 17.3484 30.8749 17.0484 30.5999C16.7734 30.3499 16.6484 30.0749 16.6734 29.7499C16.6734 29.4749 16.7734 29.2499 16.9484 29.0499C17.1484 28.8249 17.3984 28.6749 17.7484 28.5499C18.1234 28.4249 18.5235 28.3749 18.9735 28.3749C19.7485 28.3749 20.7235 28.7249 21.2485 29.1249C21.6235 29.3999 21.8485 29.7499 21.9735 30.1749C22.1235 30.6749 22.5734 31.0249 23.0984 31.0249H28.4734C28.7984 31.0249 29.1234 30.8749 29.3484 30.6249C29.5734 30.3749 29.6735 30.0249 29.6485 29.6749C29.5235 28.5249 28.6985 26.7749 28.0735 26.0749C27.0485 24.8999 25.6735 23.7749 24.2985 23.1749C22.6235 22.4499 21.0484 22.0249 19.2734 22.0249C16.8234 22.0249 14.7984 22.5249 13.3734 23.0999C11.7734 23.7499 10.4985 24.7499 9.64845 25.9999C8.92345 27.0749 8.22345 28.5749 8.22345 30.5249C8.22345 32.5499 8.79845 33.9499 9.99845 35.2499C11.1734 36.5249 12.9734 37.3999 15.2984 37.8499L19.2234 38.6249C20.0734 38.7999 20.6985 39.0249 21.0735 39.2999C21.4235 39.5249 21.5735 39.8249 21.5735 40.2249C21.5735 40.4999 21.4985 40.7499 21.2985 40.9499C21.0985 41.1749 20.8234 41.3249 20.4734 41.4499C20.0984 41.5749 19.6734 41.6249 19.1734 41.6249C18.3234 41.6249 17.6234 41.4249 17.0734 41.0249C16.6734 40.7249 16.3984 40.3499 16.2234 39.8999C16.0484 39.4499 15.6234 39.1249 15.1234 39.1249H8.97345C8.62345 39.1249 8.29845 39.2749 8.07345 39.5499C7.84845 39.8249 7.74845 40.1999 7.82345 40.5499C8.07345 41.8749 8.59844 43.0499 9.34844 44.0749C10.2984 45.3749 11.6235 46.3999 13.2735 47.0999C14.9235 47.7999 16.8735 48.1749 19.1235 48.1749C21.3735 48.1749 22.6984 47.9249 24.3234 47.1999C26.1984 46.3749 26.9735 45.6999 27.4985 45.0499C28.6485 43.6749 29.5485 41.5999 29.5485 39.8499C29.5485 37.9499 28.7734 35.4499 26.9984 34.1749C25.6734 33.2249 23.4984 32.5999 21.7234 32.1249H21.7485Z" fill="var(--fill-0, #0B0B0E)"/>
<path id="Vector_4" d="M64.7512 26.2249C62.6762 23.6249 59.6262 22.625 56.7262 22.45C53.3012 22.25 49.8512 23.3499 47.4512 26.3999C46.0012 28.2499 45.6512 30.25 45.5762 32.625C45.5762 38.95 51.3762 41.3999 55.1762 41.6499C56.8012 41.7499 57.1012 41.6499 57.9262 41.5749C57.9262 41.5749 56.3512 42.7749 55.0262 43.6749C54.5262 43.9999 54.0512 44.5749 54.5512 45.3749C54.8762 45.8999 55.5512 46.9 55.9012 47.4C56.2512 47.925 57.1262 47.975 57.9012 47.3C59.9762 45.45 61.1762 44.225 62.7262 42.475C64.4512 40.525 65.8512 38.65 66.6262 35.125C67.1762 32.7 67.2012 29.3499 64.7262 26.2499L64.7512 26.2249Z" fill="var(--fill-0, #0B0B0E)"/>
</g>
<defs>
<clipPath id="clip0_0_4">
<rect width="75" height="55" fill="white"/>
</clipPath>
</defs>
</svg>
