<svg preserveAspectRatio="none" width="100%" height="100%" overflow="visible" style="display: block;" viewBox="0 0 38.5 55" fill="none" xmlns="http://www.w3.org/2000/svg">
<g id="Group 630372">
<path id="Vector" d="M38.5 18.325L19.2757 0L0 18.325L0.0256624 55H38.5V18.325Z" fill="var(--fill-0, #EFDBB8)"/>
<path id="Vector_2" d="M22.3284 32.1254C21.1991 31.8254 19.1457 31.2504 19.1457 31.2504C18.3757 31.1004 17.8111 30.8754 17.5031 30.6004C17.2207 30.3504 17.0924 30.0754 17.1181 29.7504C17.1181 29.4754 17.2207 29.2504 17.4004 29.0504C17.6057 28.8254 17.8624 28.6754 18.2217 28.5504C18.6067 28.4254 19.0174 28.3754 19.4794 28.3754C20.2751 28.3754 21.2761 28.7254 21.8151 29.1254C22.2001 29.4004 22.4311 29.7504 22.5594 30.1754C22.7134 30.6754 23.1754 31.0254 23.7144 31.0254H29.2327C29.5664 31.0254 29.9001 30.8754 30.1311 30.6254C30.3621 30.3754 30.4647 30.0254 30.4391 29.6754C30.3107 28.5254 29.4637 26.7754 28.8221 26.0754C27.7697 24.9004 26.3581 23.7754 24.9464 23.1754C23.2267 22.4504 21.6097 22.0254 19.7874 22.0254C17.2721 22.0254 15.1931 22.5254 13.7301 23.1004C12.0874 23.7504 10.7784 24.7504 9.90574 26.0004C9.16141 27.0754 8.44274 28.5754 8.44274 30.5254C8.44274 32.5504 9.03307 33.9504 10.2651 35.2504C11.4714 36.5254 13.3194 37.4004 15.7064 37.8504L19.7361 38.6254C20.6087 38.8004 21.2504 39.0254 21.6354 39.3004C21.9947 39.5254 22.1487 39.8254 22.1487 40.2254C22.1487 40.5004 22.0717 40.7504 21.8664 40.9504C21.6611 41.1754 21.3787 41.3254 21.0194 41.4504C20.6344 41.5754 20.1981 41.6254 19.6847 41.6254C18.8121 41.6254 18.0934 41.4254 17.5287 41.0254C17.1181 40.7254 16.8357 40.3504 16.6561 39.9004C16.4764 39.4504 16.0401 39.1254 15.5267 39.1254H9.21274C8.85341 39.1254 8.51974 39.2754 8.28874 39.5504C8.05774 39.8254 7.95508 40.2004 8.03208 40.5504C8.28874 41.8754 8.82774 43.0504 9.59774 44.0754C10.5731 45.3754 11.9334 46.4004 13.6274 47.1004C15.3214 47.8004 17.3234 48.1754 19.6334 48.1754C21.9434 48.1754 23.3037 47.9254 24.9721 47.2004C26.8971 46.3754 27.6927 45.7004 28.2317 45.0504C29.4124 43.6754 30.3364 41.6004 30.3364 39.8504C30.3364 37.9504 29.5407 35.4504 27.7184 34.1754C26.3581 33.2254 24.1251 32.6004 22.3027 32.1254H22.3284Z" fill="var(--fill-0, #0B0B0E)"/>
</g>
</svg>
