<svg preserveAspectRatio="none" width="100%" height="100%" overflow="visible" style="display: block;" viewBox="0 0 37.5 55" fill="none" xmlns="http://www.w3.org/2000/svg">
<g id="Group 630371">
<path id="Vector" d="M37.5 18.325L18.775 0L0 18.325V55H37.5V18.325Z" fill="var(--fill-0, #FF7900)"/>
<path id="Vector_2" d="M27.2512 26.2245C25.1762 23.6245 22.1262 22.6245 19.2262 22.4495C15.8012 22.2495 12.3512 23.3495 9.95117 26.3995C8.50117 28.2495 8.15117 30.2495 8.07617 32.6245C8.07617 38.9495 13.8762 41.3995 17.6762 41.6495C19.3012 41.7495 19.6012 41.6495 20.4262 41.5745C20.4262 41.5745 18.8512 42.7745 17.5262 43.6745C17.0262 43.9995 16.5512 44.5745 17.0512 45.3745C17.3762 45.8995 18.0512 46.8995 18.4012 47.3995C18.7512 47.9245 19.6262 47.9745 20.4012 47.2995C22.4762 45.4495 23.6762 44.2245 25.2262 42.4745C26.9512 40.5245 28.3512 38.6495 29.1262 35.1245C29.6762 32.6995 29.7012 29.3495 27.2262 26.2495L27.2512 26.2245Z" fill="var(--fill-0, #0B0B0E)"/>
</g>
</svg>
